<?xml version="1.0" encoding="UTF-8" standalone="no"?>
<svg
   width="238.47mm"
   height="240.61mm"
   version="1.1"
   viewBox="0 0 238.47 240.61"
   id="svg55"
   sodipodi:docname="NT_5_symbol.svg"
   xml:space="preserve"
   inkscape:version="1.3.2 (091e20e, 2023-11-25, custom)"
   xmlns:inkscape="http://www.inkscape.org/namespaces/inkscape"
   xmlns:sodipodi="http://sodipodi.sourceforge.net/DTD/sodipodi-0.dtd"
   xmlns="http://www.w3.org/2000/svg"
   xmlns:svg="http://www.w3.org/2000/svg"><sodipodi:namedview
     id="namedview55"
     pagecolor="#ffffff"
     bordercolor="#000000"
     borderopacity="0.25"
     inkscape:showpageshadow="2"
     inkscape:pageopacity="0.0"
     inkscape:pagecheckerboard="0"
     inkscape:deskcolor="#d1d1d1"
     inkscape:document-units="mm"
     inkscape:zoom="0.5597099"
     inkscape:cx="450.23323"
     inkscape:cy="454.69983"
     inkscape:window-width="1366"
     inkscape:window-height="705"
     inkscape:window-x="-8"
     inkscape:window-y="-8"
     inkscape:window-maximized="1"
     inkscape:current-layer="svg55" /><defs
     id="defs3"><style
       type="text/css"
       id="style1"><![CDATA[
    .fil1 {fill:#373435}
    .fil0 {fill:#FEFEFE}
   ]]></style><style
       type="text/css"
       id="style2"><![CDATA[
    .fil1 {fill:#373435}
    .fil0 {fill:#FEFEFE}
   ]]></style><style
       type="text/css"
       id="style3"><![CDATA[
    .fil1 {fill:#373435}
    .fil0 {fill:#FEFEFE}
   ]]></style></defs><g
     transform="translate(-2417.5 427.94)"
     id="g55"><rect
       x="2435.3"
       y="-410.08"
       width="202.76"
       height="204.9"
       fill="#fff"
       stroke="#5794cb"
       stroke-linecap="round"
       stroke-width="35.712"
       style="paint-order:markers fill stroke;stroke:#6798cf;stroke-opacity:1"
       id="rect3" /><g
       transform="matrix(.065208 0 0 .065208 2475.1 -360.93)"
       id="g54"><path
         d="m1467 668c-14.148 0-28.724 0.78236-43.772 2.2871l-52.228 5.2227v550.49h98c91.867 0 173.38 11.416 244.94 33.436l75.057 23.094v-542.48l-34.775-15.195c-87.254-38.128-183.62-56.854-287.22-56.854z"
         color="#000000"
         fill="#ffc300"
         id="path8"
         style="fill:#ffcf00;fill-opacity:1" /><path
         d="m1465 117c-14.148 0-28.296 0.78787-42.404 2.3555l-51.596 5.7324v543.38l98.418-2.4609c82.417 0.0438 163.34 13.003 243.63 39.143l75.955 24.73v-534.58l-31.875-16.082c-83.693-42.223-181.81-62.217-292.12-62.217z"
         color="#000000"
         fill="#91c300"
         stop-color="#000000"
         stroke-width="1.9265"
         style="-inkscape-stroke:none;font-variation-settings:normal;fill:#67cf30;fill-opacity:1"
         id="path9" /><g
         fill="#00b4f1"
         stroke-width="9.2581"
         id="g20"
         style="fill:#0098ff;fill-opacity:1"><path
           d="m1371 672.12-65.344 8.3418c-94.314 12.04-193.75 43.088-298.66 91.559v547.35l21.34-8.4434c87.961-34.805 185.51-60.087 292.91-75.521l49.75-7.1504z"
           stop-color="#000000"
           style="-inkscape-stroke:none;font-variation-settings:normal;fill:#0098ff;fill-opacity:1"
           id="path10" /><path
           d="m779 1152v119l-142 57v-119z"
           stop-color="#000000"
           style="-inkscape-stroke:none;font-variation-settings:normal;fill:#0098ff;fill-opacity:1"
           id="path11" /><path
           d="m779 964v120l-142 55v-118z"
           stop-color="#000000"
           style="-inkscape-stroke:none;font-variation-settings:normal;fill:#0098ff;fill-opacity:1"
           id="path12" /><path
           d="m582 1160v99l-125 50v-98z"
           stop-color="#000000"
           style="-inkscape-stroke:none;font-variation-settings:normal;fill:#0098ff;fill-opacity:1"
           id="path13" /><path
           d="m582 973v99l-125 50v-99z"
           stop-color="#000000"
           style="-inkscape-stroke:none;font-variation-settings:normal;fill:#0098ff;fill-opacity:1"
           id="path14" /><path
           d="m396 1164v74l-100 40v-72z"
           stop-color="#000000"
           style="-inkscape-stroke:none;font-variation-settings:normal;fill:#0098ff;fill-opacity:1"
           id="path15" /><path
           d="m396 977v72l-100 41v-72z"
           stop-color="#000000"
           style="-inkscape-stroke:none;font-variation-settings:normal;fill:#0098ff;fill-opacity:1"
           id="path16" /><path
           d="m225 1128v62l-74 30v-63z"
           stop-color="#000000"
           style="-inkscape-stroke:none;font-variation-settings:normal;fill:#0098ff;fill-opacity:1"
           id="path17" /><path
           d="m225 933v62l-74 30v-64z"
           stop-color="#000000"
           style="-inkscape-stroke:none;font-variation-settings:normal;fill:#0098ff;fill-opacity:1"
           id="path18" /><path
           d="m51 1086v52l-55 25v-51z"
           stop-color="#000000"
           style="-inkscape-stroke:none;font-variation-settings:normal;fill:#0098ff;fill-opacity:1"
           id="path19" /><path
           d="m51 892v51l-55 25v-52z"
           stop-color="#000000"
           style="-inkscape-stroke:none;font-variation-settings:normal;fill:#0098ff;fill-opacity:1"
           id="path20" /></g><g
         fill="#f8682c"
         stroke-width="9.2581"
         id="g31"
         style="fill:#ff3000;fill-opacity:1"><path
           d="m1371 119.91-68.852 13.113c-95.5 18.19-193.89 48.168-295.15 89.34v548.52l24.305-11.217c90.148-41.607 186.64-70.041 290.14-85.281l49.551-7.2949z"
           stop-color="#000000"
           style="-inkscape-stroke:none;font-variation-settings:normal;fill:#ff3000;fill-opacity:1"
           id="path21" /><path
           d="m779 570v119l-142 56v-118z"
           stop-color="#000000"
           style="-inkscape-stroke:none;font-variation-settings:normal;fill:#ff3000;fill-opacity:1"
           id="path22" /><path
           d="m779 386v118l-142 57v-119z"
           stop-color="#000000"
           style="-inkscape-stroke:none;font-variation-settings:normal;fill:#ff3000;fill-opacity:1"
           id="path23" /><path
           d="m582 586v98l-125 51v-99z"
           stop-color="#000000"
           style="-inkscape-stroke:none;font-variation-settings:normal;fill:#ff3000;fill-opacity:1"
           id="path24" /><path
           d="m582 393v99l-125 51v-99z"
           stop-color="#000000"
           style="-inkscape-stroke:none;font-variation-settings:normal;fill:#ff3000;fill-opacity:1"
           id="path25" /><path
           d="m396 591v72l-100 40v-72z"
           stop-color="#000000"
           style="-inkscape-stroke:none;font-variation-settings:normal;fill:#ff3000;fill-opacity:1"
           id="path26" /><path
           d="m396 398v73l-100 39v-71z"
           stop-color="#000000"
           style="-inkscape-stroke:none;font-variation-settings:normal;fill:#ff3000;fill-opacity:1"
           id="path27" /><path
           d="m225 547v62l-74 29v-64z"
           stop-color="#000000"
           style="-inkscape-stroke:none;font-variation-settings:normal;fill:#ff3000;fill-opacity:1"
           id="path28" /><path
           d="m225 354v63l-74 29v-63z"
           stop-color="#000000"
           style="-inkscape-stroke:none;font-variation-settings:normal;fill:#ff3000;fill-opacity:1"
           id="path29" /><path
           d="m51 504v52l-55 25v-52z"
           stop-color="#000000"
           style="-inkscape-stroke:none;font-variation-settings:normal;fill:#ff3000;fill-opacity:1"
           id="path30" /><path
           d="m51 312v53l-55 25v-52z"
           stop-color="#000000"
           style="-inkscape-stroke:none;font-variation-settings:normal;fill:#ff3000;fill-opacity:1"
           id="path31" /></g><path
         d="m988 1264v180c-69.333 26.667-128.33 52.333-177 77v-181z"
         id="path32" /><path
         d="m988 1075v168l-177 77v-170z"
         id="path33" /><path
         d="m988 882v172l-177 76v-173z"
         id="path34" /><path
         d="m988 694v167l-177 75v-168z"
         id="path35" /><path
         d="m988 504v169l-177 75v-169z"
         id="path36" /><path
         d="m988 316v167l-177 75v-168z"
         id="path37" /><path
         d="m988 103v193l-177 74v-180c61.333-35.333 120.33-64.333 177-87z"
         id="path38" /><path
         d="m787 1328v141l-166 67v-141z"
         id="path39" /><path
         d="m787 753v141l-166 67v-141z"
         id="path40" /><path
         d="m787 174v141l-166 68v-141z"
         id="path41" /><path
         d="m590 1346v108l-149 60v-107z"
         id="path42" /><path
         d="m590 772v108l-149 59v-108z"
         id="path43" /><path
         d="m590 192v108l-149 60v-107z"
         id="path44" /><path
         d="m402 1351v82l-119 48v-82z"
         id="path45" /><path
         d="m402 776v82l-119 47v-81z"
         id="path46" /><path
         d="m402 197v82l-119 47v-81z"
         id="path47" /><path
         d="m230 1315v68l-92 38v-68z"
         id="path48" /><path
         d="m230 733v68l-92 36v-68z"
         id="path49" /><path
         d="m230 154v69l-92 35v-68z"
         id="path50" /><path
         d="m58 1273v60l-68 28v-57z"
         id="path51" /><path
         d="m58 693v59l-68 28v-57z"
         id="path52" /><path
         d="m58 121v59l-68 28v-58z"
         id="path53" /><path
         d="m1464 0c-149.33 0-301.67 31.667-457 95v190c106-44.667 208-76.333 306-95v427c-108.67 16-210.67 46-306 90v129c110-53.333 212-86 306-98v440c-111.33 16-213.33 42.333-306 79v180c174.67-58.666 332.67-88 474-88 170.67 0 313 37.334 427 112v-1351c-135.33-73.333-283.33-110-444-110zm1 175c103.33 0 192 18.667 266 56v419c-86-28-173.33-42-262-42l-40 1v-432c12-1.3333 24-2 36-2zm2 551c96.667 0 184.67 17.333 264 52v426c-78-24-165.33-36-262-36h-40v-440c13.333-1.3333 26-2 38-2z"
         id="path54" /></g></g><style
     type="text/css"
     id="style55">.st0{fill:#E7E7E7;}</style></svg>
