<?xml version="1.0" encoding="UTF-8" standalone="no"?>
<svg
   width="809.46173"
   height="816.80139"
   version="1.1"
   viewBox="0 0 214.17009 216.11203"
   id="svg58"
   sodipodi:docname="W2000_B3-2.svg"
   xml:space="preserve"
   inkscape:version="1.3.2 (091e20e, 2023-11-25, custom)"
   xmlns:inkscape="http://www.inkscape.org/namespaces/inkscape"
   xmlns:sodipodi="http://sodipodi.sourceforge.net/DTD/sodipodi-0.dtd"
   xmlns="http://www.w3.org/2000/svg"
   xmlns:svg="http://www.w3.org/2000/svg"><defs
     id="defs58" /><sodipodi:namedview
     id="namedview58"
     pagecolor="#ffffff"
     bordercolor="#000000"
     borderopacity="0.25"
     inkscape:showpageshadow="2"
     inkscape:pageopacity="0.0"
     inkscape:pagecheckerboard="0"
     inkscape:deskcolor="#d1d1d1"
     inkscape:document-units="px"
     inkscape:zoom="0.509"
     inkscape:cx="333.98821"
     inkscape:cy="317.2888"
     inkscape:window-width="1366"
     inkscape:window-height="705"
     inkscape:window-x="-8"
     inkscape:window-y="-8"
     inkscape:window-maximized="1"
     inkscape:current-layer="svg58" /><g
     transform="matrix(5.5484476,0,0,5.5484476,1863.8567,-2214.2356)"
     id="g54"><g
       transform="translate(-199.22,55.616)"
       id="g53"><g
         transform="translate(-32.924,-11.893)"
         id="g52"><rect
           x="-102.09"
           y="357.39001"
           width="36.909"
           height="36.909"
           fill="#fda922"
           style="paint-order:markers fill stroke"
           id="rect1" /><path
           d="m -102.09,357.39 v 36.91 h 36.91 l -1.6905,-2.0436 v -34.866 z"
           fill="#f53801"
           style="paint-order:markers fill stroke"
           id="path1" /><rect
           x="-103.78"
           y="355.35001"
           width="36.909"
           height="36.909"
           fill="#ffffff"
           style="paint-order:markers fill stroke"
           id="rect2" /><path
           d="m -103.78,355.35 v 36.909 h 36.91 V 355.35 Z m 2.7828,2.6766 h 31.345 v 31.345 h -31.345 z"
           fill="#d95807"
           style="paint-order:markers fill stroke"
           id="path2" /><g
           transform="matrix(0.013268,0.0038722,-0.0038722,0.013268,-92.705,359.44)"
           id="g49"><path
             d="m 1467,668 c -14.148,0 -28.724,0.78236 -43.772,2.2871 L 1371,675.5098 v 550.49 h 98 c 91.867,0 173.38,11.416 244.94,33.436 l 75.057,23.094 v -542.48 l -34.775,-15.195 c -87.254,-38.128 -183.62,-56.854 -287.22,-56.854 z"
             color="#000000"
             fill="#ffc300"
             id="path3"
             style="fill:#f8af1f;fill-opacity:1" /><path
             d="m 1465,117 c -14.148,0 -28.296,0.78787 -42.404,2.3555 L 1371,125.0879 v 543.38 l 98.418,-2.4609 c 82.417,0.0438 163.34,13.003 243.63,39.143 l 75.955,24.73 V 195.3 l -31.875,-16.082 c -83.693,-42.223 -181.81,-62.217 -292.12,-62.217 z"
             color="#000000"
             fill="#91c300"
             id="path4"
             style="fill:#80b060;fill-opacity:1" /><g
             fill="#00b4f1"
             id="g15"
             style="fill:#386fa7;fill-opacity:1"><path
               d="m 1371,672.12 -65.344,8.3418 c -94.314,12.04 -193.75,43.088 -298.66,91.559 v 547.35 l 21.34,-8.4434 c 87.961,-34.805 185.51,-60.087 292.91,-75.521 l 49.75,-7.1504 z"
               stop-color="#000000"
               style="font-variation-settings:normal;-inkscape-stroke:none;fill:#386fa7;fill-opacity:1"
               id="path5" /><path
               d="m 779,1152 v 119 l -142,57 v -119 z"
               stop-color="#000000"
               style="font-variation-settings:normal;-inkscape-stroke:none;fill:#386fa7;fill-opacity:1"
               id="path6" /><path
               d="m 779,964 v 120 l -142,55 v -118 z"
               stop-color="#000000"
               style="font-variation-settings:normal;-inkscape-stroke:none;fill:#386fa7;fill-opacity:1"
               id="path7" /><path
               d="m 582,1160 v 99 l -125,50 v -98 z"
               stop-color="#000000"
               style="font-variation-settings:normal;-inkscape-stroke:none;fill:#386fa7;fill-opacity:1"
               id="path8" /><path
               d="m 582,973 v 99 l -125,50 v -99 z"
               stop-color="#000000"
               style="font-variation-settings:normal;-inkscape-stroke:none;fill:#386fa7;fill-opacity:1"
               id="path9" /><path
               d="m 396,1164 v 74 l -100,40 v -72 z"
               stop-color="#000000"
               style="font-variation-settings:normal;-inkscape-stroke:none;fill:#386fa7;fill-opacity:1"
               id="path10" /><path
               d="m 396,977 v 72 l -100,41 v -72 z"
               stop-color="#000000"
               style="font-variation-settings:normal;-inkscape-stroke:none;fill:#386fa7;fill-opacity:1"
               id="path11" /><path
               d="m 225,1128 v 62 l -74,30 v -63 z"
               stop-color="#000000"
               style="font-variation-settings:normal;-inkscape-stroke:none;fill:#386fa7;fill-opacity:1"
               id="path12" /><path
               d="m 225,933 v 62 l -74,30 v -64 z"
               stop-color="#000000"
               style="font-variation-settings:normal;-inkscape-stroke:none;fill:#386fa7;fill-opacity:1"
               id="path13" /><path
               d="m 51,1086 v 52 l -55,25 v -51 z"
               stop-color="#000000"
               style="font-variation-settings:normal;-inkscape-stroke:none;fill:#386fa7;fill-opacity:1"
               id="path14" /><path
               d="m 51,892 v 51 l -55,25 v -52 z"
               stop-color="#000000"
               style="font-variation-settings:normal;-inkscape-stroke:none;fill:#386fa7;fill-opacity:1"
               id="path15" /></g><g
             fill="#f8682c"
             id="g26"
             style="fill:#f83800;fill-opacity:1"><path
               d="m 1371,119.91 -68.852,13.113 c -95.5,18.19 -193.89,48.168 -295.15,89.34 v 548.52 l 24.305,-11.217 c 90.148,-41.607 186.64,-70.041 290.14,-85.281 l 49.551,-7.2949 z"
               stop-color="#000000"
               style="font-variation-settings:normal;-inkscape-stroke:none;fill:#f83800;fill-opacity:1"
               id="path16" /><path
               d="M 779,570 V 689 L 637,745 V 627 Z"
               stop-color="#000000"
               style="font-variation-settings:normal;-inkscape-stroke:none;fill:#f83800;fill-opacity:1"
               id="path17" /><path
               d="M 779,386 V 504 L 637,561 V 442 Z"
               stop-color="#000000"
               style="font-variation-settings:normal;-inkscape-stroke:none;fill:#f83800;fill-opacity:1"
               id="path18" /><path
               d="m 582,586 v 98 l -125,51 v -99 z"
               stop-color="#000000"
               style="font-variation-settings:normal;-inkscape-stroke:none;fill:#f83800;fill-opacity:1"
               id="path19" /><path
               d="m 582,393 v 99 l -125,51 v -99 z"
               stop-color="#000000"
               style="font-variation-settings:normal;-inkscape-stroke:none;fill:#f83800;fill-opacity:1"
               id="path20" /><path
               d="m 396,591 v 72 l -100,40 v -72 z"
               stop-color="#000000"
               style="font-variation-settings:normal;-inkscape-stroke:none;fill:#f83800;fill-opacity:1"
               id="path21" /><path
               d="m 396,398 v 73 l -100,39 v -71 z"
               stop-color="#000000"
               style="font-variation-settings:normal;-inkscape-stroke:none;fill:#f83800;fill-opacity:1"
               id="path22" /><path
               d="m 225,547 v 62 l -74,29 v -64 z"
               stop-color="#000000"
               style="font-variation-settings:normal;-inkscape-stroke:none;fill:#f83800;fill-opacity:1"
               id="path23" /><path
               d="m 225,354 v 63 l -74,29 v -63 z"
               stop-color="#000000"
               style="font-variation-settings:normal;-inkscape-stroke:none;fill:#f83800;fill-opacity:1"
               id="path24" /><path
               d="m 51,504 v 52 l -55,25 v -52 z"
               stop-color="#000000"
               style="font-variation-settings:normal;-inkscape-stroke:none;fill:#f83800;fill-opacity:1"
               id="path25" /><path
               d="m 51,312 v 53 l -55,25 v -52 z"
               stop-color="#000000"
               style="font-variation-settings:normal;-inkscape-stroke:none;fill:#f83800;fill-opacity:1"
               id="path26" /></g><path
             d="m 988,1264 v 180 c -69.333,26.667 -128.33,52.333 -177,77 v -181 z"
             id="path27" /><path
             d="m 988,1075 v 168 l -177,77 v -170 z"
             id="path28" /><path
             d="m 988,882 v 172 l -177,76 V 957 Z"
             id="path29" /><path
             d="M 988,694 V 861 L 811,936 V 768 Z"
             id="path30" /><path
             d="M 988,504 V 673 L 811,748 V 579 Z"
             id="path31" /><path
             d="M 988,316 V 483 L 811,558 V 390 Z"
             id="path32" /><path
             d="M 988,103 V 296 L 811,370 V 190 c 61.333,-35.333 120.33,-64.333 177,-87 z"
             id="path33" /><path
             d="m 787,1328 v 141 l -166,67 v -141 z"
             id="path34" /><path
             d="M 787,753 V 894 L 621,961 V 820 Z"
             id="path35" /><path
             d="M 787,174 V 315 L 621,383 V 242 Z"
             id="path36" /><path
             d="m 590,1346 v 108 l -149,60 v -107 z"
             id="path37" /><path
             d="M 590,772 V 880 L 441,939 V 831 Z"
             id="path38" /><path
             d="M 590,192 V 300 L 441,360 V 253 Z"
             id="path39" /><path
             d="m 402,1351 v 82 l -119,48 v -82 z"
             id="path40" /><path
             d="m 402,776 v 82 l -119,47 v -81 z"
             id="path41" /><path
             d="m 402,197 v 82 l -119,47 v -81 z"
             id="path42" /><path
             d="m 230,1315 v 68 l -92,38 v -68 z"
             id="path43" /><path
             d="m 230,733 v 68 l -92,36 v -68 z"
             id="path44" /><path
             d="m 230,154 v 69 l -92,35 v -68 z"
             id="path45" /><path
             d="m 58,1273 v 60 l -68,28 v -57 z"
             id="path46" /><path
             d="m 58,693 v 59 l -68,28 v -57 z"
             id="path47" /><path
             d="m 58,121 v 59 l -68,28 v -58 z"
             id="path48" /><path
             d="m 1464,0 c -149.33,0 -301.67,31.667 -457,95 v 190 c 106,-44.667 208,-76.333 306,-95 v 427 c -108.67,16 -210.67,46 -306,90 v 129 c 110,-53.333 212,-86 306,-98 v 440 c -111.33,16 -213.33,42.333 -306,79 v 180 c 174.67,-58.666 332.67,-88 474,-88 170.67,0 313,37.334 427,112 V 110 C 1772.67,36.667 1624.67,0 1464,0 Z m 1,175 c 103.33,0 192,18.667 266,56 v 419 c -86,-28 -173.33,-42 -262,-42 l -40,1 V 177 c 12,-1.3333 24,-2 36,-2 z m 2,551 c 96.667,0 184.67,17.333 264,52 v 426 c -78,-24 -165.33,-36 -262,-36 h -40 V 728 c 13.333,-1.3333 26,-2 38,-2 z"
             id="path49" /></g><rect
           x="-81.455002"
           y="353.51001"
           width="1.7205"
           height="4.5102"
           fill="#edcfbd"
           style="display:inline;paint-order:markers fill stroke"
           id="rect49" /><rect
           transform="matrix(0,-1,-1,0,0,0)"
           x="-378.73999"
           y="101"
           width="1.7205"
           height="4.5102"
           fill="#edcfbd"
           style="display:inline;paint-order:markers fill stroke"
           id="rect50" /><rect
           transform="matrix(0,-1,-1,0,0,0)"
           x="-377.01999"
           y="101"
           width="23.690001"
           height="4.5102"
           fill="#ffffff"
           style="display:inline;paint-order:markers fill stroke"
           id="rect51" /><rect
           transform="matrix(0,-1,-1,0,0,0)"
           x="-358.01999"
           y="81.455002"
           width="11.406"
           height="28.983999"
           fill="#ffffff"
           style="display:inline;paint-order:markers fill stroke"
           id="rect52" /></g></g></g><style
     type="text/css"
     id="style54">.st0{fill:url(#SVGID_1_);}
	.st1{fill:#7A7EAE;}
	.st2{fill:#663399;}
	.st3{fill:#120F22;}
	.st4{fill:url(#SVGID_2_);}
	.st5{fill:url(#SVGID_3_);}
	.st6{fill:url(#SVGID_4_);}
	.st7{fill:#2D2868;}
	.st8{fill:#453D76;}
	.st9{fill:url(#SVGID_5_);}
	.st10{fill:url(#SVGID_6_);}
	.st11{fill:url(#SVGID_7_);}
	.st12{fill:url(#SVGID_8_);}
	.st13{fill:#484592;}
	.st14{fill:none;}
	.st15{fill:url(#SVGID_9_);}
	.st16{fill:url(#SVGID_10_);}
	.st17{fill:url(#SVGID_11_);}</style><style
     type="text/css"
     id="style55">.st0{fill:url(#SVGID_1_);}
	.st1{fill:#7A7EAE;}
	.st2{fill:#663399;}
	.st3{fill:#120F22;}
	.st4{fill:url(#SVGID_2_);}
	.st5{fill:url(#SVGID_3_);}
	.st6{fill:url(#SVGID_4_);}
	.st7{fill:#2D2868;}
	.st8{fill:#453D76;}
	.st9{fill:url(#SVGID_5_);}
	.st10{fill:url(#SVGID_6_);}
	.st11{fill:url(#SVGID_7_);}
	.st12{fill:url(#SVGID_8_);}
	.st13{fill:#484592;}
	.st14{fill:none;}
	.st15{fill:url(#SVGID_9_);}
	.st16{fill:url(#SVGID_10_);}
	.st17{fill:url(#SVGID_11_);}</style><style
     type="text/css"
     id="style56">.st0{fill:url(#SVGID_1_);}
	.st1{fill:#7A7EAE;}
	.st2{fill:#663399;}
	.st3{fill:#120F22;}
	.st4{fill:url(#SVGID_2_);}
	.st5{fill:url(#SVGID_3_);}
	.st6{fill:url(#SVGID_4_);}
	.st7{fill:#2D2868;}
	.st8{fill:#453D76;}
	.st9{fill:url(#SVGID_5_);}
	.st10{fill:url(#SVGID_6_);}
	.st11{fill:url(#SVGID_7_);}
	.st12{fill:url(#SVGID_8_);}
	.st13{fill:#484592;}
	.st14{fill:none;}
	.st15{fill:url(#SVGID_9_);}
	.st16{fill:url(#SVGID_10_);}
	.st17{fill:url(#SVGID_11_);}</style><style
     type="text/css"
     id="style57">.st0{fill:url(#SVGID_1_);}
	.st1{fill:#7A7EAE;}
	.st2{fill:#663399;}
	.st3{fill:#120F22;}
	.st4{fill:url(#SVGID_2_);}
	.st5{fill:url(#SVGID_3_);}
	.st6{fill:url(#SVGID_4_);}
	.st7{fill:#2D2868;}
	.st8{fill:#453D76;}
	.st9{fill:url(#SVGID_5_);}
	.st10{fill:url(#SVGID_6_);}
	.st11{fill:url(#SVGID_7_);}
	.st12{fill:url(#SVGID_8_);}
	.st13{fill:#484592;}
	.st14{fill:none;}
	.st15{fill:url(#SVGID_9_);}
	.st16{fill:url(#SVGID_10_);}
	.st17{fill:url(#SVGID_11_);}</style><style
     type="text/css"
     id="style58">.st0{fill:url(#SVGID_1_);}
	.st1{fill:#7A7EAE;}
	.st2{fill:#663399;}
	.st3{fill:#120F22;}
	.st4{fill:url(#SVGID_2_);}
	.st5{fill:url(#SVGID_3_);}
	.st6{fill:url(#SVGID_4_);}
	.st7{fill:#2D2868;}
	.st8{fill:#453D76;}
	.st9{fill:url(#SVGID_5_);}
	.st10{fill:url(#SVGID_6_);}
	.st11{fill:url(#SVGID_7_);}
	.st12{fill:url(#SVGID_8_);}
	.st13{fill:#484592;}
	.st14{fill:none;}
	.st15{fill:url(#SVGID_9_);}
	.st16{fill:url(#SVGID_10_);}
	.st17{fill:url(#SVGID_11_);}</style><style
     type="text/css"
     id="style54-4">.st0{fill:url(#SVGID_1_);}
	.st1{fill:#7A7EAE;}
	.st2{fill:#663399;}
	.st3{fill:#120F22;}
	.st4{fill:url(#SVGID_2_);}
	.st5{fill:url(#SVGID_3_);}
	.st6{fill:url(#SVGID_4_);}
	.st7{fill:#2D2868;}
	.st8{fill:#453D76;}
	.st9{fill:url(#SVGID_5_);}
	.st10{fill:url(#SVGID_6_);}
	.st11{fill:url(#SVGID_7_);}
	.st12{fill:url(#SVGID_8_);}
	.st13{fill:#484592;}
	.st14{fill:none;}
	.st15{fill:url(#SVGID_9_);}
	.st16{fill:url(#SVGID_10_);}
	.st17{fill:url(#SVGID_11_);}</style><style
     type="text/css"
     id="style55-7">.st0{fill:url(#SVGID_1_);}
	.st1{fill:#7A7EAE;}
	.st2{fill:#663399;}
	.st3{fill:#120F22;}
	.st4{fill:url(#SVGID_2_);}
	.st5{fill:url(#SVGID_3_);}
	.st6{fill:url(#SVGID_4_);}
	.st7{fill:#2D2868;}
	.st8{fill:#453D76;}
	.st9{fill:url(#SVGID_5_);}
	.st10{fill:url(#SVGID_6_);}
	.st11{fill:url(#SVGID_7_);}
	.st12{fill:url(#SVGID_8_);}
	.st13{fill:#484592;}
	.st14{fill:none;}
	.st15{fill:url(#SVGID_9_);}
	.st16{fill:url(#SVGID_10_);}
	.st17{fill:url(#SVGID_11_);}</style><style
     type="text/css"
     id="style56-7">.st0{fill:url(#SVGID_1_);}
	.st1{fill:#7A7EAE;}
	.st2{fill:#663399;}
	.st3{fill:#120F22;}
	.st4{fill:url(#SVGID_2_);}
	.st5{fill:url(#SVGID_3_);}
	.st6{fill:url(#SVGID_4_);}
	.st7{fill:#2D2868;}
	.st8{fill:#453D76;}
	.st9{fill:url(#SVGID_5_);}
	.st10{fill:url(#SVGID_6_);}
	.st11{fill:url(#SVGID_7_);}
	.st12{fill:url(#SVGID_8_);}
	.st13{fill:#484592;}
	.st14{fill:none;}
	.st15{fill:url(#SVGID_9_);}
	.st16{fill:url(#SVGID_10_);}
	.st17{fill:url(#SVGID_11_);}</style><style
     type="text/css"
     id="style57-2">.st0{fill:url(#SVGID_1_);}
	.st1{fill:#7A7EAE;}
	.st2{fill:#663399;}
	.st3{fill:#120F22;}
	.st4{fill:url(#SVGID_2_);}
	.st5{fill:url(#SVGID_3_);}
	.st6{fill:url(#SVGID_4_);}
	.st7{fill:#2D2868;}
	.st8{fill:#453D76;}
	.st9{fill:url(#SVGID_5_);}
	.st10{fill:url(#SVGID_6_);}
	.st11{fill:url(#SVGID_7_);}
	.st12{fill:url(#SVGID_8_);}
	.st13{fill:#484592;}
	.st14{fill:none;}
	.st15{fill:url(#SVGID_9_);}
	.st16{fill:url(#SVGID_10_);}
	.st17{fill:url(#SVGID_11_);}</style><style
     type="text/css"
     id="style58-9">.st0{fill:url(#SVGID_1_);}
	.st1{fill:#7A7EAE;}
	.st2{fill:#663399;}
	.st3{fill:#120F22;}
	.st4{fill:url(#SVGID_2_);}
	.st5{fill:url(#SVGID_3_);}
	.st6{fill:url(#SVGID_4_);}
	.st7{fill:#2D2868;}
	.st8{fill:#453D76;}
	.st9{fill:url(#SVGID_5_);}
	.st10{fill:url(#SVGID_6_);}
	.st11{fill:url(#SVGID_7_);}
	.st12{fill:url(#SVGID_8_);}
	.st13{fill:#484592;}
	.st14{fill:none;}
	.st15{fill:url(#SVGID_9_);}
	.st16{fill:url(#SVGID_10_);}
	.st17{fill:url(#SVGID_11_);}</style></svg>
