<?xml version="1.0" encoding="UTF-8" standalone="no"?>
<svg
   xmlns:dc="http://purl.org/dc/elements/1.1/"
   xmlns:cc="http://creativecommons.org/ns#"
   xmlns:rdf="http://www.w3.org/1999/02/22-rdf-syntax-ns#"
   xmlns:svg="http://www.w3.org/2000/svg"
   xmlns="http://www.w3.org/2000/svg"
   xmlns:sodipodi="http://sodipodi.sourceforge.net/DTD/sodipodi-0.dtd"
   xmlns:inkscape="http://www.inkscape.org/namespaces/inkscape"
   width="2077.7439"
   height="1983.746"
   viewBox="0 0 2077.7439 1983.746"
   version="1.1"
   id="svg130">
  <defs
     id="defs124" />
  <sodipodi:namedview
     id="base"
     pagecolor="#ffffff"
     bordercolor="#666666"
     borderopacity="1.0"
     inkscape:pageopacity="0.0"
     inkscape:pageshadow="2"
     inkscape:zoom="0.34"
     inkscape:cx="1029.2643"
     inkscape:cy="1004.4444"
     inkscape:document-units="mm"
     inkscape:current-layer="layer1"
     inkscape:document-rotation="0"
     showgrid="false"
     units="px"
     inkscape:window-width="1920"
     inkscape:window-height="1009"
     inkscape:window-x="-8"
     inkscape:window-y="-8"
     inkscape:window-maximized="1" />
  <metadata
     id="metadata127">
    <rdf:RDF>
      <cc:Work
         rdf:about="">
        <dc:format>image/svg+xml</dc:format>
        <dc:type
           rdf:resource="http://purl.org/dc/dcmitype/StillImage" />
        <dc:title></dc:title>
      </cc:Work>
    </rdf:RDF>
  </metadata>
  <g
     id="layer1">
    <path
       id="rect33"
       style="fill:#000000;fill-opacity:1;stroke-width:11.923"
       d="m 550.47071,0 3.04686,46.460936 -56.48047,-1.959004 33.70704,507.441388 H 0 V 1260.8847 H 193.30859 V 1983.746 H 1303.834 v -301.0977 l 773.9102,-162.207 -97.125,-1463.066298 z M 714.68945,194.23826 1857.6524,211.65429 1927.588,1379.3417 805.71291,1582.3124 Z M 99.246089,651.19136 H 537.33594 L 552.084,873.22064 H 193.30859 V 1161.6503 H 99.246089 Z M 321.02148,1000.9433 h 239.54688 l 54.86525,825.9882 560.68939,-117.5175 v 146.6328 H 321.02148 Z" />
    <path
       id="path50"
       style="fill:#000000;fill-opacity:1;stroke-width:31.4031"
       d="m 1039.8535,367.9453 c -11.4505,0 -23.0625,0.3258 -34.5117,0.65231 l -9.97653,25.51563 34.18163,-0.81638 v 0 z m 23.832,45.32421 -12.1035,29.43946 c 15.3737,0.81959 30.5843,0.65658 45.795,1.14648 v -0.002 l 12.4317,-29.76759 c -15.5395,-0.97349 -30.7505,-0.32655 -46.1251,-0.81638 z m -60.6288,38.63867 c -9.6498,0.65318 -19.13687,-4.9e-4 -28.6231,1.14256 l -8.832,22.40821 28.45897,-1.14259 z m 152.0019,11.89062 c -12.6613,0.0302 -25.2995,0.28725 -37.8731,0.28725 l -13.9023,35.49025 60.3535,0.49021 14.2286,-35.98046 c -7.6051,-0.24492 -15.2098,-0.30614 -22.8067,-0.28725 z m 30.9805,32.34958 -18.3164,46.93361 74.7421,0.49024 19.1348,-47.2676 z m -18.3164,46.93361 v 0 0.008 z m -133.5704,-42.40622 -10.9589,27.96676 h 37.129 l 11.121,-27.15039 c -12.4306,-0.65945 -24.8611,8e-5 -37.2911,-0.81637 z m 232.7287,23.26949 -24.6974,61.99026 85.377,0.49024 v -0.004 l 24.8613,-61.82226 z m 197.9023,5.58792 -33.6935,84.06832 c 49.0673,-1.79905 98.2981,1.79895 147.3654,11.28518 l -75.0723,185.8027 c -48.7375,-13.41127 -97.4781,-16.3528 -146.2187,-15.37304 l -25.1876,63.29492 c 49.0673,-2.61714 98.2976,-1.14479 147.6915,10.79493 l -77.8535,192.99621 c -48.2507,-12.1032 -96.5019,-17.6665 -144.5861,-18.9727 l -31.4043,77.6913 c 37.4543,1.4718 75.0719,6.5427 112.6895,13.4121 109.0941,20.4433 217.8592,74.2548 280.502,159.4668 l 241.084,-596.97066 0.011,-0.0113 c -18.1541,-23.71555 -39.5812,-44.16094 -62.6426,-62.64256 -91.7627,-74.09284 -220.9737,-105.33165 -332.6836,-104.84179 z m -23.2071,0.44333 c -26.9368,0.0151 -53.9678,2.89796 -80.873,5.90234 l -31.7285,78.83399 90.2831,-0.65428 33.8556,-83.90429 c -3.8437,-0.12284 -7.6891,-0.17991 -11.5372,-0.17764 z m -472.89844,7.0215 -28.29491,1.30662 -9.16018,22.40821 c 9.48624,0.16328 18.80871,-0.64445 28.29495,-0.98045 z m 158.06444,14.42577 c -12.7653,-0.0113 -25.5538,0.23698 -38.4336,0.11906 l -12.5938,31.07614 c 17.011,0.82277 33.8575,0.98049 50.8672,0.98049 l 12.92,-32.05663 c -4.2528,-0.0839 -8.5047,-0.11566 -12.7598,-0.11906 z m 39.414,31.49805 c -2.6532,0.002 -5.3089,0.0113 -7.9667,0.0302 l -17.6641,43.1797 c 21.0965,0.8259 42.3587,0.33336 63.6211,0.49024 v 0.0113 l 17.664,-43.34373 c -18.6023,0 -37.0805,-0.37606 -55.6543,-0.3651 z m -157.2988,2.54884 c -3.0795,0.004 -6.1264,0.0968 -9.11128,0.34167 l -10.3047,27.64063 c 12.26728,-0.17915 24.86168,0.3171 36.96478,-0.336 v 0.004 l 10.3047,-27.15231 c -9.0779,0.24982 -18.6151,-0.51368 -27.8535,-0.49807 z m 229.2246,29.625 -20.7714,52.00977 71.3105,0.65235 v 0.004 l 21.2637,-52.17581 z m -300.48629,6.07029 -34.67577,1.14259 -9.97655,25.35156 v 0.002 l 34.5117,-0.49024 z m 477.63869,3.04691 -89.9571,0.336 -29.4393,72.94529 c 30.2567,-0.1663 60.3527,-0.49289 90.4472,-1.47265 v -0.008 z m -361.3047,12.42187 -12.4317,31.73045 50.5411,0.336 v -0.0113 l 13.2481,-31.56642 c -17.1743,-0.48986 -34.3454,-0.33335 -51.3555,-0.4902 z m 585.6933,4.78318 c 48.5774,16.19452 92.2463,41.54577 123.8126,77.52733 l -74.2558,184.00391 c -34.3487,-31.56631 -77.2017,-55.93784 -125.4493,-73.76561 z m -515.3378,26.48439 -17.1739,43.50584 h 63.2969 l 17.1738,-43.50584 z m -164.08009,1.7949 -11.93945,29.43946 45.79491,0.65235 h 0.004 l 12.10353,-29.27539 c -15.21219,-0.97349 -30.58833,-0.16328 -45.96292,-0.81642 z m 244.87689,27.22265 -20.7714,51.6836 71.9648,0.48828 v -0.008 l 20.6075,-52.00977 z m 176.7266,9.82813 -90.9355,1.30666 -29.2774,72.78319 0.4902,0.336 90.2832,-1.30666 v -0.0113 z m -482.21872,1.72268 c -9.48654,0 -19.46211,-8e-5 -28.62112,0.81641 l -8.83396,22.24411 28.29687,-0.65235 z m 144.84562,11.46092 c -10.2427,0 -20.5062,0.0839 -30.7285,0.2521 l -13.9023,35.32811 60.5157,0.49024 14.7206,-35.81835 c -10.14,-0.16819 -20.3627,-0.2521 -30.6055,-0.2521 z m 38.6095,32.13475 -19.1368,46.77736 0.6523,0.336 74.5821,0.15836 v -0.004 l 18.9727,-47.26756 z m -152.04498,4.22854 -11.28514,27.96873 c 12.43053,0.81649 25.02437,-0.336 37.29101,0 v -0.002 c 4.0893,-8.66846 7.85364,-18.1545 10.6328,-26.98631 z m 232.87898,22.97264 -24.5351,61.49609 85.2147,0.65431 25.0255,-61.49805 z m 184.3222,10.68359 -90.4453,1.14259 -29.1133,72.61912 90.7734,-0.97852 z m -483.15432,4.25001 c -9.48619,0 -18.97198,0.49058 -28.2949,0.98048 l -9.16018,22.40625 c 9.32293,0.32655 18.81067,-0.64252 28.29687,-0.97852 z m 158.57422,13.21682 c -12.8796,-0.0189 -25.76059,0.43967 -38.64062,0.0722 l -12.10352,31.07615 50.70314,0.65234 v -0.008 l 12.9219,-31.56639 c -4.2928,-0.16176 -8.5857,-0.22186 -12.8789,-0.22866 z m 63.2755,31.14058 c -10.6109,-0.0227 -21.242,0.0189 -31.8732,0.0189 l -17.1738,43.01563 63.2949,0.336 17.5021,-43.01563 c -10.5484,-0.24643 -21.1394,-0.33109 -31.75,-0.35339 z m -162.52353,4.68752 c -9.41465,0.0552 -18.92167,0.45449 -28.24414,0.57226 -3.92538,8.34126 -7.52553,17.82686 -10.3047,26.33204 l 36.63867,0.15836 11.28321,-26.98045 c -3.10749,-0.0816 -6.23482,-0.10054 -9.37304,-0.082 z m 210.84573,26.85154 -20.7715,50.86718 71.8008,1.4727 v -0.004 l 20.6093,-51.6836 z m 179.543,3.23048 -90.7735,1.14455 -29.6034,74.58202 90.4471,-1.14456 0.336,-0.97848 h -0.011 z m -480.11139,4.27736 c -11.94006,0.48987 -23.55186,0.49017 -35.16405,1.30662 l -9.97852,24.36915 c 11.45012,0.65314 22.90103,-0.48968 34.3496,0 z m 705.03719,10.78515 c 47.9209,17.01101 93.5575,41.37993 125.287,75.7285 l -75.3984,186.29103 c -35.8213,-29.6036 -79.8174,-51.5203 -126.9218,-70.1661 z m -587.66804,1.67576 c -4.41622,9.48624 -8.83204,20.93552 -12.26562,31.07619 l 50.53905,0.98048 c 4.41588,-10.4663 8.99157,-21.75239 12.75581,-32.05667 z m 86.04494,30.87893 c -5.2902,-0.003 -10.575,0.0189 -15.8496,0.0567 l -17.664,43.17966 63.621,0.336 v -0.0113 l 17.5019,-42.85353 c -15.8223,-0.48986 -31.739,-0.70042 -47.6093,-0.70896 z m -146.85746,5.91795 c -11.60788,-0.0688 -23.16885,0.20523 -34.82227,0.20523 l -11.61328,29.44142 46.28712,-0.15836 v -0.008 l 11.77735,-29.27736 c -3.88471,-0.12245 -7.75959,-0.18217 -11.62892,-0.20522 z m 210.99216,26.1758 -21.0976,51.84569 71.4726,0.9804 c 7.6867,-17.17291 13.9007,-35.32696 21.4238,-52.33589 z m 71.7988,0.4902 v 0 -0.004 c -6e-4,10e-4 0,0.003 0,0.004 z m 105.8907,4.93361 -90.1191,0.81641 -30.0957,73.76557 0.8163,0.336 90.4473,-2.2891 v -0.011 z m -367.75,14.50197 -14.39259,35.65421 c 20.11676,0.4899 40.23462,0.6474 60.51564,0.4904 v 0.011 l 14.71873,-35.81833 c -20.28004,0.31711 -40.56049,-0.336 -60.84178,-0.336 z m 69.02733,31.58391 -19.13669,47.2696 h 0.002 l 75.07226,0.6523 18.9708,-47.4316 z m 80.99417,27.8028 -25.0235,61.4961 85.0489,1.3066 25.0234,-61.8242 z m 184.7207,9.5644 -91.0997,1.6367 -31.5663,78.3438 c 30.2567,-2.4494 60.5145,-2.123 90.6093,-1.3067 v 0 z" />
  </g>
</svg>
