<svg
   xmlns="http://www.w3.org/2000/svg"
   version="1.1"
   width="1000"
   height="1185.1851">
  <path
     d="M 0,0 V 37.037037 H 37.037037 V 74.074074 H 74.074074 V 1037.037 H 37.037037 v 74.0741 H 925.92593 V 1037.037 H 888.88889 V 74.074074 h 37.03704 V 37.037037 h 37.03703 V 0 Z"
     fill="#000000"
     stroke="none" />
  <path
     d="M 148.14815,74.074074 V 518.51852 h 37.03704 V 111.11111 h 592.59259 v 407.40741 h 37.03703 V 74.074074 Z"
     fill="#c0c0c0"
     stroke="none" />
  <path
     d="M 888.88889,74.074074 V 1037.037 h 37.03704 v 74.0741 H 111.11111 v 74.0741 H 1000 V 1037.037 H 962.96296 V 111.11111 H 1000 V 74.074074 H 888.88889 m -703.7037,37.037036 v 407.40741 h 37.03703 V 148.14815 h 518.51852 v 370.37037 h 37.03704 V 111.11111 Z"
     fill="#808080"
     stroke="none" />
  <path
     d="m 222.22222,148.14815 v 370.37037 h 185.18519 v -37.03704 h 148.14815 v 37.03704 H 740.74074 V 148.14815 Z"
     fill="#ffffff"
     stroke="none" />
  <path
     d="m 518.51852,222.22222 v 37.03704 h 37.03704 v -37.03704 h -37.03704 m 111.11111,37.03704 v 37.03704 h 37.03704 V 259.25926 H 629.62963 M 444.44444,296.2963 v 37.03703 h -37.03703 v 37.03704 h -37.03704 v 37.03704 h 37.03704 v -37.03704 h 37.03703 v -37.03704 h 37.03704 V 296.2963 h -37.03704 m 111.11112,37.03703 v 37.03704 h -37.03704 v 37.03704 h 37.03704 v -37.03704 h 37.03703 V 333.33333 H 555.55556 M 407.40741,481.48148 v 37.03704 h 148.14815 v -37.03704 z"
     fill="#808080"
     stroke="none" />
  <path
     d="M 148.14815,555.55556 V 1037.037 H 814.81481 V 555.55556 Z"
     fill="#c0c0c0"
     stroke="none" />
  <path
     d="M 185.18519,592.59259 V 1000 H 777.77778 V 592.59259 Z"
     fill="#808080"
     stroke="none" />
  <path
     d="M 222.22222,629.62963 V 962.96296 H 740.74074 V 629.62963 Z"
     fill="#ffffff"
     stroke="none" />
  <path
     d="m 481.48148,740.74074 v 37.03704 h 37.03704 v -37.03704 h -37.03704 m 111.11111,37.03704 v 37.03703 h 37.03704 v -37.03703 h -37.03704 m -185.18518,37.03703 v 37.03704 h -37.03704 v 37.03704 h -37.03704 v 37.03704 h 37.03704 v -37.03704 h 37.03704 v -37.03704 h 37.03703 v -37.03704 h -37.03703 m 111.11111,37.03704 v 37.03704 h -37.03704 v 37.03704 h 37.03704 v -37.03704 h 37.03704 v -37.03704 z"
     fill="#808080"
     stroke="none" />
</svg>
