<?xml version="1.0" encoding="UTF-8" standalone="no"?>
<svg
   xmlns:dc="http://purl.org/dc/elements/1.1/"
   xmlns:cc="http://creativecommons.org/ns#"
   xmlns:rdf="http://www.w3.org/1999/02/22-rdf-syntax-ns#"
   xmlns:svg="http://www.w3.org/2000/svg"
   xmlns="http://www.w3.org/2000/svg"
   xmlns:xlink="http://www.w3.org/1999/xlink"
   width="299.92065mm"
   height="125.02903mm"
   viewBox="0 0 299.92065 125.02903"
   version="1.1"
   id="svg8">
  <defs
     id="defs2">
    <linearGradient
       id="linearGradient1784">
      <stop
         style="stop-color:#aabca2;stop-opacity:1"
         offset="0"
         id="stop1780" />
      <stop
         style="stop-color:#133371;stop-opacity:1"
         offset="1"
         id="stop1782" />
    </linearGradient>
    <linearGradient
       id="linearGradient913">
      <stop
         style="stop-color:#5867a2;stop-opacity:1"
         offset="0"
         id="stop909" />
      <stop
         style="stop-color:#133371;stop-opacity:1"
         offset="1"
         id="stop911" />
    </linearGradient>
    <radialGradient
       xlink:href="#linearGradient1784"
       id="radialGradient915"
       cx="192.43407"
       cy="815.31738"
       fx="192.43407"
       fy="815.31738"
       r="180.81738"
       gradientTransform="matrix(1.656424,1.988826,-0.89154,0.74253255,600.56972,-190.60211)"
       gradientUnits="userSpaceOnUse" />
    <radialGradient
       xlink:href="#linearGradient913"
       id="radialGradient915-9"
       cx="192.43407"
       cy="815.31738"
       fx="192.43407"
       fy="815.31738"
       r="180.81738"
       gradientTransform="matrix(1.0417069,1.2507509,-0.56067972,0.46697057,507.39972,223.21541)"
       gradientUnits="userSpaceOnUse" />
    <filter
       style="color-interpolation-filters:sRGB"
       id="filter1087"
       x="-0.25624549"
       width="1.512491"
       y="-0.28153828"
       height="1.5630766">
      <feGaussianBlur
         stdDeviation="2.8888199"
         id="feGaussianBlur1089" />
    </filter>
    <filter
       style="color-interpolation-filters:sRGB"
       id="filter1171"
       x="-0.016290704"
       width="1.0325814"
       y="-0.012521535"
       height="1.0250431">
      <feGaussianBlur
         stdDeviation="0.40927687"
         id="feGaussianBlur1173" />
    </filter>
    <filter
       style="color-interpolation-filters:sRGB"
       id="filter1300"
       x="-0.11896519"
       width="1.2379304"
       y="-0.30113089"
       height="1.6022618">
      <feGaussianBlur
         stdDeviation="0.53655378"
         id="feGaussianBlur1302" />
    </filter>
    <filter
       style="color-interpolation-filters:sRGB"
       id="filter1632"
       x="-0.044193491"
       width="1.088387"
       y="-0.033968441"
       height="1.0679369">
      <feGaussianBlur
         stdDeviation="1.1102846"
         id="feGaussianBlur1634" />
    </filter>
    <filter
       style="color-interpolation-filters:sRGB"
       id="filter2768"
       x="-0.013056604"
       width="1.0261132"
       y="-0.032507714"
       height="1.0650154">
      <feGaussianBlur
         stdDeviation="1.5901209"
         id="feGaussianBlur2770" />
    </filter>
  </defs>
  <metadata
     id="metadata5">
    <rdf:RDF>
      <cc:Work
         rdf:about="">
        <dc:format>image/svg+xml</dc:format>
        <dc:type
           rdf:resource="http://purl.org/dc/dcmitype/StillImage" />
        <dc:title></dc:title>
      </cc:Work>
    </rdf:RDF>
  </metadata>
  <g
     id="layer1"
     transform="translate(-102.43108,-103.5346)">
    <path
       id="rect2492-6-2-2"
       style="color:#000000;font-style:normal;font-variant:normal;font-weight:normal;font-stretch:normal;font-size:medium;line-height:normal;font-family:sans-serif;font-variant-ligatures:normal;font-variant-position:normal;font-variant-caps:normal;font-variant-numeric:normal;font-variant-alternates:normal;font-variant-east-asian:normal;font-feature-settings:normal;font-variation-settings:normal;text-indent:0;text-align:start;text-decoration:none;text-decoration-line:none;text-decoration-style:solid;text-decoration-color:#000000;letter-spacing:normal;word-spacing:normal;text-transform:none;writing-mode:lr-tb;direction:ltr;text-orientation:mixed;dominant-baseline:auto;baseline-shift:baseline;text-anchor:start;white-space:normal;shape-padding:0;shape-margin:0;inline-size:0;clip-rule:nonzero;display:inline;overflow:visible;visibility:visible;isolation:auto;mix-blend-mode:normal;color-interpolation:sRGB;color-interpolation-filters:linearRGB;solid-color:#000000;solid-opacity:1;vector-effect:none;fill:#1a1a1a;fill-opacity:1;fill-rule:nonzero;stroke:none;stroke-width:1;stroke-linecap:butt;stroke-linejoin:miter;stroke-miterlimit:4;stroke-dasharray:none;stroke-dashoffset:0;stroke-opacity:1;paint-order:stroke fill markers;filter:url(#filter2768);color-rendering:auto;image-rendering:auto;shape-rendering:auto;text-rendering:auto;enable-background:accumulate;stop-color:#000000"
       d="m 173.20194,107.35089 v 4.24059 38.6834 h -24.46828 v -29.22455 h -42.48629 v 9.53894 h 32.94527 v 35.17977 h -32.94527 v 9.54101 h 22.78465 v 44.62311 h 68.54879 v -13.67771 h 35.01957 v 18.49189 h 74.89673 v -54.43749 h 15.50395 v 26.7131 h 39.15264 v 13.86117 h 36.38177 v -8.48423 h -27.90166 v -28.69748 h 27.90166 v -8.48217 h -22.80378 v -21.78523 h -39.34386 v -30.18782 h -56.1485 v 1.11516 4.36925 29.87932 h -9.77925 v -41.26003 z m 8.48268,8.4827 h 80.29277 v 81.94125 h -80.29277 z m 109.52562,8.38449 h 34.20514 v 19.21693 h -2.41432 v 1.04695 4.10517 10.75026 h -15.50395 v -10.72647 h -16.28687 z m 42.09562,29.51964 h 32.12103 v 11.48252 h -3.27319 v 0.71676 3.52536 17.25578 h -28.84784 z m -62.84578,3.04893 h 28.86336 v 59.78498 h -58.54889 v -10.31618 h 29.68553 z m -121.72642,2.21692 h 24.46828 v 47.25188 h 15.65072 v 4.94906 h -51.09197 v -35.89446 h 10.97297 z" />
    <path
       style="color:#000000;font-style:normal;font-variant:normal;font-weight:normal;font-stretch:normal;font-size:medium;line-height:normal;font-family:sans-serif;font-variant-ligatures:normal;font-variant-position:normal;font-variant-caps:normal;font-variant-numeric:normal;font-variant-alternates:normal;font-variant-east-asian:normal;font-feature-settings:normal;font-variation-settings:normal;text-indent:0;text-align:start;text-decoration:none;text-decoration-line:none;text-decoration-style:solid;text-decoration-color:#000000;letter-spacing:normal;word-spacing:normal;text-transform:none;writing-mode:lr-tb;direction:ltr;text-orientation:mixed;dominant-baseline:auto;baseline-shift:baseline;text-anchor:start;white-space:normal;shape-padding:0;shape-margin:0;inline-size:0;clip-rule:nonzero;display:inline;overflow:visible;visibility:visible;opacity:1;isolation:auto;mix-blend-mode:normal;color-interpolation:sRGB;color-interpolation-filters:linearRGB;solid-color:#000000;solid-opacity:1;vector-effect:none;fill:#06157c;fill-opacity:1;fill-rule:nonzero;stroke:none;stroke-linecap:butt;stroke-linejoin:miter;stroke-miterlimit:4;stroke-dasharray:none;stroke-dashoffset:0;stroke-opacity:1;paint-order:stroke fill markers;color-rendering:auto;image-rendering:auto;shape-rendering:auto;text-rendering:auto;enable-background:accumulate;stop-color:#000000;stop-opacity:1"
       d="m 141.73493,164.97814 -5.10268,2.56789 -9.35491,1.50382 v 48.76656 h 68.54883 v -18.62296 l -18.52083,-3.59924 -1.64091,-47.43601 h -32.22247 z m 3.62584,6.93313 -1.72982,-15.02455 h 31.46652 l -1.22898,42.8058 13.22917,-1.34951 v 10.74488 h -51.0918 v -40.51051 z"
       id="rect2492-6-2" />
    <path
       id="path2639"
       style="color:#000000;font-style:normal;font-variant:normal;font-weight:normal;font-stretch:normal;font-size:medium;line-height:normal;font-family:sans-serif;font-variant-ligatures:normal;font-variant-position:normal;font-variant-caps:normal;font-variant-numeric:normal;font-variant-alternates:normal;font-variant-east-asian:normal;font-feature-settings:normal;font-variation-settings:normal;text-indent:0;text-align:start;text-decoration:none;text-decoration-line:none;text-decoration-style:solid;text-decoration-color:#000000;letter-spacing:normal;word-spacing:normal;text-transform:none;writing-mode:lr-tb;direction:ltr;text-orientation:mixed;dominant-baseline:auto;baseline-shift:baseline;text-anchor:start;white-space:normal;shape-padding:0;shape-margin:0;inline-size:0;clip-rule:nonzero;display:inline;overflow:visible;visibility:visible;isolation:auto;mix-blend-mode:normal;color-interpolation:sRGB;color-interpolation-filters:linearRGB;solid-color:#000000;solid-opacity:1;vector-effect:none;fill:#3678bd;fill-opacity:1;fill-rule:nonzero;stroke:none;stroke-width:3.77953;stroke-linecap:butt;stroke-linejoin:miter;stroke-miterlimit:4;stroke-dasharray:none;stroke-dashoffset:0;stroke-opacity:1;paint-order:stroke fill markers;color-rendering:auto;image-rendering:auto;shape-rendering:auto;text-rendering:auto;enable-background:accumulate;stop-color:#000000"
       d="m 1052.5391,420.02148 v 4.21485 16.51367 133.52173 l 78.2868,-0.7047 14.182,62.12438 h 74.635 l 12.611,-76.07143 32.5,-14.26283 V 420.02148 Z m 41.4648,41.46485 h 129.2793 v 85.65653 47.07784 h -7.926 -88.0269 l 19.2015,-21.2132 -52.5279,-9.84745 z"
       transform="scale(0.26458333)" />
    <path
       style="color:#000000;font-style:normal;font-variant:normal;font-weight:normal;font-stretch:normal;font-size:medium;line-height:normal;font-family:sans-serif;font-variant-ligatures:normal;font-variant-position:normal;font-variant-caps:normal;font-variant-numeric:normal;font-variant-alternates:normal;font-variant-east-asian:normal;font-feature-settings:normal;font-variation-settings:normal;text-indent:0;text-align:start;text-decoration:none;text-decoration-line:none;text-decoration-style:solid;text-decoration-color:#000000;letter-spacing:normal;word-spacing:normal;text-transform:none;writing-mode:lr-tb;direction:ltr;text-orientation:mixed;dominant-baseline:auto;baseline-shift:baseline;text-anchor:start;white-space:normal;shape-padding:0;shape-margin:0;inline-size:0;clip-rule:nonzero;display:inline;overflow:visible;visibility:visible;opacity:1;isolation:auto;mix-blend-mode:normal;color-interpolation:sRGB;color-interpolation-filters:linearRGB;solid-color:#000000;solid-opacity:1;vector-effect:none;fill:#06157c;fill-opacity:1;fill-rule:nonzero;stroke:none;stroke-linecap:butt;stroke-linejoin:miter;stroke-miterlimit:4;stroke-dasharray:none;stroke-dashoffset:0;stroke-opacity:1;paint-order:stroke fill markers;color-rendering:auto;image-rendering:auto;shape-rendering:auto;text-rendering:auto;enable-background:accumulate;stop-color:#000000;stop-opacity:1"
       d="m 263.61356,196.7643 -32.76786,2.3515 v 23.51506 h 74.89649 v -76.13672 h -41.01172 c -1.50744,16.52145 -1.11691,33.77343 -1.11691,50.27016 z m 1.46475,4.27688 -1.41692,-46.37126 h 33.90697 v 59.78516 h -58.54883 v -16.14109 z"
       id="rect2492-6" />
    <path
       style="color:#000000;font-style:normal;font-variant:normal;font-weight:normal;font-stretch:normal;font-size:medium;line-height:normal;font-family:sans-serif;font-variant-ligatures:normal;font-variant-position:normal;font-variant-caps:normal;font-variant-numeric:normal;font-variant-alternates:normal;font-variant-east-asian:normal;font-feature-settings:normal;font-variation-settings:normal;text-indent:0;text-align:start;text-decoration:none;text-decoration-line:none;text-decoration-style:solid;text-decoration-color:#000000;letter-spacing:normal;word-spacing:normal;text-transform:none;writing-mode:lr-tb;direction:ltr;text-orientation:mixed;dominant-baseline:auto;baseline-shift:baseline;text-anchor:start;white-space:normal;shape-padding:0;shape-margin:0;inline-size:0;clip-rule:nonzero;display:inline;overflow:visible;visibility:visible;opacity:1;isolation:auto;mix-blend-mode:normal;color-interpolation:sRGB;color-interpolation-filters:linearRGB;solid-color:#000000;solid-opacity:1;vector-effect:none;fill:#3678bd;fill-opacity:1;fill-rule:nonzero;stroke:none;stroke-linecap:butt;stroke-linejoin:miter;stroke-miterlimit:4;stroke-dasharray:none;stroke-dashoffset:0;stroke-opacity:1;paint-order:stroke fill markers;color-rendering:auto;image-rendering:auto;shape-rendering:auto;text-rendering:auto;enable-background:accumulate;stop-color:#000000;stop-opacity:1"
       d="m 171.44727,105.23438 v 4.24023 94.66406 h 97.25781 v -98.90429 z m 8.48242,8.48242 h 80.29297 v 81.9414 h -80.29297 z"
       id="rect2492" />
    <path
       id="rect2492-3"
       style="color:#000000;font-style:normal;font-variant:normal;font-weight:normal;font-stretch:normal;font-size:medium;line-height:normal;font-family:sans-serif;font-variant-ligatures:normal;font-variant-position:normal;font-variant-caps:normal;font-variant-numeric:normal;font-variant-alternates:normal;font-variant-east-asian:normal;font-feature-settings:normal;font-variation-settings:normal;text-indent:0;text-align:start;text-decoration:none;text-decoration-line:none;text-decoration-style:solid;text-decoration-color:#000000;letter-spacing:normal;word-spacing:normal;text-transform:none;writing-mode:lr-tb;direction:ltr;text-orientation:mixed;dominant-baseline:auto;baseline-shift:baseline;text-anchor:start;white-space:normal;shape-padding:0;shape-margin:0;inline-size:0;clip-rule:nonzero;display:inline;overflow:visible;visibility:visible;opacity:1;isolation:auto;mix-blend-mode:normal;color-interpolation:sRGB;color-interpolation-filters:linearRGB;solid-color:#000000;solid-opacity:1;vector-effect:none;fill:#3678bd;fill-opacity:1;fill-rule:nonzero;stroke:none;stroke-width:3.77953;stroke-linecap:butt;stroke-linejoin:miter;stroke-miterlimit:4;stroke-dasharray:none;stroke-dashoffset:0;stroke-opacity:1;paint-order:stroke fill markers;color-rendering:auto;image-rendering:auto;shape-rendering:auto;text-rendering:auto;enable-background:accumulate;stop-color:#000000;stop-opacity:1"
       d="m 394.93164,449.51367 v 36.05274 H 519.44922 V 618.5293 H 394.93164 v 36.06054 H 555.50977 V 449.51367 Z"
       transform="scale(0.26458333)" />
    <path
       id="path2645"
       style="color:#000000;font-style:normal;font-variant:normal;font-weight:normal;font-stretch:normal;font-size:medium;line-height:normal;font-family:sans-serif;font-variant-ligatures:normal;font-variant-position:normal;font-variant-caps:normal;font-variant-numeric:normal;font-variant-alternates:normal;font-variant-east-asian:normal;font-feature-settings:normal;font-variation-settings:normal;text-indent:0;text-align:start;text-decoration:none;text-decoration-line:none;text-decoration-style:solid;text-decoration-color:#000000;letter-spacing:normal;word-spacing:normal;text-transform:none;writing-mode:lr-tb;direction:ltr;text-orientation:mixed;dominant-baseline:auto;baseline-shift:baseline;text-anchor:start;white-space:normal;shape-padding:0;shape-margin:0;inline-size:0;clip-rule:nonzero;display:inline;overflow:visible;visibility:visible;isolation:auto;mix-blend-mode:normal;color-interpolation:sRGB;color-interpolation-filters:linearRGB;solid-color:#000000;solid-opacity:1;vector-effect:none;fill:#06157c;fill-opacity:1;fill-rule:nonzero;stroke:none;stroke-width:3.77953;stroke-linecap:butt;stroke-linejoin:miter;stroke-miterlimit:4;stroke-dasharray:none;stroke-dashoffset:0;stroke-opacity:1;paint-order:stroke fill markers;color-rendering:auto;image-rendering:auto;shape-rendering:auto;text-rendering:auto;enable-background:accumulate;stop-color:#000000"
       d="m 1214.1582,534.11719 v 3.95703 15.51562 183.06446 h 151.3155 l 15.6565,-95.96449 32.3249,-12.12238 v -94.45024 z m 38.9473,38.93945 h 121.4023 v 51.21764 73.43275 h -7.7714 -113.6309 z"
       transform="scale(0.26458333)" />
    <g
       id="g2490"
       transform="matrix(0.4785548,-0.05766379,0.05766379,0.4785548,145.04016,149.96497)">
      <path
         id="path4518-2"
         d="M 192.94574,89.235902 224.42009,13.456835 C 210.61191,-1.8388341 193.43762,-9.3355461 172.81425,-8.9444101 L 141.1384,67.533952 c 19.33738,-2.56609 36.49982,4.72322 51.80734,21.70195 z"
         style="fill:#000000;stroke:none;stroke-width:5.92624" />
      <path
         d="m 105.9068,-8.4584621 -1.286,3.259446 h 4.0417 l 1.38083,-3.455007 z m 4.43876,-10.5546609 -1.38081,3.259446 4.14837,-0.100773 1.3749,-3.449085 z m 2.16902,16.4927789 -1.97344,4.634324 5.62401,-0.687445 2.07419,-4.829898 z m 4.43877,-10.6672669 -1.97345,4.6461819 5.61809,-0.693368 1.97345,-4.8298989 z m 2.47125,17.7669229 -2.26976,5.5291871 7.40782,-0.2014841 2.35865,-5.819589 z m 4.44468,-10.566521 -2.26975,5.52326598 7.30115,-0.284452 2.3705,-5.62994998 z m 4.63434,13.920777 -3.1587,7.7930221 9.17385,-0.491871 3.1587,-7.6033941 z m 4.43876,-10.566518 -3.25351,7.698209 9.17385,-0.491885 3.17054,-7.603383 z m 12.32662,22.8931411 3.65651,-8.782725 -10.85099,0.88302 -3.55575,8.681963 z m 4.45063,-10.6554221 3.55575,-8.68196402 -10.75616,0.78227202 -3.6565,8.7827121 z"
         style="fill:#7a0202;fill-opacity:1;stroke:none;stroke-width:5.92624"
         id="path4594-9" />
      <path
         d="m 92.288267,24.509315 -1.38083,3.253511 4.14839,-0.09484 1.4697,-3.366118 z m 4.43876,-10.661343 -1.38083,3.158696 4.14247,-0.09484 1.374893,-3.253511 z m 2.16901,16.480932 -1.86678,4.634323 5.517363,-0.687445 1.97343,-4.835822 z m 4.444693,-10.649498 -1.86677,4.628413 5.51734,-0.68151 1.97937,-4.735085 z m 2.47124,17.760996 -2.27568,5.624028 7.40783,-0.296322 2.26383,-5.724765 z m 4.43878,-10.667253 -2.36458,5.629936 7.50265,-0.296311 2.26975,-5.730683 z m 4.6284,14.116338 -3.1587,7.59746 9.07904,-0.3852 3.25351,-7.69821 z m 4.34987,-10.65541 -3.25351,7.793022 9.2746,-0.485947 3.15276,-7.692286 z m 5.12622,14.999361 -3.54983,8.776789 10.86283,-0.888943 3.64465,-8.782711 z m 4.43877,-10.667269 -3.54984,8.776789 10.85099,-0.865237 3.56167,-8.794558 z"
         style="fill:#4948ce;fill-opacity:1;stroke:none;stroke-width:5.92624"
         id="path4600-1" />
      <path
         d="m 87.648004,35.561784 -1.285999,3.265367 4.148372,-0.112643 1.38082,-3.45501 z M 101.36137,2.6058639 99.986477,5.8534519 h 4.142453 l 1.47564,-3.455007 z m 13.51778,-32.6714539 -1.37489,3.158697 4.23135,-0.100773 1.48749,-3.455008 z m -20.617453,71.44696 -1.77787,4.545434 5.5292,-0.604477 1.97345,-4.829898 z m 13.713363,-32.8611041 -1.97344,4.6461821 5.52327,-0.693367 2.0742,-4.8417561 z m 17.27505,-28.9082789 1.97344,-4.741008 -5.62402,0.794116 -1.87862,4.634337 z m -24.07246,68.869039 -2.281613,5.629949 7.401893,-0.296322 2.37051,-5.718841 z m 21.10932,-33.246307 -7.40782,0.397059 -2.36457,5.529201 7.40782,-0.183715 z m 6.21665,-32.375144 -2.26383,5.529201 7.29522,-0.302245 2.37051,-5.618092 z m -12.23772,76.288717 3.1587,-7.69821 -9.07904,0.391124 -3.25351,7.680436 z m 16.77723,-40.464487 -9.17385,0.290387 -3.15868,7.798957 9.18569,-0.485961 z m 13.61854,-32.95592 -9.07903,0.397058 -3.25351,7.7989569 9.17385,-0.503742 z m -19.63961,78.439947 3.64464,-8.681966 -10.7443,0.782256 -3.6565,8.6879 z m 6.50703,-40.743021 -3.75133,8.782713 10.95766,-0.888943 3.54982,-8.782711 z m 13.62447,-32.8670281 -3.65651,8.78863498 10.75616,-0.88892898 3.65651,-8.6760409 z m -3.65651,66.7118791 -11.54435,0.6993 -4.0417,9.6598 11.73398,-1.09043 z m 4.64619,-11.058392 -11.65103,0.69929 -3.94095,9.671652 11.64508,-0.989675 z m 4.64026,-11.248043 -11.6451,0.69338 -3.95282,9.576831 11.73993,-0.989691 z m 4.53951,-10.850971 -11.65102,0.69337 -3.94096,9.570903 11.6451,-0.989688 z m 4.53359,-11.046545 -11.53842,0.681511 -4.05356,9.582765 11.73991,-0.894864 z m 4.5395,-11.0524791 -11.55027,0.788194 -4.03578,9.6716551 11.73399,-1.084503 z m 4.63434,-10.957642 -11.6451,0.687445 -3.94688,9.671654 11.64509,-1.09043902 z"
         style="fill:#000000;stroke:none;stroke-width:5.92624"
         id="path4602-1" />
      <path
         id="path4604-0"
         d="m 171.23279,1.6748979 c -0.92,-0.0036 -1.86395,0.0063 -2.82876,0.0279 l -9.97407,24.0822511 c 7.34822,-0.287555 13.82419,0.518305 19.3151,2.26808 L 187.8075,3.8799279 c -4.31432,-1.472676 -9.84429,-2.178627 -16.57471,-2.205035 z"
         style="fill:#7a0202;fill-opacity:1;stroke:none;stroke-width:5.92627" />
      <path
         style="fill:#007f01;fill-opacity:1;stroke:none;stroke-width:5.92624"
         id="path4606-4"
         d="M 210.99712,15.430282 C 206.45761,10.790021 201.12397,7.5365119 195.01401,5.5571439 L 184.74972,30.328904 c 0,0 3.73565,1.123216 6.90409,2.862374 2.97178,1.631202 5.71884,3.259446 9.26868,6.613706 z" />
      <path
         style="fill:#a05e26;fill-opacity:1;stroke:none;stroke-width:5.92624"
         id="path4608-8"
         d="m 197.97121,46.720921 c -4.54545,-4.551355 -9.96797,-7.609307 -16.18461,-9.280519 l -9.86722,23.77615 c 5.71884,1.97937 11.05839,5.23288 16.19053,9.5709 z" />
      <path
         id="path4610-7"
         d="m 159.08625,33.149979 c -1.24039,0.0028 -2.49517,0.04894 -3.76359,0.137459 l -9.68985,23.394954 c 5.78004,-0.29333 12.24119,0.41135 19.47736,1.96784 l 9.56479,-23.088512 c -4.89212,-1.603428 -10.10094,-2.424081 -15.58871,-2.411741 z"
         style="fill:#4948ce;fill-opacity:1;stroke:none;stroke-width:5.92627" />
    </g>
    <path
       id="path2554"
       style="color:#000000;font-style:normal;font-variant:normal;font-weight:normal;font-stretch:normal;font-size:medium;line-height:normal;font-family:sans-serif;font-variant-ligatures:normal;font-variant-position:normal;font-variant-caps:normal;font-variant-numeric:normal;font-variant-alternates:normal;font-variant-east-asian:normal;font-feature-settings:normal;font-variation-settings:normal;text-indent:0;text-align:start;text-decoration:none;text-decoration-line:none;text-decoration-style:solid;text-decoration-color:#000000;letter-spacing:normal;word-spacing:normal;text-transform:none;writing-mode:lr-tb;direction:ltr;text-orientation:mixed;dominant-baseline:auto;baseline-shift:baseline;text-anchor:start;white-space:normal;shape-padding:0;shape-margin:0;inline-size:0;clip-rule:nonzero;display:inline;overflow:visible;visibility:visible;isolation:auto;mix-blend-mode:normal;color-interpolation:sRGB;color-interpolation-filters:linearRGB;solid-color:#000000;solid-opacity:1;vector-effect:none;fill:#3678bd;fill-opacity:1;fill-rule:nonzero;stroke:none;stroke-width:3.77953;stroke-linecap:butt;stroke-linejoin:miter;stroke-miterlimit:4;stroke-dasharray:none;stroke-dashoffset:0;stroke-opacity:1;paint-order:stroke fill markers;color-rendering:auto;image-rendering:auto;shape-rendering:auto;text-rendering:auto;enable-background:accumulate;stop-color:#000000"
       d="m 1362.1367,616.45508 v 2.70898 13.32422 156.55469 h 137.5059 V 756.97656 H 1394.1875 V 648.51367 h 105.4551 v -32.05859 z"
       transform="scale(0.26458333)" />
  </g>
</svg>
