<?xml version="1.0" encoding="UTF-8" standalone="no"?>
<svg
   width="418.259mm"
   height="483.367mm"
   viewBox="0 0 1580.8214 1826.8989"
   version="1.1"
   id="svg2381"
   sodipodi:docname="Windows ME Icon Wallpaper Accurate.svg"
   inkscape:version="1.3.2 (091e20e, 2023-11-25, custom)"
   xmlns:inkscape="http://www.inkscape.org/namespaces/inkscape"
   xmlns:sodipodi="http://sodipodi.sourceforge.net/DTD/sodipodi-0.dtd"
   xmlns:xlink="http://www.w3.org/1999/xlink"
   xmlns="http://www.w3.org/2000/svg"
   xmlns:svg="http://www.w3.org/2000/svg"
   xmlns:rdf="http://www.w3.org/1999/02/22-rdf-syntax-ns#"
   xmlns:cc="http://creativecommons.org/ns#"
   xmlns:dc="http://purl.org/dc/elements/1.1/">
  <defs
     id="defs2375">
    <linearGradient
       id="linearGradient27"
       inkscape:collect="always">
      <stop
         style="stop-color:#4db14d;stop-opacity:1;"
         offset="0"
         id="stop30" />
      <stop
         style="stop-color:#028c5b;stop-opacity:1;"
         offset="0.1875478"
         id="stop34" />
      <stop
         style="stop-color:#b3e874;stop-opacity:1;"
         offset="1"
         id="stop32" />
    </linearGradient>
    <linearGradient
       id="linearGradient20"
       inkscape:collect="always">
      <stop
         style="stop-color:#4eba4a;stop-opacity:1;"
         offset="0"
         id="stop23" />
      <stop
         style="stop-color:#82c784;stop-opacity:1;"
         offset="0.51908916"
         id="stop27" />
      <stop
         style="stop-color:#a8e5a2;stop-opacity:1;"
         offset="1"
         id="stop25" />
    </linearGradient>
    <linearGradient
       id="linearGradient9"
       inkscape:collect="always">
      <stop
         style="stop-color:#5cb87c;stop-opacity:1;"
         offset="0"
         id="stop11" />
      <stop
         style="stop-color:#038b56;stop-opacity:1;"
         offset="0.44307831"
         id="stop18" />
      <stop
         style="stop-color:#028b55;stop-opacity:1;"
         offset="0.59835261"
         id="stop20" />
      <stop
         style="stop-color:#9adab1;stop-opacity:1;"
         offset="1"
         id="stop16" />
    </linearGradient>
    <linearGradient
       id="linearGradient1"
       inkscape:collect="always">
      <stop
         style="stop-color:#49bd4d;stop-opacity:1;"
         offset="0"
         id="stop6" />
      <stop
         style="stop-color:#a3e69b;stop-opacity:1;"
         offset="1"
         id="stop8" />
    </linearGradient>
    <linearGradient
       id="SVGID_1_-6-8"
       x1="3.0055957"
       x2="53.905998"
       y1="47.040207"
       y2="98.280998"
       gradientTransform="matrix(11.923,0,0,-11.922999,63.906357,1721.4708)"
       gradientUnits="userSpaceOnUse">
      <stop
         stop-color="#FFF1BF"
         offset="0"
         id="stop28"
         style="stop-color:#fbe9d3;stop-opacity:1;" />
      <stop
         stop-color="#FF7400"
         offset="0.46779999"
         id="stop29"
         style="stop-color:#eb6f33;stop-opacity:1;" />
      <stop
         stop-color="#FF7400"
         offset="0.61790001"
         id="stop30-6"
         style="stop-color:#dd6528;stop-opacity:1;" />
      <stop
         stop-color="#FF9735"
         offset="0.80010003"
         id="stop31"
         style="stop-color:#f9a059;stop-opacity:1;" />
    </linearGradient>
    <radialGradient
       id="SVGID_2_-9-8"
       cx="37.170605"
       cy="47.272186"
       r="46.660999"
       gradientTransform="matrix(9.9388912,6.5860746,6.8573987,-10.348338,-203.30853,1371.8943)"
       gradientUnits="userSpaceOnUse"
       fx="37.170605"
       fy="47.272186">
      <stop
         stop-color="#FF7600"
         offset="0.4039"
         id="stop32-5"
         style="stop-color:#ee8915;stop-opacity:1;" />
      <stop
         stop-color="#FFF1BF"
         offset="1"
         id="stop33"
         style="stop-color:#f8f4f1;stop-opacity:1;" />
    </radialGradient>
    <linearGradient
       id="SVGID_3_-3-0"
       x1="113.12"
       x2="1.3556"
       y1="43.82"
       y2="3.1400001"
       gradientTransform="matrix(11.967001,0,0,-11.967,63.585854,1709.4742)"
       gradientUnits="userSpaceOnUse">
      <stop
         stop-color="#CCE1FF"
         offset="0.43349999"
         id="stop22"
         style="stop-color:#e3e8ee;stop-opacity:1;" />
      <stop
         stop-color="#298BED"
         offset="0.78820002"
         id="stop23-7"
         style="stop-color:#3687c8;stop-opacity:1;" />
    </linearGradient>
    <radialGradient
       id="SVGID_4_-5-2"
       cx="33.114868"
       cy="-60.116722"
       r="36.755001"
       gradientTransform="matrix(12.857027,0.12235528,0.11323917,-11.85797,-220.60887,761.77023)"
       gradientUnits="userSpaceOnUse"
       fx="33.114868"
       fy="-60.116722">
      <stop
         stop-color="#fff"
         stop-opacity=".6"
         offset="0"
         id="stop24"
         style="stop-color:#ffffff;stop-opacity:0.65769231;" />
      <stop
         stop-color="#fff"
         stop-opacity=".6"
         offset="0.68362623"
         id="stop2"
         style="stop-color:#ffffff;stop-opacity:0.33333333;" />
      <stop
         stop-color="#fff"
         stop-opacity=".6"
         offset="0.81476998"
         id="stop4"
         style="stop-color:#ffffff;stop-opacity:0.16470588;" />
      <stop
         stop-color="#fff"
         stop-opacity="0"
         offset="0.99989998"
         id="stop25-7" />
    </radialGradient>
    <radialGradient
       id="SVGID_5_-4-0"
       cx="89.350998"
       cy="57.181999"
       r="99.939003"
       gradientTransform="matrix(11.967001,0,0,-11.967,63.585854,1709.4742)"
       gradientUnits="userSpaceOnUse">
      <stop
         stop-color="#298BED"
         offset="0.42269999"
         id="stop26"
         style="stop-color:#2b84c3;stop-opacity:1;" />
      <stop
         stop-color="#CCE1FF"
         offset="0.81980002"
         id="stop27-9"
         style="stop-color:#c7d1e4;stop-opacity:1;" />
    </radialGradient>
    <radialGradient
       id="SVGID_5_-2"
       cx="237.33746"
       cy="-203.30403"
       r="33.277"
       gradientTransform="matrix(42.835815,0,0,-42.835812,-8421.5314,-8662.4291)"
       gradientUnits="userSpaceOnUse"
       fx="237.33746"
       fy="-203.30403">
      <stop
         stop-color="#5DAC39"
         offset="0"
         id="stop1"
         style="stop-color:#48bc4c;stop-opacity:1;" />
      <stop
         stop-color="#CEE1CD"
         offset="0.97186524"
         id="stop2-8"
         style="stop-color:#a4e79c;stop-opacity:1;" />
      <stop
         stop-color="#5DAC39"
         offset="1"
         id="stop3"
         style="stop-color:#48bc4c;stop-opacity:1;" />
    </radialGradient>
    <radialGradient
       id="SVGID_6_-4"
       cx="214.54102"
       cy="-200.65413"
       r="47.070999"
       gradientTransform="matrix(42.835815,0,0,-42.835812,-8421.5314,-8662.4291)"
       gradientUnits="userSpaceOnUse"
       fx="214.54102"
       fy="-200.65413">
      <stop
         stop-color="#5DAC39"
         offset="0.60786372"
         id="stop4-4"
         style="stop-color:#4db14d;stop-opacity:1;" />
      <stop
         stop-color="#CEE1CD"
         offset="0.66713703"
         id="stop5"
         style="stop-color:#028c5b;stop-opacity:1;" />
      <stop
         stop-color="#5DAC39"
         offset="0.94182533"
         id="stop6-8"
         style="stop-color:#b5d88b;stop-opacity:1;" />
    </radialGradient>
    <radialGradient
       id="SVGID_7_-9"
       cx="241"
       cy="-244.14"
       r="30.059999"
       gradientTransform="matrix(41.617586,3.5320212,3.783327,-44.578703,-7204.2774,-9939.1558)"
       gradientUnits="userSpaceOnUse"
       fx="241"
       fy="-244.14">
      <stop
         stop-color="#5DAC39"
         offset="0.12734181"
         id="stop7"
         style="stop-color:#5cb87c;stop-opacity:1;" />
      <stop
         stop-color="#CEE1CD"
         offset="0.40249747"
         id="stop9"
         style="stop-color:#03955d;stop-opacity:1;" />
      <stop
         stop-color="#CEE1CD"
         offset="0.58832151"
         id="stop13"
         style="stop-color:#02925a;stop-opacity:1;" />
      <stop
         stop-color="#5DAC39"
         offset="0.8786658"
         id="stop9-3"
         style="stop-color:#9ccaab;stop-opacity:1;" />
    </radialGradient>
    <radialGradient
       id="SVGID_8_-8"
       cx="242.42"
       cy="-242.85001"
       r="9.1257"
       gradientTransform="matrix(42.835815,0,0,-42.835812,-8421.5314,-8662.4291)"
       gradientUnits="userSpaceOnUse">
      <stop
         stop-color="#5DAC39"
         offset=".0078"
         id="stop10" />
      <stop
         stop-color="#CEE1CD"
         offset=".4549"
         id="stop11-3" />
      <stop
         stop-color="#5DAC39"
         offset=".8902"
         id="stop12" />
    </radialGradient>
    <radialGradient
       id="SVGID_9_-9"
       cx="212.00999"
       cy="-226.66"
       r="38.889999"
       gradientTransform="matrix(4.0195,0,0,-4.0195,-724.69,-736.26)"
       gradientUnits="userSpaceOnUse">
      <stop
         stop-color="#5DAC39"
         offset="0"
         id="stop13-7"
         style="stop-color:#4eba4a;stop-opacity:1;" />
      <stop
         stop-color="#CEE1CD"
         offset="0.47795722"
         id="stop14"
         style="stop-color:#82c784;stop-opacity:1;" />
      <stop
         stop-color="#5DAC39"
         offset="1"
         id="stop15"
         style="stop-color:#a8e5a2;stop-opacity:1;" />
    </radialGradient>
    <radialGradient
       id="SVGID_10_-0"
       cx="214.09"
       cy="-243.02"
       r="33.152"
       gradientTransform="matrix(42.835815,0,0,-42.835812,-8421.5314,-8662.4291)"
       gradientUnits="userSpaceOnUse">
      <stop
         stop-color="#5DAC39"
         offset=".0078"
         id="stop16-1" />
      <stop
         stop-color="#CEE1CD"
         offset=".4549"
         id="stop17" />
      <stop
         stop-color="#5DAC39"
         offset=".8902"
         id="stop18-0" />
    </radialGradient>
    <radialGradient
       id="SVGID_11_-8"
       cx="280.84351"
       cy="-235.71371"
       r="41.210999"
       gradientTransform="matrix(-104.54658,14.074914,9.4616026,70.279513,31983.303,12674.677)"
       gradientUnits="userSpaceOnUse"
       fx="280.84351"
       fy="-235.71371">
      <stop
         stop-color="#5DAC39"
         offset="0"
         id="stop19"
         style="stop-color:#53ba4f;stop-opacity:1;" />
      <stop
         stop-color="#CEE1CD"
         offset="0"
         id="stop20-8"
         style="stop-color:#b9dfaf;stop-opacity:1;" />
      <stop
         stop-color="#5DAC39"
         offset="0.7399618"
         id="stop21"
         style="stop-color:#53ba4f;stop-opacity:1;" />
    </radialGradient>
    <filter
       id="shadow-5"
       x="-0.019892868"
       y="-0.022998696"
       width="1.0397857"
       height="1.0459974">
      <feGaussianBlur
         stdDeviation="1.1703867"
         id="feGaussianBlur21" />
    </filter>
    <linearGradient
       inkscape:collect="always"
       xlink:href="#linearGradient1"
       id="linearGradient8"
       x1="554.10693"
       y1="39.405827"
       x2="2016.8513"
       y2="93.79866"
       gradientUnits="userSpaceOnUse" />
    <linearGradient
       inkscape:collect="always"
       xlink:href="#linearGradient9"
       id="linearGradient16"
       x1="609.57825"
       y1="1779.3374"
       x2="2017.8628"
       y2="1543.3374"
       gradientUnits="userSpaceOnUse" />
    <linearGradient
       inkscape:collect="always"
       xlink:href="#linearGradient20"
       id="linearGradient25"
       x1="542.2713"
       y1="36.252563"
       x2="657.02588"
       y2="1806.8479"
       gradientUnits="userSpaceOnUse" />
    <linearGradient
       inkscape:collect="always"
       xlink:href="#linearGradient27"
       id="linearGradient32"
       x1="1972.5291"
       y1="113.9408"
       x2="2052.5205"
       y2="1417.9778"
       gradientUnits="userSpaceOnUse" />
  </defs>
  <sodipodi:namedview
     id="base"
     pagecolor="#ffffff"
     bordercolor="#666666"
     borderopacity="1.0"
     inkscape:pageopacity="0.0"
     inkscape:pageshadow="2"
     inkscape:zoom="0.1767767"
     inkscape:cx="1001.2632"
     inkscape:cy="1264.3069"
     inkscape:document-units="mm"
     inkscape:current-layer="svg2381"
     inkscape:document-rotation="0"
     showgrid="false"
     units="px"
     inkscape:window-width="1440"
     inkscape:window-height="837"
     inkscape:window-x="-8"
     inkscape:window-y="-8"
     inkscape:window-maximized="1"
     inkscape:showpageshadow="2"
     inkscape:pagecheckerboard="0"
     inkscape:deskcolor="#d1d1d1" />
  <metadata
     id="metadata2378">
    <rdf:RDF>
      <cc:Work
         rdf:about="">
        <dc:format>image/svg+xml</dc:format>
        <dc:type
           rdf:resource="http://purl.org/dc/dcmitype/StillImage" />
      </cc:Work>
    </rdf:RDF>
  </metadata>
  <g
     id="layer1"
     transform="translate(-497.01647)">
    <path
       style="display:inline;opacity:1;fill:url(#linearGradient8);stroke:#ff8282;stroke-width:0"
       d="M 550.48078,-5.2809956e-8 556.00963,84.214745 1973.337,115.07354 1969.0706,57.051283 Z"
       id="path1"
       sodipodi:nodetypes="ccccc" />
    <path
       style="display:inline;opacity:1;fill:url(#linearGradient32);stroke:#ff8282;stroke-width:0"
       d="m 1944.2447,56.057744 67.4091,1453.724356 66.1804,8.3731 -97.215,-1460.78335 z"
       id="path27"
       sodipodi:nodetypes="ccccc" />
    <path
       style="display:inline;opacity:1;fill:url(#linearGradient16);stroke:#ff8282;stroke-width:0"
       d="M 615.65293,1826.8918 2077.8394,1518.1549 2027.5039,1458.0153 609.57827,1626.1825 Z"
       id="path8"
       sodipodi:nodetypes="ccccc" />
    <path
       style="display:inline;opacity:1;fill:url(#linearGradient25);stroke:#ff8282;stroke-width:0"
       d="M 497.01647,44.48699 615.65136,1826.8978 719.25126,1680.1594 640.89786,49.523417 Z"
       id="path20"
       sodipodi:nodetypes="ccccc" />
    <path
       d="m 749.03064,1638.627 v -0.7716 z"
       fill="url(#SVGID_10_)"
       id="path42"
       style="display:inline;fill:url(#SVGID_10_-0);stroke-width:10.657" />
    <path
       d="M 2039.0801,1471.7802 1946.0675,87.60718 553.51733,46.46158 667.18489,1753.8195 Z"
       fill="url(#SVGID_11_)"
       id="path43"
       style="display:inline;fill:url(#SVGID_11_-8);stroke-width:10.657"
       sodipodi:nodetypes="ccccc" />
    <path
       d="M 1931.1238,1378.6351 1857.6528,211.65471 714.68954,194.23899 805.71312,1582.3132 Z"
       fill="#ffffff"
       id="path44"
       style="display:inline;stroke-width:10.657"
       sodipodi:nodetypes="ccccc" />
    <path
       transform="matrix(7.5810003,0,0,7.5809997,-2648.6573,544.64477)"
       d="m 489.32,-20.237 c -1.5102,0 -3.0421,0.04452 -4.5524,0.0876 l -1.3139,3.3647 4.5086,-0.10821 z m 3.1509,5.9539 -1.5973,3.8851 c 2.028,0.10811 4.0351,0.08481 6.0415,0.14943 l 1.6386,-3.9263 c -2.0496,-0.12841 -4.0547,-0.04359 -6.0827,-0.10821 z m -8.0253,5.114 c -1.2729,0.08616 -2.5256,0.0012 -3.7769,0.152 l -1.1645,2.9551 3.7537,-0.152 z m 20.075,1.5381 c -1.6701,0.0042 -3.337,0.03607 -4.9955,0.03607 l -1.8318,4.6838 7.9609,0.064408 1.8756,-4.7482 c -1.0032,-0.03231 -2.0071,-0.03859 -3.0092,-0.03607 z m 4.0655,4.2664 -2.414,6.1909 9.8596,0.064408 2.5222,-6.2347 z m -20.021,0.60286 -1.4453,3.6893 h 4.8976 l 1.4685,-3.5811 c -1.6397,-0.086989 -3.2812,-5.061e-4 -4.9208,-0.10821 z m 30.679,3.0633 -3.2565,8.1773 11.261,0.064408 3.2797,-8.1541 z m 26.106,0.75487 -2.4089,6.0106 -11.766,29.048 c -0.007,1.36e-4 -0.0137,-1.39e-4 -0.0206,0 l -1.2315,3.0942 -0.45086,1.113 -13.023,32.287 -0.56937,1.4144 -2.0508,5.0702 c 4.9405,0.19415 9.9034,0.86124 14.865,1.7674 14.39,2.6968 28.738,9.7955 37.001,21.036 l 31.8,-78.746 c -2.3948,-3.1284 -5.2203,-5.827 -8.2623,-8.2649 -12.103,-9.7732 -29.147,-13.894 -43.883,-13.83 z m -3.0324,0.041221 c -3.5531,0.0021 -7.1196,0.38433 -10.669,0.78063 l -4.184,10.398 11.908,-0.0876 4.4674,-11.068 c -0.507,-0.016181 -1.015,-0.023487 -1.5226,-0.023187 z m -62.404,0.93006 -3.7305,0.17261 -1.2083,2.9551 c 1.2513,0.02154 2.4792,-0.084494 3.7305,-0.12882 z m 20.863,1.9271 c -1.6838,-0.00138 -3.3713,0.030992 -5.0702,0.015458 l -1.6617,4.099 c 2.2437,0.10853 4.4676,0.12882 6.7114,0.12882 l 1.703,-4.2278 c -0.56094,-0.011081 -1.1211,-0.014998 -1.6824,-0.015458 z m 6.2631,4.1556 c -0.69915,-0.00318 -1.3985,-0.0026 -2.0997,0.00258 l -2.329,5.6963 c 2.7831,0.10894 5.5865,0.0437 8.3911,0.06441 l 2.3316,-5.7169 c -2.1035,0 -4.1965,-0.036821 -6.294,-0.046374 z m -21.824,0.34523 c -0.40621,6.861e-4 -0.80941,0.014064 -1.2032,0.046374 l -1.3577,3.6455 c 1.6181,-0.02361 3.2779,0.04236 4.8744,-0.0438 l 1.3603,-3.5811 c -1.1974,0.032931 -2.4552,-0.069043 -3.6739,-0.066984 z m 30.254,3.9083 -2.7412,6.8582 9.4062,0.0876 2.8056,-6.8814 z m -39.632,0.79609 -4.5756,0.152 -1.3165,3.3441 4.5524,-0.06441 z m 62.997,0.36584 -11.867,0.0438 -3.8825,9.6226 c 3.9913,-0.02195 7.9613,-0.06399 11.931,-0.19323 z m -47.657,1.6411 -1.6411,4.184 6.6676,0.0438 1.7468,-4.1634 c -2.2653,-0.06462 -4.5294,-0.0437 -6.7732,-0.06441 z m 9.2542,4.1428 -2.2646,5.7375 h 8.3499 l 2.2646,-5.7375 z m -21.618,0.23702 -1.5741,3.8825 6.0415,0.0876 1.5948,-3.8619 c -2.0064,-0.12841 -4.0341,-0.02205 -6.0621,-0.10821 z m 32.297,3.6043 -2.7386,6.817 9.4912,0.06441 2.718,-6.8608 z m 23.324,1.2701 -11.995,0.17262 -3.8619,9.5994 0.0644,0.04637 11.908,-0.17262 v -0.0026 z m -64.573,0.2396 c -0.95468,0.005 -1.9201,0.02743 -2.8262,0.10821 l -1.1645,2.9319 3.7305,-0.08502 1.2083,-2.9551 c -0.31284,0 -0.62987,-0.0017 -0.9481,0 z m 20.062,1.52 c -1.3511,0 -2.7042,0.01133 -4.0526,0.03349 l -1.8344,4.658 7.9815,0.06698 1.9426,-4.725 c -1.3376,-0.02216 -2.686,-0.03349 -4.0371,-0.03349 z m 5.0934,4.2175 -2.5248,6.1703 0.0876,0.0438 9.8364,0.02061 2.5042,-6.2347 z m -20.064,0.58225 -1.4891,3.6893 c 1.6397,0.1077 3.3027,-0.04432 4.9208,0 0.53941,-1.1434 1.0349,-2.3955 1.4015,-3.5605 z m 30.702,2.9989 -3.2385,8.1129 11.241,0.08502 3.3029,-8.1103 z m 24.313,1.4247 -11.931,0.152 -3.8387,9.5788 11.972,-0.12882 z m -63.731,0.56164 c -1.2513,0 -2.5033,0.0642 -3.7331,0.12882 l -1.2083,2.9551 c 1.2298,0.04308 2.4818,-0.0845 3.7331,-0.12882 z m 20.933,1.7596 c -1.699,-0.0027 -3.397,0.05619 -5.096,0.0077 l -1.5973,4.1015 6.6882,0.08502 1.7055,-4.1634 c -0.56634,-0.02133 -1.134,-0.03002 -1.7004,-0.03092 z m 8.3628,4.1041 c -1.3996,-0.003 -2.8022,0.0026 -4.2046,0.0026 l -2.2646,5.6731 8.3499,0.04637 2.3084,-5.6757 c -1.3916,-0.03251 -2.7895,-0.04342 -4.1891,-0.04637 z m -21.471,0.61832 c -1.2419,0.0073 -2.4957,0.06176 -3.7254,0.07729 -0.51779,1.1003 -0.99113,2.351 -1.3577,3.4729 l 4.8306,0.02061 1.4891,-3.5579 c -0.40992,-0.01077 -0.82267,-0.0153 -1.2366,-0.01288 z m 27.837,3.5502 -2.7386,6.7088 9.4706,0.19322 2.718,-6.817 z m 23.666,0.40964 -11.972,0.14943 -3.9057,9.839 11.931,-0.152 0.0438,-0.12882 z m -63.319,0.58225 c -1.5749,0.06462 -3.1082,0.06491 -4.64,0.17261 l -1.3139,3.2153 c 1.5102,0.08616 3.019,-0.06462 4.5292,0 z m 15.468,1.6386 c -0.58253,1.2513 -1.165,2.7639 -1.6179,4.1015 l 6.6676,0.12882 c 0.58249,-1.3808 1.1858,-2.8711 1.6824,-4.2303 z m 11.346,4.0474 c -0.6978,-3.76e-4 -1.3936,0.0026 -2.0894,0.0077 l -2.3316,5.6963 8.3937,0.0438 2.3084,-5.6525 c -2.0873,-0.06462 -4.1877,-0.0942 -6.2811,-0.09532 z m -20.116,0.77805 c -1.2747,0.0032 -2.5474,0.02834 -3.8284,0.02834 l -1.5329,3.8851 6.1059,-0.02319 1.5535,-3.8619 c -0.76857,-0.02423 -1.5333,-0.03023 -2.2981,-0.02834 z m 28.577,3.46 -2.785,6.8402 9.4294,0.12882 c 1.014,-2.2653 1.8338,-4.6608 2.8262,-6.9046 z m 23.473,0.73168 -11.89,0.10821 -3.9676,9.7308 0.10563,0.0438 11.931,-0.30143 v -0.0026 z m -48.543,1.9219 -1.8988,4.7044 c 2.6536,0.06462 5.3063,0.08512 7.9815,0.06441 l 1.9426,-4.725 c -2.6753,0.04184 -5.35,-0.0438 -8.0253,-0.0438 z m 9.1048,4.1634 -2.5248,6.2347 9.9034,0.0876 2.5016,-6.2579 z m 10.679,3.6481 -3.3003,8.1103 11.217,0.17262 3.3003,-8.1541 z m 24.38,1.2701 -12.019,0.21641 -4.1634,10.334 c 3.9913,-0.3231 7.9819,-0.28032 11.952,-0.17262 z"
       fill="#666666"
       filter="url(#shadow)"
       opacity="0.5"
       id="path45"
       style="opacity:0.27345;filter:url(#shadow-5)" />
    <path
       d="m 1241.2033,1082.5923 103.0427,-255.476 c 49.0672,-2.61582 128.8842,8.341 178.2779,20.28068 l -106.1484,263.00022 c -48.0874,-12.1031 -127.0848,-26.3327 -175.1691,-27.8046"
       fill="#5494d4"
       id="path46"
       style="fill:#0098fe;fill-opacity:1;stroke-width:31.4031" />
    <path
       d="M 1705.0256,950.38566 1597.731,1214.532 c -35.8183,-29.4406 -134.116,-85.5418 -181.2205,-104.0224 L 1522.659,847.50949 c 47.9209,17.17357 150.4737,68.5307 182.3666,102.87617"
       fill="#fac705"
       id="path47"
       style="fill:#fccd01;fill-opacity:1;stroke-width:31.4031" />
    <path
       d="M 1810.2257,705.44227 1705.057,950.28826 c -34.5119,-31.403 -133.9526,-85.21198 -182.3666,-102.87617 l 106.475,-263.32671 c 48.414,16.19229 149.6541,85.37851 181.0571,121.35999"
       fill="#73ca54"
       id="path48"
       style="fill:#65cc2e;fill-opacity:1;stroke-width:31.4031" />
    <path
       d="m 1344.2051,827.28588 104.6757,-258.42149 c 48.9039,-1.9627 130.6804,5.7247 180.0773,15.37448 l -106.475,263.32682 c -48.7406,-13.41161 -129.5374,-21.26241 -178.278,-20.28071"
       fill="#f3632e"
       id="path49"
       style="display:inline;fill:#fe3102;fill-opacity:1;stroke-width:31.4031" />
    <path
       d="m 990.29328,922.12296 -50.54,-0.97977 c 3.43359,-10.1407 7.8508,-21.58991 12.26699,-31.07611 h 51.02993 c -3.76433,10.30428 -8.3416,21.58991 -12.75753,32.05618"
       fill="#5494d4"
       id="path50"
       style="fill:#0097fe;fill-opacity:1;stroke-width:31.4031" />
    <path
       d="m 1068.1728,964.51697 -63.6225,-0.336 17.6642,-43.1791 c 21.0987,-0.15685 42.3626,0 63.4592,0.65322 l -17.5006,42.85247"
       fill="#5494d4"
       id="path51"
       style="fill:#0197fe;fill-opacity:1;stroke-width:31.4031" />
    <path
       d="m 1174.0009,953.52596 c -7.5239,17.01002 -13.7391,35.1651 -21.4263,52.33944 l -71.4732,-0.9798 21.0987,-51.84641 71.803,0.4899"
       fill="#5494d4"
       id="path52"
       style="fill:#0299fb;fill-opacity:1;stroke-width:31.4031" />
    <path
       d="m 922.46277,870.30798 -36.63779,-0.15685 c 2.77912,-8.50519 6.3792,-17.99138 10.30461,-26.33269 12.42989,-0.15685 25.18768,-0.81641 37.61761,-0.48982 l -11.2859,26.98711"
       fill="#5494d4"
       id="path53"
       style="fill:#0097fe;fill-opacity:1;stroke-width:31.4031" />
    <path
       d="m 855.88847,816.60887 c -9.4862,0.336 -18.9724,1.30639 -28.29536,0.9798 l 9.15927,-22.40761 c 9.323,-0.4899 18.8092,-0.97976 28.2954,-0.97976 l -9.15931,22.40757"
       fill="#5494d4"
       id="path54"
       style="fill:#0097fe;fill-opacity:1;stroke-width:31.4031" />
    <path
       d="m 1023.5805,839.21906 -50.70332,-0.65318 12.1031,-31.0755 c 17.17332,0.4899 34.34862,-0.4899 51.51972,0.15685 l -12.9214,31.56631"
       fill="#5494d4"
       id="path55"
       style="fill:#0097fe;fill-opacity:1;stroke-width:31.4031" />
    <path
       d="m 1101.1459,881.92708 -63.2959,-0.336 17.1737,-43.01579 c 21.2623,0 42.5259,-0.15685 63.6225,0.336 l -17.5006,43.01579"
       fill="#5494d4"
       id="path56"
       style="fill:#0097fe;fill-opacity:1;stroke-width:31.4031" />
    <path
       d="m 1186.248,922.43696 -71.7998,-1.47277 20.7715,-50.86662 71.6397,0.65322 -20.6085,51.68307"
       fill="#5494d4"
       id="path57"
       style="fill:#0097fe;fill-opacity:1;stroke-width:31.4031" />
    <path
       d="m 957.00618,784.26379 c -12.26668,-0.336 -24.86048,0.81649 -37.29109,0 l 11.2856,-27.96839 36.63791,0.97969 c -2.7792,8.83181 -6.54221,18.31869 -10.63151,26.98707"
       fill="#5494d4"
       id="path58"
       style="fill:#0097fe;fill-opacity:1;stroke-width:31.4031" />
    <path
       d="m 890.43177,730.87868 -28.29601,0.65321 8.83242,-22.24399 c 9.15901,-0.81653 19.13609,-0.81653 28.62259,-0.81653 l -9.159,22.40731"
       fill="#5494d4"
       id="path59"
       style="fill:#0197fe;fill-opacity:1;stroke-width:31.4031" />
    <path
       d="m 1092.0391,668.70076 -50.54,-0.336 12.4305,-31.72958 c 17.0101,0.15685 34.1822,0 51.3565,0.4899 l -13.2483,31.5662"
       fill="#f3632e"
       id="path60"
       style="fill:#fe3102;fill-opacity:1;stroke-width:31.4031" />
    <path
       d="m 1107.1125,711.4089 17.1737,-43.50581 h 63.2958 l -17.1736,43.50581 h -63.2959"
       fill="#f3632e"
       id="path61"
       style="fill:#fe3102;fill-opacity:1;stroke-width:31.4031" />
    <path
       d="m 1256.2767,749.09237 -71.9662,-0.48979 20.7715,-51.68311 71.803,0.15685 -20.6079,52.0097"
       fill="#f3632e"
       id="path62"
       style="fill:#fe3102;fill-opacity:1;stroke-width:31.4031" />
    <path
       d="m 1026.4068,613.11748 c -12.1034,0.65311 -24.6972,0.15685 -36.96452,0.336 l 10.30401,-27.64089 c 11.93971,-0.97981 24.86051,0.48979 36.96441,0.15685 l -10.3039,27.15069"
       fill="#f3632e"
       id="path63"
       style="fill:#fe3102;fill-opacity:1;stroke-width:31.4031" />
    <path
       d="m 959.5184,559.73238 c -9.4862,0.336 -18.8092,1.143 -28.2954,0.97969 l 9.15927,-22.40757 28.2954,-1.30632 -9.15927,22.7345"
       fill="#f3632e"
       id="path64"
       style="fill:#fd3102;fill-opacity:1;stroke-width:31.4031" />
    <path
       d="m 1126.5823,583.59858 c -17.0097,0 -33.8555,-0.15685 -50.8665,-0.97969 l 12.5938,-31.07581 c 17.1731,0.15685 34.1822,-0.336 51.1932,0 l -12.9211,32.05622"
       fill="#f3632e"
       id="path65"
       style="fill:#fe3102;fill-opacity:1;stroke-width:31.4031" />
    <path
       d="m 1204.1478,626.62079 c -21.2624,-0.15723 -42.526,0.336 -63.6225,-0.4899 l 17.6642,-43.17921 c 21.2626,-0.15685 42.3626,0.336 63.6224,0.336 l -17.6641,43.34237"
       fill="#f3632e"
       id="path66"
       style="fill:#fd3102;fill-opacity:1;stroke-width:31.4031" />
    <path
       d="m 1288.6218,667.75868 -71.3099,-0.65318 20.7715,-52.0097 71.803,0.48987 -21.2627,52.17611"
       fill="#f3632e"
       id="path67"
       style="fill:#fe3102;fill-opacity:1;stroke-width:31.4031" />
    <path
       d="m 1060.322,528.64338 h -37.1277 l 10.9583,-27.9685 c 12.43,0.81649 24.8605,0.15723 37.2911,0.81649 l -11.1217,27.15042"
       fill="#f3632e"
       id="path68"
       style="fill:#fe3102;fill-opacity:1;stroke-width:31.4031" />
    <path
       d="m 994.06169,474.31619 -28.45901,1.14308 8.83212,-22.40757 c 9.48619,-1.14312 18.97307,-0.48991 28.6229,-1.14312 l -8.99601,22.40731"
       fill="#f3632e"
       id="path69"
       style="fill:#fe3102;fill-opacity:1;stroke-width:31.4031" />
    <path
       d="m 958.26227,1009.1093 c -20.28098,0.1568 -40.39998,0 -60.51678,-0.4899 l 14.39301,-35.65503 c 20.28129,0 40.56318,0.65321 60.84329,0.336 l -14.7205,35.81833"
       id="path70"
       style="stroke-width:31.4031" />
    <path
       d="m 1419.2583,614.05957 -90.2836,0.6531 31.7296,-78.8341 c 30.7489,-3.43359 61.6598,-6.70609 92.4096,-5.7247 l -33.8556,83.9057"
       id="path71"
       style="stroke-width:31.4031" />
    <path
       d="m 1029.5471,393.2965 -34.18222,0.81638 9.97712,-25.51488 c 11.4492,-0.32655 23.0614,-0.65321 34.5119,-0.65321 l -10.3043,25.35129"
       id="path72"
       style="stroke-width:31.4031" />
    <path
       d="m 1097.3776,443.85527 c -15.2107,-0.4899 -30.4214,-0.32655 -45.795,-1.14617 l 12.103,-29.44029 c 15.3746,0.48986 30.5853,-0.15685 46.1247,0.81637 l -12.4302,29.7676"
       id="path73"
       style="stroke-width:31.4031" />
    <path
       d="m 1327.5615,586.42487 -85.3784,-0.4899 24.6975,-61.98947 85.5418,0.65318 -24.8609,61.82309"
       id="path74"
       style="stroke-width:31.4031" />
    <path
       d="m 1167.7203,543.08877 18.3183,-46.9412 75.5619,0.15685 -19.1361,47.26783 -74.7454,-0.4899"
       id="path75"
       style="stroke-width:31.4031" />
    <path
       d="m 1163.6379,500.06668 -60.3534,-0.48991 13.9021,-35.49169 c 20.1177,0 40.3999,-0.65318 60.68,0 l -14.2293,35.9816"
       id="path76"
       style="stroke-width:31.4031" />
    <path
       d="m 1386.2852,696.02138 c -30.0945,0.97981 -60.1902,1.30632 -90.447,1.47281 l 29.44,-72.94602 89.9571,-0.336 -28.9495,71.80297"
       id="path77"
       style="stroke-width:31.4031" />
    <path
       d="m 1352.3699,779.86736 -90.2836,1.30644 -0.4899,-0.336 29.2767,-72.78271 90.9368,-1.30643 -29.4403,73.10941"
       id="path78"
       style="stroke-width:31.4031" />
    <path
       d="m 892.94398,647.66078 9.97708,-25.35141 34.67521,-1.14301 -10.1407,26.00542 -34.51189,0.4899"
       id="path79"
       style="stroke-width:31.4031" />
    <path
       d="m 1228.6421,863.71338 29.1134,-72.61938 90.4469,-1.14312 -28.7858,72.7827 -90.7736,0.9798"
       id="path80"
       style="stroke-width:31.4031" />
    <path
       d="m 994.06169,699.78968 -45.79502,-0.6531 11.93941,-29.43999 c 15.37459,0.65311 30.74922,-0.15722 45.96142,0.81638 l -12.10301,29.27671"
       id="path81"
       style="stroke-width:31.4031" />
    <path
       d="m 1224.5597,841.41727 -85.2152,-0.65318 24.5339,-61.4965 85.7051,0.65318 -25.0241,61.4965"
       id="path82"
       style="stroke-width:31.4031" />
    <path
       d="m 1139.1435,799.3373 -74.5821,-0.15723 -0.6532,-0.336 19.1364,-46.77793 h 75.072 l -18.9727,47.26779"
       id="path83"
       style="stroke-width:31.4031" />
    <path
       d="m 1060.322,756.00108 -60.51671,-0.4899 13.90241,-35.32841 c 20.4446,-0.336 41.0532,-0.336 61.3332,0 l -14.7201,35.81831"
       id="path84"
       style="stroke-width:31.4031" />
    <path
       d="m 1285.1675,946.93136 -0.336,0.97973 -90.4469,1.14308 29.6036,-74.5821 90.7735,-1.14308 -29.6039,73.60237"
       id="path85"
       style="stroke-width:31.4031" />
    <path
       d="m 1250.9382,1031.0914 -90.4469,2.2893 -0.8165,-0.336 30.0945,-73.76574 90.1203,-0.81649 -28.9495,72.61953"
       id="path86"
       style="stroke-width:31.4031" />
    <path
       d="m 1214.8248,1120.5899 c -30.0948,-0.8164 -60.3534,-1.143 -90.6102,1.3064 l 31.5663,-78.3442 91.1001,-1.6361 -32.0562,78.6708"
       id="path87"
       style="stroke-width:31.4031" />
    <path
       d="m 891.05977,956.35229 -46.28799,0.15685 11.6129,-29.44003 c 15.53779,0 30.91238,-0.4899 46.45131,0 l -11.77622,29.27671"
       id="path88"
       style="stroke-width:31.4031" />
    <path
       d="m 1122.1859,1095.1535 -85.0487,-1.3064 25.0241,-61.4964 85.0487,0.9797 -25.0238,61.8263"
       id="path89"
       style="stroke-width:31.4031" />
    <path
       d="m 962.03057,1051.8174 19.13613,-47.2678 74.9087,0.4899 -18.9724,47.4311 -75.07212,-0.6532"
       id="path90"
       style="stroke-width:31.4031" />
    <path
       d="m 1763.4352,718.94558 c -31.5663,-35.9816 -75.2353,-61.33319 -123.8126,-77.52779 l -75.8916,187.76489 c 48.2475,17.8278 91.1001,42.19929 125.4487,73.7656 z m -98.461,245.17258 c -31.7296,-34.34858 -77.3644,-58.71727 -125.2854,-75.72828 l -77.0347,191.85352 c 47.1045,18.6458 91.1001,40.5632 126.9215,70.1668 z m 195.1257,-267.08878 -241.084,596.97112 c -62.6427,-85.2121 -171.407,-139.0243 -280.501,-159.4676 -37.6176,-6.8694 -75.2353,-11.9398 -112.6896,-13.4116 l 31.403,-77.691 c 48.0842,1.3063 96.3349,6.8694 144.5856,18.9724 l 77.8544,-192.99663 c -49.3938,-11.93968 -98.6243,-13.41158 -147.6915,-10.79441 l 25.188,-63.29589 c 48.7406,-0.97981 97.4812,1.96271 146.2187,15.3739 l 75.072,-185.8021 c -49.0672,-9.48619 -98.2977,-13.08468 -147.3649,-11.28559 l 33.6923,-84.06901 c 111.7099,-0.48979 240.9207,30.74921 332.6834,104.84213 23.0614,18.48158 44.4886,38.9272 62.6427,62.64268"
       fill-rule="evenodd"
       id="path91"
       style="stroke-width:31.4031" />
    <path
       d="m 823.85743,903.28118 c -11.44925,-0.4899 -22.89782,0.65318 -34.34862,0 l 9.97705,-24.37001 c 11.61218,-0.81649 23.22505,-0.81649 35.1651,-1.3064 l -10.79448,25.6783"
       id="path92"
       style="stroke-width:31.4031" />
  </g>
</svg>
