<?xml version="1.0" encoding="UTF-8" standalone="no"?>
<svg
   version="1.1"
   x="0px"
   y="0px"
   width="1000"
   height="882.846"
   viewBox="-73 14.917 1000 882.846"
   xml:space="preserve"
   id="svg790"
   sodipodi:docname="Windows 7 Starter.svg"
   inkscape:version="1.3.2 (091e20e, 2023-11-25, custom)"
   xmlns:inkscape="http://www.inkscape.org/namespaces/inkscape"
   xmlns:sodipodi="http://sodipodi.sourceforge.net/DTD/sodipodi-0.dtd"
   xmlns:xlink="http://www.w3.org/1999/xlink"
   xmlns="http://www.w3.org/2000/svg"
   xmlns:svg="http://www.w3.org/2000/svg"
   xmlns:rdf="http://www.w3.org/1999/02/22-rdf-syntax-ns#"
   xmlns:cc="http://creativecommons.org/ns#"
   xmlns:dc="http://purl.org/dc/elements/1.1/"><metadata
   id="metadata31"><rdf:RDF><cc:Work
       rdf:about=""><dc:format>image/svg+xml</dc:format><dc:type
         rdf:resource="http://purl.org/dc/dcmitype/StillImage" /></cc:Work></rdf:RDF></metadata><defs
   id="defs29"><linearGradient
     id="linearGradient1"
     inkscape:collect="always"><stop
       style="stop-color:#b3e6f6;stop-opacity:1;"
       offset="0"
       id="stop1" /><stop
       style="stop-color:#abe4f5;stop-opacity:1;"
       offset="0.5"
       id="stop8" /><stop
       style="stop-color:#6ad3f1;stop-opacity:1;"
       offset="1"
       id="stop5" /></linearGradient><radialGradient
     inkscape:collect="always"
     xlink:href="#linearGradient1"
     id="radialGradient8"
     cx="-37.534904"
     cy="46.516232"
     fx="-37.534904"
     fy="46.516232"
     r="32.952499"
     gradientTransform="matrix(0.94174407,0.14532372,-0.12153111,0.78756032,3.2877323,15.139369)"
     gradientUnits="userSpaceOnUse" /></defs><sodipodi:namedview
   pagecolor="#ffffff"
   bordercolor="#666666"
   borderopacity="1"
   objecttolerance="10"
   gridtolerance="10"
   guidetolerance="10"
   inkscape:pageopacity="0"
   inkscape:pageshadow="2"
   inkscape:window-width="1366"
   inkscape:window-height="705"
   id="namedview792"
   showgrid="false"
   fit-margin-top="0"
   fit-margin-left="0"
   fit-margin-right="0"
   fit-margin-bottom="0"
   inkscape:zoom="0.59693288"
   inkscape:cx="499.2186"
   inkscape:cy="441.42316"
   inkscape:window-x="-8"
   inkscape:window-y="-8"
   inkscape:window-maximized="1"
   inkscape:current-layer="svg790"
   inkscape:document-rotation="0"
   inkscape:showpageshadow="2"
   inkscape:pagecheckerboard="0"
   inkscape:deskcolor="#d1d1d1" />
<g
   id="g2070"
   transform="matrix(15.173352,0,0,15.173352,996.87305,-246.47434)"
   style="fill:url(#radialGradient8)"><path
     id="path15762"
     style="fill:url(#radialGradient8);fill-opacity:1;fill-rule:nonzero;stroke:none;stroke-width:1.55188"
     d="m -36.475775,49.375763 c 5.583241,3.729431 11.767489,6.719114 24.664807,1.433452 l -6.356861,21.753477 c -12.895749,5.284127 -19.079996,2.280631 -24.655391,-1.468751 z" /><path
     id="path15766"
     style="fill:url(#radialGradient8);fill-opacity:1;fill-rule:nonzero;stroke:none;stroke-width:1.55188"
     d="m -38.690241,43.335317 c -5.578533,-3.723292 -11.765919,-6.683815 -24.636561,-1.411965 l 6.380399,-21.848632 c 12.870641,-5.274919 19.054889,-2.289839 24.622438,1.453404 z" /><path
     id="path15770"
     style="fill:url(#radialGradient8);fill-opacity:1;fill-rule:nonzero;stroke:none;stroke-width:1.55188"
     d="m -69.849364,67.004609 c -0.05492,0.01995 -0.11926,0.0353 -0.188305,0.0353 -0.258919,0 -0.472331,-0.211795 -0.472331,-0.474236 0,-0.04758 0.0078,-0.09055 0.01883,-0.128919 l 6.06028,-20.729802 c 12.865934,-5.273384 19.056458,-2.312861 24.634992,1.407362 l -6.341168,21.707434 C -51.57594,65.17059 -57.593852,62.236157 -69.849364,67.00461" /><path
     id="path15774"
     style="fill:url(#radialGradient8);fill-opacity:1;fill-rule:nonzero;stroke:none;stroke-width:1.55188"
     d="m -4.6254085,26.203878 -6.0853875,20.824956 c -12.89261,5.281058 -19.07372,2.292909 -24.661668,-1.434986 l 6.363137,-21.791846 c 5.44672,3.660367 11.46777,6.608612 23.7515278,1.829416 0.051784,-0.01995 0.1098445,-0.03223 0.1788897,-0.03223 0.2589192,0.0015 0.4754699,0.216399 0.4739007,0.480376 0,0.04144 -0.012554,0.08594 -0.0204,0.124314" /></g></svg>
