<?xml version="1.0" encoding="UTF-8" standalone="no"?>
<svg
   xmlns:dc="http://purl.org/dc/elements/1.1/"
   xmlns:cc="http://creativecommons.org/ns#"
   xmlns:rdf="http://www.w3.org/1999/02/22-rdf-syntax-ns#"
   xmlns:svg="http://www.w3.org/2000/svg"
   xmlns="http://www.w3.org/2000/svg"
   xmlns:sodipodi="http://sodipodi.sourceforge.net/DTD/sodipodi-0.dtd"
   xmlns:inkscape="http://www.inkscape.org/namespaces/inkscape"
   width="963.217"
   height="963.217"
   version="1.1"
   id="svg76">
  <metadata
     id="metadata82">
    <rdf:RDF>
      <cc:Work
         rdf:about="">
        <dc:format>image/svg+xml</dc:format>
        <dc:type
           rdf:resource="http://purl.org/dc/dcmitype/StillImage" />
        <dc:title></dc:title>
      </cc:Work>
    </rdf:RDF>
  </metadata>
  <defs
     id="defs80" />
  <sodipodi:namedview
     pagecolor="#ffffff"
     bordercolor="#666666"
     borderopacity="1"
     objecttolerance="10"
     gridtolerance="10"
     guidetolerance="10"
     inkscape:pageopacity="0"
     inkscape:pageshadow="2"
     inkscape:window-width="1246"
     inkscape:window-height="1000"
     id="namedview78"
     showgrid="false"
     inkscape:zoom="0.28"
     inkscape:cx="47.68"
     inkscape:cy="47.68"
     inkscape:window-x="558"
     inkscape:window-y="0"
     inkscape:window-maximized="0"
     inkscape:current-layer="svg76" />
  <g
     transform="matrix(10.100851,0,0,10.100851,-1914.1112,0)"
     id="g74">
    <g
       transform="translate(189.5)"
       id="g72">
      <path
         d="m 47.68,2.5295 c 24.935,0 45.15,20.212 45.15,45.151 0,24.935 -20.215,45.15 -45.15,45.15 -24.935,0 -45.151,-20.215 -45.151,-45.15 0,-24.939 20.215,-45.151 45.151,-45.151"
         fill="#ffffff"
         stroke-width="0.94695"
         id="path2" />
      <path
         d="M 88.254,32.508 64.57,88.301 C 58.817,80.176 48.668,74.929 38.426,72.831 34.886,72.121 31.352,71.578 27.82,71.375 l 23.477,-55.29 c 10.523,0.134 22.656,3.29 31.16,10.415 2.152,1.781 4.137,3.734 5.797,6.008"
         id="path4" />
      <path
         d="m 46.899,23.956 -8.48,-0.081 -0.02,-0.012 3.109,-7.36 c 2.906,-0.277 5.816,-0.538 8.727,-0.39 l -3.336,7.844"
         id="path6" />
      <path
         d="m 38.285,21.191 -8.043,-0.176 2.438,-5.797 7.972,0.176 0.082,0.035 -2.449,5.762"
         id="path8" />
      <path
         d="m 79.121,34.414 -7.293,17.18 c -3.187,-3.012 -7.164,-5.38 -11.695,-7.13 l 7.453,-17.57 c 4.54,1.602 8.621,4.07 11.535,7.52"
         fill="#66c757"
         id="path10" />
      <path
         d="m 23.301,16.859 1.812,-4.394 7.098,0.14 -1.863,4.414 -7.047,-0.16"
         id="path12" />
      <path
         d="m 43.652,31.616 c -2.843,0.028 -5.675,0.024 -8.52,-0.019 l 2.892,-6.808 8.476,0.12 -2.848,6.708"
         id="path14" />
      <path
         d="m 34.5,28.82 -6.707,-0.184 2.035,-4.867 6.7,0.145 0.058,0.023 -2.086,4.883"
         fill="#f4652f"
         id="path16" />
      <path
         d="M 26.613,24.796 C 24.621,24.754 22.621,24.761 20.621,24.66 l 1.742,-4.043 c 2,0.02 3.985,0.086 5.989,0.137 l -1.739,4.043"
         fill="#f4652f"
         id="path18" />
      <path
         d="m 19.375,20.629 a 131.1,131.1 0 0 1 -4.789,-0.172 l 1.234,-2.914 c 1.606,0.05 3.215,0.031 4.82,0.09 l -1.265,2.996"
         fill="#f4652f"
         id="path20" />
      <path
         d="m 40.324,39.465 -8.496,-0.036 -0.058,-0.023 2.882,-6.813 8.567,0.024 -2.895,6.848"
         id="path22" />
      <path
         d="m 31.305,36.422 -6.77,-0.172 2.04,-4.836 6.687,0.11 0.082,0.034 -2.04,4.864"
         fill="#f4652f"
         id="path24" />
      <path
         d="m 17.313,32.609 1.68,-4.066 5.96,0.11 -1.68,4.065 -5.96,-0.109"
         fill="#f4652f"
         id="path26" />
      <path
         d="m 16,28.562 -4.781,-0.113 1.226,-2.969 c 1.606,0.047 3.22,0.059 4.832,0.121 L 16,28.562"
         fill="#f4652f"
         id="path28" />
      <path
         d="m 28.512,47.156 2.863,-6.793 8.543,0.047 -2.887,6.8 -8.52,-0.054"
         id="path30" />
      <path
         d="M 69.41,57.293 62.016,74.715 C 58.688,71.875 54.574,69.75 50.168,67.929 l 7.613,-17.937 c 4.489,1.691 8.688,4.02 11.63,7.3"
         fill="#fcc707"
         id="path32" />
      <path
         d="m 28.168,45.043 -8.031,-0.2 2.406,-5.761 7.973,0.176 0.093,0.039 -2.441,5.746"
         id="path34" />
      <path
         d="m 20.207,40.933 -7.031,-0.14 -0.059,-0.024 1.88,-4.383 7.038,0.118 0.035,0.015 -1.863,4.414"
         id="path36" />
      <path
         d="M 12.84,36.742 7.152,36.594 8.52,33.284 c 1.93,0.005 3.855,0.048 5.77,0.114 l -1.45,3.344"
         id="path38" />
      <path
         d="m 33.652,55.168 -8.503,-0.043 2.906,-6.965 8.562,0.027 -2.965,6.98"
         id="path40" />
      <path
         d="m 24.442,52.633 -6.735,-0.157 -0.023,-0.105 2.039,-4.77 6.668,0.157 0.078,0.035 -2.027,4.84"
         fill="#3e89d0"
         id="path42" />
      <path
         d="m 16.492,48.664 -5.953,-0.137 1.692,-4.02 c 1.996,0.032 3.988,0.047 5.992,0.133 l -1.73,4.024"
         fill="#3e89d0"
         id="path44" />
      <path
         d="m 9.242,44.516 -4.773,-0.137 1.203,-2.91 c 1.61,0.078 3.238,0.011 4.844,0.097 l -1.274,2.95"
         fill="#3e89d0"
         id="path46" />
      <path
         d="m 30.344,62.953 -1.063,0.05 -7.46,0.012 -0.06,-0.023 2.946,-6.899 8.531,0.051 -2.894,6.809"
         id="path48" />
      <path
         d="m 23.211,55.516 c -0.726,1.59 -1.348,3.288 -2.09,4.882 l -6.742,-0.199 2.07,-4.848 6.68,0.13 0.082,0.034"
         fill="#3e89d0"
         id="path50" />
      <path
         d="M 13.235,56.375 7.246,56.238 8.985,52.195 c 1.984,0.027 3.976,0.07 5.976,0.172 l -1.726,4.008"
         fill="#3e89d0"
         id="path52" />
      <path
         d="M 5.973,52.266 1.211,52.101 c 0.34,-0.953 0.777,-2.015 1.207,-2.922 l 4.797,0.082 c -0.363,0.973 -0.8,2.036 -1.242,3.004"
         fill="#3e89d0"
         id="path54" />
      <path
         d="m 26.805,71.308 c -2.836,-0.12 -5.688,-0.199 -8.543,-0.007 l 3.098,-7.329 8.566,-0.027 -3.121,7.363"
         id="path56" />
      <path
         d="m 18.102,68.769 -8.008,-0.258 2.445,-5.75 7.93,0.184 0.082,0.035 -2.45,5.79"
         id="path58" />
      <path
         d="m 3.102,64.446 1.87,-4.427 7.048,0.164 -1.864,4.442 -7.054,-0.18"
         id="path60" />
      <path
         d="m 40.75,40.918 c 4.586,-0.004 9.219,0.375 13.793,1.718 l 7.375,-17.378 a 61.745,61.745 0 0 0 -13.957,-1.32 l -7.21,16.98"
         fill="#f4652f"
         id="path62" />
      <path
         d="m 30.902,64.116 c 4.532,0.204 9.137,0.833 13.657,2.044 l 7.66,-18.043 c -4.633,-1.203 -9.356,-1.438 -13.98,-1.27 l -7.337,17.27"
         fill="#3e89d0"
         id="path64" />
      <path
         d="m 47.68,5.059 c -23.539,0 -42.617,19.082 -42.617,42.62 0,23.536 19.078,42.618 42.617,42.618 23.54,0 42.617,-19.082 42.617,-42.617 C 90.297,24.14 71.219,5.059 47.68,5.059 Z"
         fill="none"
         stroke="#000000"
         stroke-miterlimit="3.864"
         stroke-width="0.128"
         id="path66" />
      <path
         d="m 47.68,5.059 c -23.539,0 -42.617,19.082 -42.617,42.62 0,23.536 19.078,42.618 42.617,42.618 23.54,0 42.617,-19.082 42.617,-42.617 C 90.297,24.14 71.219,5.059 47.68,5.059 Z M 47.68,0 C 74.012,0 95.36,21.344 95.36,47.68 95.36,74.012 74.012,95.36 47.68,95.36 21.348,95.36 0,74.012 0,47.68 0,21.344 21.348,0 47.68,0"
         fill-rule="evenodd"
         id="path68" />
      <path
         d="m 47.68,5.059 c -23.539,0 -42.617,19.082 -42.617,42.62 0,23.536 19.078,42.618 42.617,42.618 23.54,0 42.617,-19.082 42.617,-42.617 C 90.297,24.14 71.219,5.059 47.68,5.059 Z"
         fill="none"
         stroke="#000000"
         stroke-miterlimit="3.864"
         stroke-width="0.094"
         id="path70" />
    </g>
  </g>
</svg>
