<?xml version="1.0" encoding="UTF-8" standalone="no"?>
<svg
   xmlns:dc="http://purl.org/dc/elements/1.1/"
   xmlns:cc="http://creativecommons.org/ns#"
   xmlns:rdf="http://www.w3.org/1999/02/22-rdf-syntax-ns#"
   xmlns:svg="http://www.w3.org/2000/svg"
   xmlns="http://www.w3.org/2000/svg"
   xmlns:sodipodi="http://sodipodi.sourceforge.net/DTD/sodipodi-0.dtd"
   xmlns:inkscape="http://www.inkscape.org/namespaces/inkscape"
   width="2077.7439"
   height="1983.746"
   viewBox="0 0 2077.744 1983.7459"
   xml:space="preserve"
   version="1.1"
   id="svg121"><metadata
     id="metadata149"><rdf:RDF><cc:Work
         rdf:about=""><dc:format>image/svg+xml</dc:format><dc:type
           rdf:resource="http://purl.org/dc/dcmitype/StillImage" /><dc:title></dc:title></cc:Work></rdf:RDF></metadata><sodipodi:namedview
     id="namedview121"
     pagecolor="#ffffff"
     bordercolor="#000000"
     borderopacity="0.25"
     inkscape:showpageshadow="2"
     inkscape:pageopacity="0"
     inkscape:pagecheckerboard="0"
     inkscape:deskcolor="#d1d1d1"
     inkscape:zoom="0.34"
     inkscape:cx="1091.4822"
     inkscape:cy="1024.039"
     inkscape:window-width="1920"
     inkscape:window-height="1009"
     inkscape:window-x="-8"
     inkscape:window-y="-8"
     inkscape:window-maximized="1"
     inkscape:current-layer="svg121"
     inkscape:document-rotation="0"
     showgrid="false"
     showguides="true"
     inkscape:guide-bbox="true" /><defs
     id="defs33" /><path
     id="rect33"
     style="fill:#eb6f33;fill-opacity:1;stroke-width:11.923"
     d="m 0,551.94336 v 708.94144 h 258.33334 v -99.2344 H 99.246094 V 651.1914 H 609.69531 v 510.459 h -21.05133 l 6.59162,99.2344 H 708.94141 V 551.94336 Z" /><path
     id="rect35"
     style="display:inline;fill:#3687c8;fill-opacity:1;stroke-width:11.967"
     d="M 193.30859,873.2207 V 1983.7461 H 1303.834 V 873.2207 Z m 127.71289,127.7227 H 1176.123 v 855.1035 H 321.02148 Z" /><path
     d="m 749.03031,1638.627 v -0.7716 z"
     id="path42"
     style="display:inline;fill:url(#SVGID_10_);stroke-width:10.657" /><path
     d="M 1927.5879,1379.3421 1857.6524,211.65464 714.68919,194.23897 805.71276,1582.3132 Z"
     fill="#ffffff"
     id="path44"
     style="display:inline;stroke-width:10.657" /><path
     d="m 1241.2029,1082.5923 103.0427,-255.47597 c 49.0672,-2.61587 128.8842,8.34095 178.2779,20.28069 l -106.1484,263.00018 c -48.0874,-12.1031 -127.0848,-26.3327 -175.1691,-27.8046"
     fill="#5494d4"
     id="path46"
     style="fill:#0098fe;fill-opacity:1;stroke-width:31.403" /><path
     d="M 1705.0252,950.38567 1597.7306,1214.532 c -35.8183,-29.4406 -134.116,-85.5418 -181.2205,-104.0224 l 106.1485,-263.00016 c 47.9209,17.17367 150.4737,68.53077 182.3666,102.87623"
     fill="#fac705"
     id="path47"
     style="fill:#fccd01;fill-opacity:1;stroke-width:31.403" /><path
     d="M 1810.2253,705.44227 1705.0566,950.28832 C 1670.5447,918.88532 1571.104,865.07628 1522.69,847.41209 l 106.475,-263.32671 c 48.414,16.19233 149.6541,85.37847 181.0571,121.36003"
     fill="#73ca54"
     id="path48"
     style="fill:#65cc2e;fill-opacity:1;stroke-width:31.403" /><path
     d="m 1344.2047,827.28591 104.6757,-258.42157 c 48.9039,-1.96269 130.6804,5.72477 180.0773,15.3746 l -106.475,263.32671 c -48.7406,-13.41159 -129.5374,-21.26234 -178.278,-20.28068"
     fill="#f3632e"
     id="path49"
     style="display:inline;fill:#fe3102;fill-opacity:1;stroke-width:31.403" /><path
     d="m 990.29293,922.12297 -50.53999,-0.97977 c 3.43361,-10.14066 7.85075,-21.58988 12.26696,-31.0761 h 51.0299 c -3.76431,10.30427 -8.34161,21.58988 -12.7575,32.05618"
     fill="#5494d4"
     id="path50"
     style="fill:#0097fe;fill-opacity:1;stroke-width:31.403" /><path
     d="m 1068.1724,964.51702 -63.6225,-0.33601 17.6642,-43.17913 c 21.0987,-0.15701 42.3626,0 63.4592,0.65319 l -17.5006,42.85253"
     fill="#5494d4"
     id="path51"
     style="fill:#0197fe;fill-opacity:1;stroke-width:31.403" /><path
     d="m 1174.0005,953.52597 c -7.5239,17.01006 -13.7391,35.16508 -21.4263,52.33943 l -71.4732,-0.9798 21.0987,-51.84638 71.803,0.48989"
     fill="#5494d4"
     id="path52"
     style="fill:#0299fb;fill-opacity:1;stroke-width:31.403" /><path
     d="M 922.46245,870.30802 885.82457,870.151 c 2.77917,-8.50518 6.37921,-17.9914 10.30458,-26.33267 12.42994,-0.15701 25.18772,-0.81647 37.61765,-0.48988 l -11.28592,26.98711"
     fill="#5494d4"
     id="path53"
     style="fill:#0097fe;fill-opacity:1;stroke-width:31.403" /><path
     d="m 855.88809,816.60889 c -9.48622,0.33601 -18.97244,1.30636 -28.29536,0.97977 l 9.15931,-22.40761 c 9.32293,-0.48988 18.80914,-0.97977 28.29536,-0.97977 l -9.15931,22.40761"
     fill="#5494d4"
     id="path54"
     style="fill:#0097fe;fill-opacity:1;stroke-width:31.403" /><path
     d="m 1023.5801,839.21905 -50.70327,-0.65318 12.10303,-31.07547 c 17.17334,0.48989 34.34864,-0.48989 51.51974,0.15702 l -12.9214,31.56629"
     fill="#5494d4"
     id="path55"
     style="fill:#0097fe;fill-opacity:1;stroke-width:31.403" /><path
     d="m 1101.1455,881.92713 -63.2959,-0.33601 17.1737,-43.01583 c 21.2623,0 42.5259,-0.15702 63.6225,0.33601 l -17.5006,43.01583"
     fill="#5494d4"
     id="path56"
     style="fill:#0097fe;fill-opacity:1;stroke-width:31.403" /><path
     d="m 1186.2476,922.437 -71.7998,-1.4728 20.7715,-50.86658 71.6397,0.65318 -20.6085,51.68306"
     fill="#5494d4"
     id="path57"
     style="fill:#0097fe;fill-opacity:1;stroke-width:31.403" /><path
     d="m 957.00575,784.2638 c -12.26664,-0.33601 -24.8605,0.81648 -37.29106,0 l 11.28561,-27.96845 36.63788,0.97977 c -2.77917,8.83178 -6.54219,18.31863 -10.63149,26.98711"
     fill="#5494d4"
     id="path58"
     style="fill:#0097fe;fill-opacity:1;stroke-width:31.403" /><path
     d="m 890.43139,730.8787 -28.29599,0.65318 8.83241,-22.244 c 9.159,-0.81648 19.13605,-0.81648 28.62258,-0.81648 l -9.159,22.4073"
     fill="#5494d4"
     id="path59"
     style="fill:#0197fe;fill-opacity:1;stroke-width:31.403" /><path
     d="m 1092.0387,668.70076 -50.54,-0.33601 12.4305,-31.72959 c 17.0101,0.15701 34.1822,0 51.3565,0.48988 l -13.2483,31.5663"
     fill="#f3632e"
     id="path60"
     style="fill:#fe3102;fill-opacity:1;stroke-width:31.403" /><path
     d="m 1107.1121,711.40884 17.1737,-43.50572 h 63.2958 l -17.1736,43.50572 h -63.2959"
     fill="#f3632e"
     id="path61"
     style="fill:#fe3102;fill-opacity:1;stroke-width:31.403" /><path
     d="m 1256.2763,749.09244 -71.9662,-0.48989 20.7715,-51.68305 71.803,0.15701 -20.6079,52.00965"
     fill="#f3632e"
     id="path62"
     style="fill:#fe3102;fill-opacity:1;stroke-width:31.403" /><path
     d="m 1026.4064,613.11745 c -12.1034,0.65318 -24.6972,0.15701 -36.96449,0.33601 l 10.30395,-27.64092 c 11.93974,-0.97977 24.86054,0.48989 36.96444,0.15702 l -10.3039,27.15072"
     fill="#f3632e"
     id="path63"
     style="fill:#fe3102;fill-opacity:1;stroke-width:31.403" /><path
     d="m 959.51799,559.73235 c -9.48622,0.33601 -18.80914,1.14307 -28.29536,0.97977 l 9.15931,-22.40761 28.29536,-1.30636 -9.15931,22.73451"
     fill="#f3632e"
     id="path64"
     style="fill:#fd3102;fill-opacity:1;stroke-width:31.403" /><path
     d="m 1126.5819,583.59863 c -17.0097,0 -33.8555,-0.15702 -50.8665,-0.97977 l 12.5938,-31.07578 c 17.1731,0.15701 34.1822,-0.33602 51.1932,0 l -12.9211,32.05618"
     fill="#f3632e"
     id="path65"
     style="fill:#fe3102;fill-opacity:1;stroke-width:31.403" /><path
     d="m 1204.1474,626.62074 c -21.2624,-0.15701 -42.526,0.33601 -63.6225,-0.48989 l 17.6642,-43.17912 c 21.2626,-0.15702 42.3626,0.33601 63.6224,0.33601 l -17.6641,43.34242"
     fill="#f3632e"
     id="path66"
     style="fill:#fd3102;fill-opacity:1;stroke-width:31.403" /><path
     d="m 1288.6214,667.75867 -71.3099,-0.65318 20.7715,-52.00965 71.803,0.48989 -21.2627,52.17608"
     fill="#f3632e"
     id="path67"
     style="fill:#fe3102;fill-opacity:1;stroke-width:31.403" /><path
     d="m 1060.3216,528.64338 h -37.1277 l 10.9583,-27.96845 c 12.43,0.81647 24.8605,0.15701 37.2911,0.81647 l -11.1217,27.15041"
     fill="#f3632e"
     id="path68"
     style="fill:#fe3102;fill-opacity:1;stroke-width:31.403" /><path
     d="m 994.06129,474.31619 -28.45897,1.14307 8.83209,-22.40761 c 9.48622,-1.14307 18.97307,-0.48989 28.62289,-1.14307 l -8.99601,22.4073"
     fill="#f3632e"
     id="path69"
     style="fill:#fe3102;fill-opacity:1;stroke-width:31.403" /><path
     d="m 958.26187,1009.1093 c -20.281,0.157 -40.39996,0 -60.51672,-0.4899 l 14.39294,-35.65497 c 20.28131,0 40.56325,0.65318 60.84331,0.33601 l -14.72047,35.81826"
     id="path70"
     style="stroke-width:31.403" /><path
     d="m 1419.2579,614.05954 -90.2836,0.65318 31.7296,-78.83409 c 30.7489,-3.4336 61.6598,-6.70611 92.4096,-5.72477 l -33.8556,83.90568"
     id="path71"
     style="stroke-width:31.403" /><path
     d="m 1029.5467,393.29645 -34.18219,0.81648 9.97709,-25.51494 c 11.4492,-0.32659 23.0614,-0.65318 34.5119,-0.65318 l -10.3043,25.35133"
     id="path72"
     style="stroke-width:31.403" /><path
     d="m 1097.3772,443.85528 c -15.2107,-0.48989 -30.4214,-0.32659 -45.795,-1.14621 l 12.103,-29.44031 c 15.3746,0.48988 30.5853,-0.15702 46.1247,0.81648 l -12.4302,29.76753"
     id="path73"
     style="stroke-width:31.403" /><path
     d="m 1327.5611,586.4249 -85.3784,-0.48989 24.6975,-61.98952 85.5418,0.65318 -24.8609,61.82309"
     id="path74"
     style="stroke-width:31.403" /><path
     d="m 1167.7199,543.08876 18.3183,-46.9412 75.5619,0.15701 -19.1361,47.2678 -74.7454,-0.48989"
     id="path75"
     style="stroke-width:31.403" /><path
     d="m 1163.6375,500.06665 -60.3534,-0.48989 13.9021,-35.49167 c 20.1177,0 40.3999,-0.65318 60.68,0 l -14.2293,35.98156"
     id="path76"
     style="stroke-width:31.403" /><path
     d="m 1386.2848,696.02137 c -30.0945,0.97977 -60.1902,1.30636 -90.447,1.4728 l 29.44,-72.94603 89.9571,-0.33601 -28.9495,71.80296"
     id="path77"
     style="stroke-width:31.403" /><path
     d="m 1352.3695,779.86738 -90.2836,1.30636 -0.4899,-0.33601 29.2767,-72.78273 90.9368,-1.30637 -29.4403,73.10933"
     id="path78"
     style="stroke-width:31.403" /><path
     d="m 892.94363,647.66075 9.97705,-25.35133 34.67519,-1.14307 -10.14066,26.00546 -34.51189,0.48988"
     id="path79"
     style="stroke-width:31.403" /><path
     d="m 1228.6417,863.71339 29.1134,-72.61944 90.4469,-1.14307 -28.7858,72.78274 -90.7736,0.97977"
     id="path80"
     style="stroke-width:31.403" /><path
     d="m 994.06129,699.78973 -45.79499,-0.65318 11.93942,-29.44 c 15.37459,0.65318 30.74919,-0.15702 45.96138,0.81648 l -12.10298,29.2767"
     id="path81"
     style="stroke-width:31.403" /><path
     d="m 1224.5593,841.41726 -85.2152,-0.65318 24.5339,-61.4965 85.7051,0.65319 -25.0241,61.49649"
     id="path82"
     style="stroke-width:31.403" /><path
     d="m 1139.1431,799.33724 -74.5821,-0.15702 -0.6532,-0.33601 19.1364,-46.77791 h 75.072 l -18.9727,47.2678"
     id="path83"
     style="stroke-width:31.403" /><path
     d="m 1060.3216,756.0011 -60.5167,-0.48989 13.9024,-35.32837 c 20.4446,-0.33601 41.0532,-0.33601 61.3332,0 l -14.7201,35.81826"
     id="path84"
     style="stroke-width:31.403" /><path
     d="m 1285.1671,946.93134 -0.336,0.97977 -90.4469,1.14307 29.6036,-74.58212 90.7735,-1.14307 -29.6039,73.60235"
     id="path85"
     style="stroke-width:31.403" /><path
     d="m 1250.9378,1031.0914 -90.4469,2.2893 -0.8165,-0.336 30.0945,-73.7657 90.1203,-0.81648 -28.9495,72.61948"
     id="path86"
     style="stroke-width:31.403" /><path
     d="m 1214.8244,1120.5899 c -30.0948,-0.8164 -60.3534,-1.143 -90.6102,1.3064 l 31.5663,-78.3442 91.1001,-1.6361 -32.0562,78.6708"
     id="path87"
     style="stroke-width:31.403" /><path
     d="m 891.05945,956.35224 -46.28802,0.15701 11.61283,-29.43999 c 15.53789,0 30.91248,-0.48989 46.45131,0 l -11.77612,29.2767"
     id="path88"
     style="stroke-width:31.403" /><path
     d="m 1122.1855,1095.1535 -85.0487,-1.3064 25.0241,-61.4964 85.0487,0.9797 -25.0238,61.8263"
     id="path89"
     style="stroke-width:31.403" /><path
     d="m 962.03023,1051.8174 19.13605,-47.2678 74.90872,0.4899 -18.9724,47.4311 -75.07206,-0.6532"
     id="path90"
     style="stroke-width:31.403" /><path
     d="m 1763.4348,718.94556 c -31.5663,-35.98156 -75.2353,-61.3332 -123.8126,-77.52773 l -75.8916,187.76482 c 48.2475,17.8278 91.1001,42.19935 125.4487,73.76565 z m -98.461,245.17264 c -31.7296,-34.3486 -77.3644,-58.71733 -125.2854,-75.72833 l -77.0347,191.85353 c 47.1045,18.6458 91.1001,40.5632 126.9215,70.1668 z m 195.1257,-267.08879 -241.084,596.97099 c -62.6427,-85.212 -171.407,-139.0242 -280.501,-159.4675 -37.6176,-6.8694 -75.2353,-11.9398 -112.6896,-13.4116 l 31.403,-77.691 c 48.0842,1.3063 96.3349,6.8694 144.5856,18.9724 l 77.8544,-192.99657 c -49.3938,-11.93974 -98.6243,-13.4116 -147.6915,-10.79447 l 25.188,-63.29589 c 48.7406,-0.97977 97.4812,1.96269 146.2187,15.37397 l 75.072,-185.80213 c -49.0672,-9.48622 -98.2977,-13.08469 -147.3649,-11.28561 l 33.6923,-84.06897 c 111.7099,-0.48989 240.9207,30.74919 332.6834,104.84205 23.0614,18.48161 44.4886,38.92716 62.6427,62.64271"
     fill-rule="evenodd"
     id="path91"
     style="stroke-width:31.403" /><path
     d="m 823.85703,903.28117 c -11.44922,-0.48989 -22.89781,0.65318 -34.3486,0 l 9.97705,-24.36998 c 11.6122,-0.81648 23.22503,-0.81648 35.16508,-1.30637 l -10.79447,25.67823"
     id="path92"
     style="stroke-width:31.403" /><path
     id="path992"
     style="fill:#4eba4a;fill-opacity:1"
     d="M 550.4707,0 553.51758,46.460938 497.03711,44.501953 615.43359,1826.9316 2077.7441,1520.4414 1980.6191,57.375 Z m 164.21849,194.23898 1142.96321,17.41566 69.9355,1167.68746 -1121.87514,202.9711 z" /></svg>
