<?xml version="1.0" encoding="UTF-8" standalone="no"?>
<svg
   xmlns:dc="http://purl.org/dc/elements/1.1/"
   xmlns:cc="http://creativecommons.org/ns#"
   xmlns:rdf="http://www.w3.org/1999/02/22-rdf-syntax-ns#"
   xmlns:svg="http://www.w3.org/2000/svg"
   xmlns="http://www.w3.org/2000/svg"
   xmlns:sodipodi="http://sodipodi.sourceforge.net/DTD/sodipodi-0.dtd"
   xmlns:inkscape="http://www.inkscape.org/namespaces/inkscape"
   width="963.217"
   height="963.217"
   version="1.1"
   id="svg72">
  <metadata
     id="metadata78">
    <rdf:RDF>
      <cc:Work
         rdf:about="">
        <dc:format>image/svg+xml</dc:format>
        <dc:type
           rdf:resource="http://purl.org/dc/dcmitype/StillImage" />
        <dc:title></dc:title>
      </cc:Work>
    </rdf:RDF>
  </metadata>
  <defs
     id="defs76" />
  <sodipodi:namedview
     pagecolor="#ffffff"
     bordercolor="#666666"
     borderopacity="1"
     objecttolerance="10"
     gridtolerance="10"
     guidetolerance="10"
     inkscape:pageopacity="0"
     inkscape:pageshadow="2"
     inkscape:window-width="1377"
     inkscape:window-height="836"
     id="namedview74"
     showgrid="false"
     inkscape:zoom="0.45"
     inkscape:cx="47.68"
     inkscape:cy="403.23556"
     inkscape:window-x="395"
     inkscape:window-y="81"
     inkscape:window-maximized="0"
     inkscape:current-layer="svg72" />
  <path
     d="m 481.6085,25.550099 c 251.86468,0 456.05335,204.158371 456.05335,456.063451 0,251.86468 -204.18867,456.05335 -456.05335,456.05335 -251.86468,0 -456.063452,-204.18867 -456.063452,-456.05335 0,-251.90508 204.188672,-456.063451 456.063452,-456.063451"
     fill="#ffffff"
     id="path2" />
  <path
     d="M 891.44036,328.35841 652.21185,891.9151 C 594.10166,809.8457 491.58814,756.84655 388.13524,735.65496 352.37823,728.48336 316.68183,722.9986 281.00563,720.94813 L 518.14327,162.47216 c 106.29124,1.35352 228.84485,33.2318 314.74247,105.20035 21.73703,17.98961 41.78721,37.71657 58.55462,60.6859"
     fill="#7e7e7e"
     id="path4" />
  <path
     d="m 473.71974,241.97595 -85.65521,-0.81817 -0.20201,-0.12121 31.40354,-74.34225 c 29.35307,-2.79794 58.74654,-5.43426 88.15011,-3.93933 l -33.69643,79.23106"
     fill="#7e7e7e"
     id="path6" />
  <path
     d="m 386.71102,214.0471 -81.24113,-1.77775 24.62587,-58.55462 80.52397,1.77775 0.82827,0.35353 -24.73698,58.20109"
     fill="#7e7e7e"
     id="path8" />
  <path
     d="m 799.18931,347.61063 -73.6655,173.53259 C 693.3324,490.71947 653.16133,466.80065 607.39438,449.12417 l 75.28163,-177.47193 c 45.85785,16.18156 87.07942,41.11046 116.5133,75.95839"
     fill="#ffffff"
     id="path10" />
  <path
     d="m 235.35989,170.29022 18.30274,-44.38313 71.69583,1.41412 -18.81788,44.58515 -71.18069,-1.61614"
     fill="#7e7e7e"
     id="path12" />
  <path
     d="m 440.92228,319.34846 c -28.71672,0.28282 -57.32232,0.24242 -86.05924,-0.19192 l 29.21166,-68.76658 85.6148,1.2121 -28.76722,67.7565"
     fill="#7e7e7e"
     id="path14" />
  <path
     d="m 348.4793,291.10648 -67.74639,-1.85856 20.55523,-49.16083 67.67569,1.46462 0.58585,0.23232 -21.07038,49.32245"
     fill="#bebebe"
     id="path16" />
  <path
     d="m 268.81391,250.46066 c -20.1209,-0.42423 -40.3226,-0.35353 -60.52429,-1.37371 l 17.59568,-40.83774 c 20.20169,0.20202 40.25188,0.86868 60.49398,1.38382 l -17.56537,40.83773"
     fill="#bebebe"
     id="path18" />
  <path
     d="m 195.70396,208.37042 a 1324.2214,1324.2214 0 0 1 -48.37297,-1.73734 l 12.46445,-29.43388 c 16.22196,0.50504 32.47423,0.31313 48.68609,0.90908 l -12.77757,30.26214"
     fill="#bebebe"
     id="path20" />
  <path
     d="m 407.30665,398.63002 -85.81681,-0.36363 -0.58585,-0.23232 29.11064,-68.81709 86.53398,0.24243 -29.24196,69.17061"
     fill="#7e7e7e"
     id="path22" />
  <path
     d="m 316.20709,367.89314 -68.38275,-1.73735 20.60573,-48.84771 67.54438,1.1111 0.82827,0.34343 -20.60573,49.13053"
     fill="#bebebe"
     id="path24" />
  <path
     d="m 174.87601,329.3786 16.96942,-41.07006 60.20107,1.1111 -16.96943,41.05995 -60.20106,-1.10099"
     fill="#bebebe"
     id="path26" />
  <path
     d="m 161.61359,288.50046 -48.29216,-1.1414 12.38364,-29.98942 c 16.22197,0.47474 32.52474,0.59595 48.80731,1.22221 l -12.89879,29.90861"
     fill="#bebebe"
     id="path28" />
  <path
     d="m 287.99542,476.31565 28.91873,-68.61507 86.29156,0.47474 -29.16116,68.68578 -86.05923,-0.54545"
     fill="#7e7e7e"
     id="path30" />
  <path
     d="M 701.09996,578.70797 626.41428,754.68496 C 592.79865,725.99855 551.24376,704.53425 506.73941,686.1406 l 76.89777,-181.17894 c 45.34271,17.08054 87.75618,40.60542 117.47288,73.7362"
     fill="#ececec"
     id="path32" />
  <path
     d="m 284.52073,454.97256 -81.11993,-2.02017 24.30265,-58.19099 80.53407,1.77775 0.93938,0.39393 -24.65617,58.03948"
     fill="#7e7e7e"
     id="path34" />
  <path
     d="m 204.10786,413.45807 -71.01907,-1.41412 -0.59595,-0.24242 18.9896,-44.27202 71.08978,1.1919 0.35353,0.15151 -18.81789,44.58515"
     fill="#7e7e7e"
     id="path36" />
  <path
     d="m 129.69491,371.12541 -57.453635,-1.49493 13.817962,-33.43381 c 19.494643,0.0505 38.938773,0.48484 58.281903,1.1515 l -14.64623,33.77724"
     fill="#7e7e7e"
     id="path38" />
  <path
     d="m 339.91378,557.24366 -85.88752,-0.43434 29.35307,-70.35241 86.48347,0.27272 -29.94902,70.50393"
     fill="#7e7e7e"
     id="path40" />
  <path
     d="m 246.88496,531.63801 -68.02922,-1.58584 -0.23232,-1.06059 20.59563,-48.18105 67.35247,1.58584 0.78786,0.35353 -20.47442,48.88811"
     fill="#c1c1c1"
     id="path42" />
  <path
     d="m 166.58321,491.54774 -60.13036,-1.38382 17.09064,-40.60542 c 20.16129,0.32323 40.28219,0.47474 60.52429,1.34342 l -17.47447,40.64582"
     fill="#c1c1c1"
     id="path44" />
  <path
     d="M 93.35205,449.64941 45.140696,448.2656 57.292018,418.87212 c 16.262367,0.78787 32.70655,0.11111 48.928512,0.97979 l -12.86848,29.7975"
     fill="#c1c1c1"
     id="path46" />
  <path
     d="m 306.50017,635.87877 -10.7372,0.50505 -75.35233,0.12121 -0.60606,-0.23232 29.75711,-69.68576 86.17034,0.51514 -29.23186,68.77668"
     fill="#7e7e7e"
     id="path48" />
  <path
     d="m 234.45082,560.75876 c -7.33322,16.06035 -13.61595,33.21159 -21.11078,49.31234 l -68.09993,-2.01007 20.90876,-48.96891 67.47368,1.31311 0.82827,0.34343"
     fill="#c1c1c1"
     id="path50" />
  <path
     d="m 133.68474,569.43539 -60.493985,-1.38382 17.565377,-40.83773 c 20.040088,0.27272 40.160978,0.70705 60.362678,1.73734 l -17.43407,40.48421"
     fill="#c1c1c1"
     id="path52" />
  <path
     d="m 60.332374,527.931 -48.100245,-1.66664 c 3.434288,-9.62611 7.84836,-20.35322 12.191725,-29.51469 l 48.453775,0.82827 c -3.666609,9.82813 -8.08068,20.56533 -12.545255,30.34295"
     fill="#c1c1c1"
     id="path54" />
  <path
     d="m 270.75327,720.27137 c -28.64601,-1.2121 -57.45363,-2.01007 -86.29156,-0.0707 l 31.29243,-74.02912 86.52388,-0.27272 -31.52475,74.37255"
     fill="#7e7e7e"
     id="path56" />
  <path
     d="m 182.84558,694.62531 -80.88761,-2.60602 24.69658,-58.07988 80.09974,1.85856 0.82827,0.35353 -24.74708,58.48391"
     fill="#7e7e7e"
     id="path58" />
  <path
     d="m 31.332835,650.95934 18.888588,-44.71646 71.190787,1.65654 -18.82798,44.86797 -71.251395,-1.81815"
     fill="#7e7e7e"
     id="path60" />
  <path
     d="m 411.60961,413.30656 c 46.3225,-0.0404 93.11973,3.78781 139.32102,17.35326 L 625.42439,255.12725 A 623.67695,623.67695 0 0 0 484.44684,241.79413 l -72.82713,171.51243"
     fill="#bebebe"
     id="path62" />
  <path
     d="m 312.13645,647.62606 c 45.77705,2.06057 92.29146,8.41401 137.9473,20.64614 L 527.45626,486.02257 C 480.65902,473.87125 432.95271,471.49755 386.24638,473.19449 l -74.10993,174.44167"
     fill="#c1c1c1"
     id="path64" />
  <path
     d="m 481.6085,51.100197 c -237.76389,0 -430.467899,192.744413 -430.467899,430.498203 0,237.73359 192.704009,430.478 430.467899,430.478 237.774,0 430.4679,-192.74441 430.4679,-430.4679 0,-237.774 -192.70401,-430.508303 -430.4679,-430.508303 z"
     fill="none"
     stroke="#7e7e7e"
     stroke-miterlimit="3.864"
     stroke-width="1.29291"
     id="path66" />
  <path
     d="m 481.6085,51.100197 c -237.76389,0 -430.467899,192.744413 -430.467899,430.498203 0,237.73359 192.704009,430.478 430.467899,430.478 237.774,0 430.4679,-192.74441 430.4679,-430.4679 0,-237.774 -192.70401,-430.508303 -430.4679,-430.508303 z M 481.6085,0 C 747.58407,0 963.217,215.59253 963.217,481.6085 963.217,747.58407 747.58407,963.217 481.6085,963.217 215.63293,963.217 0,747.58407 0,481.6085 0,215.59253 215.63293,0 481.6085,0"
     fill="#7e7e7e"
     fill-rule="evenodd"
     id="path68" />
  <path
     d="m 481.6085,51.100197 c -237.76389,0 -430.467899,192.744413 -430.467899,430.498203 0,237.73359 192.704009,430.478 430.467899,430.478 237.774,0 430.4679,-192.74441 430.4679,-430.4679 0,-237.774 -192.70401,-430.508303 -430.4679,-430.508303 z"
     fill="none"
     stroke="#7e7e7e"
     stroke-miterlimit="3.864"
     id="path70" />
</svg>
