<?xml version="1.0" encoding="UTF-8" standalone="no"?>
<svg
   xmlns:dc="http://purl.org/dc/elements/1.1/"
   xmlns:cc="http://creativecommons.org/ns#"
   xmlns:rdf="http://www.w3.org/1999/02/22-rdf-syntax-ns#"
   xmlns:svg="http://www.w3.org/2000/svg"
   xmlns="http://www.w3.org/2000/svg"
   xmlns:sodipodi="http://sodipodi.sourceforge.net/DTD/sodipodi-0.dtd"
   xmlns:inkscape="http://www.inkscape.org/namespaces/inkscape"
   width="2078.293"
   height="1797.697"
   viewBox="0 0 2078.293 1797.697"
   version="1.1"
   id="svg2381">
  <g
     id="layer1">
    <path
       d="M 876.84765,1387.3027 1076.8783,891.36235 c 95.2513,-5.07794 250.1953,16.19189 346.0803,39.36968 L 1216.899,1441.2787 c -93.3492,-23.495 -246.70214,-51.1181 -340.04533,-53.9754"
       fill="#5494d4"
       id="path46"
       style="fill:#0098fe;fill-opacity:1;stroke-width:60.961" />
    <path
       d="m 1777.2383,1130.6578 -208.2846,512.7716 c -69.532,-57.1513 -260.3514,-166.0572 -351.7926,-201.9325 l 206.0598,-510.54646 c 93.026,33.33803 292.1056,133.03456 354.0174,199.70736"
       fill="#fac705"
       id="path47"
       style="fill:#fccd01;fill-opacity:1;stroke-width:60.961" />
    <path
       d="M 1981.457,655.16379 1777.2993,1130.4687 C 1710.3034,1069.508 1517.265,965.0518 1423.2818,930.76136 l 206.6936,-511.18049 c 93.9832,31.43313 290.5146,165.74023 351.4754,235.58894"
       fill="#73ca54"
       id="path48"
       style="fill:#65cc2e;fill-opacity:1;stroke-width:60.961" />
    <path
       d="m 1076.7989,891.69154 203.2007,-501.65827 c 94.9343,-3.81007 253.6821,11.11302 349.5734,29.84557 l -206.6936,511.18069 c -94.6172,-26.03516 -251.4632,-41.27545 -346.0805,-39.36973"
       fill="#f3632e"
       id="path49"
       style="display:inline;fill:#fe3102;fill-opacity:1;stroke-width:60.961" />
    <path
       d="m 389.77095,1075.7931 -98.11029,-1.9019 c 6.66542,-19.6856 15.24029,-41.9113 23.81317,-60.3262 h 99.06137 c -7.30747,20.003 -16.19305,41.9112 -24.76543,62.2287"
       fill="#5494d4"
       id="path50"
       style="fill:#0097fe;fill-opacity:1;stroke-width:60.961" />
    <path
       d="m 540.95383,1158.0901 -123.50657,-0.6523 34.29046,-83.821 c 40.95765,-0.3045 82.23599,0 123.18957,1.2681 l -33.97287,83.1869"
       fill="#5494d4"
       id="path51"
       style="fill:#0197fe;fill-opacity:1;stroke-width:60.961" />
    <path
       d="m 746.39163,1136.7539 c -14.6057,33.0205 -26.6709,68.2639 -41.5936,101.6034 l -138.74667,-1.902 40.95765,-100.6463 139.38689,0.951"
       fill="#5494d4"
       id="path52"
       style="fill:#0299fb;fill-opacity:1;stroke-width:60.961" />
    <path
       d="m 258.09562,975.20779 -71.12277,-0.30449 c 5.39494,-16.51062 12.38357,-34.92559 20.00373,-51.11808 24.12941,-0.30448 48.89535,-1.58485 73.02483,-0.95086 l -21.90865,52.38847"
       fill="#5494d4"
       id="path53"
       style="fill:#0097fe;fill-opacity:1;stroke-width:60.961" />
    <path
       d="m 128.85889,870.9649 c -18.415,0.65226 -36.829995,2.53602 -54.928103,1.90203 l 17.780346,-43.49856 c 18.098187,-0.95102 36.513177,-1.90195 54.928177,-1.90195 l -17.78042,43.49848"
       fill="#5494d4"
       id="path54"
       style="fill:#0097fe;fill-opacity:1;stroke-width:60.961" />
    <path
       d="m 454.38945,914.85672 -98.42734,-1.26798 23.49503,-60.32502 c 33.33755,0.95101 66.67893,-0.95102 100.01217,0.30448 l -25.08355,61.2778"
       fill="#5494d4"
       id="path55"
       style="fill:#0097fe;fill-opacity:1;stroke-width:60.961" />
    <path
       d="M 604.96255,997.76326 482.08998,997.111 515.42827,913.607 c 41.27524,0 82.553,-0.30448 123.50657,0.65226 l -33.97287,83.504"
       fill="#5494d4"
       id="path56"
       style="fill:#0097fe;fill-opacity:1;stroke-width:60.961" />
    <path
       d="m 770.1662,1076.4027 -139.38068,-2.859 40.32247,-98.74437 139.06989,1.26806 -40.00605,100.32931"
       fill="#5494d4"
       id="path57"
       style="fill:#0097fe;fill-opacity:1;stroke-width:60.961" />
    <path
       d="m 325.15268,808.17532 c -23.81257,-0.65226 -48.26017,1.585 -72.39097,0 l 21.90806,-54.29337 71.123,1.90181 c -5.3951,17.14467 -12.7,35.56098 -20.63832,52.38839"
       fill="#5494d4"
       id="path58"
       style="fill:#0097fe;fill-opacity:1;stroke-width:60.961" />
    <path
       d="m 195.91574,704.54198 -54.92936,1.26804 17.14585,-43.18094 c 17.77984,-1.58508 37.14775,-1.58508 55.56333,-1.58508 l -17.77982,43.49798"
       fill="#5494d4"
       id="path59"
       style="fill:#0197fe;fill-opacity:1;stroke-width:60.961" />
    <path
       d="m 587.28406,583.83968 -98.11029,-0.65226 24.13059,-61.59474 c 33.02069,0.30448 66.35587,0 99.69532,0.95101 l -25.71814,61.27759"
       fill="#f3632e"
       id="path60"
       style="fill:#fe3102;fill-opacity:1;stroke-width:60.961" />
    <path
       d="m 616.54516,666.74645 33.33828,-84.45524 h 122.87237 l -33.33809,84.45524 H 616.54516"
       fill="#f3632e"
       id="path61"
       style="fill:#fe3102;fill-opacity:1;stroke-width:60.961" />
    <path
       d="m 906.10875,739.89913 -139.70371,-0.9508 40.32248,-100.32935 139.3869,0.30449 -40.00489,100.96334"
       fill="#f3632e"
       id="path62"
       style="fill:#fe3102;fill-opacity:1;stroke-width:60.961" />
    <path
       d="m 459.87598,475.93916 c -23.49561,1.26785 -47.9432,0.30449 -71.75702,0.65226 l 20.00256,-53.65762 c 23.17785,-1.90204 48.26023,0.9508 71.75681,0.30449 l -20.00235,52.70602"
       fill="#f3632e"
       id="path63"
       style="fill:#fe3102;fill-opacity:1;stroke-width:60.961" />
    <path
       d="m 330.02951,372.30584 c -18.415,0.65226 -36.51318,2.21884 -54.92818,1.90182 l 17.78035,-43.49849 54.92817,-2.53588 -17.78034,44.13314"
       fill="#f3632e"
       id="path64"
       style="fill:#fd3102;fill-opacity:1;stroke-width:60.961" />
    <path
       d="m 654.34072,418.63588 c -33.01992,0 -65.72167,-0.30448 -98.74411,-1.90182 l 24.4476,-60.32562 c 33.33711,0.30449 66.35587,-0.65225 99.37831,0 l -25.08296,62.22884"
       fill="#f3632e"
       id="path65"
       style="fill:#fe3102;fill-opacity:1;stroke-width:60.961" />
    <path
       d="m 804.91402,502.15234 c -41.27544,-0.30522 -82.5532,0.65225 -123.50658,-0.95102 l 34.29046,-83.82123 c 41.27582,-0.30448 82.236,0.65226 123.50638,0.65226 l -34.29026,84.13796"
       fill="#f3632e"
       id="path66"
       style="fill:#fd3102;fill-opacity:1;stroke-width:60.961" />
    <path
       d="M 968.89837,582.01088 830.4687,580.7429 870.79118,479.77956 1010.1781,480.73051 968.90206,582.01689"
       fill="#f3632e"
       id="path67"
       style="fill:#fe3102;fill-opacity:1;stroke-width:60.961" />
    <path
       d="m 525.71354,311.95462 h -72.07379 l 21.27269,-54.29359 c 24.12962,1.585 48.26021,0.30522 72.391,1.585 l -21.5899,52.7055"
       fill="#f3632e"
       id="path68"
       style="fill:#fe3102;fill-opacity:1;stroke-width:60.961" />
    <path
       d="m 397.08634,206.49247 -55.24578,2.219 17.14527,-43.49849 c 18.41497,-2.21907 36.83129,-0.95103 55.56393,-2.21907 l -17.46342,43.49798"
       fill="#f3632e"
       id="path69"
       style="fill:#fe3102;fill-opacity:1;stroke-width:60.961" />
    <path
       d="m 327.59106,1244.6545 c -39.37026,0.3044 -78.42608,0 -117.47763,-0.951 l 27.9403,-69.215 c 39.37086,0 78.74288,1.2681 118.11146,0.6523 l -28.57604,69.532"
       id="path70"
       style="stroke-width:60.961" />
    <path
       d="m 1222.4952,477.76799 -175.2621,1.26782 61.5947,-153.03595 c 59.6911,-6.66542 119.6965,-13.01813 179.3893,-11.11302 l -65.7219,162.88115"
       id="path71"
       style="stroke-width:60.961" />
    <path
       d="m 465.97206,49.213767 -66.35591,1.58479 19.36799,-49.5305193 C 441.20979,0.63412563 463.75186,0 485.98004,0 l -20.00313,49.212952"
       id="path72"
       style="stroke-width:60.961" />
    <path
       d="m 597.64737,147.3605 c -29.52762,-0.95101 -59.05525,-0.63391 -88.89911,-2.22499 L 532.2431,87.984825 c 29.8458,0.950936 59.37342,-0.304484 89.53914,1.58477 l -24.13001,57.786075"
       id="path73"
       style="stroke-width:60.961" />
    <path
       d="m 1044.4897,424.12239 -165.74002,-0.95102 47.94379,-120.33647 166.05723,1.26798 -48.261,120.01349"
       id="path74"
       style="stroke-width:60.961" />
    <path
       d="m 734.19948,339.99659 35.56022,-91.12416 146.68383,0.30449 -37.14778,91.75822 -145.0988,-0.95101"
       id="path75"
       style="stroke-width:60.961" />
    <path
       d="m 726.27456,256.48037 -117.16047,-0.95103 26.98732,-68.89791 c 39.05329,0 78.42592,-1.26798 117.79447,0 l -27.62249,69.84894"
       id="path76"
       style="stroke-width:60.961" />
    <path
       d="m 1158.4865,636.87558 c -58.4206,1.90204 -116.8436,2.53588 -175.57936,2.85907 l 57.15016,-141.60577 174.6283,-0.65225 -56.1979,139.38683"
       id="path77"
       style="stroke-width:60.961" />
    <path
       d="m 1092.6488,799.64079 -175.26222,2.53611 -0.95101,-0.65225 56.83311,-141.28875 176.53022,-2.53609 -57.1507,141.92295"
       id="path78"
       style="stroke-width:60.961" />
    <path
       d="m 200.79254,542.99602 19.36792,-49.21319 67.31292,-2.21885 -19.68554,50.48277 -66.99588,0.95102"
       id="path79"
       style="stroke-width:60.961" />
    <path
       d="m 852.46334,962.40608 56.51612,-140.97168 175.57914,-2.21907 -55.8801,141.28873 -176.21341,1.90202"
       id="path80"
       style="stroke-width:60.961" />
    <path
       d="m 397.08634,644.19075 -88.89915,-1.26782 23.17727,-57.1501 c 29.84578,1.26784 59.69163,-0.30521 89.22217,1.58479 l -23.49485,56.83313"
       id="path81"
       style="stroke-width:60.961" />
    <path
       d="m 844.53842,919.12397 -165.4232,-1.26798 47.6262,-119.3795 166.37422,1.26798 -48.5778,119.3795"
       id="path82"
       style="stroke-width:60.961" />
    <path
       d="m 678.72503,837.43663 -144.78179,-0.30522 -1.26802,-0.65226 37.14835,-90.80721 h 145.73281 l -36.83057,91.75815"
       id="path83"
       style="stroke-width:60.961" />
    <path
       d="m 525.71354,753.3106 -117.47749,-0.95101 26.98792,-68.58095 c 39.68789,-0.65225 79.69414,-0.65225 119.0625,0 l -28.57526,69.53196"
       id="path84"
       style="stroke-width:60.961" />
    <path
       d="m 962.19274,1123.9522 -0.65226,1.9019 -175.57918,2.219 57.4677,-144.78181 176.2132,-2.21899 -57.46829,142.8799"
       id="path85"
       style="stroke-width:60.961" />
    <path
       d="m 895.74544,1287.3271 -175.57919,4.4441 -1.58503,-0.6523 58.42067,-143.197 174.94518,-1.585 -56.19795,140.9719"
       id="path86"
       style="stroke-width:60.961" />
    <path
       d="m 825.64064,1461.0652 c -58.42125,-1.5848 -117.16047,-2.2188 -175.89619,2.536 l 61.27778,-152.0849 176.84721,-3.1761 -62.2288,152.719"
       id="path87"
       style="stroke-width:60.961" />
    <path
       d="m 197.13484,1142.2405 -89.85612,0.3045 22.54343,-57.1502 c 30.16259,0 60.00836,-0.951 90.17317,0 l -22.86048,56.8331"
       id="path88"
       style="stroke-width:60.961" />
    <path
       d="m 645.80625,1411.687 -165.09998,-2.536 48.5778,-119.3793 165.09998,1.9018 -48.57722,120.0197"
       id="path89"
       style="stroke-width:60.961" />
    <path
       d="m 334.90623,1327.5612 37.14784,-91.7581 145.4158,0.951 -36.82999,92.0752 -145.73304,-1.2681"
       id="path90"
       style="stroke-width:60.961" />
    <path
       d="M 1890.6254,681.37696 C 1829.3476,611.52802 1744.5756,562.31449 1650.2753,530.87687 l -147.3238,364.49682 c 93.66,34.60805 176.8472,81.91897 243.5261,143.19681 z m -191.1365,475.93894 c -61.5948,-66.6788 -150.1829,-113.9843 -243.2091,-147.0068 l -149.5429,372.4338 c 91.4412,36.196 176.8472,78.743 246.3852,136.2107 z m 378.7859,-518.48355 -468.002,1158.86455 c -121.6046,-165.4172 -332.7422,-269.8796 -544.5199,-309.565 -73.02483,-13.3351 -146.04984,-23.178 -218.75764,-26.0351 l 60.96077,-150.8169 c 93.34297,2.5358 187.00917,13.3351 280.67547,36.8299 l 151.1341,-374.65284 c -95.8853,-23.17779 -191.4535,-26.0351 -286.7047,-20.95454 l 48.8959,-122.87255 c 94.6172,-1.90205 189.2345,3.81009 283.8457,29.84444 l 145.7328,-360.68657 c -95.2512,-18.41498 -190.8195,-25.40051 -286.0707,-21.90804 l 65.4048,-163.19817 c 216.8558,-0.95081 467.6851,59.69161 645.8186,203.52379 44.7677,35.87719 86.363,75.56706 121.6045,121.60451"
       fill-rule="evenodd"
       id="path91"
       style="stroke-width:60.961" />
    <path
       d="m 66.678933,1039.2167 c -22.225748,-0.951 -44.450176,1.268 -66.678933,0 l 19.367854,-47.30805 c 22.542034,-1.585 45.085408,-1.585 68.263917,-2.53604 l -20.954682,49.84779"
       id="path92"
       style="stroke-width:60.961" />
  </g>
</svg>
