<?xml version="1.0" encoding="UTF-8" standalone="no"?>
<!-- Created with Inkscape (http://www.inkscape.org/) -->

<svg
   width="493.539"
   height="391.90466"
   version="1.1"
   viewBox="0 0 493.539 391.90467"
   id="svg73"
   sodipodi:docname="Win3.1CmptbSymbol.svg"
   inkscape:version="1.3.2 (091e20e, 2023-11-25, custom)"
   xmlns:inkscape="http://www.inkscape.org/namespaces/inkscape"
   xmlns:sodipodi="http://sodipodi.sourceforge.net/DTD/sodipodi-0.dtd"
   xmlns="http://www.w3.org/2000/svg"
   xmlns:svg="http://www.w3.org/2000/svg">
  <defs
     id="defs73" />
  <sodipodi:namedview
     id="namedview73"
     pagecolor="#ffffff"
     bordercolor="#000000"
     borderopacity="0.25"
     inkscape:showpageshadow="2"
     inkscape:pageopacity="0.0"
     inkscape:pagecheckerboard="0"
     inkscape:deskcolor="#d1d1d1"
     inkscape:zoom="1.2987853"
     inkscape:cx="247.15402"
     inkscape:cy="195.95233"
     inkscape:window-width="1366"
     inkscape:window-height="705"
     inkscape:window-x="-8"
     inkscape:window-y="-8"
     inkscape:window-maximized="1"
     inkscape:current-layer="svg73" />
  <path
     d="m 371.189,170.62966 -15.223,0.26757 v 143.63 l 15.801,-0.3125 c 25,-0.4962 49.73,2.0792 71.668,8.627 l 19.926,5.9473 v -138.93 l -8.8613,-4.1992 c -25.96,-12.297 -55.21,-15.523 -83.311,-15.029 z"
     color="#000000"
     fill="#fcd844"
     style="-inkscape-stroke:none"
     id="path1" />
  <path
     d="m 355.959,171.61966 -17.17,1.8672 c -27.757,3.0204 -52.711,12.1 -76.086,22.449 v 140.91 l 5.3105,-1.9375 c 23.081,-8.4203 49.191,-14.707 74.48,-18.049 l 13.465,-1.7793 z"
     color="#000000"
     fill="#0c47a4"
     style="-inkscape-stroke:none"
     id="path2" />
  <path
     d="m 355.959,31.44466 -17.32,2.0547 c -28.047,3.3276 -52.83,12.982 -75.936,22.129 v 141.37 l 6.1074,-2.6191 c 23.587,-10.116 47.784,-17.716 73.457,-20.725 l 13.691,-1.6035 z"
     color="#000000"
     fill="#e5360c"
     style="-inkscape-stroke:none"
     id="path3" />
  <path
     d="m 381.369,29.83366 c -3.6055,0.03152 -7.2054,0.15133 -10.789,0.35352 l -14.621,0.82617 v 140.28 l 15.787,-0.29883 c 26.383,-0.49984 49.34,1.9178 70.684,9.9043 l 20.924,7.8301 v -139 l -8.3613,-4.3359 c -22.629,-11.735 -48.378,-15.781 -73.623,-15.561 z"
     color="#000000"
     fill="#0c6d3b"
     style="-inkscape-stroke:none"
     id="path4" />
  <path
     d="m 257.499,25.76266 c 0.468,16.25 0,49.271 0,49.271 l -45.417,18.646 v -45.885 c 14.74,-8.6459 29.74,-15.781 45.417,-22.031"
     id="path31" />
  <path
     d="M 17.135,44.14766 0,51.02276 v -14.375 l 17.135,-7.5 v 15"
     id="path32" />
  <path
     d="m 61.771,55.29366 -23.542,9.0104 v -17.136 l 23.542,-9.0104 v 17.136"
     id="path33" />
  <path
     d="m 205.519,79.82466 -42.76,16.875 v -36.042 l 42.76,-16.875 v 36.042"
     id="path34" />
  <path
     d="m 154.529,75.65766 -38.177,15.052 v -27.396 l 38.177,-15.052 v 27.396"
     id="path35" />
  <path
     d="m 15.625,91.54366 -14.062,6.0416 v -13.281 l 14.062,-5.9896 v 13.229"
     fill="#e5360c"
     id="path36" />
  <path
     d="m 152.239,124.55966 -32.24,12.917 v -24.896 l 32.24,-12.865 v 24.844"
     fill="#e5360c"
     id="path37" />
  <path
     d="m 104.429,119.19966 -25.729,9.6354 v -18.021 l 25.729,-10.26 v 18.646"
     fill="#e5360c"
     id="path38" />
  <path
     d="m 60.104,154.35966 -18.958,7.1353 v -15.885 l 18.958,-7.2396 v 15.99"
     fill="#e5360c"
     id="path39" />
  <path
     d="m 493.539,28.78366 v 345.26 c -95.781,-55.26 -208.02,-14.636 -230.83,-7.1355 v -46.562 c 24.271,-8.8543 51.354,-15.365 77.76,-18.854 v -112.6 c -27.76,3.0208 -53.125,12.76 -77.76,24.01 v -32.76 c 24.531,-10.521 50.208,-18.646 77.76,-21.875 v -109.38 c -27.656,3.2812 -52.969,13.594 -77.76,23.386 v -48.021 c 15.156,-8.4895 131.3,-52.604 230.83,4.5313 z m -122.08,16.875 v 109.84 c 27.5,-0.521 52.604,1.9792 76.406,10.886 v -107.24 c -22.396,-11.614 -49.635,-15 -76.406,-13.49 z m 0,140.47 v 112.6 c 26.25,-0.521 52.5,2.1355 76.406,9.2708 v -108.33 c -22.76,-10.781 -49.74,-14.01 -76.406,-13.542"
     id="path40" />
  <path
     d="m 15.625,239.92966 -14.062,5.625 v -12.865 l 14.062,-6.0417 v 13.281"
     fill="#0c47a4"
     id="path41" />
  <path
     d="m 15.625,289.71966 -14.062,5.9896 v -12.864 l 14.062,-6.4063 v 13.281"
     fill="#0c47a4"
     id="path42" />
  <path
     d="m 202.709,324.24966 -35.833,14.375 v -30 l 35.833,-14.427 v 30.052"
     fill="#0c47a4"
     id="path43" />
  <path
     d="m 257.499,367.78966 v 1.1973 c -15.417,5.5209 -31.823,12.76 -45.417,19.167 v -45.885 l 45.417,-19.271 v 44.792"
     id="path44" />
  <path
     d="m 106.149,344.61966 v 20.417 l -30.625,12.396 v -20.417 l 30.625,-12.396"
     id="path45" />
  <path
     d="m 257.499,171.79966 -45.417,19.271 v -42.656 l 45.417,-18.906 v 42.292"
     id="path46" />
  <path
     d="m 15.625,140.86966 -14.062,5.9896 v -13.229 l 14.062,-6.0417 v 13.281"
     fill="#e5360c"
     id="path47" />
  <path
     d="M 17.135,190.49966 0,197.37476 v -14.375 l 17.135,-7.5 v 15"
     id="path48" />
  <path
     d="M 17.135,339.35966 0,346.23456 v -14.375 l 17.135,-7.5 v 15"
     id="path49" />
  <path
     d="m 60.104,104.82966 -18.958,7.1354 v -15.885 l 18.958,-7.2396 v 15.99"
     fill="#e5360c"
     id="path50" />
  <path
     d="m 60.104,253.67966 -18.958,7.1354 v -15.885 l 18.958,-7.2396 v 15.99"
     fill="#0c47a4"
     id="path51" />
  <path
     d="m 60.104,302.99966 -18.958,7.0834 v -15.885 l 18.958,-7.2396 v 16.042"
     fill="#0c47a4"
     id="path52" />
  <path
     d="m 61.771,203.51966 -23.542,9.0104 v -17.136 l 23.542,-9.0104 v 17.136"
     id="path53" />
  <path
     d="m 61.771,352.52966 -23.542,8.9582 v -17.135 l 23.542,-8.9584 v 17.136"
     id="path54" />
  <path
     d="m 106.149,197.52966 v 20.364 l -30.625,12.396 v -20.365 l 30.625,-12.396"
     id="path55" />
  <path
     d="m 106.149,49.30366 v 20.364 l -30.625,12.396 v -20.417 l 30.625,-12.344"
     id="path56" />
  <path
     d="m 104.429,168.10966 -25.729,9.6353 v -18.021 l 25.729,-10.26 v 18.646"
     fill="#e5360c"
     id="path57" />
  <path
     d="m 104.429,267.16966 -25.729,9.6876 v -18.021 l 25.729,-10.26 v 18.594"
     fill="#0c47a4"
     id="path58" />
  <path
     d="m 104.429,315.49966 -25.729,9.5834 v -17.969 l 25.729,-10.26 v 18.646"
     fill="#0c47a4"
     id="path59" />
  <path
     d="m 154.529,223.67966 -38.177,15 v -27.396 l 38.177,-15 v 27.396"
     id="path60" />
  <path
     d="m 154.529,370.49966 -38.177,15.052 v -27.396 l 38.177,-15.052 v 27.396"
     id="path61" />
  <path
     d="m 152.239,173.36966 -32.24,12.864 v -24.844 l 32.24,-12.917 v 24.896"
     fill="#e5360c"
     id="path62" />
  <path
     d="m 152.239,272.94966 -32.24,12.865 v -24.896 l 32.24,-12.864 v 24.896"
     fill="#0c47a4"
     id="path63" />
  <path
     d="m 152.239,320.60966 -32.24,12.917 v -24.896 l 32.24,-12.917 v 24.896"
     fill="#0c47a4"
     id="path64" />
  <path
     d="m 205.519,228.04966 -42.76,16.875 v -36.042 l 42.76,-16.875 v 36.042"
     id="path65" />
  <path
     d="m 205.519,375.02966 -42.76,16.875 v -36.042 l 42.76,-16.875 v 36.042"
     id="path66" />
  <path
     d="m 202.709,276.17966 -35.833,14.427 v -30.052 l 35.833,-14.375 v 30"
     fill="#0c47a4"
     id="path67" />
  <path
     d="m 202.709,175.39966 -35.833,14.375 v -30.052 l 35.833,-14.375 v 30.052"
     fill="#e5360c"
     id="path68" />
  <path
     d="m 202.709,127.94966 -35.833,14.375 v -30 l 35.833,-14.375 v 30"
     fill="#e5360c"
     id="path69" />
  <path
     d="m 257.499,123.51966 -45.417,19.271 v -42.656 l 45.417,-18.906 v 42.292"
     id="path70" />
  <path
     d="m 257.499,316.64966 -45.417,19.271 v -42.656 l 45.417,-18.906 v 42.292"
     id="path71" />
  <path
     d="m 257.499,268.36966 -45.417,19.271 v -42.656 l 45.417,-18.906 v 42.292"
     id="path72" />
  <path
     d="m 257.499,220.08966 -45.417,19.271 v -42.656 l 45.417,-18.906 v 42.292"
     id="path73" />
</svg>
