<?xml version="1.0" encoding="UTF-8"?>
<svg width="2240.6" height="1918.4" version="1.1" viewBox="-10 0 2240.6 1918.4" xmlns="http://www.w3.org/2000/svg" xmlns:xlink="http://www.w3.org/1999/xlink">
 <defs>
  <radialGradient id="radialGradient1912-3-0" cx="292.28" cy="410.45" r="65.677" gradientTransform="matrix(1.4503 0 0 1.4853 -132.55 -200.99)" gradientUnits="userSpaceOnUse">
   <stop stop-color="#fd813c" offset="0"/>
   <stop stop-color="#e2590a" offset="1"/>
  </radialGradient>
  <linearGradient id="linearGradient1930-5-7" x1="395.57" x2="289.35" y1="437.23" y2="506.28" gradientUnits="userSpaceOnUse">
   <stop stop-color="#2e86d3" offset="0"/>
   <stop stop-color="#62c1d3" offset=".58695"/>
   <stop stop-color="#2e86d3" offset="1"/>
  </linearGradient>
  <linearGradient id="linearGradient1966-2-2" x1="431.39" x2="439.32" y1="368.2" y2="452.68" gradientUnits="userSpaceOnUse">
   <stop stop-color="#4d9336" offset="0"/>
   <stop stop-color="#91d75d" offset=".57143"/>
   <stop stop-color="#4e9336" offset="1"/>
  </linearGradient>
  <linearGradient id="linearGradient1946-7-3" x1="354.28" x2="432.94" y1="416.3" y2="563.28" gradientUnits="userSpaceOnUse">
   <stop stop-color="#ffcf23" offset="0"/>
   <stop stop-color="#fdc300" offset=".38606"/>
   <stop stop-color="#fdff73" offset=".58695"/>
   <stop stop-color="#fdc404" offset=".71758"/>
   <stop stop-color="#fdca21" offset="1"/>
  </linearGradient>
  <linearGradient id="linearGradient1920-6-1" x1="412.72" x2="334.27" y1="361.26" y2="420.59" gradientUnits="userSpaceOnUse">
   <stop stop-color="#e2590a" offset="0"/>
   <stop stop-color="#ff8440" offset=".58695"/>
   <stop stop-color="#e2590a" offset="1"/>
  </linearGradient>
  <clipPath id="clipPath2034">
   <path d="m424.62 348.52-11.598-2.1327c-16.087-2.9579-33.344-4.2426-51.732-3.9462l-33.377 86.038 4.4949-0.2805c16.672-1.0408 33.537 0.37058 50.699 4.278l8.2162 1.8709z" fill="#f00" stroke-width=".16824"/>
  </clipPath>
  <clipPath id="clipPath2050">
   <path d="m439.54 353.78c-2.2192-0.86089-4.4863-1.5982-6.7946-2.2108l-8.4419-2.2404-33.064 85.232 15.587 5.6026c12.925 5.0219 24.83 11.979 35.833 20.964l10.409 8.5008 32.529-83.852-4.0212-4.4621c-10.558-11.716-24.732-20.822-42.035-27.534z" color="#000000" fill="#008000" stroke-width=".16824"/>
  </clipPath>
  <clipPath id="clipPath2450">
   <path d="m391.02 435.13-10.757-2.6677c-15.526-3.8504-33.013-5.0309-52.418-3.8117l-33.306 85.855 3.8611-0.0259c15.915-0.107 32.754 1.8632 50.54 5.9774l8.2386 1.9057z" fill="#00f" stroke-width=".16824"/>
  </clipPath>
  <clipPath id="clipPath2456">
   <path d="m406.32 440.33c-2.2192-0.86089-4.5531-1.6251-7.005-2.3048l-8.51-2.3588-33.497 86.347 15.372 5.9632c14.41 5.59 26.501 12.341 36.386 20.149l10.368 8.1896 33.009-85.091-4.53-4.4994c-11.366-11.29-25.342-20.091-41.592-26.395z" color="#000000" fill="#ff0" stroke-width=".16824"/>
  </clipPath>
  <clipPath id="clipPath2498">
   <path d="m205.88 298.33-10.209 0.73147-3.1641 8.1566 10.148-0.57473zm24.737 17.176-13.372 0.046-3.8335 9.8817 13.372-0.046zm-36.42 12.94-10.149 0.57472-3.1641 8.1566 10.148-0.57473zm60.565 4.3665-18.181 0.34602-4.3202 11.137 18.059-0.0325zm29.479 10.534-22.71 0.39334-6.0239 15.529 22.71-0.39334zm-78.618 2.1648-3.8943 10.039 13.372-0.046 3.7727-9.725zm109.94 8.7244-25.681 0.14327-7.2411 18.666 25.742-0.30034zm-72.55 8.8502-18.119 0.18928-4.3813 11.293 18.119-0.18928zm29.479 10.534-22.649 0.2366-6.0243 15.528 22.71-0.39334zm31.874 9.4776-25.742 0.30001-7.18 18.509 25.681-0.14328z" fill="#f00" stroke-width=".16824"/>
  </clipPath>
  <clipPath id="clipPath2524">
   <path d="m170.59 389.3-10.087 0.41765-3.1641 8.1566 10.148-0.57472zm11.487 16.908-3.8943 10.038 13.433-0.20274 3.7723-9.725zm-23.292 13.522-10.209 0.73147-3.1033 7.9995 10.148-0.57473zm60.748 3.8956-18.18 0.34635-4.3812 11.293 18.18-0.34602zm29.418 10.69-22.649 0.2366-6.0243 15.529 22.65-0.2366zm-65.429 2.5897-13.372 0.0457-3.8335 9.8821 13.433-0.20275zm96.877 7.986-25.742 0.30002-7.18 18.509 25.62 0.0135zm-72.246 8.0659-18.241 0.50307-4.3812 11.293 18.119-0.18926zm29.418 10.69-22.71 0.39366-5.9635 15.372 22.65-0.2366zm31.387 10.732-25.742 0.30002-7.2411 18.666 25.742-0.30035z" fill="#00f" stroke-width=".16824"/>
  </clipPath>
 </defs>
 <g>
  <path transform="matrix(5.9437 0 0 5.9437 -797.43 -1597.6)" d="m509.45 268.79h-376.97v322.76h376.97z" clip-path="url(#clipPath2456)" fill="url(#linearGradient1946-7-3)"/>
  <path transform="matrix(5.9437 0 0 5.9437 -797.43 -1597.6)" d="m509.45 268.79h-376.97v322.76h376.97z" clip-path="url(#clipPath2050)" fill="url(#linearGradient1966-2-2)"/>
  <path transform="matrix(5.9437 0 0 5.9437 -797.43 -1597.6)" d="m132.48 268.79v322.76h376.97v-322.76z" clip-path="url(#clipPath2450)" fill="url(#linearGradient1930-5-7)"/>
  <path transform="matrix(5.9437 0 0 5.9437 -797.43 -1597.6)" d="m132.48 268.79v322.76h376.97v-322.76z" clip-path="url(#clipPath2524)" fill="#2e86d3"/>
  <path transform="matrix(5.9437 0 0 5.9437 -797.43 -1597.6)" d="m132.48 268.79v322.76h376.97v-322.76z" clip-path="url(#clipPath2034)" fill="url(#linearGradient1920-6-1)"/>
  <path transform="matrix(5.9437 0 0 5.9437 -797.43 -1597.6)" d="m509.45 591.55v-322.76h-376.97v322.76z" clip-path="url(#clipPath2498)" fill="url(#radialGradient1912-3-0)"/>
  <path d="m501.87 0-73.885 2.4434-20.979 54.074 73.523-1.5117 21.34-55.006zm148.42 92.973-98.793 0.29102-24.594 63.396 98.43 0.64257 24.957-64.33zm144.8 102.3-128.3 1.7129-29.297 75.516 127.94-0.7793 29.658-76.449zm177.08 63.334-160.98 2.9805-38.699 99.758 160.62-2.0508 39.061-100.69zm190.17 54.467-179.36 3.3594-50.994 131.46 179.36-3.3594 50.996-131.46zm233.68 5.916-68.719 177.14c114.98-3.3062 221.53 4.0631 319.64 22.104l-154.43 398.09c-107.1-24.386-213.05-33.307-317.84-26.764l-46.654 120.27c121.84-9.9388 228.75-3.5047 320.73 19.305l-159.13 410.21c-109.58-25.348-214.2-37.688-313.86-37.02l-65.102 167.82c184.06 8.4784 341.98 38.274 473.74 89.389 159.12 61.726 278.31 148.01 357.59 258.85l488.62-1259.5c-99.646-117.31-224.37-205.03-374.16-263.13-139.22-54.008-292.7-79.582-460.42-76.715zm-20.607 0.58594c-61.032 0.63668-126.52 6.3369-196.48 17.096l-65.1 167.81 191.78-4.9746 69.803-179.94zm-77.037 198.58-191.78 4.9746-60.76 156.63 192.14-5.9062 60.398-155.7zm-1003.4 15.125-74.246 3.375-20.615 53.143 73.523-1.5117 21.338-55.006zm1464.8 14.781c11.67 3.097 23.1 6.8142 34.287 11.154 96.335 37.371 172.25 86.845 227.74 148.41l-151.54 390.64c-70.052-57.208-146.41-101.84-229.07-133.91l-37.654-13.535 156.24-402.76zm-1318.9 84.719-98.793 0.28906-24.594 63.396 98.793-0.28906 24.594-63.396zm789.51 60.648-192.14 5.9062-61.123 157.56 192.14-5.9082 61.121-157.56zm-644.71 41.646-128.3 1.7129-29.295 75.518 127.94-0.78125 29.656-76.449zm176.72 64.266-160.25 1.1172-39.061 100.69 160.25-1.1172 39.061-100.69zm190.54 53.535-178.99 2.4277-50.996 131.46 178.99-2.4277 50.996-131.46zm208.73 17.689-191.78 4.9766-60.762 156.63 192.14-5.9082 60.398-155.7zm-67.994 175.27-192.14 5.9082-62.57 161.29 192.51-6.8399 62.207-160.36zm466.84 15.922c12.913 3.5791 24.963 7.5388 36.15 11.879 90.123 34.962 165.9 82.949 227.32 143.96l-154.07 397.16c-64.04-50.586-141.12-93.36-231.24-128.32l-37.293-14.467 159.13-410.21zm-1475.3 12.256-74.609 4.3086-20.615 53.141 73.523-1.5097 21.701-55.94zm145.17 101.37-99.516 2.1543-24.594 63.396 99.516-2.1543 24.594-63.396zm793.49 50.392-192.14 5.9082-61.484 158.49 192.87-7.7734 60.76-156.63zm-646.15 45.377-128.3 1.7129-29.656 76.449 128.3-1.7129 29.656-76.449zm177.08 63.334-160.97 2.9804-38.699 99.758 160.61-2.0508 39.061-100.69zm190.17 54.467-178.99 2.4277-50.996 131.46 178.99-2.4278 50.996-131.46zm210.54 13.029-192.51 6.8379-65.461 168.75c54.297-5.3947 118.58-7.9855 192.87-7.7715l65.102-167.81z"/>
 </g>
</svg>
