<?xml version="1.0" encoding="UTF-8" standalone="no"?>
<svg
   xmlns:dc="http://purl.org/dc/elements/1.1/"
   xmlns:cc="http://creativecommons.org/ns#"
   xmlns:rdf="http://www.w3.org/1999/02/22-rdf-syntax-ns#"
   xmlns:svg="http://www.w3.org/2000/svg"
   xmlns="http://www.w3.org/2000/svg"
   xmlns:sodipodi="http://sodipodi.sourceforge.net/DTD/sodipodi-0.dtd"
   xmlns:inkscape="http://www.inkscape.org/namespaces/inkscape"
   version="1.1"
   x="0px"
   y="0px"
   width="1000"
   height="882.846"
   viewBox="-73 14.917 1000 882.846"
   xml:space="preserve"
   id="svg790"><metadata
   id="metadata31"><rdf:RDF><cc:Work
       rdf:about=""><dc:format>image/svg+xml</dc:format><dc:type
         rdf:resource="http://purl.org/dc/dcmitype/StillImage" /><dc:title></dc:title></cc:Work></rdf:RDF></metadata><defs
   id="defs29" /><sodipodi:namedview
   pagecolor="#ffffff"
   bordercolor="#666666"
   borderopacity="1"
   objecttolerance="10"
   gridtolerance="10"
   guidetolerance="10"
   inkscape:pageopacity="0"
   inkscape:pageshadow="2"
   inkscape:window-width="1920"
   inkscape:window-height="1009"
   id="namedview792"
   showgrid="false"
   fit-margin-top="0"
   fit-margin-left="0"
   fit-margin-right="0"
   fit-margin-bottom="0"
   inkscape:zoom="0.6421831"
   inkscape:cx="547.55781"
   inkscape:cy="431.06527"
   inkscape:window-x="-8"
   inkscape:window-y="-8"
   inkscape:window-maximized="1"
   inkscape:current-layer="svg790"
   inkscape:document-rotation="0" />
<g
   id="g2070"
   transform="matrix(15.173352,0,0,15.173352,996.87305,-246.47434)"><g
     id="g32">
		
			<radialGradient
   id="SVGID_1_"
   cx="282.44431"
   cy="794.85248"
   r="30.867701"
   gradientTransform="matrix(0.9732,0,0,0.9795,-311.082,-727.21)"
   gradientUnits="userSpaceOnUse">
			<stop
   offset="0.25"
   style="stop-color:#FFFFFF"
   id="stop4" />
			<stop
   offset="1"
   style="stop-color:#000000"
   id="stop6" />
		</radialGradient>
		
		
			<radialGradient
   id="SVGID_2_"
   cx="282.44531"
   cy="794.85352"
   r="30.867599"
   gradientTransform="matrix(0.9732,0,0,0.9795,-311.082,-727.21)"
   gradientUnits="userSpaceOnUse">
			<stop
   offset="0.25"
   style="stop-color:#FFFFFF"
   id="stop11" />
			<stop
   offset="1"
   style="stop-color:#000000"
   id="stop13" />
		</radialGradient>
		
		
			<radialGradient
   id="SVGID_3_"
   cx="282.44531"
   cy="794.85248"
   r="30.868799"
   gradientTransform="matrix(0.9732,0,0,0.9795,-311.082,-727.21)"
   gradientUnits="userSpaceOnUse">
			<stop
   offset="0.25"
   style="stop-color:#FFFFFF"
   id="stop18" />
			<stop
   offset="1"
   style="stop-color:#000000"
   id="stop20" />
		</radialGradient>
		
		
			<radialGradient
   id="SVGID_4_"
   cx="282.44431"
   cy="794.85352"
   r="30.871201"
   gradientTransform="matrix(0.9732,0,0,0.9795,-311.082,-727.21)"
   gradientUnits="userSpaceOnUse">
			<stop
   offset="0.25"
   style="stop-color:#FFFFFF"
   id="stop25" />
			<stop
   offset="1"
   style="stop-color:#000000"
   id="stop27" />
		</radialGradient>
		
	</g><g
     id="Layer_2">
</g><g
     transform="matrix(1.5692077,0,0,-1.5347451,-36.475775,49.375763)"
     id="g15760"><path
       id="path15762"
       style="fill:#fcb040;fill-opacity:1;fill-rule:nonzero;stroke:none"
       d="m 0,0 c 3.558,-2.43 7.499,-4.378 15.718,-0.934 l -4.051,-14.174 c -8.218,-3.443 -12.159,-1.486 -15.712,0.957 z" /></g><g
     transform="matrix(1.5692077,0,0,-1.5347451,-38.690241,43.335317)"
     id="g15764"><path
       id="path15766"
       style="fill:#ed1c24;fill-opacity:1;fill-rule:nonzero;stroke:none"
       d="m 0,0 c -3.555,2.426 -7.498,4.355 -15.7,0.92 l 4.066,14.236 c 8.202,3.437 12.143,1.492 15.691,-0.947 z" /></g><g
     transform="matrix(1.5692077,0,0,-1.5347451,-69.849364,67.004609)"
     id="g15768"><path
       id="path15770"
       style="fill:#00aeef;fill-opacity:1;fill-rule:nonzero;stroke:none"
       d="m 0,0 c -0.035,-0.013 -0.076,-0.023 -0.12,-0.023 -0.165,0 -0.301,0.138 -0.301,0.309 0,0.031 0.005,0.059 0.012,0.084 l 3.862,13.507 c 8.199,3.436 12.144,1.507 15.699,-0.917 L 15.111,-1.184 C 11.645,1.195 7.81,3.107 0,0" /></g><g
     transform="matrix(1.5692077,0,0,-1.5347451,-4.6254085,26.203878)"
     id="g15772"><path
       id="path15774"
       style="fill:#8dc63f;fill-opacity:1;fill-rule:nonzero;stroke:none"
       d="m 0,0 -3.878,-13.569 c -8.216,-3.441 -12.155,-1.494 -15.716,0.935 l 4.055,14.199 c 3.471,-2.385 7.308,-4.306 15.136,-1.192 0.033,0.013 0.07,0.021 0.114,0.021 C -0.124,0.393 0.014,0.253 0.013,0.081 0.013,0.054 0.005,0.025 0,0" /></g></g><g
   id="layer1"
   transform="matrix(3.7795275,0,0,3.7795275,569.97622,136.48771)" /></svg>
