<?xml version="1.0" encoding="UTF-8"?>
<svg width="963.22" height="963.22" version="1.1" xmlns="http://www.w3.org/2000/svg">
 <g transform="matrix(10.101 0 0 10.101 -1914.1 0)">
  <g transform="translate(189.5)">
   <path d="m46.899 23.956-8.48-0.081-0.02-0.012 3.109-7.36c2.906-0.277 5.816-0.538 8.727-0.39l-3.336 7.844"/>
   <path d="m51.297 16.085-3.3345 7.853a61.745 61.745 0 0 1 13.956 1.3199l-7.3748 17.378c-4.5731-1.3428-9.2054-1.7219-13.791-1.718l-9.8503 23.198c6.4e-5 3e-6 1.29e-4 -3e-6 1.93e-4 0l7.3366-17.269c4.624-0.168 9.3471 0.067005 13.98 1.27l-7.6601 18.043c-4.5199-1.211-9.1247-1.8398-13.657-2.0438l-3.86e-4 9.67e-4v-5.8e-4l-3.082 7.2584c3.532 0.203 7.0659 0.74602 10.606 1.456 10.242 2.098 20.391 7.3452 26.144 15.47l23.684-55.793c-1.66-2.274-3.645-4.2272-5.797-6.0082-8.504-7.125-20.637-10.281-31.16-10.415zm16.289 10.809c4.54 1.602 8.621 4.0701 11.535 7.5201l-7.2931 17.18c-3.187-3.012-7.164-5.3799-11.695-7.1299l7.453-17.57zm-9.805 23.098c4.489 1.691 8.688 4.02 11.63 7.3l-9.67e-4 0.00116-7.394 17.422c-3.328-2.84-7.4419-4.9651-11.848-6.7861l7.6129-17.937z"/>
   <path d="m38.285 21.191-8.043-0.176 2.438-5.797 7.972 0.176 0.082 0.035-2.449 5.762"/>
   <path d="m23.301 16.859 1.812-4.394 7.098 0.14-1.863 4.414-7.047-0.16"/>
   <path d="m43.652 31.616c-2.843 0.028-5.675 0.024-8.52-0.019l2.892-6.808 8.476 0.12-2.848 6.708"/>
   <path d="m34.5 28.82-6.707-0.184 2.035-4.867 6.7 0.145 0.058 0.023-2.086 4.883"/>
   <path d="m26.613 24.796c-1.992-0.042-3.992-0.035-5.992-0.136l1.742-4.043c2 0.02 3.985 0.086 5.989 0.137l-1.739 4.043"/>
   <path d="m19.375 20.629a131.1 131.1 0 0 1-4.789-0.172l1.234-2.914c1.606 0.05 3.215 0.031 4.82 0.09l-1.265 2.996"/>
   <path d="m40.324 39.465-8.496-0.036-0.058-0.023 2.882-6.813 8.567 0.024-2.895 6.848"/>
   <path d="m31.305 36.422-6.77-0.172 2.04-4.836 6.687 0.11 0.082 0.034-2.04 4.864"/>
   <path d="m17.313 32.609 1.68-4.066 5.96 0.11-1.68 4.065-5.96-0.109"/>
   <path d="m16 28.562-4.781-0.113 1.226-2.969c1.606 0.047 3.22 0.059 4.832 0.121l-1.277 2.961"/>
   <path d="m28.512 47.156 2.863-6.793 8.543 0.047-2.887 6.8-8.52-0.054"/>
   <path d="m28.168 45.043-8.031-0.2 2.406-5.761 7.973 0.176 0.093 0.039-2.441 5.746"/>
   <path d="m20.207 40.933-7.031-0.14-0.059-0.024 1.88-4.383 7.038 0.118 0.035 0.015-1.863 4.414"/>
   <path d="m12.84 36.742-5.688-0.148 1.368-3.31c1.93 5e-3 3.855 0.048 5.77 0.114l-1.45 3.344"/>
   <path d="m33.652 55.168-8.503-0.043 2.906-6.965 8.562 0.027-2.965 6.98"/>
   <path d="m24.442 52.633-6.735-0.157-0.023-0.105 2.039-4.77 6.668 0.157 0.078 0.035-2.027 4.84"/>
   <path d="m16.492 48.664-5.953-0.137 1.692-4.02c1.996 0.032 3.988 0.047 5.992 0.133l-1.73 4.024"/>
   <path d="m9.242 44.516-4.773-0.137 1.203-2.91c1.61 0.078 3.238 0.011 4.844 0.097l-1.274 2.95"/>
   <path d="m30.344 62.953-1.063 0.05-7.46 0.012-0.06-0.023 2.946-6.899 8.531 0.051-2.894 6.809"/>
   <path d="m23.211 55.516c-0.726 1.59-1.348 3.288-2.09 4.882l-6.742-0.199 2.07-4.848 6.68 0.13 0.082 0.034"/>
   <path d="m13.235 56.375-5.989-0.137 1.739-4.043c1.984 0.027 3.976 0.07 5.976 0.172l-1.726 4.008"/>
   <path d="m5.973 52.266-4.762-0.165c0.34-0.953 0.777-2.015 1.207-2.922l4.797 0.082c-0.363 0.973-0.8 2.036-1.242 3.004"/>
   <path d="m26.805 71.308c-2.836-0.12-5.688-0.199-8.543-7e-3l3.098-7.329 8.566-0.027-3.121 7.363"/>
   <path d="m18.102 68.769-8.008-0.258 2.445-5.75 7.93 0.184 0.082 0.035-2.45 5.79"/>
   <path d="m3.102 64.446 1.87-4.427 7.048 0.164-1.864 4.442-7.054-0.18"/>
   <path d="m47.68 5.059c-23.539 0-42.617 19.082-42.617 42.62 0 23.536 19.078 42.618 42.617 42.618 23.54 0 42.617-19.082 42.617-42.617 0-23.54-19.078-42.621-42.617-42.621z" fill="none" stroke="#000" stroke-miterlimit="3.864" stroke-width=".128"/>
   <path d="m47.68 5.059c-23.539 0-42.617 19.082-42.617 42.62 0 23.536 19.078 42.618 42.617 42.618 23.54 0 42.617-19.082 42.617-42.617 0-23.54-19.078-42.621-42.617-42.621zm0-5.059c26.332 0 47.68 21.344 47.68 47.68 0 26.332-21.348 47.68-47.68 47.68s-47.68-21.348-47.68-47.68c0-26.336 21.348-47.68 47.68-47.68" fill-rule="evenodd"/>
   <path d="m47.68 5.059c-23.539 0-42.617 19.082-42.617 42.62 0 23.536 19.078 42.618 42.617 42.618 23.54 0 42.617-19.082 42.617-42.617 0-23.54-19.078-42.621-42.617-42.621z" fill="none" stroke="#000" stroke-miterlimit="3.864" stroke-width=".094"/>
  </g>
 </g>
</svg>
