<?xml version="1.0" encoding="UTF-8" standalone="no"?>
<svg
   width="1023.2"
   height="960.61"
   data-name="Capa 1"
   version="1.1"
   viewBox="0 0 1023.2 960.61"
   id="svg66"
   sodipodi:docname="Microsoft_Windows_2000_Icon_Accurate_Vector fix.svg"
   xml:space="preserve"
   inkscape:version="1.3.2 (091e20e, 2023-11-25, custom)"
   xmlns:inkscape="http://www.inkscape.org/namespaces/inkscape"
   xmlns:sodipodi="http://sodipodi.sourceforge.net/DTD/sodipodi-0.dtd"
   xmlns:xlink="http://www.w3.org/1999/xlink"
   xmlns="http://www.w3.org/2000/svg"
   xmlns:svg="http://www.w3.org/2000/svg"><sodipodi:namedview
     id="namedview66"
     pagecolor="#ffffff"
     bordercolor="#000000"
     borderopacity="0.25"
     inkscape:showpageshadow="2"
     inkscape:pageopacity="0.0"
     inkscape:pagecheckerboard="0"
     inkscape:deskcolor="#d1d1d1"
     inkscape:zoom="0.35355339"
     inkscape:cx="647.70981"
     inkscape:cy="369.10974"
     inkscape:window-width="1440"
     inkscape:window-height="837"
     inkscape:window-x="-8"
     inkscape:window-y="-8"
     inkscape:window-maximized="1"
     inkscape:current-layer="svg66" /><defs
     id="defs12"><linearGradient
       id="linearGradient82"
       inkscape:collect="always"><stop
         style="stop-color:#ffd900;stop-opacity:1;"
         offset="0.05208333"
         id="stop84" /><stop
         style="stop-color:#03780e;stop-opacity:1;"
         offset="0.14583334"
         id="stop82" /><stop
         style="stop-color:#03780e;stop-opacity:1;"
         offset="0.83184528"
         id="stop85" /><stop
         style="stop-color:#03780e;stop-opacity:0;"
         offset="1"
         id="stop83" /></linearGradient><linearGradient
       id="linearGradient67"
       x1="678.54"
       x2="754.02"
       y1="2215.1"
       y2="2127.1"
       data-name="Degradado sin nombre 7"
       gradientTransform="matrix(2.83,0,0,-2.83,289.2,3983)"
       gradientUnits="userSpaceOnUse"><stop
         stop-color="#fff"
         offset="0"
         id="stop66" /><stop
         stop-color="#fff"
         stop-opacity="0"
         offset="0.21428573"
         id="stop67" /></linearGradient><linearGradient
       id="Degradado_sin_nombre_34"
       x1="849.36"
       x2="850.28"
       y1="1924.9"
       y2="2021.2"
       data-name="Degradado sin nombre 34"
       gradientTransform="matrix(2.83 0 0 -2.83 -1760.4 6362.4)"
       gradientUnits="userSpaceOnUse"><stop
         stop-color="#0800e9"
         offset="0"
         id="stop1" /><stop
         stop-color="#0083f6"
         offset="1"
         id="stop2" /></linearGradient><linearGradient
       id="Degradado_sin_nombre_2"
       x1="850.42"
       x2="849.81"
       y1="2156.8"
       y2="2100.4"
       data-name="Degradado sin nombre 2"
       gradientTransform="matrix(2.83 0 0 -2.83 -1760.4 6362.4)"
       gradientUnits="userSpaceOnUse"><stop
         stop-color="#fff"
         offset="0"
         id="stop3" /><stop
         stop-color="#0083f6"
         offset="1"
         id="stop4" /></linearGradient><linearGradient
       id="Degradado_sin_nombre_3"
       x1="658.47"
       x2="658.47"
       y1="1984.5"
       y2="2011.7"
       data-name="Degradado sin nombre 3"
       gradientTransform="matrix(2.83 0 0 -2.83 -1760.4 6362.4)"
       gradientUnits="userSpaceOnUse"><stop
         stop-color="#ffd900"
         offset="0"
         id="stop5" /><stop
         stop-color="#fff"
         offset="1"
         id="stop6" /></linearGradient><linearGradient
       id="Degradado_sin_nombre_4"
       x1="799.03"
       x2="799.64"
       y1="2222.2"
       y2="1963.6"
       data-name="Degradado sin nombre 4"
       gradientTransform="matrix(2.83 0 0 -2.83 -1760.4 6362.4)"
       gradientUnits="userSpaceOnUse"><stop
         stop-color="#f67d01"
         offset="0"
         id="stop7" /><stop
         stop-color="#b93f0e"
         offset="1"
         id="stop8" /></linearGradient><radialGradient
       id="Degradado_sin_nombre_5"
       cx="-708.55798"
       cy="1044.4854"
       r="149.97"
       data-name="Degradado sin nombre 5"
       gradientTransform="matrix(.96 1.21 21.13 -16.66 -20875 18873)"
       gradientUnits="userSpaceOnUse"
       fx="-708.55798"
       fy="1044.4854"><stop
         stop-color="#fff"
         offset="0.19642858"
         id="stop9" /><stop
         stop-color="#d35900"
         offset="0.77200609"
         id="stop10" /></radialGradient><linearGradient
       id="Degradado_sin_nombre_7"
       x1="678.54"
       x2="754.02"
       y1="2215.1"
       y2="2127.1"
       data-name="Degradado sin nombre 7"
       gradientTransform="matrix(2.83,0,0,-2.83,289.2,3983)"
       gradientUnits="userSpaceOnUse"><stop
         stop-color="#fff"
         offset="0"
         id="stop11" /><stop
         stop-color="#fff"
         stop-opacity="0"
         offset="1"
         id="stop12" /></linearGradient><linearGradient
       id="Degradado_sin_nombre_7-2"
       x1="903.16"
       x2="914.78"
       y1="2110.4"
       y2="2084.1"
       gradientTransform="translate(-2049.6 2379.4)"
       xlink:href="#Degradado_sin_nombre_7" /><linearGradient
       id="linearGradient9575"
       x1="678.54"
       x2="678.53998"
       y1="2215.1"
       y2="2122.9358"
       gradientTransform="matrix(1.9001619,0,0,-6.193335,-1172.5837,14148.93)"
       gradientUnits="userSpaceOnUse"
       xlink:href="#linearGradient67" /><linearGradient
       inkscape:collect="always"
       xlink:href="#linearGradient82"
       id="linearGradient83"
       x1="212.27"
       y1="776.065"
       x2="715.64"
       y2="776.065"
       gradientUnits="userSpaceOnUse"
       gradientTransform="matrix(1.1982443,0,0,1,-78.368665,0)" /><linearGradient
       inkscape:collect="always"
       xlink:href="#linearGradient67"
       id="linearGradient1"
       gradientUnits="userSpaceOnUse"
       gradientTransform="matrix(5.7037029,0,0,-1.1218468,-3304.1049,2522.132)"
       x1="671.79199"
       y1="2127.1001"
       x2="754.02"
       y2="2127.1" /></defs><g
     id="g1"><rect
       x="274.67001"
       y="498.32001"
       width="748.56"
       height="462.29001"
       fill="url(#Degradado_sin_nombre_34)"
       id="rect12"
       style="display:inline" /><rect
       x="274.67001"
       y="211.17999"
       width="748.56"
       height="317.60999"
       fill="url(#Degradado_sin_nombre_2)"
       id="rect13"
       style="display:inline" /><rect
       y="638.31"
       width="212.27"
       height="275.51001"
       fill="url(#Degradado_sin_nombre_3)"
       id="rect14"
       x="0"
       style="display:inline" /><rect
       x="175.98265"
       y="638.31"
       width="603.1601"
       height="275.51001"
       fill="#03780e"
       id="rect15"
       style="display:inline;fill:url(#linearGradient83);fill-opacity:1;stroke-width:1.09464" /><rect
       x="99.639999"
       y="62.82"
       width="811.81"
       height="813.75"
       fill="url(#Degradado_sin_nombre_4)"
       id="rect16"
       style="display:inline" /><rect
       x="35.02"
       width="850.23999"
       height="848.96002"
       fill="url(#Degradado_sin_nombre_5)"
       id="rect17"
       y="0"
       style="display:inline;fill:url(#Degradado_sin_nombre_5)" /><path
       d="m 36.27,188.2 386.7,51.22 462.26,609.51 H 34.99 Z"
       fill="#d35900"
       id="path17"
       style="display:inline" /><rect
       x="100.34951"
       y="59.863689"
       width="718.96313"
       height="719.29163"
       fill="#ffffff"
       id="rect18"
       style="display:inline;stroke-width:0.983563" /><rect
       x="33.778191"
       y="-1.906788e-06"
       width="300.80145"
       height="245.82675"
       fill="#ffffff"
       id="rect18-1"
       style="display:inline;stroke-width:0.371919" /><path
       d="M 33.759366,225.08637 33.750627,1785.96 518.65449,225.08637 Z"
       fill="url(#linearGradient9575)"
       id="path18"
       style="display:inline;fill:url(#linearGradient9575);stroke-width:1.21218"
       sodipodi:nodetypes="cccc" /><path
       d="M 316.96654,-0.00178343 316.94031,282.73137 1772.4728,-0.00178343 Z"
       fill="url(#linearGradient9575)"
       id="path18-2"
       style="display:inline;fill:url(#linearGradient1);stroke-width:0.89383"
       sodipodi:nodetypes="cccc" /><path
       d="m 884.57,238.9 -166.34,84 -3.47,198.48 169.81,-93.58 z"
       fill="url(#Degradado_sin_nombre_7-2)"
       id="path19"
       style="display:inline;opacity:1" /><g
       transform="matrix(20.192448,-1.7666104,1.7666104,20.192448,-2853.6543,-3190.2487)"
       id="g66"
       style="display:inline"><path
         d="m 147.45,199.64 3.2812,-8.125 c 1.5625,-0.0859 4.0977,0.26563 5.668,0.64453 l -3.375,8.3594 c -1.5312,-0.37891 -4.043,-0.83985 -5.5742,-0.87891"
         fill="#0099ff"
         id="path20" /><path
         d="m 162.2,195.43 -3.4102,8.3984 c -1.1406,-0.9375 -4.2656,-2.7188 -5.7656,-3.3086 l 3.375,-8.3594 c 1.5273,0.54297 4.7891,2.1797 5.8008,3.2695"
         fill="#ffce00"
         id="path21" /><path
         d="m 165.54,187.65 -3.3477,7.7812 c -1.0938,-1 -4.2578,-2.707 -5.8008,-3.2695 l 3.3828,-8.375 c 1.543,0.51563 4.7617,2.7188 5.7656,3.8633"
         fill="#008600"
         id="path22" /><path
         d="m 150.73,191.52 3.3281,-8.2227 c 1.5586,-0.0547 4.1562,0.19141 5.7226,0.49219 l -3.3828,8.375 c -1.5508,-0.42578 -4.1172,-0.67578 -5.668,-0.64453"
         fill="#ff3300"
         id="path23" /><path
         d="m 139.46,194.54 -1.6055,-0.0273 c 0.10937,-0.32422 0.25,-0.6875 0.38672,-0.99219 l 1.6211,-0.004 c -0.11719,0.33204 -0.25781,0.69141 -0.40234,1.0234"
         fill="#0099ff"
         id="path24" /><path
         d="m 141.94,195.88 -2.0234,-0.0117 0.56641,-1.375 c 0.66797,-0.004 1.3438,0 2.0156,0.0234 l -0.55859,1.3633"
         fill="#0099ff"
         id="path25" /><path
         d="m 145.3,195.54 c -0.23437,0.53906 -0.43359,1.1172 -0.67578,1.6602 l -2.2773,-0.0273 0.67187,-1.6484 2.2812,0.0156"
         fill="#0099ff"
         id="path26" /><path
         d="m 137.3,192.89 -1.168,-0.008 c 0.0937,-0.26953 0.21094,-0.57031 0.33203,-0.83985 0.39844,-0.004 0.79688,-0.0273 1.1953,-0.0117 l -0.35938,0.85937"
         fill="#0099ff"
         id="path27" /><path
         d="m 135.19,191.18 c -0.30078,0.008 -0.60547,0.0391 -0.90625,0.0312 l 0.29297,-0.71093 c 0.30078,-0.0156 0.60156,-0.0312 0.90234,-0.0312 L 135.19,191.18"
         fill="#0099ff"
         id="path28" /><path
         d="m 140.52,191.9 -1.6094,-0.0195 0.38671,-0.98828 c 0.54688,0.0156 1.0938,-0.0156 1.6367,0.004 l -0.41406,1.0039"
         fill="#0099ff"
         id="path29" /><path
         d="m 142.99,193.26 -2.0078,-0.008 0.54297,-1.3672 c 0.67578,-0.004 1.3516,-0.008 2.0274,0.008 l -0.5625,1.3672"
         fill="#0099ff"
         id="path30" /><path
         d="m 145.7,194.55 -2.2852,-0.0508 0.66406,-1.6211 2.2774,0.0234 -0.65625,1.6484"
         fill="#0099ff"
         id="path31" /><path
         d="m 138.41,190.16 c -0.39063,-0.0117 -0.79297,0.0195 -1.1875,-0.004 l 0.35937,-0.88672 1.1641,0.0312 c -0.0859,0.27734 -0.20703,0.58203 -0.33594,0.85938"
         fill="#0099ff"
         id="path32" /><path
         d="m 136.29,188.46 -0.90235,0.0195 0.27735,-0.70703 c 0.29297,-0.0273 0.60937,-0.0273 0.91406,-0.0273 l -0.28906,0.71484"
         fill="#0099ff"
         id="path33" /><path
         d="m 142.71,186.48 -1.6133,-0.0117 0.39453,-1.0078 c 0.54297,0.008 1.0859,0 1.6328,0.0117 l -0.41406,1.0078"
         fill="#ff3300"
         id="path34" /><path
         d="m 143.18,187.84 0.54297,-1.3828 h 2.0117 L 145.1917,187.84 H 143.18"
         fill="#ff3300"
         id="path35" /><path
         d="m 147.92,189.04 -2.2852,-0.0156 0.66015,-1.6445 2.2812,0.008 -0.65625,1.6523"
         fill="#ff3300"
         id="path36" /><path
         d="m 140.61,184.72 c -0.38281,0.0195 -0.78515,0 -1.1758,0.008 l 0.32813,-0.875 c 0.38281,-0.0312 0.78906,0.0156 1.1758,0.004 l -0.32813,0.86328"
         fill="#ff3300"
         id="path37" /><path
         d="m 138.48,183.01 c -0.30078,0.008 -0.60156,0.0391 -0.90625,0.0273 l 0.29688,-0.71094 0.89453,-0.043 -0.28516,0.72656"
         fill="#ff3300"
         id="path38" /><path
         d="m 143.8,183.78 c -0.53906,0 -1.0781,-0.008 -1.6172,-0.0312 l 0.39844,-0.98828 c 0.54297,0.008 1.0859,-0.0117 1.6289,0.004 l -0.41016,1.0156"
         fill="#ff3300"
         id="path39" /><path
         d="m 146.27,185.14 c -0.67187,0 -1.3477,0.0117 -2.0234,-0.008 l 0.5625,-1.375 c 0.67578,-0.008 1.3477,0.004 2.0234,0.008 l -0.5625,1.375"
         fill="#ff3300"
         id="path40" /><path
         d="m 148.96,186.45 -2.2695,-0.0234 0.66016,-1.6524 2.2852,0.0156 -0.67578,1.6602"
         fill="#ff3300"
         id="path41" /><path
         d="m 141.69,182.02 h -1.1797 l 0.34765,-0.88672 c 0.39844,0.0195 0.78907,0 1.1836,0.0234 l -0.35156,0.86328"
         fill="#ff3300"
         id="path42" /><path
         d="m 139.58,180.3 -0.90625,0.0391 0.28125,-0.71484 c 0.30078,-0.0352 0.60547,-0.0195 0.90625,-0.0391 l -0.28125,0.71485"
         fill="#ff3300"
         id="path43" /><path
         d="m 138.44,197.3 c -0.63672,0.008 -1.2773,0.004 -1.918,-0.0156 l 0.45703,-1.1328 c 0.64063,0 1.2852,0.0195 1.9336,0.0117 l -0.47266,1.1367"
         id="path44" /><path
         d="m 153.11,184.74 -2.8711,0.0195 1.0078,-2.5039 c 0.97656,-0.10938 1.9609,-0.21485 2.9414,-0.1836 l -1.0781,2.668"
         id="path45" /><path
         d="m 140.71,177.73 -1.0898,0.0234 0.31641,-0.8086 c 0.36718,-0.008 0.73437,-0.0234 1.1016,-0.0234 l -0.32813,0.8086"
         id="path46" /><path
         d="m 142.88,179.33 c -0.48438,-0.0156 -0.96875,-0.0117 -1.457,-0.0312 l 0.38281,-0.9375 c 0.48828,0.0156 0.97656,-0.008 1.4648,0.0234 l -0.39062,0.94531"
         id="path47" /><path
         d="m 150.19,183.86 -2.7148,-0.0117 0.78906,-1.9727 2.7188,0.0234 -0.79297,1.9609"
         id="path48" /><path
         d="m 145.1,182.48 0.58985,-1.4922 2.3945,0.004 -0.60157,1.5039 -2.3828,-0.0156"
         id="path49" /><path
         d="m 144.98,181.11 -1.9219,-0.0156 0.44532,-1.125 c 0.64062,0 1.2852,-0.0234 1.9336,0 l -0.45703,1.1406"
         id="path50" /><path
         d="m 152.06,187.35 c -0.95703,0.0234 -1.918,0.0391 -2.8789,0.043 l 0.9375,-2.3164 2.8633,-0.0117 -0.92187,2.2852"
         id="path51" /><path
         d="m 150.98,190.01 -2.8711,0.0391 -0.0156,-0.008 0.92968,-2.3164 2.8945,-0.043 -0.9375,2.3281"
         id="path52" /><path
         d="m 136.37,185.81 0.31641,-0.80078 1.1055,-0.0391 -0.32422,0.82421 -1.0977,0.0156"
         id="path53" /><path
         d="m 147.04,192.68 0.92578,-2.3086 2.875,-0.0352 -0.91797,2.3125 -2.8828,0.0312"
         id="path54" /><path
         d="m 139.59,187.47 -1.457,-0.0195 0.38281,-0.9375 c 0.48828,0.0156 0.97265,-0.008 1.4609,0.0234 l -0.38672,0.93359"
         id="path55" /><path
         d="m 146.91,191.97 -2.7148,-0.0195 0.78125,-1.9609 2.7226,0.0234 -0.78906,1.957"
         id="path56" /><path
         d="m 144.2,190.63 -2.3711,-0.008 -0.0195,-0.008 0.60547,-1.4883 2.3906,0.004 -0.60547,1.5"
         id="path57" /><path
         d="m 141.69,189.26 -1.918,-0.0195 0.44141,-1.125 c 0.64843,-0.008 1.3008,-0.004 1.9492,0.008 l -0.47266,1.1367"
         id="path58" /><path
         d="m 148.84,195.33 -0.0117,0.0273 -2.875,0.0352 0.94141,-2.3711 2.8906,-0.0312 -0.94532,2.3398"
         id="path59" /><path
         d="m 147.76,198 -2.8828,0.0703 -0.0195,-0.008 0.95703,-2.3477 2.8711,-0.0273 -0.92578,2.3125"
         id="path60" /><path
         d="m 134.17,193.94 c -0.36328,-0.0117 -0.72656,0.0234 -1.0898,0 l 0.31641,-0.77344 c 0.37109,-0.0312 0.74219,-0.0234 1.1172,-0.0391 l -0.34375,0.8125"
         id="path61" /><path
         d="m 146.61,200.84 c -0.96094,-0.0234 -1.918,-0.0312 -2.8828,0.0469 l 1.0039,-2.4922 2.8945,-0.0508 -1.0156,2.4961"
         id="path62" /><path
         d="m 136.31,195.62 -1.4688,0.008 0.36328,-0.93359 c 0.4961,0 0.98438,-0.0156 1.4805,-0.004 l -0.375,0.92969"
         id="path63" /><path
         d="m 143.65,200.04 -2.7031,-0.0391 0.79297,-1.957 2.7031,0.0273 -0.79297,1.9688"
         id="path64" /><path
         d="m 138.57,198.67 0.60546,-1.5078 2.3789,0.0156 -0.60547,1.5117 -2.3789,-0.0195"
         id="path65" /><path
         d="m 164.05,188.08 c -1.0039,-1.1445 -2.3984,-1.957 -3.9414,-2.4688 l -2.4141,5.9727 c 1.5391,0.56641 2.8984,1.3438 3.9922,2.3398 z m -3.1328,7.793 c -1.0117,-1.0898 -2.4609,-1.8633 -3.9844,-2.4062 l -2.4531,6.1016 c 1.4961,0.58984 2.8984,1.2891 4.0391,2.2266 z m 6.2031,-8.4883 -7.668,18.977 c -1.9883,-2.7109 -5.4453,-4.4219 -8.918,-5.0703 -1.1953,-0.21875 -2.3945,-0.38281 -3.5898,-0.42969 l 1.0039,-2.4688 c 1.5312,0.043 3.0664,0.22266 4.5977,0.60547 l 2.4766,-6.1367 c -1.5703,-0.3789 -3.1367,-0.42578 -4.6992,-0.33984 l 0.80469,-2.0156 c 1.5469,-0.0312 3.0977,0.0664 4.6484,0.49218 l 2.3906,-5.9102 c -1.5664,-0.30469 -3.1328,-0.41407 -4.6914,-0.35938 l 1.0703,-2.6719 c 3.5547,-0.0156 7.668,0.97656 10.582,3.3359 0.73828,0.58594 1.418,1.2344 1.9922,1.9922"
         id="path66" /></g></g></svg>
