<svg
   xmlns="http://www.w3.org/2000/svg"
   width="580"
   height="471.25"
   viewBox="0 0 580 471.25">
  <defs>
    <style
       id="style2">.cls-1{fill:blue;}.cls-2{fill:teal;}.cls-3{fill:gray;}.cls-4{fill:navy;}.cls-5{fill:purple;}.cls-6{fill:#f0f;}.cls-7{fill:aqua;}</style>
  </defs>
  <polygon
     class="cls-1"
     points="0,35.83 0,26.03 11.29,21.14 11.29,31.1 "
     transform="scale(1.8125)" />
  <polygon
     class="cls-2"
     points="0,133.1 0,123.48 11.29,118.41 11.29,128.37 "
     transform="scale(1.8125)" />
  <polygon
     class="cls-3"
     points="0,230.46 0,220.85 11.29,215.6 11.29,225.74 "
     transform="scale(1.8125)" />
  <polygon
     class="cls-1"
     points="24.58,44.26 24.58,32.78 40.17,26.7 40.17,38.36 "
     transform="scale(1.8125)" />
  <polygon
     class="cls-2"
     points="24.58,142.34 24.58,130.86 40.17,124.78 40.17,136.26 "
     transform="scale(1.8125)" />
  <polygon
     class="cls-3"
     points="24.58,240.59 24.58,229.12 40.17,222.69 40.17,234.17 "
     transform="scale(1.8125)" />
  <polygon
     class="cls-1"
     points="49.15,55.73 49.15,42.06 69.3,33.97 69.3,47.8 "
     transform="scale(1.8125)" />
  <polygon
     class="cls-2"
     points="49.15,153.18 49.15,139.5 69.3,131.41 69.3,145.25 "
     transform="scale(1.8125)" />
  <polygon
     class="cls-3"
     points="49.15,250.72 49.15,236.87 69.3,228.78 69.3,242.62 "
     transform="scale(1.8125)" />
  <polygon
     class="cls-1"
     points="75.9,61.48 75.9,43.43 100.78,33.1 100.78,51.35 "
     transform="scale(1.8125)" />
  <polygon
     class="cls-2"
     points="75.9,158.8 75.9,140.57 100.78,130.6 100.78,148.84 "
     transform="scale(1.8125)" />
  <polygon
     class="cls-3"
     points="75.9,256.29 75.9,238.23 100.78,227.93 100.78,246.16 "
     transform="scale(1.8125)" />
  <polygon
     class="cls-1"
     points="105.95,65.36 105.95,41.56 133.51,30.08 133.51,53.89 "
     transform="scale(1.8125)" />
  <polygon
     class="cls-4"
     points="0,68.25 0,58.46 11.29,53.56 11.29,63.52 "
     transform="scale(1.8125)" />
  <polygon
     class="cls-4"
     points="24.58,76.95 24.58,65.47 40.17,59.4 40.17,71.05 "
     transform="scale(1.8125)" />
  <polygon
     class="cls-4"
     points="49.15,88.22 49.15,74.54 69.3,66.45 69.3,80.28 "
     transform="scale(1.8125)" />
  <polygon
     class="cls-4"
     points="75.9,93.95 75.9,75.9 100.78,65.57 100.78,83.82 "
     transform="scale(1.8125)" />
  <polygon
     class="cls-4"
     points="105.95,97.81 105.95,74.02 133.51,62.53 133.51,86.34 "
     transform="scale(1.8125)" />
  <polygon
     class="cls-2"
     points="105.95,162.64 105.95,138.84 133.51,127.53 133.51,151.33 "
     transform="scale(1.8125)" />
  <polygon
     class="cls-3"
     points="105.95,260 105.95,236.2 133.51,224.89 133.51,248.69 "
     transform="scale(1.8125)" />
  <polygon
     class="cls-5"
     points="0,198.04 0,188.42 11.29,183.18 11.29,193.31 "
     transform="scale(1.8125)" />
  <polygon
     class="cls-5"
     points="24.58,207.89 24.58,196.42 40.17,190 40.17,201.48 "
     transform="scale(1.8125)" />
  <polygon
     class="cls-5"
     points="49.15,218.24 49.15,204.39 69.3,196.29 69.3,210.13 "
     transform="scale(1.8125)" />
  <polygon
     class="cls-5"
     points="75.9,223.82 75.9,205.76 100.78,195.46 100.78,213.69 "
     transform="scale(1.8125)" />
  <polygon
     class="cls-5"
     points="105.95,227.54 105.95,203.75 133.51,192.44 133.51,216.24 "
     transform="scale(1.8125)" />
  <polygon
     class="cls-6"
     points="0,165.61 0,156 11.29,150.75 11.29,160.89 "
     transform="scale(1.8125)" />
  <polygon
     class="cls-6"
     points="24.58,175.2 24.58,163.73 40.17,157.31 40.17,168.79 "
     transform="scale(1.8125)" />
  <polygon
     class="cls-6"
     points="49.15,185.75 49.15,171.91 69.3,163.81 69.3,177.65 "
     transform="scale(1.8125)" />
  <polygon
     class="cls-6"
     points="75.9,191.35 75.9,173.29 100.78,162.99 100.78,181.22 "
     transform="scale(1.8125)" />
  <polygon
     class="cls-6"
     points="105.95,195.09 105.95,171.29 133.51,159.98 133.51,183.78 "
     transform="scale(1.8125)" />
  <polygon
     class="cls-7"
     points="0,100.76 0,91.15 11.29,85.91 11.29,96.04 "
     transform="scale(1.8125)" />
  <polygon
     class="cls-7"
     points="24.58,109.82 24.58,98.34 40.17,91.92 40.17,103.4 "
     transform="scale(1.8125)" />
  <polygon
     class="cls-7"
     points="49.15,120.79 49.15,106.94 69.3,98.84 69.3,112.68 "
     transform="scale(1.8125)" />
  <polygon
     class="cls-7"
     points="75.9,126.41 75.9,108.35 100.78,98.05 100.78,116.28 "
     transform="scale(1.8125)" />
  <polygon
     class="cls-7"
     points="105.95,130.18 105.95,106.38 133.51,95.08 133.51,118.87 "
     transform="scale(1.8125)" />
  <path
     class="cls-1"
     d="M 303.03187,32.80625 V 91.839374 L 249.20063,114.49563 V 59.41375 a 426.3725,426.3725 0 0 1 53.83124,-26.6075 z" />
  <polygon
     class="cls-4"
     points="137.49,94.91 137.49,66.55 167.19,54.06 167.19,82.25 "
     transform="scale(1.8125)" />
  <polygon
     class="cls-7"
     points="137.49,126.98 137.49,98.45 167.19,85.79 167.19,114.32 "
     transform="scale(1.8125)" />
  <polygon
     class="cls-2"
     points="137.49,158.72 137.49,130.36 167.19,117.87 167.19,146.06 "
     transform="scale(1.8125)" />
  <polygon
     class="cls-6"
     points="137.49,191.47 137.49,162.27 167.19,149.6 167.19,178.64 "
     transform="scale(1.8125)" />
  <polygon
     class="cls-5"
     points="137.49,223.53 137.49,194.83 167.19,182.18 167.19,210.54 "
     transform="scale(1.8125)" />
  <path
     class="cls-3"
     d="m 303.03187,388.03812 v 55.04562 q -31.60999,12.23439 -53.83124,23.56252 v -55.39 z" />
  <path
     d="m 362.645,11.89 a 389.6875,389.6875 0 0 0 -53.83126,18.4875 v 58.29 A 471.08688,471.08688 0 0 1 362.645,68.40375 Z" />
  <path
     d="m 362.645,193.10374 a 320.8125,320.8125 0 0 0 -53.83126,19.33939 v 50.06125 A 340.75,340.75 0 0 1 362.645,241.2075 Z" />
  <path
     d="m 362.645,368.8075 a 378.8125,378.8125 0 0 0 -53.83126,15.93187 v 55.82501 c 18.65064,-6.3075 36.44938,-11.0925 53.83126,-15.17064 z" />
  <path
     d="m 446.36438,0 a 319.81563,319.81563 0 0 0 -77.9375,10.295 V 66.6275 C 377,64.108126 385.51874,61.80625 393.80188,59.939374 V 186.14374 c -8.6275,1.46814 -17.09188,3.31688 -25.375,5.43752 v 47.97687 a 252.2275,252.2275 0 0 1 25.375,-5.78187 V 362.355 c -8.82688,1.39563 -17.01938,3.48 -25.375,5.2925 V 424.125 C 397.88,417.6 425.70187,413.93874 451.47562,413.93874 q 77.04938,0 128.52438,34.67313 V 34.655 Q 518.8825,0 446.36438,0 Z m 79.15188,369.07938 q -34.70938,-11.03812 -77.81064,-11.03812 h -4.8575 V 228.97312 c 1.41375,0 2.93625,-0.21749 4.2775,-0.21749 q 43.065,0 78.39064,15.93187 z m 0,-174.145 A 242.54874,242.54874 0 0 0 447.6875,182.0475 l -4.8575,0.12687 V 53.885626 c 1.2325,0 2.44688,-0.2175 3.625,-0.2175 q 46.01937,0 78.98874,17.1825 z" />
</svg>
