<?xml version="1.0" encoding="UTF-8" standalone="no"?>
<!-- Created with Inkscape (http://www.inkscape.org/) -->

<svg
   width="291.25mm"
   height="291.25mm"
   version="1.1"
   viewBox="0 0 291.25 291.25"
   xml:space="preserve"
   id="svg55"
   sodipodi:docname="Windows_2000_Windows_2000_accurate.svg"
   inkscape:version="1.3.2 (091e20e, 2023-11-25, custom)"
   xmlns:inkscape="http://www.inkscape.org/namespaces/inkscape"
   xmlns:sodipodi="http://sodipodi.sourceforge.net/DTD/sodipodi-0.dtd"
   xmlns:xlink="http://www.w3.org/1999/xlink"
   xmlns="http://www.w3.org/2000/svg"
   xmlns:svg="http://www.w3.org/2000/svg"><sodipodi:namedview
     id="namedview55"
     pagecolor="#ffffff"
     bordercolor="#000000"
     borderopacity="0.25"
     inkscape:showpageshadow="2"
     inkscape:pageopacity="0.0"
     inkscape:pagecheckerboard="0"
     inkscape:deskcolor="#d1d1d1"
     inkscape:document-units="mm"
     inkscape:zoom="0.096194088"
     inkscape:cx="332.66078"
     inkscape:cy="545.77158"
     inkscape:window-width="1440"
     inkscape:window-height="837"
     inkscape:window-x="-8"
     inkscape:window-y="-8"
     inkscape:window-maximized="1"
     inkscape:current-layer="svg55" /><defs
     id="defs7"><linearGradient
   id="linearGradient62"
   inkscape:collect="always"><stop
     style="stop-color:#ffffff;stop-opacity:1;"
     offset="0"
     id="stop62" /><stop
     style="stop-color:#ffffff;stop-opacity:0;"
     offset="1"
     id="stop63" /></linearGradient><linearGradient
   id="linearGradient60"
   inkscape:collect="always"><stop
     style="stop-color:#d8d8d8;stop-opacity:1;"
     offset="0"
     id="stop60" /><stop
     style="stop-color:#d8d8d8;stop-opacity:0;"
     offset="1"
     id="stop61" /></linearGradient><linearGradient
   id="linearGradient57"
   inkscape:collect="always"><stop
     style="stop-color:#d8611b;stop-opacity:1;"
     offset="0"
     id="stop57" /><stop
     style="stop-color:#d8611b;stop-opacity:0;"
     offset="1"
     id="stop58" /></linearGradient>
	
	
	
	
	
	
	
	
	
	
	
	
	
	
	
	
	
	
	
	
	
	
	
	
	
	
	
	
	
	
	
	
	
	
	
	
	
	
	
	
	
	
	
	
	
	
	
	
<linearGradient
   id="linearGradient34792"
   x1="494.1398"
   x2="513.36255"
   y1="705.93951"
   y2="789.76617"
   gradientUnits="userSpaceOnUse"
   gradientTransform="matrix(0.49711113,0,0,1,241.66157,0.01899144)"><stop
     stop-color="#da5a00"
     offset="0"
     id="stop1"
     style="stop-color:#f65b01;stop-opacity:1;" /><stop
     stop-color="#da5a00"
     offset="0.18642212"
     id="stop2"
     style="stop-color:#f65b01;stop-opacity:1;" /><stop
     stop-color="#efbe9a"
     offset="0.38489115"
     id="stop3" /><stop
     stop-color="#f7dbc7"
     offset="0.52281886"
     id="stop55"
     style="stop-color:#f7dbc8;stop-opacity:1;" /><stop
     stop-color="#f0c2a2"
     offset="0.65887183"
     id="stop5" /><stop
     stop-color="#da5a00"
     offset="0.82840782"
     id="stop6"
     style="stop-color:#f65b01;stop-opacity:1;" /><stop
     stop-color="#da5a00"
     offset="1"
     id="stop7"
     style="stop-color:#f65b01;stop-opacity:1;" /></linearGradient><pattern
   id="EMFhbasepattern"
   patternUnits="userSpaceOnUse"
   width="6"
   height="6"
   x="0"
   y="0" /><linearGradient
   id="linearGradient34792-5"
   x1="477.40884"
   x2="513.36255"
   y1="696.9895"
   y2="793.7937"
   gradientUnits="userSpaceOnUse"
   gradientTransform="matrix(0.62696485,0,0,1,249.97077,0.01934257)"><stop
     stop-color="#da5a00"
     offset="0"
     id="stop1-3"
     style="stop-color:#f65b01;stop-opacity:1;" /><stop
     stop-color="#da5a00"
     offset="0.10289852"
     id="stop2-1"
     style="stop-color:#f65b01;stop-opacity:1;" /><stop
     stop-color="#efbe9a"
     offset="0.2926113"
     id="stop3-0" /><stop
     stop-color="#f7dbc7"
     offset="0.37235162"
     id="stop4-7"
     style="stop-color:#f7dbc7;stop-opacity:1;" /><stop
     stop-color="#f7dbc7"
     offset="0.44252682"
     id="stop56-3"
     style="stop-color:#f7e8e0;stop-opacity:1;" /><stop
     stop-color="#f7dbc7"
     offset="0.46811667"
     id="stop57-8"
     style="stop-color:#f7e9df;stop-opacity:1;" /><stop
     stop-color="#f7dbc7"
     offset="0.57474649"
     id="stop55-8"
     style="stop-color:#f7dbc8;stop-opacity:1;" /><stop
     stop-color="#f0c2a2"
     offset="0.63450116"
     id="stop5-9" /><stop
     stop-color="#da5a00"
     offset="0.79479003"
     id="stop6-2"
     style="stop-color:#f65b01;stop-opacity:1;" /><stop
     stop-color="#da5a00"
     offset="1"
     id="stop7-8"
     style="stop-color:#f65b01;stop-opacity:1;" /></linearGradient><linearGradient
   inkscape:collect="always"
   xlink:href="#linearGradient57"
   id="linearGradient58"
   x1="281.92786"
   y1="287.08505"
   x2="253.46452"
   y2="252.09976"
   gradientUnits="userSpaceOnUse"
   gradientTransform="matrix(0.91666713,0,0,0.96043883,403.44252,514.48098)" /><linearGradient
   inkscape:collect="always"
   xlink:href="#linearGradient60"
   id="linearGradient61"
   x1="702.04114"
   y1="571.39642"
   x2="663.55603"
   y2="619.7265"
   gradientUnits="userSpaceOnUse" /><radialGradient
   inkscape:collect="always"
   xlink:href="#linearGradient57"
   id="radialGradient61"
   cx="-622.3374"
   cy="656.61993"
   fx="-622.3374"
   fy="656.61993"
   r="19.500795"
   gradientTransform="matrix(1.4359057,0.06018886,-0.0672385,1.604087,319.12633,-340.80461)"
   gradientUnits="userSpaceOnUse" /><linearGradient
   inkscape:collect="always"
   xlink:href="#linearGradient62"
   id="linearGradient63"
   x1="726.43878"
   y1="841.36005"
   x2="684.78918"
   y2="761.49933"
   gradientUnits="userSpaceOnUse"
   gradientTransform="matrix(1.0129983,0,0,0.35181458,-8.0085177,515.0695)" /></defs><g
     transform="translate(-480.51,-604.94)"
     id="g55"
     style="display:inline;opacity:1"><g
       transform="matrix(1.5366,0,0,1.5366,-257.87001,-324.63999)"
       fill-rule="evenodd"
       id="g8"
       style="display:inline;opacity:1"><rect
         x="480.52844"
         y="604.95898"
         width="94.222443"
         height="189.53999"
         fill="url(#linearGradient34792)"
         stop-color="#000000"
         stroke-width="33.0751"
         style="display:inline;fill:url(#linearGradient34792);paint-order:stroke fill markers"
         id="rect7" /><rect
         x="551.23346"
         y="604.95898"
         width="118.83485"
         height="189.53989"
         fill="url(#linearGradient34792)"
         stop-color="#000000"
         stroke-width="37.1446"
         style="display:inline;fill:url(#linearGradient34792-5);paint-order:stroke fill markers"
         id="rect7-9" /><rect
         style="display:inline;opacity:1;fill:url(#linearGradient58);fill-opacity:1;stroke:#ff8282;stroke-width:0"
         id="rect57"
         width="85.094116"
         height="70.66552"
         x="584.97662"
         y="723.83582" /><rect
         style="display:inline;fill:url(#radialGradient61);stroke:#ff8282;stroke-width:0"
         id="rect57-8"
         width="86.436623"
         height="101.09555"
         x="-691.39502"
         y="568.97534"
         transform="rotate(-90)"
         ry="0" /><rect
         x="494.48001"
         y="618.90002"
         width="161.62"
         height="161.62"
         fill="#ffffff"
         stop-color="#000000"
         stroke-width="40"
         style="paint-order:stroke fill markers"
         id="rect8" /><rect
         style="display:inline;opacity:1;fill:url(#linearGradient61);stroke:#ff8282;stroke-width:0"
         id="rect59"
         width="80.102539"
         height="67.125038"
         x="591.06104"
         y="602.7215" /><rect
         style="opacity:1;fill:url(#linearGradient63);stroke:#ff8282;stroke-width:0"
         id="rect61"
         width="82.584656"
         height="13.672232"
         x="587.48102"
         y="780.82654" /></g><g
       transform="matrix(0.11196694,0.03257996,-0.03248689,0.11225478,553.41097,624.31733)"
       id="g54"
       style="display:inline;opacity:1"><path
         d="m 1467,668 c -14.148,0 -28.724,0.78236 -43.772,2.2871 L 1371,675.5098 v 550.49 h 98 c 91.867,0 173.38,11.416 244.94,33.436 l 75.057,23.094 v -542.48 l -34.775,-15.195 c -87.254,-38.128 -183.62,-56.854 -287.22,-56.854 z"
         color="#000000"
         fill="#ffca00"
         id="path8" /><path
         d="m 1465,117 c -14.148,0 -28.296,0.78787 -42.404,2.3555 L 1371,125.0879 v 543.38 l 98.418,-2.4609 c 82.417,0.0438 163.34,13.003 243.63,39.143 l 75.955,24.73 V 195.3 l -31.875,-16.082 c -83.693,-42.223 -181.81,-62.217 -292.12,-62.217 z"
         color="#000000"
         fill="#65b947"
         id="path9" /><g
         fill="#3774b3"
         stroke-width="25.159"
         id="g20"><path
           d="m 1371,672.12 -65.344,8.3418 c -94.314,12.04 -193.75,43.088 -298.66,91.559 v 547.35 l 21.34,-8.4434 c 87.961,-34.805 185.51,-60.087 292.91,-75.521 l 49.75,-7.1504 z"
           stop-color="#000000"
           style="font-variation-settings:normal;-inkscape-stroke:none"
           id="path10" /><path
           d="m 779,1152 v 119 l -142,57 v -119 z"
           stop-color="#000000"
           style="font-variation-settings:normal;-inkscape-stroke:none"
           id="path11" /><path
           d="m 779,964 v 120 l -142,55 v -118 z"
           stop-color="#000000"
           style="font-variation-settings:normal;-inkscape-stroke:none"
           id="path12" /><path
           d="m 582,1160 v 99 l -125,50 v -98 z"
           stop-color="#000000"
           style="font-variation-settings:normal;-inkscape-stroke:none"
           id="path13" /><path
           d="m 582,973 v 99 l -125,50 v -99 z"
           stop-color="#000000"
           style="font-variation-settings:normal;-inkscape-stroke:none"
           id="path14" /><path
           d="m 396,1164 v 74 l -100,40 v -72 z"
           stop-color="#000000"
           style="font-variation-settings:normal;-inkscape-stroke:none"
           id="path15" /><path
           d="m 396,977 v 72 l -100,41 v -72 z"
           stop-color="#000000"
           style="font-variation-settings:normal;-inkscape-stroke:none"
           id="path16" /><path
           d="m 225,1128 v 62 l -74,30 v -63 z"
           stop-color="#000000"
           style="font-variation-settings:normal;-inkscape-stroke:none"
           id="path17" /><path
           d="m 225,933 v 62 l -74,30 v -64 z"
           stop-color="#000000"
           style="font-variation-settings:normal;-inkscape-stroke:none"
           id="path18" /><path
           d="m 51,1086 v 52 l -55,25 v -51 z"
           stop-color="#000000"
           style="font-variation-settings:normal;-inkscape-stroke:none"
           id="path19" /><path
           d="m 51,892 v 51 l -55,25 v -52 z"
           stop-color="#000000"
           style="font-variation-settings:normal;-inkscape-stroke:none"
           id="path20" /></g><g
         fill="#fc5819"
         stroke-width="25.159"
         id="g31"><path
           d="m 1371,119.91 -68.852,13.113 c -95.5,18.19 -193.89,48.168 -295.15,89.34 v 548.52 l 24.305,-11.217 c 90.148,-41.607 186.64,-70.041 290.14,-85.281 l 49.551,-7.2949 z"
           stop-color="#000000"
           style="font-variation-settings:normal;-inkscape-stroke:none"
           id="path21" /><path
           d="M 779,570 V 689 L 637,745 V 627 Z"
           stop-color="#000000"
           style="font-variation-settings:normal;-inkscape-stroke:none"
           id="path22" /><path
           d="M 779,386 V 504 L 637,561 V 442 Z"
           stop-color="#000000"
           style="font-variation-settings:normal;-inkscape-stroke:none"
           id="path23" /><path
           d="m 582,586 v 98 l -125,51 v -99 z"
           stop-color="#000000"
           style="font-variation-settings:normal;-inkscape-stroke:none"
           id="path24" /><path
           d="m 582,393 v 99 l -125,51 v -99 z"
           stop-color="#000000"
           style="font-variation-settings:normal;-inkscape-stroke:none"
           id="path25" /><path
           d="m 396,591 v 72 l -100,40 v -72 z"
           stop-color="#000000"
           style="font-variation-settings:normal;-inkscape-stroke:none"
           id="path26" /><path
           d="m 396,398 v 73 l -100,39 v -71 z"
           stop-color="#000000"
           style="font-variation-settings:normal;-inkscape-stroke:none"
           id="path27" /><path
           d="m 225,547 v 62 l -74,29 v -64 z"
           stop-color="#000000"
           style="font-variation-settings:normal;-inkscape-stroke:none"
           id="path28" /><path
           d="m 225,354 v 63 l -74,29 v -63 z"
           stop-color="#000000"
           style="font-variation-settings:normal;-inkscape-stroke:none"
           id="path29" /><path
           d="m 51,504 v 52 l -55,25 v -52 z"
           stop-color="#000000"
           style="font-variation-settings:normal;-inkscape-stroke:none"
           id="path30" /><path
           d="m 51,312 v 53 l -55,25 v -52 z"
           stop-color="#000000"
           style="font-variation-settings:normal;-inkscape-stroke:none"
           id="path31" /></g><path
         d="m 988,1264 v 180 c -69.333,26.667 -128.33,52.333 -177,77 v -181 z"
         id="path32" /><path
         d="m 988,1075 v 168 l -177,77 v -170 z"
         id="path33" /><path
         d="m 988,882 v 172 l -177,76 V 957 Z"
         id="path34" /><path
         d="M 988,694 V 861 L 811,936 V 768 Z"
         id="path35" /><path
         d="M 988,504 V 673 L 811,748 V 579 Z"
         id="path36" /><path
         d="M 988,316 V 483 L 811,558 V 390 Z"
         id="path37" /><path
         d="M 988,103 V 296 L 811,370 V 190 c 61.333,-35.333 120.33,-64.333 177,-87 z"
         id="path38" /><path
         d="m 787,1328 v 141 l -166,67 v -141 z"
         id="path39" /><path
         d="M 787,753 V 894 L 621,961 V 820 Z"
         id="path40" /><path
         d="M 787,174 V 315 L 621,383 V 242 Z"
         id="path41" /><path
         d="m 590,1346 v 108 l -149,60 v -107 z"
         id="path42" /><path
         d="M 590,772 V 880 L 441,939 V 831 Z"
         id="path43" /><path
         d="M 590,192 V 300 L 441,360 V 253 Z"
         id="path44" /><path
         d="m 402,1351 v 82 l -119,48 v -82 z"
         id="path45" /><path
         d="m 402,776 v 82 l -119,47 v -81 z"
         id="path46" /><path
         d="m 402,197 v 82 l -119,47 v -81 z"
         id="path47" /><path
         d="m 230,1315 v 68 l -92,38 v -68 z"
         id="path48" /><path
         d="m 230,733 v 68 l -92,36 v -68 z"
         id="path49" /><path
         d="m 230,154 v 69 l -92,35 v -68 z"
         id="path50" /><path
         d="m 58,1273 v 60 l -68,28 v -57 z"
         id="path51" /><path
         d="m 58,693 v 59 l -68,28 v -57 z"
         id="path52" /><path
         d="m 58,121 v 59 l -68,28 v -58 z"
         id="path53" /><path
         d="m 1464,0 c -149.33,0 -301.67,31.667 -457,95 v 190 c 106,-44.667 208,-76.333 306,-95 v 427 c -108.67,16 -210.67,46 -306,90 v 129 c 110,-53.333 212,-86 306,-98 v 440 c -111.33,16 -213.33,42.333 -306,79 v 180 c 174.67,-58.666 332.67,-88 474,-88 170.67,0 313,37.334 427,112 V 110 C 1772.67,36.667 1624.67,0 1464,0 Z m 1,175 c 103.33,0 192,18.667 266,56 v 419 c -86,-28 -173.33,-42 -262,-42 l -40,1 V 177 c 12,-1.3333 24,-2 36,-2 z m 2,551 c 96.667,0 184.67,17.333 264,52 v 426 c -78,-24 -165.33,-36 -262,-36 h -40 V 728 c 13.333,-1.3333 26,-2 38,-2 z"
         id="path54" /></g></g></svg>
