<?xml version="1.0" encoding="UTF-8" standalone="no"?>
<svg
   xmlns:dc="http://purl.org/dc/elements/1.1/"
   xmlns:cc="http://creativecommons.org/ns#"
   xmlns:rdf="http://www.w3.org/1999/02/22-rdf-syntax-ns#"
   xmlns:svg="http://www.w3.org/2000/svg"
   xmlns="http://www.w3.org/2000/svg"
   id="svg8"
   version="1.1"
   viewBox="0 0 529.16669 363.27292"
   height="363.27292mm"
   width="529.16669mm">
  <defs
     id="defs2">
    <clipPath
       clipPathUnits="userSpaceOnUse"
       id="clipPath20">
      <path
         d="M 0,0 H 6120 V 1810 H 0 Z"
         id="path22" />
    </clipPath>
  </defs>
  <metadata
     id="metadata5">
    <rdf:RDF>
      <cc:Work
         rdf:about="">
        <dc:format>image/svg+xml</dc:format>
        <dc:type
           rdf:resource="http://purl.org/dc/dcmitype/StillImage" />
        <dc:title></dc:title>
      </cc:Work>
    </rdf:RDF>
  </metadata>
  <g
     transform="translate(311.45239,7.8566928)"
     id="layer1">
    <g
       id="g12"
       transform="matrix(0.33072917,0,0,-0.33072917,-315.71517,470.89621)">
      <g
         id="g3084"
         transform="matrix(11.822436,0,0,11.787684,-139.49092,-3766.7142)">
        <path
           d="m 12.88905,430.35 v -22.759 h 53.7265 v 34.759 h -41.7265 c -6.627,0 -12,-5.373 -12,-12 z m 58.9029,-81.182 h 64.433 c 6.627,0 12,5.373 12,12 v 24.2379 h -76.433 z m -58.9029,12 c 0,-6.627 5.373,-12 12,-12 h 41.7265 v 53.2465 h -53.7265 z m 123.3359,81.182 h -64.433 v -52.1371 h 76.433 V 430.35 c 0,6.627 -5.373,12 -12,12"
           style="fill:#0065da;fill-opacity:1;fill-rule:nonzero;stroke:none"
           id="path24" />
      </g>
    </g>
  </g>
</svg>
