<?xml version="1.0" encoding="UTF-8" standalone="no"?>
<!-- Created with Inkscape (http://www.inkscape.org/) -->

<svg
   version="1.1"
   id="svg1"
   width="589.68604"
   height="999.99939"
   viewBox="0 0 589.68604 999.9994"
   sodipodi:docname="Windows Neptune Symbol.svg"
   xml:space="preserve"
   inkscape:version="1.3.2 (091e20e, 2023-11-25, custom)"
   xmlns:inkscape="http://www.inkscape.org/namespaces/inkscape"
   xmlns:sodipodi="http://sodipodi.sourceforge.net/DTD/sodipodi-0.dtd"
   xmlns:xlink="http://www.w3.org/1999/xlink"
   xmlns="http://www.w3.org/2000/svg"
   xmlns:svg="http://www.w3.org/2000/svg"><defs
     id="defs1"><linearGradient
       id="linearGradient3"
       inkscape:collect="always"><stop
         style="stop-color:#ff4008;stop-opacity:1;"
         offset="0"
         id="stop3" /><stop
         style="stop-color:#f7cf20;stop-opacity:1;"
         offset="0.43736482"
         id="stop5" /><stop
         style="stop-color:#68c738;stop-opacity:1;"
         offset="0.71226799"
         id="stop6" /><stop
         style="stop-color:#509fd7;stop-opacity:1;"
         offset="0.875"
         id="stop7" /><stop
         style="stop-color:#0048bf;stop-opacity:1;"
         offset="1"
         id="stop4" /></linearGradient><linearGradient
       inkscape:collect="always"
       xlink:href="#linearGradient3"
       id="linearGradient4"
       x1="230.53767"
       y1="242.77856"
       x2="268.92804"
       y2="319.41983"
       gradientUnits="userSpaceOnUse" /></defs><sodipodi:namedview
     id="namedview1"
     pagecolor="#ffffff"
     bordercolor="#000000"
     borderopacity="0.25"
     inkscape:showpageshadow="2"
     inkscape:pageopacity="0.0"
     inkscape:pagecheckerboard="0"
     inkscape:deskcolor="#d1d1d1"
     inkscape:zoom="0.52700032"
     inkscape:cx="294.11747"
     inkscape:cy="499.9997"
     inkscape:window-width="1366"
     inkscape:window-height="705"
     inkscape:window-x="-8"
     inkscape:window-y="-8"
     inkscape:window-maximized="1"
     inkscape:current-layer="svg1" /><g
     id="g21"
     transform="matrix(11.128528,0,0,11.128528,-2510.5959,-2681.9752)"><path
       id="path3-5"
       style="display:inline;fill:url(#linearGradient4);fill-rule:evenodd;stroke-width:10.0203;stroke-linejoin:round"
       d="m 265.93441,321.144 12.65427,-4.70616 v 9.23616 l -12.65427,5.18509 z m -14.4405,-0.52 v 6.901 l 10.86602,-4.29327 V 316.699 Z M 225.6,311.639 231.67963,309.6 v 5.03 L 225.6,316.899 Z m 13.36165,4.46083 7.58852,-2.39883 v 5.883 l -7.58852,2.70408 z m 26.97276,-63.55583 12.65427,-4.70616 v 9.23616 l -12.65427,5.18509 z m -14.4405,-0.52 v 6.901 l 10.86602,-4.29327 V 248.099 Z M 225.6,243.039 231.67963,241 v 5.03 L 225.6,248.299 Z m 13.36165,3.76083 7.58852,-2.39883 v 5.883 l -7.58852,2.70408 z m 28.309,57.21217 10.97765,-4.11169 v 8.06948 l -10.97765,4.53013 z m -14.56158,-0.14451 v 5.54627 l 8.4273,-3.45046 v -5.2503 z m -26.90826,-9.09091 5.06707,-1.67658 v 4.13593 l -5.06707,1.86569 z m 14.29492,4.31183 6.11691,-2.09841 v 5.14623 l -6.11691,2.36543 z m 27.17492,-12.07641 10.97765,-4.11169 v 8.06948 l -10.97765,4.53013 z m -14.56158,-0.64451 v 5.54627 l 8.4273,-3.45046 v -5.2503 z m -26.90826,-9.09091 5.06707,-1.67658 v 4.13593 l -5.06707,1.86569 z m 14.29492,3.71185 6.11691,-2.09841 v 5.14623 l -6.11691,2.36543 z m 27.17492,-11.07643 10.97765,-4.11169 v 8.06948 l -10.97765,4.53013 z m -14.56158,-0.74458 v 5.54627 l 8.4273,-3.45046 v -5.2503 z m -26.90826,-8.99084 5.06707,-1.67658 v 4.13593 l -5.06707,1.86569 z m 14.29492,3.71185 6.11691,-2.09841 v 5.14623 l -6.11691,2.36543 z" /></g></svg>
