<?xml version="1.0" encoding="UTF-8"?>
<!-- Created with Inkscape (http://www.inkscape.org/) -->
<svg width="2056.7" height="1700" version="1.1" viewBox="0 0 2056.7 1700" xml:space="preserve" xmlns="http://www.w3.org/2000/svg" xmlns:rdf="http://www.w3.org/1999/02/22-rdf-syntax-ns#" xmlns:cc="http://creativecommons.org/ns#" xmlns:dc="http://purl.org/dc/elements/1.1/"><defs><clipPath id="clipPath88346"><path d="m52.033-9.287e-6 -2.3722 4.0502 6.5222 0.35738 2.4036-4.1193zm10.074 7.8331-2.7706 4.77 8.7217 0.68475 2.7973-4.8401zm9.2651 8.8143-3.2913 5.7125 11.375 0.76249 3.3095-5.7823zm12.238 5.9765-4.3256 7.574 14.308 0.87141 4.3283-7.6433zm14.781 5.4008-5.6613 10.015 16.005 0.88619 5.6065-10.012zm28.519 2.537c-3.5905-0.04079-7.3525 0.06226-11.287 0.3094l-7.1618 12.808 17.13 0.83536 7.596-13.724c-2.031-0.12806-4.1236-0.20418-6.2778-0.22865zm8.1089 0.31483-7.469 13.509c10.26 0.4748 19.684 1.7393 28.282 3.7942l-16.741 30.824c-9.437-2.6495-18.889-4.0444-28.366-4.1864l-5.2096 9.4226c11.074-0.02794 20.66 1.1752 28.772 3.6106l-17.702 32.596c-9.7729-2.7925-19.201-4.4773-28.292-5.056l-7.4684 13.508c16.778 1.8752 30.975 5.3614 42.615 10.466 14.084 6.1763 24.352 14.182 30.805 24.043l52.589-100.34c-8.1491-9.9528-18.666-17.682-31.562-23.217-11.964-5.1346-25.373-8.1233-40.253-8.9735zm-106.7 9.6116-2.3933 4.0865 6.6143 0.35321 2.4676-4.2293zm79.343 4.6203-6.7446 12.061 17.249 0.75858 6.634-11.985zm-69.429 3.8231-2.8458 4.8993 8.8867 0.61144 2.8312-4.8987zm127.43 2.3323c1.017 0.32001 2.0077 0.68771 2.9739 1.1033 8.3203 3.5807 14.753 7.9992 19.303 13.262l-16.168 30.52c-5.9133-5.0932-12.468-9.1972-19.67-12.318l-3.285-1.3337zm-118.09 6.6902-3.3809 5.8673 11.537 0.75845 3.3994-5.9393zm52.5 0.73012-6.8447 12.24 17.33 0.7534 6.7725-12.236zm-40.083 5.3025-4.4846 7.8524 14.472 0.93635 4.4463-7.8514zm14.96 5.5092-5.8149 10.287 16.193 0.94812 5.7589-10.284zm17.465 2.8836-6.8642 12.275 17.412 0.74758 6.7511-12.198zm-88.789 10.274-2.4592 4.1987 6.7102 0.34812 2.5783-4.4191zm81.063 3.5423-7.1321 12.755 17.537 0.66769 7.0154-12.675zm59.426 5.0156c1.1373 0.37293 2.1933 0.77142 3.1707 1.1953 7.871 3.4172 14.364 7.8098 19.482 13.185l-16.866 31.841c-5.4657-4.6213-12.169-8.6661-20.111-12.139l-3.2837-1.4359zm-130.62 0.30694-2.9248 5.0352 9.1015 0.46028 2.9093-5.034zm9.7969 8.5724-3.5159 6.1025 11.746 0.67876 3.4922-6.1014zm53.435 0.3408-7.0716 12.647 17.662 0.5862 6.9143-12.492zm-40.92 5.8972-4.5646 7.993 14.722 0.85502 4.5676-8.0658zm15.185 5.5467-5.9742 10.568 16.427 0.93819 5.9166-10.566zm17.828 2.6973-7.5992 13.59c5.0308-0.10431 10.948 0.0885 17.753 0.57855l7.4766-13.508z" fill="#262529" stroke-width=".080997"/></clipPath><filter id="filter92217" x="-.22326" y="-.66383" width="1.4491" height="2.3273" color-interpolation-filters="sRGB"><feGaussianBlur stdDeviation="5.9375"/></filter><filter id="filter92973" x="-.25044" y="-.33878" width="1.5101" height="1.6568" color-interpolation-filters="sRGB"><feGaussianBlur stdDeviation="6.375"/></filter><filter id="filter94435" x="-.25811" y="-.37896" width="1.5206" height="1.7576" color-interpolation-filters="sRGB"><feGaussianBlur stdDeviation="10.9375"/></filter><filter id="filter95897" x="-.34978" y="-.4067" width="1.6963" height="1.8155" color-interpolation-filters="sRGB"><feGaussianBlur stdDeviation="3.68"/></filter><filter id="filter98087" x="-.26933" y="-.57794" width="1.5395" height="2.1488" color-interpolation-filters="sRGB"><feGaussianBlur stdDeviation="8.0625001"/></filter><filter id="filter99550" x="-.32376" y="-.43327" width="1.6546" height="1.8644" color-interpolation-filters="sRGB"><feGaussianBlur stdDeviation="7.3125"/></filter><filter id="filter101012" x="-.79483" y="-.79246" width="2.5955" height="2.5858" color-interpolation-filters="sRGB"><feGaussianBlur stdDeviation="8.0000002"/></filter><filter id="filter102645" x="-.24773" y="-.41154" width="1.4909" height="1.8237" color-interpolation-filters="sRGB"><feGaussianBlur stdDeviation="10.9375"/></filter><filter id="filter104265" x="-.2148" y="-.62827" width="1.4304" height="2.2563" color-interpolation-filters="sRGB"><feGaussianBlur stdDeviation="3.4375001"/></filter><filter id="filter106616" x="-.23571" y="-.22" width="1.4714" height="1.44" color-interpolation-filters="sRGB"><feGaussianBlur stdDeviation="2.75"/></filter><clipPath id="clipPath117415"><path d="m118.89 130.29 20.735-46.721 35.884 23.181-16.97 36.312z" fill="#e7ce31"/></clipPath><clipPath id="clipPath129004"><path d="m92.886 117.93 20.674-37.475 26.066 3.1178-17.702 40.599z" fill="#739cc6"/></clipPath><clipPath id="clipPath136014"><path d="m139.63 83.572 21.957-36.798 34.965 26.976-21.038 33.002z" fill="#84ad6b"/></clipPath><filter id="filter136022" x="-.08802" y="-.14919" width="1.176" height="1.2984" color-interpolation-filters="sRGB"><feGaussianBlur stdDeviation="3.6675"/></filter><filter id="filter136026" x="-.09984" y="-.14128" width="1.1997" height="1.2826" color-interpolation-filters="sRGB"><feGaussianBlur stdDeviation="3.12"/></filter><filter id="filter136034" x="-.093543" y="-.13159" width="1.1871" height="1.2632" color-interpolation-filters="sRGB"><feGaussianBlur stdDeviation="3.2350259"/></filter><filter id="filter136042" x="-.070797" y="-.089844" width="1.1416" height="1.1797" color-interpolation-filters="sRGB"><feGaussianBlur stdDeviation="1.796875"/></filter><clipPath id="clipPath136328"><path d="m128.66 53.079-15.102 27.375 26.066 3.1178 21.957-36.798-10.421-2.7712zm0 0-15.102 27.375 26.066 3.1178 21.957-36.798-10.421-2.7712zm0 0-15.102 27.375 26.066 3.1178 21.957-36.798-10.421-2.7712z" fill="#de7b4a"/></clipPath><filter id="filter136636" x="-.08941" y="-.12684" width="1.1788" height="1.2537" color-interpolation-filters="sRGB"><feGaussianBlur stdDeviation="2.2725"/></filter><filter id="filter137422" x="-.08928" y="-.13665" width="1.1786" height="1.2733" color-interpolation-filters="sRGB"><feGaussianBlur stdDeviation="2.79"/></filter><filter id="filter141290" x="-.070161" y="-.082075" width="1.1403" height="1.1642" color-interpolation-filters="sRGB"><feGaussianBlur stdDeviation="1.8125"/></filter><filter id="filter145131" x="-.097695" y="-.12525" width="1.1954" height="1.2505" color-interpolation-filters="sRGB"><feGaussianBlur stdDeviation="2.7883786"/></filter><filter id="filter136636-4" x="-.089379" y="-.14011" width="1.1788" height="1.2802" color-interpolation-filters="sRGB"><feGaussianBlur stdDeviation="2.16"/></filter><filter id="filter150576" x="-.11244" y="-.25695" width="1.2243" height="1.5139" color-interpolation-filters="sRGB"><feGaussianBlur stdDeviation="4.256875"/></filter><filter id="filter151481" x="-.067" y="-.086808" width="1.134" height="1.1736" color-interpolation-filters="sRGB"><feGaussianBlur stdDeviation="1.8808464"/></filter><filter id="filter151485" x="-.067399" y="-.084534" width="1.1348" height="1.1691" color-interpolation-filters="sRGB"><feGaussianBlur stdDeviation="2.0781251"/></filter><linearGradient id="linearGradient152720" x1="130.58" x2="144.86" y1="125.65" y2="99.168" gradientUnits="userSpaceOnUse"><stop stop-color="#181818" offset="0"/><stop stop-color="#101010" offset="1"/></linearGradient><linearGradient id="linearGradient152947" x1="152.93" x2="166.08" y1="84.196" y2="59.808" gradientUnits="userSpaceOnUse"><stop stop-color="#181818" offset="0"/><stop stop-color="#101010" offset="1"/></linearGradient><filter id="filter155523" x="-.14865" y="-.192" width="1.2973" height="1.384" color-interpolation-filters="sRGB"><feGaussianBlur stdDeviation="1.92"/></filter><clipPath id="clipPath156035"><path d="m44.797 13.371-2.1445 3.6641 5.3965 0.12109 2.1797-3.7324zm10.457 8.4863-2.5879 4.459 7.082 0.49024 2.5781-4.459zm-18.357 5.0098-2.1641 3.6953 5.4219 0.11914 2.1562-3.6934zm27.609 3.9453-2.9102 5.0527 9.584 0.67383 2.9727-5.1934zm-17.123 4.6035-2.6523 4.5703 7.1152 0.49023 2.5605-4.4277zm29.77 1.3066-4.0332 7.0703 12.086 0.68164 4.0039-7.0684zm14.48 6.0801-4.8164 8.5293 13.705 0.83789 4.7363-8.4551zm-35.016 1.7109-2.9766 5.168 9.6699 0.60352 2.959-5.1699zm12.695 5.9512-4.0703 7.1328 12.143 0.67969 4-7.0605zm14.82 5.6172-4.8164 8.5293 13.727 0.91016 4.8184-8.6016z" fill="#de7b4a" stroke-width=".080997"/></clipPath><filter id="filter156042" x="-.034839" y="-.077143" width="1.0697" height="1.1543" color-interpolation-filters="sRGB"><feGaussianBlur stdDeviation="0.9"/></filter><filter id="filter156776" x="-.078372" y="-.25303" width="1.1567" height="1.5061" color-interpolation-filters="sRGB"><feGaussianBlur stdDeviation="3.69"/></filter><filter id="filter158956" x="-.19491" y="-.18918" width="1.3898" height="1.3784" color-interpolation-filters="sRGB"><feGaussianBlur stdDeviation="2.68"/></filter><filter id="filter159204" x="-.17652" y="-.21888" width="1.353" height="1.4378" color-interpolation-filters="sRGB"><feGaussianBlur stdDeviation="2.28"/></filter><clipPath id="clipPath159489"><path d="m20.672 54.578-2.2031 3.7617 5.4746 0.11328 2.1543-3.6875zm10.549 8.6816-2.7012 4.6543 7.2266 0.41406 2.6055-4.5059zm-18.877 5.543-2.1797 3.7246 5.5 0.11133 2.2168-3.7969zm28.158 3.6992-3.0293 5.2617 9.8027 0.52734 3.0137-5.2637zm-17.578 5.0527-2.6836 4.623 7.2617 0.41406 2.6289-4.5488zm30.369 0.98437-4.1445 7.2617 12.219 0.74805 4.1152-7.2617zm14.65 6.207-4.9062 8.6875 13.82 0.98047 4.9473-8.834zm-35.375 1.5352-3.0586 5.3105 9.8086 0.5957 3.123-5.4551zm12.838 6.0801-4.1387 7.252 12.275 0.7461 4.1504-7.3262zm14.707 6.25-4.9922 8.8398 13.969 0.82813 4.9512-8.8379z" fill="#739cc6" stroke-width=".080997"/></clipPath><filter id="filter159743" x="-.071235" y="-.2232" width="1.1425" height="1.4464" color-interpolation-filters="sRGB"><feGaussianBlur stdDeviation="1.395"/></filter><filter id="filter160499" x="-.09" y="-.135" width="1.18" height="1.27" color-interpolation-filters="sRGB"><feGaussianBlur stdDeviation="2.025"/></filter><clipPath id="clipPath185553"><path d="m133.19 30.79-16.236 8.9698 8.6404 4.7541 1.1448 8.6949 7.4816-13.548z" fill="#292929" stroke-width=".080997"/></clipPath><clipPath id="clipPath185599"><path d="m124.8 45.943-15.688 7.875 9.054 4.1101 1.2604 8.5161 6.5301-11.825z" fill="#292929" stroke-width=".080997"/></clipPath><clipPath id="clipPath185654"><path d="m117.33 59.442-15.686 7.7741 8.9138 4.4615 1.3825 8.3253 6.6632-12.065z" fill="#292929" stroke-width=".080997"/></clipPath><clipPath id="clipPath185679"><path d="m109.71 73.205-15.601 7.5199 8.8494 4.6776 1.5085 8.128 6.6392-12.022z" fill="#292929" stroke-width=".080997"/></clipPath><clipPath id="clipPath185750"><path d="m86.518 94.346 8.5753 5.2727 1.6438 7.9155 6.895-12.485-1.5232-8.1053z" fill="#292929" stroke-width=".080997"/></clipPath><clipPath id="clipPath185796"><path d="m78.697 108.37 8.621 5.2929 1.7813 7.698 6.7916-12.298-1.6587-7.8922z" fill="#292929" stroke-width=".080997"/></clipPath><clipPath id="clipPath185906"><path d="m73.836 121.66-12.615 6.506 19.686 8.0353 7.3398-13.291-1.7967-7.6732z" fill="#292929" stroke-width=".080997"/></clipPath><filter id="filter194585" x="-.023819" y="-.017027" width="1.0437" height="1.0341" color-interpolation-filters="sRGB"><feGaussianBlur stdDeviation="0.78940001"/></filter><filter id="filter194589" x="-.023819" y="-.017027" width="1.0437" height="1.0341" color-interpolation-filters="sRGB"><feGaussianBlur stdDeviation="0.78940001"/></filter><filter id="filter194593" x="-.023819" y="-.017027" width="1.0437" height="1.0341" color-interpolation-filters="sRGB"><feGaussianBlur stdDeviation="0.78940001"/></filter><filter id="filter194597" x="-.023819" y="-.017027" width="1.0437" height="1.0341" color-interpolation-filters="sRGB"><feGaussianBlur stdDeviation="0.78940001"/></filter><filter id="filter194601" x="-.023819" y="-.017027" width="1.0437" height="1.0341" color-interpolation-filters="sRGB"><feGaussianBlur stdDeviation="0.78940001"/></filter><filter id="filter194605" x="-.023819" y="-.017027" width="1.0437" height="1.0341" color-interpolation-filters="sRGB"><feGaussianBlur stdDeviation="0.78940001"/></filter><filter id="filter194609" x="-.023819" y="-.017027" width="1.0437" height="1.0341" color-interpolation-filters="sRGB"><feGaussianBlur stdDeviation="0.78940001"/></filter><filter id="filter151481-8" x="-.097281" y="-.12604" width="1.1946" height="1.2521" color-interpolation-filters="sRGB"><feGaussianBlur stdDeviation="2.7309188"/></filter><clipPath id="clipPath211125"><path d="m206.83 63.067-60.966 90.481 8.7905 16.451 51.764-98.629z" fill="#fff" stroke-width=".080997"/></clipPath><filter id="filter150576-5" x="-.06085" y="-.13781" width="1.1211" height="1.2756" color-interpolation-filters="sRGB"><feGaussianBlur stdDeviation="2.171875"/></filter></defs><g transform="matrix(10 0 0 10 -11.653 9.287e-5)"><g clip-path="url(#clipPath136014)"><path d="m139.63 83.572 25.374-38.572 35 15-24.49 46.753z" fill="#84ad6b" stop-color="#000000" style="-inkscape-stroke:none;font-variation-settings:normal"/><path d="m139.63 83.572 22.374-43.572 45 16-17 29-20-13-14 20z" fill="#426352" filter="url(#filter151481)" stop-color="#000000" style="-inkscape-stroke:none;font-variation-settings:normal;mix-blend-mode:normal"/><path d="m139.63 83.572 22.374-43.572 45 16-15 27-22-16-15 25z" fill="#4a5a42" filter="url(#filter151481-8)" stop-color="#000000" style="-inkscape-stroke:none;font-variation-settings:normal;mix-blend-mode:normal"/><path d="m168 33-1.2793 3.1426-0.7207-0.69141-29 48.549 15 8 17-27 27 16 15-27z" fill="#101010" filter="url(#filter151485)" style="mix-blend-mode:normal"/></g><g clip-path="url(#clipPath117415)"><path d="m118.89 130.29 20.735-46.721 42.874 22.928-22.258 45.465zm0 0 20.735-46.721 42.874 22.928-22.258 45.465z" fill="#e7ce31"/><path d="m114 128 25.626-44.428 42.874 22.928-10.5 17.5-24-12-14 25z" fill="#846329" filter="url(#filter145131)" style="mix-blend-mode:normal"/><path d="m133 100-13.913 23.561 9.9134 7.4386 17-29 27 19 7-20-36-18z" fill="#6b4229" filter="url(#filter136042)" style="mix-blend-mode:normal"/><path d="m125 134 21-36 36 24 11-20-56-27-27 54z" fill="#4a2921" filter="url(#filter136034)" style="mix-blend-mode:normal"/><path d="m128 137 17-31 4 2 2-3 23 13 4-19-38-15-24 44z" fill="#101010" filter="url(#filter141290)" style="mix-blend-mode:normal"/><path d="m135 140 14-19 19 6-8 28z" fill="#ded631" filter="url(#filter158956)" style="mix-blend-mode:normal"/></g><g clip-path="url(#clipPath136328)"><path d="m128.66 53.079-15.102 27.375 26.066 3.1178 21.957-36.798-10.421-2.7712zm0 0-15.102 27.375 26.066 3.1178 21.957-36.798-10.421-2.7712zm0 0-15.102 27.375 26.066 3.1178 21.957-36.798-10.421-2.7712z" fill="#de7b4a" stop-color="#000000" style="-inkscape-stroke:none;font-variation-settings:normal"/><path d="m96 77 25 2 9-15 23 4 18-34-62-4z" fill="#b55a39" filter="url(#filter137422)" style="mix-blend-mode:normal"/><path d="m118 64 36 1 25-37-58-6z" fill="#7b5231" filter="url(#filter136636)" style="mix-blend-mode:normal"/><path d="m122 56 33 3 24-31-58-6z" fill="#101010" filter="url(#filter136636-4)" style="mix-blend-mode:normal"/></g><g clip-path="url(#clipPath129004)"><path d="m49 116 32-64 84 18-37 70z" fill="#739cc6"/><path d="m107 108h23l22-34-73-8-27 58 44 1z" fill="#4a6b94" filter="url(#filter136022)" style="mix-blend-mode:normal"/><path d="m69 121h17l16-24 34 4 8-22-39-11z" fill="#101010" filter="url(#filter136026)" style="mix-blend-mode:normal"/><path d="m96 128 11-17 20-1-3 25z" fill="#739cc6" filter="url(#filter159204)" style="mix-blend-mode:normal"/></g><path d="m34.001 122.13-2.7583-7.8128 14.722 0.85502 2.5109 7.7655z" fill="#101010"/><path d="m55.912 108.35-12.07-0.70763-2.5731-8.0259 12.275 0.74455z" fill="#101010"/><path d="m63.595 94.736-12.016-0.71264-2.4292-8.222 12.218 0.74679z" fill="#101010"/><path d="m72.053 81.153-14.235-0.89846-2.3139-8.4154 14.472 0.93623z" fill="#101010"/><path d="m79.336 66.849-11.946-0.65128-2.148-8.5995 12.143 0.67876z" fill="#101010"/><path d="m87.027 53.223-11.892-0.65661-2.0167-8.773 12.086 0.68132z" fill="#101010"/><path d="m95.283 39.981-14.081-0.84435-1.9166-8.9384 14.309 0.87121z" fill="#101010"/><path d="m10.961 95.479-9.7957-8.627 9.2885-4.0708 3.0372 8.3378z" fill="#292929"/><path d="m4.3524 95.149-3.1867-8.2964 6.7103 0.34817 3.0854 8.2788z" fill="#101010"/><path d="m13.185 81.009-3.0212-8.482 7.7167-3.6841 0.72335 12.266z" fill="#293952"/><path d="m18.603 81.109-2.9385-8.4713 2.2152-3.7951 2.8982 8.5198z" fill="#395273"/><path d="m35.182 53.739-9.2554-9.1648 9.0818-3.8761 2.5991 8.8612z" fill="#292929"/><path d="m42.666 39.658-7.9325-9.0962 7.5778-3.5743 2.475 9.0179z" fill="#734a31"/><path d="m50.43 26.282-7.7772-9.2474 7.5743-3.6096 2.3463 9.1648z" fill="#734a31"/><path d="m58.436 13.666-8.7752-9.6159 8.9258-3.7617 2.2155 9.3001z" fill="#292929"/><path d="m26.734 67.103-5.393-0.10435-2.8709-8.6593 7.6274-3.5746z" fill="#293952"/><path d="m26.734 67.103-2.7895-8.6497 2.1529-3.6886 2.7516 8.6948z" fill="#395273"/><path d="m35.182 53.739-6.5173-0.34-2.7382-8.8248 6.6142 0.35308z" fill="#101010"/><path d="m42.666 39.658-5.3428-0.11198-2.5898-8.9842 5.4218 0.1196z" fill="#6b4229"/><path d="m50.43 26.282-5.3183-0.11571-2.4589-9.1316 5.396 0.12219z" fill="#6b4229"/><path d="m58.436 13.666-6.4294-0.34884-2.3458-9.267 6.5223 0.35752z" fill="#101010"/><path d="m22.592 105.12-12.021-8.5703 12.011-4.5738 2.865 8.1802z" fill="#292929"/><path d="m13.634 104.69-3.0623-8.1351 9.1013 0.46023 2.9197 8.1101z" fill="#101010"/><path d="m23.126 90.506-2.8853-8.3286 9.8903-4.1349 0.14309 12.858z" fill="#293952"/><path d="m31.255 76.429-2.7349-8.515 9.8314-4.0921 0.01808 13.005z" fill="#293952"/><path d="m54.192 49.319-7.0086-0.47462-2.4532-8.8578 9.6752-3.9378z" fill="#6b4229"/><path d="m61.964 35.808-6.9768-0.47702-2.3218-9.0148 9.6603-3.9685z" fill="#6b4229"/><path d="m72.896 17.65-2.7536 4.7882-10.806-9.8352 11.519-4.1554z" fill="#292929"/><path d="m70.143 22.438-8.593-0.66926-2.2128-9.1659 8.7218 0.68481z" fill="#101010"/><path d="m37.692 108.79-3.4264 6.0127-14.489-8.6108 15.238-5.4225z" fill="#292929"/><path d="m34.266 114.8-11.555-0.64284-2.9336-7.9679 11.746 0.6787z" fill="#101010"/><path d="m41.915 100.33-9.6498-0.56914-2.7541-8.1724 12.931-4.859z" fill="#293952"/><path d="m49.728 86.627-9.6473-0.50092-2.6086-8.3612 12.816-4.7366z" fill="#293952"/><path d="m65.485 58.985-9.518-0.58095-2.3261-8.7221 12.628-4.5664z" fill="#6b4229"/><path d="m63.79 44.753-2.1933-8.8886 12.557-4.5189-0.9288 14.063z" fill="#6b4229"/><path d="m84.628 26.43-3.2579 5.7168-13.243-9.8659 14.64-4.9411z" fill="#292929"/><path d="m81.37 32.147-11.201-0.74186-2.0875-9.0454 11.376 0.76255z" fill="#101010"/><path d="m32.855 86.412-2.5816 4.4878-2.7727-8.3092 2.6296-4.5487z" fill="#395273"/><path d="m40.929 72.377-2.5596 4.4497-2.6238-8.4977 2.6057-4.5074z" fill="#395273"/><path d="m49.533 58.276-2.7826 4.8387-11.362-9.2842 11.718-4.2874z" fill="#292929"/><path d="m37.999 62.524-2.6104-8.6934 8.8865 0.61165 2.4754 8.6727z" fill="#101010"/><path d="m56.709 44.944-2.5169 4.3753-2.3459-8.8428 2.5593-4.4275z" fill="#734a31"/><path d="m64.5 31.399-2.5362 4.409-2.2158-9.0013 2.5775-4.459z" fill="#734a31"/><path d="m44.981 94.953-3.0669 5.3799-2.5965-8.1443 3.124-5.4562z" fill="#395273"/><path d="m59.987 101.13-4.0754 7.2199-14.644-8.7336 16.426-6.5817z" fill="#395273"/><path d="m55.912 108.35-12.07-0.70763-2.5731-8.0259 12.275 0.74455z" fill="#293952"/><path d="m52.957 115-4.482 7.9439-17.233-8.6206 19.289-7.2106z" fill="#292929"/><path d="m48.475 122.94-14.474-0.80779-2.7583-7.8128 14.722 0.85502z" fill="#101010"/><path d="m52.687 81.435-2.9594 5.1915-2.4523-8.3364 3.0128-5.2623z" fill="#395273"/><path d="m63.595 94.736-12.016-0.71264-2.4292-8.222 16.333-6.5156z" fill="#293952"/><path d="m61.374 67.235-3.3408 5.8624-13.842-9.2757 14.937-5.1809z" fill="#292929"/><path d="m58.033 73.097-11.356-0.72954-2.4866-8.5462 11.538 0.75822z" fill="#101010"/><path d="m72.053 81.153-14.235-0.89846-2.3139-8.4154 18.918-6.915z" fill="#101010"/><path d="m68.395 53.881-2.9099 5.1047-2.1749-8.7009 2.9593-5.1685z" fill="#734a31"/><path d="m79.336 66.849-11.946-0.65128-2.148-8.5995 16.143-6.3815z" fill="#6b4229"/><path d="m76.15 40.276-2.9258 5.1325-2.0449-8.8687 2.9737-5.1939z" fill="#734a31"/><path d="m87.027 53.223-11.892-0.65661-2.0167-8.773 16.091-6.3878z" fill="#6b4229"/><path d="m99.544 32.428-4.2613 7.5527-15.997-9.7827 18.637-6.772z" fill="#292929"/><path d="m95.283 39.981-14.081-0.84435-1.9166-8.9384 14.309 0.87121z" fill="#101010"/><path d="m71.195 116.11-13.726-0.78527-2.3473-7.8719 18.919-8.009z" fill="#293952"/><path d="m69.499 120.57-5.8065 10.401-18.675-8.5298 22.343-9.6278z" fill="#292929"/><path d="m63.693 130.97-16.14-0.88338-2.5345-7.6464 16.427 0.93814z" fill="#101010"/><path d="m67.637 87.576-4.0419 7.1608-2.2272-8.1879 4.1145-7.2624z" fill="#395273"/><path d="m78.823 102.45-13.583-0.93647-2.2031-8.0787 18.769-7.8549z" fill="#293952"/><path d="m76.423 73.407-4.3701 7.7456-2.0773-8.3776 4.4462-7.8513z" fill="#292929"/><path d="m87.146 88.963-15.919-0.90482-2.0938-8.2755 21.952-9.3364z" fill="#101010"/><path d="m83.27 59.88-3.9338 6.9693-1.951-8.572 4-7.0603z" fill="#734a31"/><path d="m94.732 73.966-13.496-0.87421-1.92-8.48 18.545-7.6914z" fill="#6b4229"/><path d="m90.968 46.241-3.9407 6.9818-1.8226-8.7483 4.0051-7.0692z" fill="#734a31"/><path d="m102.09 60.794-13.477-0.808-1.7958-8.654 18.443-7.6167z" fill="#6b4229"/><path d="m115.69 37.829-5.5204 9.8883-17.442-9.6779 21.611-9.126z" fill="#292929"/><path d="m110.17 47.717-15.741-0.85462-1.7011-8.8233 16.005 0.88609z" fill="#101010"/><path d="m76.056 107.4-4.8616 8.7046-2.1059-7.8284 4.9511-8.8377z" fill="#395273"/><path d="m83.685 93.744-4.8623 8.7054-1.9662-8.036 4.9488-8.834z" fill="#395273"/><path d="m92.807 78.823-5.6612 10.14-1.819-8.2323 5.7588-10.284z" fill="#292929"/><path d="m99.471 65.481-4.7391 8.4851-1.6892-8.445 4.8182-8.6006z" fill="#734a31"/><path d="m106.75 52.447-4.6617 8.3464-1.5671-8.623 4.7369-8.4556z" fill="#734a31"/><path d="m78.697 108.37-9.0413 4.7066 2.0975 7.7472 17.346 0.53708 1.6758-13.944z" fill="#101010" stroke-width=".080997"/><g clip-path="url(#clipPath185906)"><rect width="208" height="170" fill="#181818" stop-color="#000000" style="font-variation-settings:normal;paint-order:fill markers stroke"/><path d="m62.24 170 17.701-37.528 73.238-132.47h54.821v170z" fill="#313931" filter="url(#filter194609)" stroke="#292929" stroke-width="2"/></g><path d="m70.933 122.3-9.712 5.8658 2.2549 7.5094c4.9406-0.11476 10.751 0.0611 17.431 0.52591l-1.9336-7.4567z" fill="#101010" stroke-width=".080997"/><path d="m86.518 94.346-8.9618 4.6049 1.955 7.9621 17.226 0.62112 1.8596-14.245z" fill="#101010" stroke-width=".080997"/><g clip-path="url(#clipPath185796)"><rect width="208" height="170" fill="#181818" stop-color="#000000" style="font-variation-settings:normal;paint-order:fill markers stroke"/><path d="m62.24 170 17.701-37.528 73.238-132.47h54.821v170z" fill="#313931" filter="url(#filter194605)" stroke="#292929" stroke-width="2"/></g><path d="m104.47 93.53 1.8671-14.227-12.225 1.4212-8.5624 3.93 1.8151 8.1717z" fill="#101010" stroke-width=".080997"/><g clip-path="url(#clipPath185750)"><rect width="208" height="170" fill="#181818" stop-color="#000000" style="font-variation-settings:normal;paint-order:fill markers stroke"/><path d="m62.24 170 17.701-37.528 73.238-132.47h54.821v170z" fill="#313931" filter="url(#filter194601)" stroke="#292929" stroke-width="2"/></g><path d="m111.94 80.003 2.0036-14.443-12.3 1.6562-8.4168 3.7082 1.6848 8.3658z" fill="#101010" stroke-width=".080997"/><g clip-path="url(#clipPath185679)"><rect width="208" height="170" fill="#181818" stop-color="#000000" style="font-variation-settings:normal;paint-order:fill markers stroke"/><path d="m62.24 170 17.701-37.528 73.238-132.47h54.821v170z" fill="#313931" filter="url(#filter194597)" stroke="#292929" stroke-width="2"/></g><path d="m119.43 66.445 2.0565-14.509-12.371 1.8825-8.1952 3.3514 1.5583 8.5523z" fill="#101010" stroke-width=".080997"/><g clip-path="url(#clipPath185654)"><rect width="208" height="170" fill="#181818" stop-color="#000000" style="font-variation-settings:normal;paint-order:fill markers stroke"/><path d="m62.24 170 17.701-37.528 73.238-132.47h54.821v170z" fill="#313931" filter="url(#filter194593)" stroke="#292929" stroke-width="2"/></g><path d="m126.74 53.209 2.6531-15.557-12.438 2.1078-8.4899 3.9187 1.4382 8.7284z" fill="#101010" stroke-width=".080997"/><g clip-path="url(#clipPath185599)"><rect width="208" height="170" fill="#181818" stop-color="#000000" style="font-variation-settings:normal;paint-order:fill markers stroke"/><path d="m62.24 170 17.701-37.528 73.238-132.47h54.821v170z" fill="#313931" filter="url(#filter194589)" stroke="#292929" stroke-width="2"/></g><g clip-path="url(#clipPath185553)"><rect width="208" height="170" fill="#181818" stop-color="#000000" style="font-variation-settings:normal;paint-order:fill markers stroke"/><path d="m62.24 170 17.701-37.528 73.238-132.47h54.821v170z" fill="#313931" filter="url(#filter194585)" stroke="#292929" stroke-width="2" style="mix-blend-mode:normal"/></g><path d="m165.66 51.264 0.41457 8.5444c0.99756 0.31374 1.9691 0.67467 2.9158 1.0827 6.5764 2.8353 11.925 6.2177 16.09 10.131l2.8568-5.3928c-4.5498-5.2625-10.982-9.681-19.303-13.262-0.96613-0.4156-1.9569-0.78329-2.9739-1.1033z" fill="#101010" stroke-width=".080997"/><path d="m125.03 135.94-6.1775-0.0388 0.24637 1.6778 4.1348 1.6931z" fill="#292929" stroke-width=".080997"/><path d="m150.63 88.466-11.031-0.06931-6.8958 13.076-15.413 25.01 1.5686 9.4231 6.1775 0.0388z" fill="url(#linearGradient152720)" stroke-width=".080997"/><path d="m148.81 82.497-4.7008 8.7145 0.74385 7.9564c1.115 0.36453 2.1512 0.75427 3.1076 1.1693 6.3142 2.7378 11.704 6.1305 16.203 10.159l12.5 2.5392-2.3174-12.565-18.108-8.4155z" fill="#101010" stroke-width=".080997"/><path d="m135.02 30.876-7.469 13.509 1.111 8.6937c8.2399 0.37185 15.898 1.2934 23.04 2.707l14.374 4.0219 10.707 1.3433 8.2985 9.87 8.447-5.8345z" fill="#101010" stroke-width=".080997"/><path d="m155.83 48.18-14.383 36.702-1.8537 3.5146 11.031 0.06931 15.448-28.657-0.41457-8.5441z" fill="url(#linearGradient152947)" stroke-width=".080997"/><path d="m110.73 74.818-5.2096 9.4226 1.4641 8.1413c8.836-0.03886 16.688 0.73801 23.597 2.3026l4.7642 1.7801 7.373-8.0486-5.2318-4.8573z" fill="#101010" stroke-width=".080997"/><g clip-path="url(#clipPath211125)"><rect width="208" height="170" fill="#292929" stop-color="#000000" style="-inkscape-stroke:none;font-variation-settings:normal;paint-order:fill markers stroke"/><path d="m120 65 90-17 7 24-87 18z" fill="#6b6b6b" filter="url(#filter150576-5)" stroke="#000" stroke-width="1px" style="mix-blend-mode:normal"/></g><path d="m153.49 151.43-65.2-36.035-7.4684 13.508 1.8997 7.4483c16.465 1.8012 30.389 5.1886 41.796 10.169 13.793 6.0222 23.837 13.842 30.138 23.484z" fill="#101010" stroke-width=".080997"/><g clip-path="url(#clipPath159489)"><rect width="208" height="170" fill="#739cc6" stop-color="#000000" style="-inkscape-stroke:none;font-variation-settings:normal;paint-order:fill markers stroke"/><path d="m63 90h22l-0.71659 5.3745-26.283 2.6255-1 3h26v4l-45-2 2-3 19-4z" fill="#5a8cbd" filter="url(#filter159743)" style="mix-blend-mode:normal"/><path d="m2 61 34 12 20 2-8-36z" fill="#5a8cbd" filter="url(#filter160499)"/></g><g clip-path="url(#clipPath156035)"><rect width="208" height="170" fill="#de7b4a" stop-color="#000000" style="-inkscape-stroke:none;font-variation-settings:normal;paint-order:fill markers stroke"/><path d="m111 43-59 6 3 22 59-17z" fill="#de7342" filter="url(#filter156042)"/><path d="m9 10 94-7 19 31-106 4z" fill="#efbd8c" filter="url(#filter156776)" style="mix-blend-mode:normal"/></g><g clip-path="url(#clipPath88346)"><rect width="208" height="170" fill="#292929" stop-color="#000000" style="-inkscape-stroke:none;paint-order:fill markers stroke"/><path d="m60 69 55-2 17 22-58 1z" fill="#909497" filter="url(#filter92217)" stroke="#4b4b4b" stroke-width="2" style="mix-blend-mode:normal"/><path d="m35 45 105-8-20-67-90 10z" fill="#545756" filter="url(#filter94435)" stroke="#6b6b6b" stroke-width="4" style="mix-blend-mode:normal"/><path d="m130 9.287e-6 15 55 58-7-20-27z" fill="#bfc3c2" filter="url(#filter92973)" stroke="#cecece" stroke-width="4" style="mix-blend-mode:normal"/><path d="m120 85 84-6-6 40-83 1z" fill="#939d9e" filter="url(#filter98087)" stroke="#77787c" stroke-width="8"/><path d="m44 120 39-13 24 36-46 10z" fill="#b9b5b3" filter="url(#filter99550)" stroke="#5a5d5a" stroke-width="4" style="mix-blend-mode:normal"/><path d="m15 85-10 20 10 5 15-20z" fill="#818181" filter="url(#filter101012)" stroke="#646564" stroke-width="1px" style="mix-blend-mode:normal"/><path d="m90 120h110v65l-65-5z" fill="#121212" filter="url(#filter102645)" stroke="#000" stroke-width="1px"/><path d="m65 93 38-4 2 11-41 3z" fill="#403f40" filter="url(#filter104265)" stroke="#426352" stroke-width="1px" style="mix-blend-mode:normal"/><path d="m41 21 24-1 4-29-28 5z" fill="#909190" filter="url(#filter106616)"/><path d="m120 65 90-17 7 24-87 18z" fill="#101010" filter="url(#filter150576)" stroke="#000" stroke-width="1px" style="mix-blend-mode:normal"/><path d="m162 97 22-1 1 20-27 3z" fill="#cedbd7" filter="url(#filter95897)" stroke="#cecece" stroke-width="1px" style="mix-blend-mode:normal"/><path d="m22 115 17 4 14-19-18-5z" fill="#212121" filter="url(#filter155523)" style="mix-blend-mode:normal"/><path d="m144.11 91.212-17.609 32.646 3.2852 1.4355c7.9427 3.4731 14.646 7.5174 20.111 12.139l16.865-31.84c-5.1177-5.3754-11.609-9.7683-19.48-13.186-0.97741-0.42392-2.0346-0.82237-3.1719-1.1953z" fill="none" stroke="#525252" stroke-width=".25" style="mix-blend-mode:normal"/><path d="m105.52 84.242-17.223 31.15c9.0913 0.57875 18.52 2.2622 28.293 5.0547l17.701-32.596c-8.1116-2.4354-17.698-3.6373-28.771-3.6094z" fill="none" stroke="#525252" stroke-width=".25" style="mix-blend-mode:normal"/><path d="m165.66 51.265-16.846 31.232 3.2852 1.334c7.2022 3.1211 13.757 7.2251 19.67 12.318l16.168-30.52c-4.5498-5.2625-10.982-9.681-19.303-13.262-0.96613-0.4156-1.9577-0.7835-2.9746-1.1035z" fill="none" stroke="#525252" stroke-width=".25" style="mix-blend-mode:normal"/><path d="m127.55 44.386-16.826 30.432c9.4775 0.142 18.93 1.538 28.367 4.1875l16.74-30.824c-8.5972-2.0548-18.021-3.3201-28.281-3.7949z" fill="none" stroke="#525252" stroke-width=".25" style="mix-blend-mode:normal"/></g></g></svg>
