<?xml version="1.0" encoding="UTF-8" standalone="no"?>
<svg
   width="756.13812"
   height="387.16245"
   version="1.1"
   viewBox="0 0 200.06154 102.43673"
   id="svg147"
   sodipodi:docname="Windows_2000_Alternate_symbol.svg"
   inkscape:version="1.3.2 (091e20e, 2023-11-25, custom)"
   xmlns:inkscape="http://www.inkscape.org/namespaces/inkscape"
   xmlns:sodipodi="http://sodipodi.sourceforge.net/DTD/sodipodi-0.dtd"
   xmlns="http://www.w3.org/2000/svg"
   xmlns:svg="http://www.w3.org/2000/svg">
  <sodipodi:namedview
     id="namedview147"
     pagecolor="#ffffff"
     bordercolor="#000000"
     borderopacity="0.25"
     inkscape:showpageshadow="2"
     inkscape:pageopacity="0.0"
     inkscape:pagecheckerboard="0"
     inkscape:deskcolor="#d1d1d1"
     inkscape:document-units="mm"
     inkscape:zoom="1.1373584"
     inkscape:cx="378.06905"
     inkscape:cy="193.87029"
     inkscape:window-width="1366"
     inkscape:window-height="705"
     inkscape:window-x="-8"
     inkscape:window-y="-8"
     inkscape:window-maximized="1"
     inkscape:current-layer="svg147" />
  <defs
     id="defs47">
    <style
       type="text/css"
       id="style1"><![CDATA[
    .fil1 {fill:#373435}
    .fil0 {fill:#FEFEFE}
   ]]></style>
    <style
       type="text/css"
       id="style2"><![CDATA[
    .fil1 {fill:#373435}
    .fil0 {fill:#FEFEFE}
   ]]></style>
    <style
       type="text/css"
       id="style3"><![CDATA[
    .fil1 {fill:#373435}
    .fil0 {fill:#FEFEFE}
   ]]></style>
    <clipPath
       id="clipPath22">
      <path
         d="m 234.95,3019 h 1762.2 V 1256.8 H 234.95 Z"
         clip-rule="evenodd"
         id="path3" />
    </clipPath>
    <linearGradient
       id="linearGradient32"
       x1="-124.6"
       x2="124.6"
       gradientTransform="matrix(7.0711,-7.0711,7.0711,7.0711,1116,2137.9)"
       gradientUnits="userSpaceOnUse">
      <stop
         stop-color="#fff"
         offset="0"
         id="stop3" />
      <stop
         stop-color="#f7dd49"
         offset=".14844"
         id="stop4" />
      <stop
         stop-color="#f7dd49"
         offset=".82031"
         id="stop5" />
      <stop
         stop-color="#fff"
         offset="1"
         id="stop6" />
    </linearGradient>
    <clipPath
       id="clipPath46">
      <path
         d="M 4172.6,3116.1 H 5671 V 1617.7 H 4172.6 Z"
         clip-rule="evenodd"
         id="path6" />
    </clipPath>
    <linearGradient
       id="linearGradient52"
       x1="-74.924004"
       x2="74.924004"
       gradientTransform="matrix(10,0,0,10,4921.8,2366.9)"
       gradientUnits="userSpaceOnUse">
      <stop
         stop-color="#3b7ec2"
         offset="0"
         id="stop7" />
      <stop
         stop-color="#9bd3ec"
         offset="1"
         id="stop8" />
    </linearGradient>
    <clipPath
       id="clipPath62">
      <path
         d="M 4371.8,2916.8 H 5471.7 V 1816.9 H 4371.8 Z"
         clip-rule="evenodd"
         id="path8" />
    </clipPath>
    <linearGradient
       id="linearGradient70"
       x1="-54.994999"
       x2="54.994999"
       gradientTransform="matrix(-10,0,0,-10,4921.8,2366.9)"
       gradientUnits="userSpaceOnUse">
      <stop
         stop-color="#d0f0fd"
         offset="0"
         id="stop9" />
      <stop
         stop-color="#d0f0fd"
         offset=".39844"
         id="stop10" />
      <stop
         stop-color="#61ace3"
         offset="1"
         id="stop11" />
    </linearGradient>
    <clipPath
       id="clipPath82">
      <path
         d="M 2724.6,3155.5 H 4257.8 V 1622.3 H 2724.6 Z"
         clip-rule="evenodd"
         id="path11" />
    </clipPath>
    <linearGradient
       id="linearGradient88"
       x1="-76.663002"
       x2="76.663002"
       gradientTransform="matrix(10,0,0,10,3491.3,2388.9)"
       gradientUnits="userSpaceOnUse">
      <stop
         stop-color="#0747cf"
         offset="0"
         id="stop12" />
      <stop
         stop-color="#c3d0e0"
         offset="1"
         id="stop13" />
    </linearGradient>
    <clipPath
       id="clipPath98">
      <path
         d="m 988.33,3648.2 h 1954.6 v -87.27 H 988.33 Z"
         clip-rule="evenodd"
         id="path13" />
    </clipPath>
    <linearGradient
       id="linearGradient108"
       x1="-73.640999"
       x2="73.640999"
       gradientTransform="matrix(7.0711,-7.0711,7.0711,7.0711,1965.6,3604.5)"
       gradientUnits="userSpaceOnUse">
      <stop
         stop-color="#a7c6e2"
         offset="0"
         id="stop14" />
      <stop
         stop-color="#f4f8f9"
         offset=".27344"
         id="stop15" />
      <stop
         stop-color="#f4f8f9"
         offset=".70312"
         id="stop16" />
      <stop
         stop-color="#084890"
         offset="1"
         id="stop17" />
    </linearGradient>
    <clipPath
       id="clipPath118">
      <path
         d="m 988.33,3731.9 h 1954.6 v -83.77 H 988.33 Z"
         clip-rule="evenodd"
         id="path17" />
    </clipPath>
    <linearGradient
       id="linearGradient128"
       x1="-71.018997"
       x2="71.018997"
       gradientTransform="matrix(7.214,-6.9252,6.9252,7.214,1965.6,3690)"
       gradientUnits="userSpaceOnUse">
      <stop
         stop-color="#a7c6e2"
         offset="0"
         id="stop18" />
      <stop
         stop-color="#f4f8f9"
         offset=".27344"
         id="stop19" />
      <stop
         stop-color="#f4f8f9"
         offset=".70312"
         id="stop20" />
      <stop
         stop-color="#020747"
         offset="1"
         id="stop21" />
    </linearGradient>
    <clipPath
       id="clipPath138">
      <path
         d="M 1912.1,2326.6 H 3410.5 V 828.2 H 1912.1 Z"
         clip-rule="evenodd"
         id="path21" />
    </clipPath>
    <linearGradient
       id="linearGradient144"
       x1="-74.922997"
       x2="74.922997"
       gradientTransform="matrix(0,-10,10,0,2661.3,1577.4)"
       gradientUnits="userSpaceOnUse">
      <stop
         stop-color="#000364"
         offset="0"
         id="stop22" />
      <stop
         stop-color="#166fc3"
         offset="1"
         id="stop23" />
    </linearGradient>
    <clipPath
       id="clipPath154">
      <path
         d="M 2111.3,2127.3 H 3211.2 V 1027.4 H 2111.3 Z"
         clip-rule="evenodd"
         id="path23" />
    </clipPath>
    <linearGradient
       id="linearGradient162"
       x1="-54.994999"
       x2="54.994999"
       gradientTransform="matrix(0,-10,10,0,2661.3,1577.4)"
       gradientUnits="userSpaceOnUse">
      <stop
         stop-color="#020360"
         offset="0"
         id="stop24" />
      <stop
         stop-color="#cfe0f0"
         offset=".50781"
         id="stop25" />
      <stop
         stop-color="#cfe0f0"
         offset="1"
         id="stop26" />
    </linearGradient>
    <clipPath
       id="clipPath174">
      <path
         d="m 992.41,3560.9 h 1944.3 l -0.47,-2043 H 992.34 Z"
         clip-rule="evenodd"
         id="path26" />
    </clipPath>
    <linearGradient
       id="linearGradient188"
       x1="-141.99001"
       x2="141.99001"
       gradientTransform="matrix(7.2789,-6.8569,6.8569,7.2789,1964.6,2539.4)"
       gradientUnits="userSpaceOnUse">
      <stop
         stop-color="#00084d"
         offset="0"
         id="stop27" />
      <stop
         stop-color="#649bc2"
         offset=".25"
         id="stop28" />
      <stop
         stop-color="#02418e"
         offset=".40625"
         id="stop29" />
      <stop
         stop-color="#02418e"
         offset=".55469"
         id="stop30" />
      <stop
         stop-color="#649bc2"
         offset=".71094"
         id="stop31" />
      <stop
         stop-color="#00084d"
         offset="1"
         id="stop32" />
    </linearGradient>
    <clipPath
       id="clipPath198">
      <path
         d="m 795.37,3454.7 h 1926.1 l -0.1,-1699.9 212.92,-236.9 h -2139 z"
         clip-rule="evenodd"
         id="path32" />
    </clipPath>
    <linearGradient
       id="linearGradient204"
       x1="-144.72"
       x2="144.72"
       gradientTransform="matrix(7.0711,-7.0711,7.0711,7.0711,1864.8,2486.3)"
       gradientUnits="userSpaceOnUse">
      <stop
         stop-color="#fff"
         offset="0"
         id="stop33" />
      <stop
         stop-color="#ef371f"
         offset="1"
         id="stop34" />
    </linearGradient>
    <clipPath
       id="clipPath214">
      <path
         d="M 1102.1,1755.7 H 2721 l 108.34,-120.8 h -1727.3 z"
         clip-rule="evenodd"
         id="path34" />
    </clipPath>
    <linearGradient
       id="linearGradient224"
       x1="-69.001999"
       x2="69.001999"
       gradientTransform="matrix(6.6627,-7.4571,7.4571,6.6627,1965.7,1695.3)"
       gradientUnits="userSpaceOnUse">
      <stop
         stop-color="#f36a48"
         offset="0"
         id="stop35" />
      <stop
         stop-color="#feb19d"
         offset=".25781"
         id="stop36" />
      <stop
         stop-color="#feb19d"
         offset=".48438"
         id="stop37" />
      <stop
         stop-color="#f06b4a"
         offset="1"
         id="stop38" />
    </linearGradient>
    <clipPath
       id="clipPath234">
      <path
         d="m 987.75,3567.2 114.32,-111.24 -0.03,-1714 H 987.75 Z"
         clip-rule="evenodd"
         id="path38" />
    </clipPath>
    <linearGradient
       id="linearGradient246"
       x1="-69.174004"
       x2="69.174004"
       gradientTransform="matrix(7.0711,-7.0711,7.0711,7.0711,1044.9,2654.6)"
       gradientUnits="userSpaceOnUse">
      <stop
         stop-color="#ecf3f9"
         offset="0"
         id="stop39" />
      <stop
         stop-color="#88b1d1"
         offset=".11719"
         id="stop40" />
      <stop
         stop-color="#ecf3f9"
         offset=".36719"
         id="stop41" />
      <stop
         stop-color="#ecf3f9"
         offset=".67969"
         id="stop42" />
      <stop
         stop-color="#82a7d1"
         offset="1"
         id="stop43" />
    </linearGradient>
    <clipPath
       id="clipPath258">
      <path
         d="m 2810.6,1836.4 v -2 z"
         clip-rule="evenodd"
         id="path43" />
    </clipPath>
    <radialGradient
       id="radialGradient264"
       cx="295.06"
       cy="417.54999"
       r="0"
       gradientTransform="matrix(10,0,0,10,-140,-2340)"
       gradientUnits="userSpaceOnUse">
      <stop
         stop-color="#52bd44"
         offset="0"
         id="stop44" />
      <stop
         stop-color="#52bd44"
         offset="1"
         id="stop45" />
    </radialGradient>
    <clipPath
       id="clipPath274">
      <path
         d="m 1104.2,1462.8 v 1.09 z"
         clip-rule="evenodd"
         id="path45" />
    </clipPath>
    <radialGradient
       id="radialGradient280"
       cx="124.42"
       cy="380.32999"
       r="0"
       gradientTransform="matrix(10,0,0,10,-140,-2340)"
       gradientUnits="userSpaceOnUse">
      <stop
         stop-color="#52bd44"
         offset="0"
         id="stop46" />
      <stop
         stop-color="#52bd44"
         offset="1"
         id="stop47" />
    </radialGradient>
    <filter
       id="filter2215"
       x="-12.681573"
       y="-10.690906"
       width="26.363146"
       height="22.381811"
       color-interpolation-filters="sRGB">
      <feGaussianBlur
         stdDeviation="19.218795"
         id="feGaussianBlur47" />
    </filter>
  </defs>
  <g
     transform="translate(-2485.7,381.78397)"
     id="g147">
    <text
       transform="scale(0.95324,1.0491)"
       x="-466.36401"
       y="142.24777"
       fill="#ffcc00"
       font-family="'Nokia Eurostile'"
       font-size="3.8743px"
       font-weight="bold"
       letter-spacing="0px"
       stroke-width="0.072644"
       word-spacing="0px"
       style="line-height:1.25"
       xml:space="preserve"
       id="text47"><tspan
         x="-466.36401"
         y="142.24777"
         font-family="'Nokia Eurostile'"
         font-weight="bold"
         stroke-width="0.072644"
         id="tspan47" /></text>
    <text
       transform="scale(0.95324,1.0491)"
       x="-466.93475"
       y="144.24547"
       fill="#ffcc00"
       font-family="'Nokia Eurostile'"
       font-size="3.8743px"
       letter-spacing="0px"
       stroke-width="0.072644"
       word-spacing="0px"
       style="line-height:1.25"
       xml:space="preserve"
       id="text48"><tspan
         x="-466.93475"
         y="144.24547"
         font-family="'Nokia Eurostile'"
         stroke-width="0.072644"
         id="tspan48" /></text>
    <text
       transform="scale(0.95324,1.0491)"
       x="-231.77161"
       y="186.42459"
       fill="#ffcc00"
       font-family="'Nokia Eurostile'"
       font-size="3.8743px"
       font-weight="bold"
       letter-spacing="0px"
       stroke-width="0.072644"
       word-spacing="0px"
       style="line-height:1.25"
       xml:space="preserve"
       id="text49"><tspan
         x="-231.77161"
         y="186.42459"
         font-family="'Nokia Eurostile'"
         font-weight="bold"
         stroke-width="0.072644"
         id="tspan49" /></text>
    <text
       transform="scale(0.95324,1.0491)"
       x="-232.34235"
       y="188.42229"
       fill="#ffcc00"
       font-family="'Nokia Eurostile'"
       font-size="3.8743px"
       letter-spacing="0px"
       stroke-width="0.072644"
       word-spacing="0px"
       style="line-height:1.25"
       xml:space="preserve"
       id="text50"><tspan
         x="-232.34235"
         y="188.42229"
         font-family="'Nokia Eurostile'"
         stroke-width="0.072644"
         id="tspan50" /></text>
    <text
       transform="scale(0.95324,1.0491)"
       x="-207.61469"
       y="211.87021"
       fill="#ffcc00"
       font-family="'Nokia Eurostile'"
       font-size="3.8743px"
       font-weight="bold"
       letter-spacing="0px"
       stroke-width="0.072644"
       word-spacing="0px"
       style="line-height:1.25"
       xml:space="preserve"
       id="text51"><tspan
         x="-207.61469"
         y="211.87021"
         font-family="'Nokia Eurostile'"
         font-weight="bold"
         stroke-width="0.072644"
         id="tspan51" /></text>
    <text
       transform="scale(0.95324,1.0491)"
       x="-208.18542"
       y="213.8679"
       fill="#ffcc00"
       font-family="'Nokia Eurostile'"
       font-size="3.8743px"
       letter-spacing="0px"
       stroke-width="0.072644"
       word-spacing="0px"
       style="line-height:1.25;display:inline"
       xml:space="preserve"
       id="text52"><tspan
         x="-208.18542"
         y="213.8679"
         font-family="'Nokia Eurostile'"
         stroke-width="0.072644"
         id="tspan52" /></text>
    <g
       transform="matrix(0.035278,0,0,-0.035278,2485.7,-250.13)"
       id="g73">
      <g
         clip-path="url(#clipPath22)"
         id="g72">
        <path
           d="m 234.95,3019 h 1762.2 V 1256.8 H 234.95 V 3019"
           fill="url(#linearGradient32)"
           id="path72"
           style="fill:url(#linearGradient32)" />
      </g>
    </g>
    <path
       d="m 2485.7,-347.83 h 58.148 v 58.149 H 2485.7 v -58.149"
       fill="#f66b42"
       fill-rule="evenodd"
       id="path73" />
    <path
       d="m 2493.4,-340.09 h 42.682 v 42.682 H 2493.4 v -42.682"
       fill="#f23901"
       fill-rule="evenodd"
       id="path74" />
    <g
       transform="matrix(0.035278,0,0,-0.035278,2485.7,-250.13)"
       id="g76">
      <g
         clip-path="url(#clipPath46)"
         id="g75">
        <path
           d="M 4172.6,3116.1 H 5671 V 1617.7 H 4172.6 v 1498.4"
           fill="url(#linearGradient52)"
           id="path75"
           style="fill:url(#linearGradient52)" />
      </g>
    </g>
    <g
       transform="matrix(0.035278,0,0,-0.035278,2485.7,-250.13)"
       id="g78">
      <g
         clip-path="url(#clipPath62)"
         id="g77">
        <path
           d="M 4371.8,2916.8 H 5471.7 V 1816.9 H 4371.8 v 1099.9"
           fill="url(#linearGradient70)"
           id="path76"
           style="fill:url(#linearGradient70)" />
      </g>
    </g>
    <path
       d="m 2572,-371.25 h 73.69 v 73.69 H 2572 v -73.69"
       fill="#00209b"
       fill-rule="evenodd"
       id="path78" />
    <g
       transform="matrix(0.035278,0,0,-0.035278,2485.7,-250.13)"
       id="g80">
      <g
         clip-path="url(#clipPath82)"
         id="g79">
        <path
           d="M 2724.6,3155.5 H 4257.8 V 1622.3 H 2724.6 v 1533.2"
           fill="url(#linearGradient88)"
           id="path79"
           style="fill:url(#linearGradient88)" />
      </g>
    </g>
    <g
       transform="matrix(0.035278,0,0,-0.035278,2485.7,-250.13)"
       id="g82">
      <g
         clip-path="url(#clipPath98)"
         id="g81">
        <path
           d="m 988.33,3648.2 h 1954.6 v -87.27 H 988.33 v 87.27"
           fill="url(#linearGradient108)"
           id="path80"
           style="fill:url(#linearGradient108)" />
      </g>
    </g>
    <g
       transform="matrix(0.035278,0,0,-0.035278,2485.7,-250.13)"
       id="g84">
      <g
         clip-path="url(#clipPath118)"
         id="g83">
        <path
           d="m 988.33,3731.9 h 1954.6 v -83.77 H 988.33 v 83.77"
           fill="url(#linearGradient128)"
           id="path82"
           style="fill:url(#linearGradient128)" />
      </g>
    </g>
    <g
       transform="matrix(0.035278,0,0,-0.035278,2485.7,-250.13)"
       id="g86">
      <g
         clip-path="url(#clipPath138)"
         id="g85">
        <path
           d="M 1912.1,2326.6 H 3410.5 V 828.2 H 1912.1 v 1498.4"
           fill="url(#linearGradient144)"
           id="path84"
           style="fill:url(#linearGradient144)" />
      </g>
    </g>
    <g
       transform="matrix(0.035278,0,0,-0.035278,2485.7,-250.13)"
       id="g88">
      <g
         clip-path="url(#clipPath154)"
         id="g87">
        <path
           d="M 2111.3,2127.3 H 3211.2 V 1027.4 H 2111.3 v 1099.9"
           fill="url(#linearGradient162)"
           id="path86"
           style="fill:url(#linearGradient162)" />
      </g>
    </g>
    <path
       d="m 2521.7,-375.75 h 71.364 v 68.143 H 2521.7 v -68.143"
       fill="#00064e"
       fill-rule="evenodd"
       id="path88" />
    <g
       transform="matrix(0.035278,0,0,-0.035278,2485.7,-250.13)"
       id="g90">
      <g
         clip-path="url(#clipPath174)"
         id="g89">
        <path
           d="m 992.41,3560.9 h 1944.3 l -0.47,-2043 H 992.34 v 2043"
           fill="url(#linearGradient188)"
           id="path89"
           style="fill:url(#linearGradient188)" />
      </g>
    </g>
    <g
       transform="matrix(0.035278,0,0,-0.035278,2485.7,-250.13)"
       id="g92">
      <g
         clip-path="url(#clipPath198)"
         id="g91">
        <path
           d="m 795.37,3454.7 h 1926.1 l -0.1,-1699.9 212.92,-236.9 h -2139 v 1936.8"
           fill="url(#linearGradient204)"
           id="path90"
           style="fill:url(#linearGradient204)" />
      </g>
    </g>
    <g
       transform="matrix(0.035278,0,0,-0.035278,2485.7,-250.13)"
       id="g94">
      <g
         clip-path="url(#clipPath214)"
         id="g93">
        <path
           d="M 1102.1,1755.7 H 2721 l 108.34,-120.8 h -1727.3 v 120.8"
           fill="url(#linearGradient224)"
           id="path92"
           style="fill:url(#linearGradient224)" />
      </g>
    </g>
    <g
       transform="matrix(0.035278,0,0,-0.035278,2485.7,-250.13)"
       id="g96">
      <g
         clip-path="url(#clipPath234)"
         id="g95">
        <path
           d="m 987.75,3567.2 114.32,-111.24 -0.03,-1714 H 987.75 v 1825.3"
           fill="url(#linearGradient246)"
           id="path94"
           style="fill:url(#linearGradient246)" />
      </g>
    </g>
    <path
       d="m 2524.5,-372.12 h 57.171 v 60.047 H 2524.5 v -60.047"
       fill="#ffffff"
       fill-rule="evenodd"
       id="path96" />
    <g
       transform="matrix(0.035278,0,0,-0.035278,2485.7,-250.13)"
       id="g98">
      <g
         clip-path="url(#clipPath258)"
         id="g97">
        <path
           d="m 2810.6,1836.4 v -2 2"
           fill="url(#radialGradient264)"
           id="path97"
           style="fill:url(#radialGradient264)" />
      </g>
    </g>
    <g
       transform="matrix(0.035278,0,0,-0.035278,2485.7,-250.13)"
       id="g100">
      <g
         clip-path="url(#clipPath274)"
         id="g99">
        <path
           d="m 1104.2,1462.8 v 1.09 -1.09"
           fill="url(#radialGradient280)"
           id="path98"
           style="fill:url(#radialGradient280)" />
      </g>
    </g>
    <g
       transform="matrix(1.3729,0,0,1.3729,2347.9,-606.32)"
       id="g146">
      <path
         d="m 147.45,199.64 3.2812,-8.125 c 1.5625,-0.0859 4.0977,0.26563 5.668,0.64453 l -3.375,8.3594 c -1.5312,-0.37891 -4.043,-0.83985 -5.5742,-0.87891"
         fill="#3d87cf"
         id="path100" />
      <path
         d="m 162.2,195.43 -3.4102,8.3984 c -1.1406,-0.9375 -4.2656,-2.7188 -5.7656,-3.3086 l 3.375,-8.3594 c 1.5273,0.54297 4.7891,2.1797 5.8008,3.2695"
         fill="#fac705"
         id="path101" />
      <path
         d="m 165.54,187.65 -3.3477,7.7812 c -1.0938,-1 -4.2578,-2.707 -5.8008,-3.2695 l 3.3828,-8.375 c 1.543,0.51563 4.7617,2.7188 5.7656,3.8633"
         fill="#66c557"
         id="path102" />
      <path
         d="m 150.73,191.52 3.3281,-8.2227 c 1.5586,-0.0547 4.1562,0.19141 5.7226,0.49219 l -3.3828,8.375 c -1.5508,-0.42578 -4.1172,-0.67578 -5.668,-0.64453"
         fill="#f3632e"
         id="path103" />
      <path
         d="m 139.46,194.54 -1.6055,-0.0273 c 0.10937,-0.32422 0.25,-0.6875 0.38672,-0.99219 l 1.6211,-0.004 c -0.11719,0.33204 -0.25781,0.69141 -0.40234,1.0234"
         fill="#3d87cf"
         id="path104" />
      <path
         d="m 141.94,195.88 -2.0234,-0.0117 0.56641,-1.375 c 0.66797,-0.004 1.3438,0 2.0156,0.0234 l -0.55859,1.3633"
         fill="#3d87cf"
         id="path105" />
      <path
         d="m 145.3,195.54 c -0.23437,0.53906 -0.43359,1.1172 -0.67578,1.6602 l -2.2773,-0.0273 0.67187,-1.6484 2.2812,0.0156"
         fill="#3d87cf"
         id="path106" />
      <path
         d="m 137.3,192.89 -1.168,-0.008 c 0.0937,-0.26953 0.21094,-0.57031 0.33203,-0.83985 0.39844,-0.004 0.79688,-0.0273 1.1953,-0.0117 l -0.35938,0.85937"
         fill="#3d87cf"
         id="path107" />
      <path
         d="m 135.19,191.18 c -0.30078,0.008 -0.60547,0.0391 -0.90625,0.0312 l 0.29297,-0.71093 c 0.30078,-0.0156 0.60156,-0.0312 0.90234,-0.0312 L 135.19,191.18"
         fill="#3d87cf"
         id="path108" />
      <path
         d="m 140.52,191.9 -1.6094,-0.0195 0.38671,-0.98828 c 0.54688,0.0156 1.0938,-0.0156 1.6367,0.004 l -0.41406,1.0039"
         fill="#3d87cf"
         id="path109" />
      <path
         d="m 142.99,193.26 -2.0078,-0.008 0.54297,-1.3672 c 0.67578,-0.004 1.3516,-0.008 2.0274,0.008 l -0.5625,1.3672"
         fill="#3d87cf"
         id="path110" />
      <path
         d="m 145.7,194.55 -2.2852,-0.0508 0.66406,-1.6211 2.2774,0.0234 -0.65625,1.6484"
         fill="#3d87cf"
         id="path111" />
      <path
         d="m 138.41,190.16 c -0.39063,-0.0117 -0.79297,0.0195 -1.1875,-0.004 l 0.35937,-0.88672 1.1641,0.0312 c -0.0859,0.27734 -0.20703,0.58203 -0.33594,0.85938"
         fill="#3d87cf"
         id="path112" />
      <path
         d="m 136.29,188.46 -0.90235,0.0195 0.27735,-0.70703 c 0.29297,-0.0273 0.60937,-0.0273 0.91406,-0.0273 l -0.28906,0.71484"
         fill="#3d87cf"
         id="path113" />
      <path
         d="m 142.71,186.48 -1.6133,-0.0117 0.39453,-1.0078 c 0.54297,0.008 1.0859,0 1.6328,0.0117 l -0.41406,1.0078"
         fill="#f3632e"
         id="path114" />
      <path
         d="m 143.18,187.84 0.54297,-1.3828 h 2.0117 L 145.1917,187.84 H 143.18"
         fill="#f3632e"
         id="path115" />
      <path
         d="m 147.92,189.04 -2.2852,-0.0156 0.66015,-1.6445 2.2812,0.008 -0.65625,1.6523"
         fill="#f3632e"
         id="path116" />
      <path
         d="m 140.61,184.72 c -0.38281,0.0195 -0.78515,0 -1.1758,0.008 l 0.32813,-0.875 c 0.38281,-0.0312 0.78906,0.0156 1.1758,0.004 l -0.32813,0.86328"
         fill="#f3632e"
         id="path117" />
      <path
         d="m 138.48,183.01 c -0.30078,0.008 -0.60156,0.0391 -0.90625,0.0273 l 0.29688,-0.71094 0.89453,-0.043 -0.28516,0.72656"
         fill="#f3632e"
         id="path118" />
      <path
         d="m 143.8,183.78 c -0.53906,0 -1.0781,-0.008 -1.6172,-0.0312 l 0.39844,-0.98828 c 0.54297,0.008 1.0859,-0.0117 1.6289,0.004 l -0.41016,1.0156"
         fill="#f3632e"
         id="path119" />
      <path
         d="m 146.27,185.14 c -0.67187,0 -1.3477,0.0117 -2.0234,-0.008 l 0.5625,-1.375 c 0.67578,-0.008 1.3477,0.004 2.0234,0.008 l -0.5625,1.375"
         fill="#f3632e"
         id="path120" />
      <path
         d="m 148.96,186.45 -2.2695,-0.0234 0.66016,-1.6524 2.2852,0.0156 -0.67578,1.6602"
         fill="#f3632e"
         id="path121" />
      <path
         d="m 141.69,182.02 h -1.1797 l 0.34765,-0.88672 c 0.39844,0.0195 0.78907,0 1.1836,0.0234 l -0.35156,0.86328"
         fill="#f3632e"
         id="path122" />
      <path
         d="m 139.58,180.3 -0.90625,0.0391 0.28125,-0.71484 c 0.30078,-0.0352 0.60547,-0.0195 0.90625,-0.0391 l -0.28125,0.71485"
         fill="#f3632e"
         id="path123" />
      <path
         d="m 138.44,197.3 c -0.63672,0.008 -1.2773,0.004 -1.918,-0.0156 l 0.45703,-1.1328 c 0.64063,0 1.2852,0.0195 1.9336,0.0117 l -0.47266,1.1367"
         id="path124" />
      <path
         d="m 153.11,184.74 -2.8711,0.0195 1.0078,-2.5039 c 0.97656,-0.10938 1.9609,-0.21485 2.9414,-0.1836 l -1.0781,2.668"
         id="path125" />
      <path
         d="m 140.71,177.73 -1.0898,0.0234 0.31641,-0.8086 c 0.36718,-0.008 0.73437,-0.0234 1.1016,-0.0234 l -0.32813,0.8086"
         id="path126" />
      <path
         d="m 142.88,179.33 c -0.48438,-0.0156 -0.96875,-0.0117 -1.457,-0.0312 l 0.38281,-0.9375 c 0.48828,0.0156 0.97656,-0.008 1.4648,0.0234 l -0.39062,0.94531"
         id="path127" />
      <path
         d="m 150.19,183.86 -2.7148,-0.0117 0.78906,-1.9727 2.7188,0.0234 -0.79297,1.9609"
         id="path128" />
      <path
         d="m 145.1,182.48 0.58985,-1.4922 2.3945,0.004 -0.60157,1.5039 -2.3828,-0.0156"
         id="path129" />
      <path
         d="m 144.98,181.11 -1.9219,-0.0156 0.44532,-1.125 c 0.64062,0 1.2852,-0.0234 1.9336,0 l -0.45703,1.1406"
         id="path130" />
      <path
         d="m 152.06,187.35 c -0.95703,0.0234 -1.918,0.0391 -2.8789,0.043 l 0.9375,-2.3164 2.8633,-0.0117 -0.92187,2.2852"
         id="path131" />
      <path
         d="m 150.98,190.01 -2.8711,0.0391 -0.0156,-0.008 0.92968,-2.3164 2.8945,-0.043 -0.9375,2.3281"
         id="path132" />
      <path
         d="m 136.37,185.81 0.31641,-0.80078 1.1055,-0.0391 -0.32422,0.82421 -1.0977,0.0156"
         id="path133" />
      <path
         d="m 147.04,192.68 0.92578,-2.3086 2.875,-0.0352 -0.91797,2.3125 -2.8828,0.0312"
         id="path134" />
      <path
         d="m 139.59,187.47 -1.457,-0.0195 0.38281,-0.9375 c 0.48828,0.0156 0.97265,-0.008 1.4609,0.0234 l -0.38672,0.93359"
         id="path135" />
      <path
         d="m 146.91,191.97 -2.7148,-0.0195 0.78125,-1.9609 2.7226,0.0234 -0.78906,1.957"
         id="path136" />
      <path
         d="m 144.2,190.63 -2.3711,-0.008 -0.0195,-0.008 0.60547,-1.4883 2.3906,0.004 -0.60547,1.5"
         id="path137" />
      <path
         d="m 141.69,189.26 -1.918,-0.0195 0.44141,-1.125 c 0.64843,-0.008 1.3008,-0.004 1.9492,0.008 l -0.47266,1.1367"
         id="path138" />
      <path
         d="m 148.84,195.33 -0.0117,0.0273 -2.875,0.0352 0.94141,-2.3711 2.8906,-0.0312 -0.94532,2.3398"
         id="path139" />
      <path
         d="m 147.76,198 -2.8828,0.0703 -0.0195,-0.008 0.95703,-2.3477 2.8711,-0.0273 -0.92578,2.3125"
         id="path140" />
      <path
         d="m 134.17,193.94 c -0.36328,-0.0117 -0.72656,0.0234 -1.0898,0 l 0.31641,-0.77344 c 0.37109,-0.0312 0.74219,-0.0234 1.1172,-0.0391 l -0.34375,0.8125"
         id="path141" />
      <path
         d="m 146.61,200.84 c -0.96094,-0.0234 -1.918,-0.0312 -2.8828,0.0469 l 1.0039,-2.4922 2.8945,-0.0508 -1.0156,2.4961"
         id="path142" />
      <path
         d="m 136.31,195.62 -1.4688,0.008 0.36328,-0.93359 c 0.4961,0 0.98438,-0.0156 1.4805,-0.004 l -0.375,0.92969"
         id="path143" />
      <path
         d="m 143.65,200.04 -2.7031,-0.0391 0.79297,-1.957 2.7031,0.0273 -0.79297,1.9688"
         id="path144" />
      <path
         d="m 138.57,198.67 0.60546,-1.5078 2.3789,0.0156 -0.60547,1.5117 -2.3789,-0.0195"
         id="path145" />
      <path
         d="m 164.05,188.08 c -1.0039,-1.1445 -2.3984,-1.957 -3.9414,-2.4688 l -2.4141,5.9727 c 1.5391,0.56641 2.8984,1.3438 3.9922,2.3398 z m -3.1328,7.793 c -1.0117,-1.0898 -2.4609,-1.8633 -3.9844,-2.4062 l -2.4531,6.1016 c 1.4961,0.58984 2.8984,1.2891 4.0391,2.2266 z m 6.2031,-8.4883 -7.668,18.977 c -1.9883,-2.7109 -5.4453,-4.4219 -8.918,-5.0703 -1.1953,-0.21875 -2.3945,-0.38281 -3.5898,-0.42969 l 1.0039,-2.4688 c 1.5312,0.043 3.0664,0.22266 4.5977,0.60547 l 2.4766,-6.1367 c -1.5703,-0.3789 -3.1367,-0.42578 -4.6992,-0.33984 l 0.80469,-2.0156 c 1.5469,-0.0312 3.0977,0.0664 4.6484,0.49218 l 2.3906,-5.9102 c -1.5664,-0.30469 -3.1328,-0.41407 -4.6914,-0.35938 l 1.0703,-2.6719 c 3.5547,-0.0156 7.668,0.97656 10.582,3.3359 0.73828,0.58594 1.418,1.2344 1.9922,1.9922"
         id="path146" />
    </g>
  </g>
  <style
     type="text/css"
     id="style147">.st0{fill:#E7E7E7;}</style>
</svg>
