<?xml version="1.0" encoding="UTF-8" standalone="no"?>
<svg
   width="1079.9"
   height="933.70001"
   version="1.1"
   viewBox="0 0 1079.9 933.69"
   id="svg48"
   xmlns="http://www.w3.org/2000/svg"
   xmlns:svg="http://www.w3.org/2000/svg">
  <defs
     id="defs48" />
  <g
     transform="translate(-4.1551e-5,-1.127e-5)"
     id="g48">
    <path
       d="M 455.8191,720.58152 559.8922,462.87277 c 49.55938,-2.72458 129.97085,8.42525 179.77763,20.4432 L 632.62158,748.45942 C 584.05497,736.44115 504.3857,721.82106 455.8191,720.58215"
       fill="#3d87cf"
       id="path1"
       style="fill:#6060df;fill-opacity:1;stroke-width:31.718" />
    <path
       d="M 923.6596,587.04874 815.49488,853.42919 C 779.31733,823.69357 680.19858,767.19429 632.62158,748.48702 L 739.66983,483.34357 c 48.4429,17.22192 151.90067,69.13572 183.98977,103.702"
       fill="#fac705"
       id="path2"
       style="fill:#bfbf00;fill-opacity:1;stroke-width:31.718" />
    <path
       d="M 1029.5977,340.2827 923.41537,587.0868 C 888.72222,555.3688 788.36647,501.22618 739.4256,483.3848 L 846.72125,217.74655 c 48.94087,16.35475 151.0316,86.2349 182.87325,122.53615"
       fill="#66c557"
       id="path3"
       style="fill:#60df60;fill-opacity:1;stroke-width:31.718" />
    <path
       d="m 559.85414,463.03136 105.56068,-260.8076 c 49.43567,-1.73497 131.82635,6.07114 181.50942,15.61128 L 739.62859,483.47329 C 690.44032,469.9684 609.03924,462.0389 559.85097,463.03009"
       fill="#f3632e"
       id="path4"
       style="fill:#ff7f00;fill-opacity:1;stroke-width:31.718" />
    <path
       d="m 202.39228,558.81972 -50.92325,-0.8659 c 3.469,-10.28361 7.9295,-21.80613 12.26599,-31.47028 l 51.41805,-0.12688 c -3.71704,10.53165 -8.17722,21.93015 -12.76142,32.46021"
       fill="#3d87cf"
       id="path5"
       style="fill:#6060df;fill-opacity:1;stroke-width:31.718" />
    <path
       d="m 281.05292,601.32184 -64.1782,-0.3711 17.96539,-43.61225 c 21.18667,-0.12687 42.62265,0 63.9308,0.7422 l -17.71736,43.24115"
       fill="#3d87cf"
       id="path6"
       style="fill:#6060df;fill-opacity:1;stroke-width:31.718" />
    <path
       d="m 387.6254,590.53772 c -7.43375,17.09791 -13.75261,35.43535 -21.43439,52.65822 l -72.2314,-0.8659 21.31037,-52.28395 72.3551,0.4948"
       fill="#3d87cf"
       id="path7"
       style="fill:#6060df;fill-opacity:1;stroke-width:31.718" />
    <path
       d="m 133.8814,506.48502 -37.046624,-0.25374 c 2.971977,-8.54896 6.690594,-18.0891 10.531324,-26.63837 12.63772,-0.12687 25.27544,-0.8659 37.91253,-0.3711 l -11.39882,27.2575"
       fill="#3d87cf"
       id="path8"
       style="fill:#6060df;fill-opacity:1;stroke-width:31.718" />
    <path
       d="m 66.95642,452.24724 c -9.54014,0.25374 -19.204297,1.24017 -28.744438,0.9896 l 9.292423,-22.54928 c 9.54014,-0.4948 19.08028,-0.9896 28.62042,-0.9896 l -9.168405,22.54928"
       fill="#3d87cf"
       id="path9"
       style="fill:#6060df;fill-opacity:1;stroke-width:31.718" />
    <path
       d="m 236.01336,475.0842 -51.04695,-0.6185 12.26567,-31.34627 c 17.34594,0.4948 34.69315,-0.4948 51.91285,0.12688 l -13.13316,31.8417"
       fill="#3d87cf"
       id="path10"
       style="fill:#6060df;fill-opacity:1;stroke-width:31.718" />
    <path
       d="m 314.35682,518.22068 -63.6834,-0.25374 17.22192,-43.36485 c 21.43439,-0.12688 42.87005,-0.25375 64.30508,0.25374 l -17.84138,43.36485"
       fill="#3d87cf"
       id="path11"
       style="fill:#6060df;fill-opacity:1;stroke-width:31.718" />
    <path
       d="m 400.3126,559.1369 -72.48197,-1.61127 21.06265,-51.41805 72.23457,0.7422 -20.81493,52.28395"
       fill="#3d87cf"
       id="path12"
       style="fill:#6060df;fill-opacity:1;stroke-width:31.718" />
    <path
       d="m 169.08838,419.89488 c -12.39,-0.3711 -25.15142,0.6185 -37.66513,-0.12687 l 11.3985,-28.12499 36.92293,0.9896 c -2.72458,8.79667 -6.56658,18.46083 -10.65535,27.25782"
       fill="#3d87cf"
       id="path13"
       style="fill:#6060df;fill-opacity:1;stroke-width:31.718" />
    <path
       d="m 101.84622,365.97428 -28.620737,0.6185 8.796987,-22.42558 c 9.292422,-0.8659 19.328,-0.8659 28.99216,-0.8659 l -9.16841,22.6733"
       fill="#3d87cf"
       id="path14"
       style="fill:#6060df;fill-opacity:1;stroke-width:31.718" />
    <path
       d="m 305.47578,303.17264 -51.17065,-0.3711 12.5137,-31.9654 c 17.22193,0.25374 34.44258,0 51.78915,0.3711 l -13.13315,31.9654"
       fill="#f3632e"
       id="path15"
       style="fill:#ff7f00;fill-opacity:1;stroke-width:31.718" />
    <path
       d="m 320.38324,346.30912 17.22192,-43.85965 h 63.8071 l -17.22192,43.85965 h -63.8071"
       fill="#f3632e"
       id="path16"
       style="fill:#ff7f00;fill-opacity:1;stroke-width:31.718" />
    <path
       d="m 470.72656,384.37072 -72.48197,-0.4948 20.93863,-52.16025 72.35511,0.25374 -20.81494,52.40765"
       fill="#f3632e"
       id="path17"
       style="fill:#ff7f00;fill-opacity:1;stroke-width:31.718" />
    <path
       d="m 238.86798,247.34896 c -12.14197,0.6185 -24.90339,0 -37.29402,0.25374 l 10.40762,-27.75325 c 12.14197,-0.9896 25.02741,0.4948 37.29403,0.12688 l -10.40763,27.38151"
       fill="#f3632e"
       id="path18"
       style="fill:#ff7f00;fill-opacity:1;stroke-width:31.718" />
    <path
       d="m 171.30864,193.11118 c -9.54014,0.25374 -19.08028,1.24017 -28.74444,0.8659 l 9.41644,-22.54959 28.3727,-1.36388 -9.0447,23.04503"
       fill="#f3632e"
       id="path19"
       style="fill:#ff7f00;fill-opacity:1;stroke-width:31.718" />
    <path
       d="m 340.0484,217.53404 c -17.09791,0 -34.19518,-0.25374 -51.29435,-0.9896 l 12.63772,-31.34627 c 17.22192,0.25375 34.44258,-0.3711 51.66545,0.12688 l -13.00945,32.2128"
       fill="#f3632e"
       id="path20"
       style="fill:#ff7f00;fill-opacity:1;stroke-width:31.718" />
    <path
       d="m 418.39186,260.67052 c -21.31037,0 -42.74635,0.3711 -64.1782,-0.25374 l 17.84137,-43.61225 c 21.43439,-0.25375 42.74635,0.12687 64.17821,0.25374 l -17.84138,43.61225"
       fill="#f3632e"
       id="path21"
       style="fill:#ff7f00;fill-opacity:1;stroke-width:31.718" />
    <path
       d="m 503.71328,302.2211 -71.984,-0.7422 20.93895,-52.41082 72.48198,0.4948 -21.43439,52.65822"
       fill="#f3632e"
       id="path22"
       style="fill:#ff7f00;fill-opacity:1;stroke-width:31.718" />
    <path
       d="M 273.12342,161.71036 H 235.7057 l 11.02676,-28.12498 c 12.63772,0.6185 25.02772,0 37.54142,0.7422 l -11.15078,27.38151"
       fill="#f3632e"
       id="path23"
       style="fill:#ff7f00;fill-opacity:1;stroke-width:31.718" />
    <path
       d="m 206.19844,107.1554 -28.74444,1.24017 8.92069,-22.673291 c 9.54014,-1.116474 19.2043,-0.618501 28.74444,-1.240174 l -8.92069,22.673615"
       fill="#f3632e"
       id="path24"
       style="fill:#ff7f00;fill-opacity:1;stroke-width:31.718" />
    <path
       d="m 170.03992,646.3614 c -20.19548,0.25374 -40.5134,0.12687 -60.83512,-0.4948 l 14.49607,-35.93015 c 20.31951,0 40.76398,0.6185 61.32993,0.3711 l -14.99183,36.05385"
       id="path25"
       style="fill:#000000;fill-opacity:1;stroke-width:31.718" />
    <path
       d="m 635.34298,247.98332 -91.06555,0.6185 31.9654,-79.4187 c 30.97453,-3.46931 62.19583,-6.81461 93.29533,-5.82342 l -34.19518,84.62362"
       id="path26"
       style="fill:#000000;fill-opacity:1;stroke-width:31.718" />
    <path
       d="M 242.03978,25.64014 207.4735,26.382341 217.5094,0.7351664 c 11.64621,-0.253744 23.29274,-0.7422012 34.94054,-0.7422012 L 242.04232,25.64014"
       id="path27"
       style="fill:#000000;fill-opacity:1;stroke-width:31.718" />
    <path
       d="m 310.86784,76.38894 c -15.36356,-0.494801 -30.72681,-0.371101 -46.21313,-0.989602 l 12.14197,-29.735625 c 15.48727,0.494801 30.97453,-0.253744 46.46053,0.742202 l -12.38969,29.983342"
       id="path28"
       style="fill:#000000;fill-opacity:1;stroke-width:31.718" />
    <path
       d="m 542.72642,220.07148 -86.10803,-0.3711 25.02741,-62.5701 86.2349,0.7422 -25.15143,62.19583"
       id="path29"
       style="fill:#000000;fill-opacity:1;stroke-width:31.718" />
    <path
       d="m 381.2818,176.30064 18.70886,-47.3296 75.94875,0.12687 -19.08059,47.7007 -75.57765,-0.4948"
       id="path30"
       style="fill:#000000;fill-opacity:1;stroke-width:31.718" />
    <path
       d="m 377.47564,132.84698 -60.95882,-0.4948 14.12466,-35.682751 c 20.31918,0 40.76397,-0.742201 61.32992,0 l -14.49608,36.177551"
       id="path31"
       style="fill:#000000;fill-opacity:1;stroke-width:31.718" />
    <path
       d="m 602.03908,330.7673 c -30.35508,0.7422 -60.83512,1.24017 -91.31295,1.36387 l 29.73562,-73.47157 90.81815,-0.3711 -29.23987,72.48197"
       id="path32"
       style="fill:#000000;fill-opacity:1;stroke-width:31.718" />
    <path
       d="m 567.78364,415.13718 -91.06555,1.24017 -0.4948,-0.25374 29.48759,-73.47158 91.80775,-1.36387 -29.73562,73.84268"
       id="path33"
       style="fill:#000000;fill-opacity:1;stroke-width:31.718" />
    <path
       d="m 104.38366,281.92158 10.03589,-25.39914 35.06425,-1.24017 -10.28361,26.14229 -34.81685,0.4948"
       id="path34"
       style="fill:#000000;fill-opacity:1;stroke-width:31.718" />
    <path
       d="m 442.81472,499.82424 29.36389,-73.22417 91.18925,-1.11648 -29.11617,73.34788 -91.43665,0.9896"
       id="path35"
       style="fill:#000000;fill-opacity:1;stroke-width:31.718" />
    <path
       d="m 206.51562,334.57346 -46.21313,-0.6185 12.14197,-29.73563 c 15.48727,0.4948 30.85051,-0.25374 46.33683,0.74221 l -12.26599,29.6116"
       id="path36"
       style="fill:#000000;fill-opacity:1;stroke-width:31.718" />
    <path
       d="m 438.69138,477.30446 -86.10803,-0.6185 24.77969,-62.19583 86.35543,0.7422 -25.02741,62.07213"
       id="path37"
       style="fill:#000000;fill-opacity:1;stroke-width:31.718" />
    <path
       d="m 352.7356,434.80234 -75.20655,-0.25374 -0.6185,-0.25375 19.2043,-47.2059 75.82505,0.12687 -19.2043,47.577"
       id="path38"
       style="fill:#000000;fill-opacity:1;stroke-width:31.718" />
    <path
       d="m 273.12342,391.34868 -60.83512,-0.6185 14.00064,-35.68275 c 20.5669,-0.25375 41.25877,-0.12687 61.82472,0.25374 l -14.99183,36.05385"
       id="path39"
       style="fill:#000000;fill-opacity:1;stroke-width:31.718" />
    <path
       d="m 499.90712,583.87694 -0.3711,0.8659 -91.18925,1.11647 29.85964,-75.20654 91.68405,-0.98961 -29.98366,74.21378"
       id="path40"
       style="fill:#000000;fill-opacity:1;stroke-width:31.718" />
    <path
       d="m 465.65168,668.564 -91.43665,2.22978 -0.6185,-0.25375 30.35508,-74.46435 91.06555,-0.8659 -29.36389,73.34788"
       id="path41"
       style="fill:#000000;fill-opacity:1;stroke-width:31.718" />
    <path
       d="m 34.60406,539.78892 c -11.522515,-0.3711 -23.04503,0.7422 -34.5662764,0 L 10.073676,515.25695 c 11.770233,-0.9896 23.540782,-0.7422 35.43535,-1.24017 l -10.903063,25.77087"
       id="path42"
       style="fill:#000000;fill-opacity:1;stroke-width:31.718" />
    <path
       d="m 429.17598,758.64312 c -30.47909,-0.7422 -60.83512,-0.9896 -91.43665,1.48757 l 31.8417,-79.0476 91.80775,-1.61127 -32.2128,79.1713"
       id="path43"
       style="fill:#000000;fill-opacity:1;stroke-width:31.718" />
    <path
       d="m 102.48058,593.07516 -46.587398,0.25374 11.522515,-29.6116 c 15.735299,0 31.222564,-0.4948 46.958503,-0.12688 l -11.89425,29.48791"
       id="path44"
       style="fill:#000000;fill-opacity:1;stroke-width:31.718" />
    <path
       d="m 335.2907,733.26872 -85.73693,-1.24017 25.15143,-62.07213 85.73692,0.8659 -25.15142,62.4464"
       id="path45"
       style="fill:#000000;fill-opacity:1;stroke-width:31.718" />
    <path
       d="m 174.16326,689.81506 19.20398,-47.8244 75.45395,0.4948 -19.2043,47.9481 -75.45395,-0.6185"
       id="path46"
       style="fill:#000000;fill-opacity:1;stroke-width:31.718" />
    <path
       d="m 982.3379,353.92144 c -31.8417,-36.30125 -76.07245,-62.07213 -125.01333,-78.3054 l -76.57042,189.4421 c 48.81717,17.96539 91.93145,42.62265 126.6246,74.21378 z m -99.36615,247.17837 c -32.0891,-34.56627 -78.05483,-59.10015 -126.3772,-76.31985 l -77.80743,193.53055 c 47.4533,18.70855 91.93146,40.88767 128.11218,70.6233 z M 1079.7217,331.86791 836.50805,933.7804 C 773.44315,847.79607 663.79403,793.52658 553.64693,772.96063 515.7344,766.02231 477.69818,760.81866 439.78565,759.33172 l 31.8417,-78.3054 c 48.5666,1.36387 97.26008,7.06233 145.82985,19.2043 L 696.01,505.58677 C 646.20322,493.56882 596.52015,492.08188 546.96077,494.80772 l 25.52316,-63.9308 c 49.06457,-0.9896 98.25285,2.10608 147.43795,15.61097 L 795.74693,259.02816 C 746.06386,249.364 696.38078,245.89469 646.94511,247.62935 l 33.94777,-84.74733 c 112.74798,-0.4948 243.21363,30.97453 335.63992,105.80808 23.4167,18.58484 44.9761,39.1527 63.1886,63.1886"
       fill-rule="evenodd"
       id="path47"
       style="fill:#000000;fill-opacity:1;stroke-width:31.718" />
  </g>
</svg>
