<?xml version="1.0" encoding="UTF-8"?>
<svg width="2240.6" height="1918.4" version="1.1" viewBox="-10 0 2240.6 1918.4" xmlns="http://www.w3.org/2000/svg" xmlns:xlink="http://www.w3.org/1999/xlink">
 <defs>
  <linearGradient id="linearGradient5320" x1="48.898" x2="62.128" y1="833.4" y2="841.15" gradientTransform="matrix(22.617 0 0 22.617 -625.33 -18078)" gradientUnits="userSpaceOnUse">
   <stop stop-color="#1a1a1a" offset="0"/>
   <stop stop-color="#223f37" offset=".4379"/>
   <stop stop-color="#1a1a1a" offset="1"/>
  </linearGradient>
  <linearGradient id="linearGradient4709" x1="71.064" x2="110.22" y1="836.11" y2="850.41" gradientTransform="matrix(22.617 0 0 22.617 -625.33 -18078)" gradientUnits="userSpaceOnUse">
   <stop stop-color="#666" offset="0"/>
   <stop stop-color="#1a1a1a" offset=".28021"/>
   <stop offset=".46457"/>
   <stop stop-color="#025101" offset=".64958"/>
   <stop stop-color="#1a1a1a" offset=".81049"/>
   <stop stop-color="#1a1a1a" offset="1"/>
  </linearGradient>
  <filter id="filter5310" x="-.83972" y="-.51898" width="2.6794" height="2.038" color-interpolation-filters="sRGB">
   <feGaussianBlur stdDeviation="2.7118943"/>
  </filter>
  <linearGradient id="linearGradient4709-2" x1="71.064" x2="110.22" y1="836.11" y2="850.41" gradientTransform="translate(1.1298 -3.6721)" gradientUnits="userSpaceOnUse">
   <stop stop-color="#666" offset="0"/>
   <stop stop-color="#1a1a1a" offset=".28021"/>
   <stop offset=".46457"/>
   <stop stop-color="#ff0" offset=".64958"/>
   <stop stop-color="#1a1a1a" offset=".81049"/>
   <stop stop-color="#1a1a1a" offset="1"/>
  </linearGradient>
  <filter id="filter5204" x="-.1221" y="-.13672" width="1.2442" height="1.2734" color-interpolation-filters="sRGB">
   <feGaussianBlur stdDeviation="2.4292108"/>
  </filter>
  <linearGradient id="linearGradient4727" x1="81.888" x2="90.842" y1="823.68" y2="826.08" gradientTransform="matrix(22.617 0 0 22.617 -625.33 -18078)" gradientUnits="userSpaceOnUse">
   <stop stop-color="#f8682c" offset="0"/>
   <stop stop-color="#ff9763" offset="1"/>
  </linearGradient>
  <linearGradient id="linearGradient4765" x1="102.31" x2="95.128" y1="832.74" y2="828.86" gradientTransform="matrix(22.617 0 0 22.617 -625.33 -18078)" gradientUnits="userSpaceOnUse">
   <stop stop-color="#91c300" offset="0"/>
   <stop stop-color="#0f0" offset="1"/>
  </linearGradient>
  <linearGradient id="linearGradient4803" x1="96.722" x2="90.04" y1="855.22" y2="851.61" gradientTransform="matrix(22.617 0 0 22.617 -625.33 -18078)" gradientUnits="userSpaceOnUse">
   <stop stop-color="#ed9e1a" offset="0"/>
   <stop stop-color="#ebcd10" offset="1"/>
  </linearGradient>
  <linearGradient id="linearGradient4841" x1="73.67" x2="80.418" y1="848.07" y2="850.61" gradientTransform="matrix(22.617 0 0 22.617 -625.33 -18078)" gradientUnits="userSpaceOnUse">
   <stop stop-color="#3690ea" offset="0"/>
   <stop stop-color="#58c2ec" offset="1"/>
  </linearGradient>
  <clipPath id="clipPath6007">
   <path d="m1576.8 316.41-68.934-12.676c-95.614-17.581-198.19-25.217-307.48-23.455l-198.38 511.39 26.716-1.6673c99.094-6.1865 199.34 2.2026 301.34 25.427l48.835 11.12z" fill="#f00"/>
  </clipPath>
  <clipPath id="clipPath6030">
   <path d="m1665.5 347.69c-13.19-5.1169-26.666-9.4993-40.385-13.14l-50.176-13.316-196.52 506.6 92.646 33.301c76.822 29.849 147.58 71.198 212.98 124.61l61.869 50.527 193.34-498.39-23.901-26.522c-62.757-69.634-147-123.76-249.84-163.66z" color="#000000" fill="#008000"/>
  </clipPath>
  <clipPath id="clipPath6426">
   <path d="m1377.1 831.24-63.938-15.856c-92.284-22.886-196.22-29.903-311.56-22.656l-197.96 510.3 22.949-0.1538c94.595-0.636 194.68 11.074 300.4 35.528l48.968 11.327z" fill="#00f"/>
  </clipPath>
  <clipPath id="clipPath6432">
   <path d="m1468.1 862.11c-13.19-5.1169-27.062-9.6592-41.636-13.699l-50.581-14.02-199.1 513.23 91.366 35.444c85.648 33.226 157.51 73.35 216.27 119.76l61.624 48.677 196.2-505.76-26.925-26.744c-67.558-67.104-150.63-119.42-247.21-156.88z" color="#000000" fill="#ff0"/>
  </clipPath>
  <clipPath id="clipPath10983">
   <path d="m352.32-157.45-73.885 2.4434-20.979 54.074 73.523-1.5117zm148.42 92.973-98.793 0.29102-24.594 63.396 98.43 0.64257zm144.8 102.3-128.3 1.7129-29.297 75.516 127.94-0.7793zm177.08 63.334-160.98 2.9805-38.699 99.758 160.62-2.0508zm190.17 54.467-179.36 3.3594-50.994 131.46 179.36-3.3594zm213.07 6.502c-61.032 0.63668-126.52 6.3369-196.48 17.096l-65.1 167.81 191.78-4.9746zm-77.037 198.58-191.78 4.9746-60.76 156.63 192.14-5.9062zm-1003.4 15.125-74.246 3.375-20.615 53.143 73.523-1.5117zm145.89 99.5-98.793 0.28906-24.594 63.396 98.793-0.28906zm789.51 60.648-192.14 5.9062-61.123 157.56 192.14-5.9082zm-644.71 41.646-128.3 1.7129-29.295 75.518 127.94-0.78125zm176.72 64.266-160.25 1.1172-39.061 100.69 160.25-1.1172zm190.54 53.535-178.99 2.4277-50.996 131.46 178.99-2.4277zm208.73 17.689-191.78 4.9766-60.762 156.63 192.14-5.9082zm-67.994 175.27-192.14 5.9082-62.57 161.29 192.51-6.8399zm-1008.5 28.178-74.609 4.3086-20.615 53.141 73.523-1.5097zm145.17 101.37-99.516 2.1543-24.594 63.396 99.516-2.1543zm793.49 50.393-192.14 5.9082-61.484 158.49 192.87-7.7735zm-646.15 45.377-128.3 1.7129-29.656 76.449 128.3-1.7129zm177.08 63.334-160.97 2.9805-38.699 99.758 160.61-2.0508zm190.17 54.467-178.99 2.4277-50.996 131.46 178.99-2.4277zm210.54 13.027-192.51 6.8399-65.461 168.75c54.297-5.3947 118.58-7.9853 192.87-7.7714z"/>
  </clipPath>
  <clipPath id="clipPath17225">
   <path d="m1706.9 238.25c-139.22-54.008-292.7-79.582-460.42-76.715l-68.718 177.14c114.98-3.3062 221.53 4.0618 319.64 22.102l-154.43 398.09c-107.1-24.386-213.05-33.307-317.84-26.764l-46.656 120.27c121.84-9.9389 228.75-3.5041 320.73 19.305l-159.14 410.21c-109.58-25.348-214.2-37.688-313.86-37.019l-65.101 167.82c184.06 8.4784 341.98 38.274 473.74 89.389 159.12 61.726 278.31 148.01 357.59 258.85l488.62-1259.5c-99.647-117.31-224.37-205.03-374.16-263.14zm-62.36 163.52c96.335 37.371 172.25 86.844 227.74 148.41l-151.54 390.64c-70.052-57.208-146.41-101.85-229.07-133.91l-37.654-13.535 156.24-402.76c11.67 3.097 23.099 6.8155 34.286 11.156zm-197.42 514.42c90.123 34.962 165.9 82.949 227.32 143.96l-154.07 397.16c-64.04-50.586-141.12-93.358-231.24-128.32l-37.292-14.467 159.14-410.21c12.913 3.5791 24.963 7.5388 36.151 11.879z"/>
  </clipPath>
 </defs>
 <g transform="translate(149.55 157.45)">
  <path d="m2081.1-157.45h-2240.6v1918.4h2240.6z" clip-path="url(#clipPath6432)" fill="url(#linearGradient4803)"/>
  <path d="m2081.1-157.45h-2240.6v1918.4h2240.6z" clip-path="url(#clipPath6030)" fill="url(#linearGradient4765)"/>
  <path d="m-159.55-157.45v1918.4h2240.6v-1918.4z" clip-path="url(#clipPath6426)" fill="url(#linearGradient4841)"/>
  <path d="m78.623 558.82-59.957 2.4844-18.807 48.48 60.318-3.416zm68.275 100.5-23.146 59.668 79.84-1.2051 22.424-57.803zm-138.44 80.371-60.68 4.3496-18.445 47.547 60.318-3.416zm361.07 23.156-108.06 2.0566-26.039 67.127 108.06-2.0586zm174.86 63.541-134.62 1.4062-35.805 92.299 134.62-1.4062zm-388.89 15.391-79.479 0.27344-22.785 58.736 79.84-1.207zm575.81 47.469-153 1.7832-42.678 110.01 152.28 0.082zm-429.41 47.941-108.42 2.9883-26.039 67.127 107.7-1.125zm174.86 63.541-134.98 2.3379-35.443 91.367 134.62-1.4062zm186.56 63.791-153 1.7832-43.039 110.95 153-1.7852z" fill="#3690ea"/>
  <path d="m66.942 558.82-59.957 2.4844-18.807 48.48 60.318-3.416zm68.275 100.5-23.146 59.668 79.84-1.2051 22.424-57.803zm-138.44 80.371-60.68 4.3496-18.445 47.547 60.318-3.416zm361.07 23.156-108.06 2.0566-26.039 67.127 108.06-2.0586zm174.86 63.541-134.62 1.4062-35.805 92.299 134.62-1.4062zm-388.89 15.391-79.479 0.27344-22.785 58.736 79.84-1.207zm575.81 47.469-153 1.7832-42.678 110.01 152.28 0.082zm-429.41 47.941-108.42 2.9883-26.039 67.127 107.7-1.125zm174.86 63.541-134.98 2.3379-35.443 91.367 134.62-1.4062zm186.56 63.791-153 1.7832-43.039 110.95 153-1.7852z" fill="#3690ea"/>
  <path d="m-159.55-157.45v1918.4h2240.6v-1918.4z" clip-path="url(#clipPath6007)" fill="url(#linearGradient4727)"/>
  <path d="m288.41 18.088-60.68 4.3477-18.809 48.48 60.32-3.416zm147.03 102.09-79.48 0.27344-22.785 58.734 79.48-0.27344zm-216.47 76.914-60.318 3.416-18.807 48.48 60.318-3.416zm359.98 25.953-108.06 2.0566-25.678 66.193 107.33-0.19141zm175.22 62.609-134.98 2.3379-35.805 92.299 134.98-2.3398zm-467.29 12.867-23.146 59.666 79.479-0.27149 22.424-57.805zm653.48 51.855-152.64 0.85156-43.039 110.94 153-1.7832zm-431.22 52.602-107.7 1.125-26.039 67.127 107.7-1.125zm175.22 62.609-134.62 1.4062-35.805 92.299 134.98-2.3379zm189.45 56.332-153 1.7852-42.678 110.01 152.64-0.85157z" fill="#edb663"/>
  <path d="m276.71 18.088-60.68 4.3477-18.809 48.48 60.32-3.416zm147.03 102.09-79.48 0.27344-22.785 58.734 79.48-0.27344zm-216.47 76.914-60.318 3.416-18.807 48.48 60.318-3.416zm359.98 25.953-108.06 2.0566-25.678 66.193 107.33-0.19141zm175.22 62.609-134.98 2.3379-35.805 92.299 134.98-2.3398zm-467.29 12.867-23.146 59.666 79.479-0.27149 22.424-57.805zm653.48 51.855-152.64 0.85156-43.039 110.94 153-1.7832zm-431.22 52.602-107.7 1.125-26.039 67.127 107.7-1.125zm175.22 62.609-134.62 1.4062-35.805 92.299 134.98-2.3379zm189.45 56.332-153 1.7852-42.678 110.01 152.64-0.85157z" fill="#e55f24"/>
  <g clip-path="url(#clipPath17225)">
   <path d="m2081.1 1760.9v-1918.4h-2240.6v1918.4z" clip-path="none" fill="url(#linearGradient4709)"/>
   <ellipse transform="matrix(22.617 0 0 22.617 -625.33 -18078)" cx="88.855" cy="817.49" rx="3.8754" ry="6.2705" fill="#a00" filter="url(#filter5310)" opacity=".60984" style="paint-order:stroke fill markers"/>
   <path transform="matrix(20.953 0 0 20.953 -527.06 -16634)" d="m99.188 873.5 10.991-26.739c-9.7968-10.852-21.982-16.171-36.614-15.893l-11.134 27.235c13.72-1.8206 25.896 3.3511 36.757 15.397z" fill="url(#linearGradient4709-2)" filter="url(#filter5204)" opacity=".60984"/>
   <path d="m1603.1 396.09-156.24 402.76 37.654 13.535c82.667 32.069 159.02 76.706 229.07 133.91l151.54-390.64c-55.488-61.569-131.4-111.04-227.74-148.41-11.188-4.34-22.617-8.0573-34.287-11.154z" fill="#808080"/>
   <path d="m1028.5 739.28c104.79-6.5434 210.74 2.3778 317.84 26.764l154.43-398.09c-98.117-18.04-204.67-25.41-319.64-22.104 0 0-144.38 372.17-152.62 393.43z" fill="#666"/>
   <path transform="translate(0,3e-5)" d="m1414.9 898.4-159.13 410.21 37.293 14.467c90.126 34.963 167.2 77.737 231.24 128.32l154.07-397.16c-61.422-61.011-137.2-109-227.32-143.96-11.188-4.3401-23.238-8.2998-36.15-11.879z" fill="#1a1a1a"/>
   <path transform="translate(0,3e-5)" d="m832.68 1240.2c99.658-0.6689 204.28 11.67 313.86 37.018l159.13-410.21c-91.977-22.809-198.89-29.244-320.73-19.305-24.883 64.117-152.26 392.5-152.26 392.5z" fill="#1a1a1a"/>
   <path transform="translate(0,3e-5)" d="m1405 908.27-159.13 410.21 37.293 14.467c90.126 34.963 167.2 77.737 231.24 128.32l154.07-397.16c-61.422-61.012-137.2-109-227.32-143.96-11.188-4.3401-23.238-8.2998-36.15-11.879z" fill="#666"/>
   <path transform="translate(0,3e-5)" d="m828.94 1251.2c99.658-0.6689 204.28 11.67 313.86 37.018l159.13-410.21c-91.977-22.809-198.89-29.244-320.73-19.305-24.883 64.117-152.26 392.5-152.26 392.5z" fill="#656565"/>
  </g>
  <path d="m2081.1-157.45h-2240.6v1918.4h2240.6z" clip-path="url(#clipPath10983)" fill="url(#linearGradient5320)"/>
 </g>
</svg>
