<?xml version="1.0" encoding="UTF-8" standalone="no"?>
<svg
   viewBox="0 0 1417.0458 936.49933"
   version="1.1"
   id="svg7"
   sodipodi:docname="Android J (Jellybean, faceless).svg"
   inkscape:version="1.4 (86a8ad7, 2024-10-11)"
   xml:space="preserve"
   width="1417.0458"
   height="936.49933"
   xmlns:inkscape="http://www.inkscape.org/namespaces/inkscape"
   xmlns:sodipodi="http://sodipodi.sourceforge.net/DTD/sodipodi-0.dtd"
   xmlns="http://www.w3.org/2000/svg"
   xmlns:svg="http://www.w3.org/2000/svg"><defs
     id="defs7" /><sodipodi:namedview
     id="namedview7"
     pagecolor="#ffffff"
     bordercolor="#000000"
     borderopacity="0.25"
     inkscape:showpageshadow="2"
     inkscape:pageopacity="0.0"
     inkscape:pagecheckerboard="0"
     inkscape:deskcolor="#d1d1d1"
     showgrid="false"
     inkscape:zoom="0.53844413"
     inkscape:cx="708.52291"
     inkscape:cy="468.94373"
     inkscape:window-width="1366"
     inkscape:window-height="705"
     inkscape:window-x="-8"
     inkscape:window-y="-8"
     inkscape:window-maximized="1"
     inkscape:current-layer="svg7" /><g
     transform="matrix(1.948322,0,0,-1.948322,-0.55785914,937.66033)"
     id="g7"
     style="stroke-width:0.684349"><g
       transform="scale(0.1)"
       id="g6"
       style="stroke-width:0.684349"><path
         fill="#231f20"
         d="m 1526.27,4173.25 c 0,0 -174.0943,-87.1885 -426.7139,-292.6402 C 604.50793,3477.9946 38.8516,2834.23 2.86328,1735.11 11.5742,1051.02 332.297,528.668 849.383,218.02 1248.16,-1.23828 1730.46,-35.832 2181.11,47.6602 c 295.53,54.7538 587.37,91.7848 846.55,200.3198 57.36,24.024 131.05,43.461 194.57,53.512 117.72,21.817 116.18,36.738 212.12,57.137 116.55,25.832 879.07,-11.574 1029.3,-31.52 199.65,-29.972 911.6,-51.371 1064.23,-0.855 287.16,105.144 358.03,-19.25 803.16,301.336 292.01,243.488 643.86,492.32 761.25,865.18 48.59,154.37 130.83,270.43 156.51,425.38 79.73,480.85 -20.57,954.08 -236.78,1384.39 -258.94,515.32 -648.71,808.94 -1123.85,1099.31 -160.9088,105.6404 -293.3693,149.7418 -538.47,225.97 -668.4,203.84 -1581.62,255.09 -2413.53,72.5 -459.94,-100.96 -667.5702,-126.8398 -1409.9,-527.07"
         id="path1"
         style="display:inline;fill:#000000;stroke-width:0.684349"
         sodipodi:nodetypes="csccsccccccccccccc" /><path
         fill="#ff0000"
         d="m 5437.26,4444.1 -171.95,30.83 C 4970.33,4696.36 3506.66,4667.45 3114.92,4580.41 2479.05,4439.14 1864.25,4228.94 1388.48,3905.65 883.77,3562.69 544.91,3157.87 294.918,2598.09 138.898,2248.72 43.5664,1428.25 301.336,1099.49 410.723,971.59 434.867,841.281 551.863,754.629 677.738,498.742 1100.36,347.563 1350.43,295.457 c 241.69,-63.039 790.88,-85.039 1226.75,-27.883 164.55,25.821 389.59,149.461 564.48,192.899 43.29,7.16 43.75,17.082 41.45,27.925 -140.59,36.192 -432.41,-18.543 -458.86,54.942 -24.67,72.406 144.58,100.609 222.31,115.269 357.69,67.457 601.49,-9.886 1010.01,-10.75 204.23,0.586 1231.36,-98.562 1291.82,-94.847 33.05,0.074 40.31,17.644 69.66,19.562 702.32,20.563 827.13,59.336 1258.39,509.336 140.32,146.43 245.68,222.38 345.83,451.48 245.14,560.74 192.04,1495.52 -255.22,2005.41 -225.72,269.7 -758.0314,679.0151 -1054.2264,827.9149 -98.433,49.4832 -117.8421,45.0409 -175.5636,77.3851"
         id="path2"
         sodipodi:nodetypes="cccccccccccccccccccsc"
         style="display:inline;stroke-width:0.684349" /><path
         fill="#ff8080"
         d="m 6663.76,1288 c 103.56,-29.45 295.83,421.09 312.36,536.34 34.19,182.73 72.53,518.73 38.59,806.42 -32.62,-338.89 -37.51,-775.99 -198.23,-1075.66 -45.31,-84.49 -136.13,-194 -152.72,-267.1 z M 3059.61,4400.23 c -529.2,-149.44 -933.36,-341.99 -1354.35,-708.55 -168.76,-166.23 -524.45,-412.57 -355.91,-586.8 149.9,-149.77 465.2,121.32 668.79,247.64 522.07,323.91 871.91,437.59 1463.75,585.4 107.7,26.9 453.43,76.85 490.79,268.96 66.23,380.64 -707.01,251.53 -913.07,193.35"
         id="path4"
         style="display:inline;stroke-width:0.684349" /><path
         fill="#800000"
         d="M 551.863,754.629 C 668.023,510.23 1100.68,336.59 1362.17,285.102 c 406.81,-74.11 812.3,-58.997 1180.51,-24.036 114.15,9.973 -62.2,25.676 -83.04,26.379 110,74.391 520.82,251.508 684.09,195.356 19.11,-7.34 33.39,-0.18 39.38,5.597 -151.65,66.805 -446.91,-21.066 -450.11,67.836 8.47,75.172 158.62,71.145 236.35,85.801 357.69,67.461 579.38,-2.289 987.91,-3.152 161.88,-0.336 1256.91,-106.621 1311.38,-94.156 16.47,9.285 32.94,18.562 49.41,27.847 -80.28,-12.394 -170.21,-20.636 -166.86,21.078 12.4,54.676 52.38,59.75 211.57,87.883 436.06,79.731 606.76,128.942 1021.94,511.605 366.84,356.69 523.9,872.48 476.28,1339.17 -42.22,395.65 -139.53,633.2 -221.82,999.86 -8.83,22.24 -23.77,32.35 2.24,37.29 -336.18,401.68 -374.869,509.0986 -877.9071,738.1129 -21.8318,9.9393 -65.3425,28.5631 -98.2943,44.0853 -28.6995,13.5192 -51.8826,23.3637 -58.2958,16.9505 -12.2479,-12.2479 5.8206,-33.8327 88.3687,-96.9359 20.0097,-15.2963 58.5178,-39.8985 76.2861,-52.5781 33.974,-24.2442 42.0624,-37.9447 42.0624,-37.9447 C 6536.19,3468.57 6310.48,1760.57 5000.96,1394.89 3882.89,1097.33 3391.65,1349.84 3058.64,1275.67 2838.6,1226.66 2682.16,1037.17 2497.59,910.914 1894.72,498.445 1059.06,430.066 551.863,754.629 Z"
         id="path5"
         sodipodi:nodetypes="cccccccccccccccccsssssccccc"
         style="display:inline;stroke-width:0.684349" /><path
         fill="#ffffff"
         d="m 1766,3476.6 c 55.5,-47.34 161.58,25.16 228.24,60.33 218.2,115.15 413.51,255.29 616.37,353.27 383.58,183.76 882.54,224.33 881.06,405.2 -11.8,91.74 -351.45,8.38 -536.16,-28.59 -292.18,-62.53 -682.3,-277.4 -889.17,-435.24 C 1946.28,3740.3 1699.38,3550.41 1766,3476.6 Z"
         id="path6"
         sodipodi:nodetypes="ccccccc"
         style="display:inline;stroke-width:0.684349" /></g></g></svg>
