<?xml version="1.0" encoding="UTF-8" standalone="no"?>
<!-- Created with Inkscape (http://www.inkscape.org/) -->

<svg
   version="1.1"
   id="svg1"
   width="797"
   height="1463.1"
   viewBox="0 0 797 1463.1"
   sodipodi:docname="Android L (Alt).svg"
   xml:space="preserve"
   inkscape:version="1.4 (86a8ad7, 2024-10-11)"
   xmlns:inkscape="http://www.inkscape.org/namespaces/inkscape"
   xmlns:sodipodi="http://sodipodi.sourceforge.net/DTD/sodipodi-0.dtd"
   xmlns:xlink="http://www.w3.org/1999/xlink"
   xmlns="http://www.w3.org/2000/svg"
   xmlns:svg="http://www.w3.org/2000/svg"><defs
     id="defs1"><linearGradient
       id="linearGradient13"
       inkscape:collect="always"><stop
         style="stop-color:#e1e1e1;stop-opacity:1;"
         offset="0"
         id="stop11" /><stop
         style="stop-color:#e1e1e1;stop-opacity:1;"
         offset="0.46823168"
         id="stop14" /><stop
         style="stop-color:#d8d8d8;stop-opacity:0;"
         offset="1"
         id="stop13" /></linearGradient><linearGradient
       id="linearGradient7"
       inkscape:collect="always"><stop
         style="stop-color:#aaaaaa;stop-opacity:1;"
         offset="0"
         id="stop5" /><stop
         style="stop-color:#d3d3d3;stop-opacity:1;"
         offset="0.5"
         id="stop6" /><stop
         style="stop-color:#ffffff;stop-opacity:1;"
         offset="1"
         id="stop7" /></linearGradient><linearGradient
       id="linearGradient2"
       inkscape:collect="always"><stop
         style="stop-color:#898889;stop-opacity:1;"
         offset="0"
         id="stop2" /><stop
         style="stop-color:#9d9d9d;stop-opacity:1;"
         offset="0.5"
         id="stop4" /><stop
         style="stop-color:#aaaaaa;stop-opacity:1;"
         offset="1"
         id="stop3" /></linearGradient><linearGradient
       inkscape:collect="always"
       xlink:href="#linearGradient2"
       id="linearGradient3"
       x1="443.47473"
       y1="795.32434"
       x2="443.47473"
       y2="890.89551"
       gradientUnits="userSpaceOnUse"
       gradientTransform="matrix(0.99998903,0,0,1,0.00514693,0)" /><linearGradient
       inkscape:collect="always"
       xlink:href="#linearGradient7"
       id="linearGradient4"
       gradientUnits="userSpaceOnUse"
       x1="443.23962"
       y1="887.25549"
       x2="354.3981"
       y2="887.25549"
       gradientTransform="matrix(1,0,0,3.6161673,2.6e-4,-1973.881)" /><radialGradient
       inkscape:collect="always"
       xlink:href="#linearGradient13"
       id="radialGradient16"
       cx="352.48999"
       cy="1049.9778"
       fx="352.48999"
       fy="1049.9778"
       r="44.643555"
       gradientTransform="matrix(2.3256843,0,0,1.470882,-465.50257,-746.66443)"
       gradientUnits="userSpaceOnUse" /></defs><sodipodi:namedview
     id="namedview1"
     pagecolor="#ffffff"
     bordercolor="#000000"
     borderopacity="0.25"
     inkscape:showpageshadow="2"
     inkscape:pageopacity="0.0"
     inkscape:pagecheckerboard="0"
     inkscape:deskcolor="#d1d1d1"
     inkscape:zoom="0.26583743"
     inkscape:cx="0"
     inkscape:cy="829.4543"
     inkscape:window-width="1366"
     inkscape:window-height="705"
     inkscape:window-x="-8"
     inkscape:window-y="-8"
     inkscape:window-maximized="1"
     inkscape:current-layer="g1" /><g
     inkscape:label="Image"
     id="g1"
     transform="translate(0,0.1)"><rect
       style="display:inline;fill:url(#linearGradient3);stroke-width:7.55906;stroke-linecap:square;paint-order:stroke fill markers"
       id="rect2"
       width="89.287003"
       height="183.8671"
       x="354.18799"
       y="766.55377" /><path
       id="rect2-5"
       style="display:inline;fill:url(#linearGradient4);stroke-width:7.55905;stroke-linecap:square;paint-order:stroke fill markers"
       d="M 354.1875,798.10547 V 1463 h 89.28711 V 931.41992 L 354.54688,798.10547 Z" /><path
       id="rect2-5-7"
       style="display:inline;mix-blend-mode:normal;fill:url(#radialGradient16);stroke-width:7.55905;stroke-linecap:square;paint-order:stroke fill markers"
       d="m 354.188,798.105 v 664.8945 h 89.28711 V 931.41945 L 354.54738,798.105 Z" /><g
       id="g2"
       transform="matrix(1.4232143,0,0,1.4232143,0,-0.1)"
       style="display:inline;stroke-width:0.702635"><circle
         fill="#9c28b1"
         cx="280"
         cy="280"
         r="280"
         id="circle1"
         style="display:inline;stroke-width:0.702635" /><circle
         fill="#a235b6"
         cx="210.52211"
         cy="210.51959"
         r="126.30258"
         id="circle2"
         style="display:inline;stroke-width:0.702635" /><path
         fill="#ffffff"
         d="m 264.64922,240.98845 v 9.84087 c 7.32552,-7.16519 17.1764,-11.58456 28.12961,-11.58456 22.68809,0 40.88666,18.51925 40.88666,41.20733 0,22.52776 -18.19857,40.96684 -40.88666,40.96684 -10.95321,0 -20.32307,-4.0987 -27.64859,-10.95322 l 10e-6,28.99545 H 253.7862 v -98.47872 l 10.86302,0.001 z m 1.73368,24.18527 c -0.471,0.79168 -1.26268,2.04433 -1.26268,4.80017 v 21.11475 c 0,1.97419 0.471,3.07652 1.10234,4.17886 5.20102,8.89885 14.81139,14.97172 25.68443,14.97172 16.4649,0 30.01361,-13.46854 30.01361,-29.93344 0,-16.31457 -13.54871,-29.86328 -30.01361,-29.86328 -10.79286,0 -20.32307,5.9025 -25.52409,14.73122 z"
         id="path2"
         style="stroke-width:0.702635" /><path
         fill="#ffffff"
         d="m 446.68604,240.98845 v 9.84087 c 7.32553,-7.16519 17.1764,-11.58456 28.12961,-11.58456 22.68809,0 40.88666,18.51925 40.88666,41.20733 0,22.52776 -18.19857,40.96684 -40.88666,40.96684 -10.95321,0 -20.32306,-4.0987 -27.64859,-10.95322 l -9.5e-4,28.99545 h -11.34405 v -98.47872 l 10.86398,0.001 z m 1.73266,24.18527 c -0.471,0.79168 -1.26268,2.04433 -1.26268,4.80017 v 21.11475 c 0,1.97419 0.471,3.07652 1.10234,4.17886 5.20102,8.89885 14.81139,14.97172 25.68443,14.97172 16.4649,0 30.01361,-13.46854 30.01361,-29.93344 0,-16.31457 -13.54871,-29.86328 -30.01361,-29.86328 -10.79286,0 -20.32307,5.9025 -25.52409,14.73122 z"
         id="path3"
         style="stroke-width:0.702635" /><path
         fill="#ffffff"
         d="m 169.85832,280.2156 c 0,22.68808 -18.35891,41.20733 -40.89667,41.20733 -22.68808,0 -41.127127,-18.51925 -41.127127,-41.20733 0,-22.52776 18.429017,-40.96684 41.127127,-40.96684 22.53776,0 40.89667,18.43907 40.89667,40.96684 z m -11.42421,0.16035 c 0,-16.4649 -13.15788,-29.93344 -29.47246,-29.93344 -16.54507,0 -29.462416,13.46854 -29.462416,29.93344 0,16.31457 12.917346,29.86328 29.462416,29.86328 16.31459,-0.001 29.47246,-13.55874 29.47246,-29.86328 z"
         id="path4"
         style="stroke-width:0.702635" /><path
         fill="#ffffff"
         d="m 424.69845,280.2156 c 0,22.68808 -18.35891,41.20733 -40.89669,41.20733 -22.68808,0 -41.12716,-18.51925 -41.12716,-41.20733 0,-22.52776 18.42907,-40.96684 41.12716,-40.96684 22.53777,0 40.89669,18.43907 40.89669,40.96684 z m -11.41922,0.16035 c 0,-16.4649 -13.15788,-29.93344 -29.47246,-29.93344 -16.54507,0 -29.46245,13.46854 -29.46245,29.93344 0,16.31457 12.91738,29.86328 29.46245,29.86328 16.30956,-0.001 29.47246,-13.55874 29.47246,-29.86328 z"
         id="path5"
         style="stroke-width:0.702635" /><path
         fill="#ffffff"
         d="m 229.51476,221.21054 h 11.19372 v 11.50438 h -11.19372 z"
         id="path6"
         style="stroke-width:0.702635" /><path
         fill="#ffffff"
         d="m 229.51476,240.90227 h 11.19372 v 78.78698 h -11.19372 z"
         id="path7"
         style="stroke-width:0.702635" /><path
         fill="#ffffff"
         d="m 65.547282,221.21054 h 11.193724 v 98.47871 H 65.547282 Z"
         id="path8"
         style="stroke-width:0.702635" /><path
         fill="#ffffff"
         d="m 180.97188,221.21054 h 11.19373 v 98.47871 h -11.19373 z"
         id="path9"
         style="stroke-width:0.702635" /><path
         fill="#ffffff"
         d="m 205.24332,221.21054 h 11.19372 v 98.47871 h -11.19372 z"
         id="path10"
         style="stroke-width:0.702635" /></g></g></svg>
