<?xml version="1.0" encoding="UTF-8" standalone="no"?>
<svg
   xmlns:dc="http://purl.org/dc/elements/1.1/"
   xmlns:cc="http://creativecommons.org/ns#"
   xmlns:rdf="http://www.w3.org/1999/02/22-rdf-syntax-ns#"
   xmlns:svg="http://www.w3.org/2000/svg"
   xmlns="http://www.w3.org/2000/svg"
   xmlns:sodipodi="http://sodipodi.sourceforge.net/DTD/sodipodi-0.dtd"
   xmlns:inkscape="http://www.inkscape.org/namespaces/inkscape"
   viewBox="0 0 512 512"
   fill="none"
   version="1.1"
   id="svg48">
  <metadata
     id="metadata54">
    <rdf:RDF>
      <cc:Work
         rdf:about="">
        <dc:format>image/svg+xml</dc:format>
        <dc:type
           rdf:resource="http://purl.org/dc/dcmitype/StillImage" />
        <dc:title></dc:title>
      </cc:Work>
    </rdf:RDF>
  </metadata>
  <defs
     id="defs52" />
  <sodipodi:namedview
     pagecolor="#ffffff"
     bordercolor="#666666"
     borderopacity="1"
     objecttolerance="10"
     gridtolerance="10"
     guidetolerance="10"
     inkscape:pageopacity="0"
     inkscape:pageshadow="2"
     inkscape:window-width="1920"
     inkscape:window-height="1009"
     id="namedview50"
     showgrid="false"
     inkscape:zoom="1.625"
     inkscape:cx="256"
     inkscape:cy="256"
     inkscape:window-x="-8"
     inkscape:window-y="-8"
     inkscape:window-maximized="1"
     inkscape:current-layer="svg48" />
  <g
     id="android_16_platlogo"
     transform="matrix(1.1377776,0,0,1.1377769,-35.271106,-35.270766)">
    <rect
       id="patch_frame"
       x="58.5"
       y="58.5"
       width="395"
       height="395"
       rx="68.5"
       fill="#1d2126"
       stroke="#4285f4"
       stroke-width="55" />
    <path
       id="ANDROID"
       d="m 152.157,72 c -2.688,0 -4.032,0 -4.032,0 0,0 0.456,-1.182 1.368,-3.546 l 7.776,-20.232 c 0.504,-1.332 0.756,-1.998 0.756,-1.998 0,0 0.888,0 2.664,0 1.716,0 2.574,0 2.574,0 0,0 0.258,0.66 0.774,1.98 l 7.722,20.214 c 0.924,2.388 1.386,3.582 1.386,3.582 0,0 -1.314,0 -3.942,0 -1.56,0 -2.34,0 -2.34,0 0,0 -0.18,-0.552 -0.54,-1.656 l -4.842,-13.968 -0.864,-2.88 h -0.108 l -0.864,2.862 -4.878,13.95 c -0.348,1.128 -0.522,1.692 -0.522,1.692 0,0 -0.696,0 -2.088,0 z m 0.792,-5.004 1.53,-4.122 h 11.808 l 1.584,4.122 z M 186.631,72 c -1.872,0 -2.808,0 -2.808,0 0,0 0,-0.852 0,-2.556 V 49.59 c 0,-2.244 0,-3.366 0,-3.366 0,0 1.242,0 3.726,0 1.452,0 2.178,0 2.178,0 0,0 0.294,0.462 0.882,1.386 l 9.198,14.436 h 0.108 l -0.108,-3.996 v -9.342 c 0,-1.656 0,-2.484 0,-2.484 0,0 0.93,0 2.79,0 1.872,0 2.808,0 2.808,0 0,0 0,0.828 0,2.484 v 20.304 c 0,1.992 0,2.988 0,2.988 0,0 -1.098,0 -3.294,0 -1.272,0 -1.908,0 -1.908,0 0,0 -0.258,-0.396 -0.774,-1.188 L 189.421,55.53 h -0.126 l 0.126,3.978 v 9.936 c 0,1.704 0,2.556 0,2.556 0,0 -0.93,0 -2.79,0 z m 35.052,0 c -2.124,0 -3.186,0 -3.186,0 0,0 0,-1.068 0,-3.204 V 49.41 c 0,-2.124 0,-3.186 0,-3.186 0,0 1.062,0 3.186,0 h 5.994 c 3.936,0 7.11,1.182 9.522,3.546 2.412,2.352 3.618,5.46 3.618,9.324 0,3.888 -1.206,7.014 -3.618,9.378 -2.412,2.352 -5.586,3.528 -9.522,3.528 z m 2.61,-5.148 h 3.06 c 2.328,0.024 4.17,-0.642 5.526,-1.998 1.368,-1.368 2.052,-3.27 2.052,-5.706 0,-2.412 -0.678,-4.284 -2.034,-5.616 -1.356,-1.332 -3.204,-1.998 -5.544,-1.998 h -3.06 z M 255.401,72 c -1.932,0 -2.898,0 -2.898,0 0,0 0,-0.87 0,-2.61 V 49.41 c 0,-2.124 0,-3.186 0,-3.186 0,0 1.062,0 3.186,0 h 7.074 c 2.556,0 4.704,0.756 6.444,2.268 1.752,1.512 2.628,3.528 2.628,6.048 0,2.364 -0.834,4.308 -2.502,5.832 -1.656,1.512 -3.816,2.268 -6.48,2.268 h -7.938 v -4.158 h 7.29 c 1.08,0 1.986,-0.336 2.718,-1.008 0.744,-0.684 1.116,-1.578 1.116,-2.682 0,-0.996 -0.36,-1.83 -1.08,-2.502 -0.708,-0.684 -1.578,-1.026 -2.61,-1.026 h -4.05 V 69.39 c 0,1.74 0,2.61 0,2.61 0,0 -0.966,0 -2.898,0 z m 13.302,0 c -1.152,0 -1.728,0 -1.728,0 0,0 -0.216,-0.336 -0.648,-1.008 l -6.84,-10.548 6.12,-0.216 5.31,7.776 c 1.848,2.664 2.772,3.996 2.772,3.996 0,0 -1.662,0 -4.986,0 z m 26.788,0.594 c -3.72,0 -6.888,-1.248 -9.504,-3.744 -2.604,-2.508 -3.906,-5.76 -3.906,-9.756 0,-4.008 1.308,-7.254 3.924,-9.738 2.628,-2.484 5.784,-3.726 9.468,-3.726 3.684,0 6.84,1.26 9.468,3.78 2.628,2.508 3.942,5.736 3.942,9.684 0,3.924 -1.308,7.158 -3.924,9.702 -2.604,2.532 -5.76,3.798 -9.468,3.798 z m -0.018,-5.598 c 2.172,0 3.978,-0.744 5.418,-2.232 1.452,-1.5 2.178,-3.39 2.178,-5.67 0,-2.304 -0.726,-4.188 -2.178,-5.652 -1.452,-1.476 -3.258,-2.214 -5.418,-2.214 -2.136,0 -3.936,0.738 -5.4,2.214 -1.452,1.476 -2.178,3.36 -2.178,5.652 0,2.292 0.72,4.182 2.16,5.67 1.452,1.488 3.258,2.232 5.418,2.232 z M 323.519,72 c -1.956,0 -2.934,0 -2.934,0 0,0 0,-0.882 0,-2.646 V 48.87 c 0,-1.764 0,-2.646 0,-2.646 0,0 0.978,0 2.934,0 1.956,0 2.934,0 2.934,0 0,0 0,0.882 0,2.646 v 20.484 c 0,1.764 0,2.646 0,2.646 0,0 -0.978,0 -2.934,0 z m 19.211,0 c -2.124,0 -3.186,0 -3.186,0 0,0 0,-1.068 0,-3.204 V 49.41 c 0,-2.124 0,-3.186 0,-3.186 0,0 1.062,0 3.186,0 h 5.994 c 3.936,0 7.11,1.182 9.522,3.546 2.412,2.352 3.618,5.46 3.618,9.324 0,3.888 -1.206,7.014 -3.618,9.378 C 355.834,70.824 352.66,72 348.724,72 Z m 2.61,-5.148 h 3.06 c 2.328,0.024 4.17,-0.642 5.526,-1.998 1.368,-1.368 2.052,-3.27 2.052,-5.706 0,-2.412 -0.678,-4.284 -2.034,-5.616 -1.356,-1.332 -3.204,-1.998 -5.544,-1.998 h -3.06 z"
       fill="#ffffff" />
    <g
       id="baklava_tray_star">
      <path
         id="slice15"
         d="m 196.971,198.17 h 60.869 l -60.869,60.87 z"
         fill="#1f8e3d" />
      <path
         id="slice14"
         d="M 318.709,319.909 H 257.84 l 60.869,-60.869 z"
         fill="#1f8e3d" />
      <path
         id="slice13"
         d="m 318.709,198.17 v 60.87 L 257.84,198.17 Z"
         fill="#34a853" />
      <path
         id="slice12"
         d="M 196.971,319.909 V 259.04 l 60.869,60.869 z"
         fill="#34a853" />
      <path
         id="slice11"
         d="M 257.84,259.04 H 196.971 L 257.84,198.171 Z"
         fill="#34a853" />
      <path
         id="slice10"
         d="M 257.84,198.17 H 196.971 L 257.84,137.301 Z"
         fill="#34a853" />
      <path
         id="slice09"
         d="m 257.84,319.909 h 60.869 l -60.869,60.869 z"
         fill="#34a853" />
      <path
         id="slice08"
         d="m 257.84,259.04 h 60.869 l -60.869,60.87 z"
         fill="#34a853" />
      <path
         id="slice07"
         d="m 318.709,259.04 h 60.87 l -60.87,60.87 z"
         fill="#34a853" />
      <path
         id="slice06"
         d="m 196.971,259.04 h -60.87 l 60.87,-60.869 z"
         fill="#34a853" />
      <path
         id="slice05"
         d="m 257.84,259.04 v -60.869 l 60.869,60.869 z"
         fill="#1f8e3d" />
      <path
         id="slice04"
         d="m 257.84,198.17 v -60.869 l 60.869,60.869 z"
         fill="#1f8e3d" />
      <path
         id="slice03"
         d="m 257.84,319.909 v 60.869 l -60.869,-60.869 z"
         fill="#1f8e3d" />
      <path
         id="slice02"
         d="m 318.709,259.04 v -60.869 l 60.87,60.869 z"
         fill="#1f8e3d" />
      <path
         id="slice01"
         d="m 196.971,259.04 v 60.87 l -60.87,-60.87 z"
         fill="#1f8e3d" />
      <path
         id="slice00"
         d="m 257.84,259.04 v 60.87 l -60.869,-60.87 z"
         fill="#1f8e3d" />
    </g>
    <path
       id="16"
       d="m 342.409,405.074 c -1.643,0 -3.061,-0.597 -4.256,-1.792 -1.164,-1.194 -1.747,-2.628 -1.747,-4.3 v -43.497 l -7.839,5.644 c -1.105,0.806 -2.345,1.09 -3.718,0.851 -1.374,-0.239 -2.464,-0.926 -3.27,-2.061 -0.807,-1.134 -1.091,-2.389 -0.852,-3.762 0.269,-1.404 0.956,-2.524 2.061,-3.36 l 16.709,-11.916 c 0.418,-0.299 0.866,-0.567 1.344,-0.806 0.478,-0.269 1.12,-0.404 1.926,-0.404 1.583,0 2.912,0.568 3.987,1.703 1.105,1.105 1.658,2.478 1.658,4.121 v 53.487 c 0,1.672 -0.598,3.106 -1.792,4.3 -1.165,1.195 -2.569,1.792 -4.211,1.792 z m 39.968,0.448 c -6.928,0 -12.573,-2.075 -16.933,-6.226 -4.33,-4.152 -6.495,-9.423 -6.495,-15.814 0,-4.36 0.97,-8.436 2.911,-12.229 1.971,-3.793 4.674,-7.914 8.109,-12.364 l 12.677,-16.351 c 0.926,-1.194 2.12,-1.911 3.584,-2.15 1.493,-0.239 2.852,0.06 4.076,0.896 1.374,0.986 2.18,2.27 2.419,3.853 0.239,1.582 -0.179,3.016 -1.254,4.3 l -8.019,10.214 c -1.224,1.523 -3.733,3.658 -7.526,6.406 -3.762,2.747 -6.331,8.496 -7.705,17.246 l -6.495,-0.045 c 0.926,-7.048 3.778,-12.229 8.556,-15.544 4.808,-3.315 9.99,-4.972 15.544,-4.972 5.496,0 10.184,1.911 14.067,5.734 3.882,3.792 5.823,8.735 5.823,14.827 0,6.421 -2.195,11.737 -6.585,15.948 -4.36,4.181 -9.945,6.271 -16.754,6.271 z m -0.045,-10.482 c 3.494,0 6.361,-1.075 8.601,-3.225 2.27,-2.151 3.405,-4.913 3.405,-8.288 0,-3.315 -1.135,-6.047 -3.405,-8.198 -2.24,-2.18 -5.077,-3.27 -8.511,-3.27 -3.464,0 -6.346,1.09 -8.646,3.27 -2.269,2.151 -3.404,4.898 -3.404,8.243 0,3.315 1.12,6.062 3.359,8.243 2.27,2.15 5.137,3.225 8.601,3.225 z"
       fill="#e8f5e9" />
    <rect
       id="diamond_outline"
       x="257.84"
       y="128.70599"
       width="184.32001"
       height="184.32001"
       rx="10.2494"
       transform="rotate(45,257.84,128.706)"
       stroke="#5f6368"
       stroke-width="14.3349" />
    <g
       id="zoomy">
      <path
         id="Subtract"
         fill-rule="evenodd"
         clip-rule="evenodd"
         d="m 172.353,318.422 c 0.465,-0.585 0.425,-1.435 -0.104,-1.963 v 0 c -0.618,-0.618 -1.643,-0.554 -2.189,0.128 -36.669,45.83 -55.876,82.05 -46.139,91.787 14.588,14.588 88.614,-35.788 165.343,-112.517 7.354,-7.354 14.465,-14.682 21.301,-21.936 0.74,-0.786 0.721,-2.018 -0.043,-2.782 l -4.185,-4.185 c -0.799,-0.798 -2.099,-0.778 -2.874,0.044 -6.791,7.204 -13.876,14.505 -21.215,21.844 -69.976,69.976 -136.5,116.905 -148.586,104.818 -7.636,-7.636 8.284,-37.001 38.691,-75.238 z"
         fill="#c6ff00" />
    </g>
    <g
       id="droidship">
      <g
         id="sensors">
        <path
           id="AD"
           d="m 347.267,248.089 c 1.6,-0.429 3.245,0.521 3.674,2.121 0.429,1.6 -0.521,3.245 -2.121,3.674 z m 1.553,5.795 -27.368,7.333 -1.553,-5.795 27.368,-7.333 z"
           fill="#000000" />
        <path
           id="AS"
           d="m 325.111,230.175 c 0.429,-1.6 2.074,-2.55 3.674,-2.121 1.601,0.429 2.55,2.074 2.122,3.674 z m 5.796,1.553 -7.334,27.368 -5.795,-1.553 7.333,-27.368 z"
           fill="#000000" />
      </g>
      <path
         id="craft"
         d="m 335.665,242.984 c -8.171,-8.171 -21.231,-8.361 -29.167,-0.425 l -17.724,17.724 c -1.531,1.531 -1.531,4.017 0,5.548 1.532,1.532 4.017,1.532 5.549,0 l 4.777,-4.777 c 3.065,-3.065 8.032,-3.065 11.097,0 l 7.398,7.398 c 3.065,3.065 3.065,8.032 0,11.097 l -4.777,4.777 c -1.532,1.532 -1.532,4.018 0,5.549 1.531,1.531 4.017,1.531 5.548,0 l 17.724,-17.724 c 7.936,-7.936 7.746,-20.996 -0.425,-29.167 z"
         fill="#000000" />
    </g>
    <g
       id="starfield">
      <rect
         id="star15"
         x="123.071"
         y="117.004"
         width="10"
         height="10"
         transform="rotate(45,123.071,117.004)"
         fill="#e8f5e9" />
      <rect
         id="star14"
         x="108.071"
         y="332"
         width="10"
         height="10"
         transform="rotate(45,108.071,332)"
         fill="#e8f5e9" />
      <rect
         id="star13"
         x="120.607"
         y="299"
         width="15"
         height="15"
         transform="rotate(45,120.607,299)"
         fill="#e8f5e9" />
      <rect
         id="star12"
         x="123.071"
         y="183.435"
         width="10"
         height="10"
         transform="rotate(45,123.071,183.435)"
         fill="#e8f5e9" />
      <rect
         id="star11"
         x="174.606"
         y="137"
         width="15"
         height="15"
         transform="rotate(45,174.606,137)"
         fill="#e8f5e9" />
      <rect
         id="star10"
         x="145.214"
         y="139.149"
         width="10"
         height="10"
         transform="rotate(45,145.214,139.149)"
         fill="#e8f5e9" />
      <rect
         id="star09"
         x="215.60699"
         y="385"
         width="15"
         height="15"
         transform="rotate(45,215.607,385)"
         fill="#e8f5e9" />
      <rect
         id="star08"
         x="227.071"
         y="110"
         width="10"
         height="10"
         transform="rotate(45,227.071,110)"
         fill="#e8f5e9" />
      <rect
         id="star07"
         x="400.569"
         y="124.075"
         width="10"
         height="10"
         transform="rotate(135,400.569,124.075)"
         fill="#e8f5e9" />
      <rect
         id="star06"
         x="388.21301"
         y="149.606"
         width="15"
         height="15"
         transform="rotate(135,388.213,149.606)"
         fill="#e8f5e9" />
      <rect
         id="star05"
         x="331.142"
         y="121.071"
         width="10"
         height="10"
         transform="rotate(135,331.142,121.071)"
         fill="#e8f5e9" />
      <rect
         id="star04"
         x="338.142"
         y="153.071"
         width="10"
         height="10"
         transform="rotate(135,338.142,153.071)"
         fill="#e8f5e9" />
      <rect
         id="star03"
         x="374.142"
         y="320.07101"
         width="10"
         height="10"
         transform="rotate(135,374.142,320.071)"
         fill="#e8f5e9" />
      <rect
         id="star02"
         x="307.21301"
         y="109.607"
         width="15"
         height="15"
         transform="rotate(135,307.213,109.607)"
         fill="#e8f5e9" />
      <rect
         id="star01"
         x="181.142"
         y="353.07101"
         width="10"
         height="10"
         transform="rotate(135,181.142,353.071)"
         fill="#e8f5e9" />
      <rect
         id="star00"
         x="400.573"
         y="190.50101"
         width="15"
         height="15"
         transform="rotate(135,400.573,190.501)"
         fill="#e8f5e9" />
    </g>
  </g>
</svg>
