<svg xmlns="http://www.w3.org/2000/svg" fill="none" viewBox="0 0 454.747 418.401"><path fill="#202124" d="M227.375 390.901c-26.375 0-43.811-18.296-61.202-48.418L45.518 133.504C28.128 103.382 21 79.134 34.188 56.293 47.373 33.452 71.937 27.5 106.72 27.5h241.308c34.782 0 59.345 5.952 72.532 28.793 13.187 22.841 6.06 47.089-11.331 77.211L288.575 342.483c-17.391 30.122-34.827 48.418-61.201 48.418z"/><mask id="a" width="400" height="365" x="56" y="82" maskUnits="userSpaceOnUse"><path fill="#fff" d="M256.001 446.355c-26.375 0-43.811-18.296-61.202-48.418L74.145 188.958c-17.391-30.122-24.518-54.37-11.331-77.211C76 88.906 100.564 82.954 135.346 82.954h241.308c34.782 0 59.345 5.952 72.532 28.793 13.187 22.841 6.06 47.089-11.331 77.211L317.201 397.937c-17.391 30.122-34.827 48.418-61.201 48.418Z"/></mask><g mask="url(#a)" transform="translate(-28.626 -55.454)"><path fill="#c6ff00" d="M344.016 285.041C286.329 262.165 262.181 187.482 259 153h-3v246l193-78.636c-10.958-2.243-47.296-12.447-104.984-35.323zM167.984 285.041C225.671 262.165 249.819 187.482 253 153h3v246L63 320.364c10.958-2.243 47.296-12.447 104.984-35.323z"/><path fill="#fff" d="M297.5 284.816c-27.2-22.837-37-97.393-38.5-131.816h-3v245.58l91-78.502c-5.167-2.238-22.3-12.425-49.5-35.262zM214.5 284.816c27.2-22.837 37-97.393 38.5-131.816h3v245.58l-91-78.502c5.167-2.238 22.3-12.425 49.5-35.262z"/><circle cx="256" cy="153" r="3" fill="#fff"/><path fill="#5f6368" d="M151 350h199v104H151z"/><path fill="#5f6368" d="M358.423 350.438c-.067-.422-.13-.838-.201-1.257a101.469 101.469 0 0 0-1.572-7.66 102.811 102.811 0 0 0-4.059-12.865 102.891 102.891 0 0 0-4.663-10.28 104.587 104.587 0 0 0-7.519-12.263 103.538 103.538 0 0 0-11.35-13.372 103.985 103.985 0 0 0-18.279-14.486c.04-.065.073-.136.114-.201 2.078-3.591 4.16-7.176 6.238-10.766 2.034-3.505 4.066-7.01 6.097-10.515 1.462-2.516 2.923-5.037 4.378-7.553a9.47 9.47 0 0 0 .533-8.436 9.391 9.391 0 0 0-3.882-4.454 9.552 9.552 0 0 0-4.029-1.296 9.666 9.666 0 0 0-1.784.015 9.448 9.448 0 0 0-7.216 4.665c-1.458 2.515-2.92 5.036-4.375 7.552l-6.097 10.515c-2.079 3.59-4.161 7.176-6.239 10.766-.228.392-.459.783-.683 1.18-.316-.126-.627-.251-.943-.371-11.461-4.369-23.891-6.759-36.885-6.759-.357 0-.708 0-1.064.004a103.372 103.372 0 0 0-33.009 5.73c-1.2.417-2.384.859-3.559 1.321-.21-.367-.426-.734-.637-1.1-2.078-3.591-4.161-7.176-6.238-10.766l-6.098-10.515a6640.602 6640.602 0 0 1-4.377-7.552 9.437 9.437 0 0 0-5.757-4.399 9.75 9.75 0 0 0-1.46-.266 9.644 9.644 0 0 0-1.782-.015 9.414 9.414 0 0 0-4.03 1.296 9.436 9.436 0 0 0-3.283 3.269 9.661 9.661 0 0 0-1.023 2.435 9.488 9.488 0 0 0 .135 5.339c.206.632.477 1.25.824 1.847 1.46 2.516 2.921 5.037 4.376 7.553l6.098 10.514c2.078 3.591 4.161 7.176 6.238 10.767.015.03.036.06.051.09a104.121 104.121 0 0 0-11.945 8.652 104.44 104.44 0 0 0-17.863 19.322 102.77 102.77 0 0 0-7.518 12.263 103.034 103.034 0 0 0-11.087 36.598H359a101.069 101.069 0 0 0-.593-4.536z"/></g><path fill="#fff" d="M102.414 78.889h-4.04v4.04h4.04zM138.414 200.546h-4.04v4.04h4.04zM344.86 71.546h-4.04v4.04h4.04zM263.414 170.546h-4.04v4.04h4.04zM290.413 131.456h-4.04v4.04h4.04zM326.414 166.546h-4.04v4.04h4.04zM163.414 80.546h-4.04v4.04h4.04zM307.454 140.546h-8.08v8.08h8.08zM193.414 156.546h-4.04v4.04h4.04zM134.454 119.546h-8.08v8.08h8.08zM182.454 87.546h-8.08v8.08h8.08zM340.454 148.546h-8.08v8.08h8.08zM140.585 148.889h-8.08v8.08h8.08zM354.409 104.613h-8.08v8.08h8.08zM163.454 127.546h-8.08v8.08h8.08z"/><path stroke="#34a853" stroke-miterlimit="10" stroke-width="55" d="M227.375 390.901c-26.375 0-43.811-18.296-61.202-48.418L45.518 133.504C28.128 103.382 21 79.134 34.188 56.293 47.373 33.452 71.937 27.5 106.72 27.5h241.308c34.782 0 59.345 5.952 72.532 28.793 13.187 22.841 6.06 47.089-11.331 77.211L288.575 342.483c-17.391 30.122-34.827 48.418-61.201 48.418z"/><path fill="#e9f3eb" d="m141.484 36.252 1.296 3.294h-6.228l-.756-2.178-4.716-13.194-.882-2.88h-.216l-.792 2.88-4.536 13.194-.684 2.178h-6.318l1.278-3.33 7.65-19.8 1.026-2.7h5.184l1.044 2.7zm-4.068-1.584h-7.398v-4.212h5.778zm-7.398 0h-7.56l1.548-4.212h6.012zm45.202 2.34v2.538h-5.346l-1.422-2.214-9-14.04h-.198L159.38 27v12.546h-5.832v-2.754l-.018-19.35V13.77h6.084L161 15.966l8.532 13.428h.198l-.144-3.762V13.77h5.634v2.664zm22.676 2.538h-9.252V13.77h9.252c3.936 0 7.104 1.182 9.504 3.546 2.4 2.352 3.6 5.46 3.6 9.324 0 3.888-1.2 7.014-3.6 9.378-2.4 2.352-5.568 3.528-9.504 3.528zm-3.348-20.358V34.29h3.006c2.28.024 4.092-.63 5.436-1.962 1.344-1.344 2.016-3.216 2.016-5.616 0-2.388-.672-4.236-2.016-5.544-1.332-1.32-3.144-1.98-5.436-1.98zm34.338 17.586v2.772h-5.814V13.77h10.188c2.556 0 4.71.756 6.462 2.268 1.752 1.512 2.628 3.534 2.628 6.066 0 2.34-.834 4.272-2.502 5.796-1.668 1.512-3.822 2.268-6.462 2.268h-7.992v-4.212h7.308c1.068 0 1.962-.33 2.682-.99.72-.672 1.08-1.542 1.08-2.61 0-.972-.348-1.782-1.044-2.43-.696-.66-1.554-.99-2.574-.99h-3.96zm7.254.594-6.102-9.36 6.138-.216 6.426 9.378 1.71 2.376H237.544l-1.404-2.178zm31.276 2.754c-3.708 0-6.882-1.242-9.522-3.726-2.628-2.484-3.942-5.736-3.942-9.756 0-4.02 1.32-7.266 3.96-9.738 2.652-2.472 5.82-3.708 9.504-3.708 3.672 0 6.828 1.254 9.468 3.762 2.652 2.496 3.978 5.724 3.978 9.684 0 3.936-1.32 7.17-3.96 9.702-2.628 2.52-5.79 3.78-9.486 3.78zm0-5.742c2.148 0 3.936-.732 5.364-2.196 1.44-1.464 2.16-3.312 2.16-5.544 0-2.256-.726-4.104-2.178-5.544-1.44-1.44-3.222-2.16-5.346-2.16s-3.912.726-5.364 2.178c-1.44 1.44-2.16 3.282-2.16 5.526 0 2.256.714 4.11 2.142 5.562 1.44 1.452 3.234 2.178 5.382 2.178zm31.597 2.214v2.952h-6.066V13.77h6.066v2.952zm22.673 2.952h-9.252V13.77h9.252c3.936 0 7.104 1.182 9.504 3.546 2.4 2.352 3.6 5.46 3.6 9.324 0 3.888-1.2 7.014-3.6 9.378-2.4 2.352-5.568 3.528-9.504 3.528zm-3.348-20.358V34.29h3.006c2.28.024 4.092-.63 5.436-1.962 1.344-1.344 2.016-3.216 2.016-5.616 0-2.388-.672-4.236-2.016-5.544-1.332-1.32-3.144-1.98-5.436-1.98zM207.96 307.796v3.75h-7.5v-61.15l-12.45 8.9a4873.88 4873.88 0 0 1-2.45 1.75l-1.95-3-1.9-2.85c0-.033.867-.667 2.6-1.9l14.7-10.55 4-2.95H207.96v3.65zm10.502-33.25 4.1-31 .5-3.6h36.5v7.35h-30.7l-3.3 24.7.2.05c1.7-1.733 3.883-3.117 6.55-4.15 2.667-1.067 5.717-1.6 9.15-1.6 6.467 0 11.9 2.217 16.3 6.65 4.4 4.4 6.6 9.917 6.6 16.55 0 6.8-2.183 12.45-6.55 16.95-4.333 4.467-10.017 6.7-17.05 6.7-6.3 0-11.617-1.6-15.95-4.8-4.333-3.2-7.183-6.95-8.55-11.25l-.95-3.35 3.45-1.3 3.6-1.35.95 3.55c.867 2.633 2.767 5.167 5.7 7.6 2.967 2.433 6.8 3.65 11.5 3.65 5.133 0 9.1-1.467 11.9-4.4 2.8-2.967 4.2-6.917 4.2-11.85 0-4.733-1.567-8.583-4.7-11.55-3.1-2.967-7.133-4.45-12.1-4.45-2.967 0-5.483.417-7.55 1.25-2.067.8-3.8 1.933-5.2 3.4l-1.95 2.25-3.55-1.45-3.5-1.4.4-3.15zM227.494 65.546c-6.694 0-12.12 5.27-12.12 11.771v14.519a2.273 2.273 0 1 0 4.546 0v-3.914a4.545 4.545 0 0 1 4.545-4.545h6.06a4.545 4.545 0 0 1 4.545 4.545v3.914a2.273 2.273 0 1 0 4.546 0V77.317c0-6.501-5.426-11.771-12.12-11.771z"/></svg>