<svg
   xmlns="http://www.w3.org/2000/svg"
   width="456.561"
   height="456.561"
   viewBox="0 0 456.561 456.561"
   version="1.1"
   id="svg84">
  <defs
     id="defs10">
    <linearGradient
       id="linear-gradient"
       x1="256"
       y1="21.811"
       x2="256"
       y2="350.423"
       gradientUnits="userSpaceOnUse"
       gradientTransform="translate(-27.7195,-27.7195)">
      <stop
         offset="0"
         stop-color="#073042"
         id="stop2" />
      <stop
         offset="1"
         stop-color="#073042"
         id="stop4" />
    </linearGradient>
    <clipPath
       id="clippath">
      <circle
         cx="256"
         cy="256"
         r="200"
         style="fill:none"
         id="circle7" />
    </clipPath>
  </defs>
  <circle
     cx="228.2805"
     cy="228.2805"
     r="200"
     style="fill:url(#linear-gradient)"
     id="circle12" />
  <g
     clip-path="url(#clippath)"
     id="g52"
     transform="translate(-27.7195,-27.7195)">
    <g
       id="g22">
      <path
         d="m 195.27,187.642 2.253,-6.689 c 13.913,78.126 50.844,284.385 50.844,50.331 0,-0.973 0.723,-1.81 1.615,-1.81 h 12.695 c 0.896,0 1.623,0.827 1.623,1.804 -0.201,409.907 -69.03,-43.636 -69.03,-43.636 z"
         style="fill:#3ddc84"
         id="path14" />
      <path
         d="m 158.775,180.678 -33.166,57.446 c -1.905,3.299 -0.774,7.518 2.525,9.423 3.299,1.905 7.518,0.774 9.423,-2.525 l 33.586,-58.17 c 54.27,24.328 116.344,24.328 170.614,0 l 33.586,58.17 c 1.972,3.259 6.213,4.303 9.472,2.331 3.166,-1.915 4.256,-5.988 2.472,-9.229 L 354.123,180.678 C 411.075,149.705 450.031,92.036 455.73,23.914 H 57.168 c 5.7,68.122 44.655,125.791 101.607,156.764 z"
         style="fill:#fff"
         id="path16" />
      <rect
         x="248.14"
         y="187.656"
         width="16.16"
         height="32.321"
         rx="2.125"
         ry="2.125"
         style="fill:#3ddc84"
         id="rect18" />
      <rect
         x="248.14"
         y="170.286"
         width="16.16"
         height="8.08"
         rx="1.976"
         ry="1.976"
         style="fill:#3ddc84"
         id="rect20" />
    </g>
    <rect
       x="171.917"
       y="216.823"
       width="4.04"
       height="4.04"
       style="fill:#fff"
       id="rect24" />
    <rect
       x="188.802"
       y="275.727"
       width="4.04"
       height="4.04"
       style="fill:#fff"
       id="rect26" />
    <rect
       x="369.04"
       y="337.634"
       width="4.04"
       height="4.04"
       style="fill:#fff"
       id="rect28" />
    <rect
       x="285.926"
       y="252.221"
       width="4.04"
       height="4.04"
       style="fill:#fff"
       id="rect30" />
    <rect
       x="318.96"
       y="218.843"
       width="4.04"
       height="4.04"
       style="fill:#fff"
       id="rect32" />
    <rect
       x="294.055"
       y="288.555"
       width="4.04"
       height="4.04"
       style="fill:#fff"
       id="rect34" />
    <rect
       x="330.819"
       y="273.31"
       width="8.08"
       height="8.08"
       style="fill:#fff"
       id="rect36" />
    <rect
       x="188.802"
       y="298.949"
       width="4.04"
       height="4.04"
       style="fill:#fff"
       id="rect38" />
    <rect
       x="220.141"
       y="238.941"
       width="8.08"
       height="8.08"
       style="fill:#fff"
       id="rect40" />
    <rect
       x="272.1"
       y="318.902"
       width="8.08"
       height="8.08"
       style="fill:#fff"
       id="rect42" />
    <rect
       x="293.338"
       y="349.248"
       width="8.08"
       height="8.08"
       style="fill:#fff"
       id="rect44" />
    <rect
       x="161.052"
       y="254.241"
       width="8.08"
       height="8.08"
       style="fill:#fff"
       id="rect46" />
    <rect
       x="378.916"
       y="192.001"
       width="8.08"
       height="8.08"
       style="fill:#fff"
       id="rect48" />
    <rect
       x="137.87"
       y="323.702"
       width="8.08"
       height="8.08"
       style="fill:#fff"
       id="rect50" />
  </g>
  <circle
     cx="228.2805"
     cy="228.2805"
     r="200"
     style="fill:none;stroke:#3ddc84;stroke-width:56.561px;stroke-miterlimit:10;stroke-opacity:1"
     id="circle54" />
  <path
     d="m 228.5005,98.8455 c -6.694,0 -12.12,5.27 -12.12,11.771 v 14.519 c 0,1.255 1.017,2.273 2.273,2.273 v 0 c 1.255,0 2.273,-1.017 2.273,-2.273 v -3.914 c 0,-2.51 2.035,-4.545 4.545,-4.545 h 6.06 c 2.51,0 4.545,2.035 4.545,4.545 v 3.914 c 0,1.255 1.017,2.273 2.273,2.273 1.256,0 2.273,-1.017 2.273,-2.273 v -14.519 c 0,-6.501 -5.426,-11.771 -12.12,-11.771 z"
     style="fill:#3ddc84"
     id="path58" />
  <g
     id="Text"
     transform="translate(-27.7195,-27.7195)">
    <g
       id="g81">
      <path
         d="m 93.337,116.361 3.847,-4.363 29.639,9.758 -4.436,5.03 -6.229,-2.1 -7.855,8.909 2.862,5.917 -4.435,5.03 -13.394,-28.183 z m 17.09,6.396 -8.863,-3.021 4.107,8.415 4.756,-5.395 z"
         style="fill:#fff"
         id="path63" />
      <path
         d="m 153.622,100.853 -21.711,-6.204 10.376,14.382 -5.209,3.759 -16.781,-23.261 4.488,-3.237 21.654,6.194 -10.353,-14.349 5.242,-3.782 16.781,23.26 -4.488,3.238 z"
         style="fill:#fff"
         id="path65" />
      <path
         d="m 161.464,63.148 8.991,-3.844 c 7.432,-3.178 15.96,0.12 19.09,7.439 3.129,7.319 -0.381,15.764 -7.812,18.94 l -8.991,3.844 -11.278,-26.38 z m 17.95,17.111 c 4.459,-1.906 5.959,-6.723 4.148,-10.958 -1.811,-4.236 -6.329,-6.479 -10.788,-4.573 l -3.084,1.318 6.64,15.531 z"
         style="fill:#fff"
         id="path67" />
      <path
         d="m 204.226,47.572 11.096,-2.196 c 5.311,-1.051 9.471,2.079 10.396,6.755 0.722,3.646 -0.758,6.368 -4.073,8.342 l 12.401,10.436 -7.568,1.498 -11.65,-9.761 -1.03,0.204 2.298,11.611 -6.301,1.247 -5.568,-28.136 z m 12.555,9.128 c 1.862,-0.368 2.998,-1.705 2.677,-3.33 -0.338,-1.704 -1.881,-2.428 -3.743,-2.06 l -4.042,0.801 1.066,5.389 z"
         style="fill:#fff"
         id="path69" />
      <path
         d="m 244.294,55.6 c 0.133,-8.159 6.865,-14.716 15.064,-14.582 8.158,0.132 14.715,6.904 14.582,15.063 -0.133,8.159 -6.905,14.715 -15.064,14.582 C 250.677,70.53 244.162,63.759 244.294,55.6 Z m 23.143,0.376 c 0.075,-4.645 -3.536,-8.663 -8.181,-8.738 -4.685,-0.076 -8.424,3.822 -8.5,8.467 -0.076,4.646 3.535,8.663 8.22,8.739 4.645,0.075 8.385,-3.823 8.46,-8.468 z"
         style="fill:#fff"
         id="path71" />
      <path
         d="m 294.385,44.836 6.306,1.23 -5.492,28.157 -6.306,-1.23 z"
         style="fill:#fff"
         id="path73" />
      <path
         d="m 321.936,51.414 9.135,3.482 c 7.551,2.878 11.393,11.173 8.558,18.61 -2.834,7.437 -11.224,11.07 -18.773,8.192 l -9.136,-3.482 10.217,-26.803 z m 1.02,24.773 c 4.53,1.727 8.955,-0.694 10.596,-4.998 1.64,-4.303 -0.051,-9.055 -4.581,-10.781 l -3.133,-1.194 -6.015,15.779 z"
         style="fill:#fff"
         id="path75" />
      <path
         d="m 381.407,89.235 -4.208,-3.211 3.651,-4.785 9.059,6.91 -17.399,22.805 -4.851,-3.7 z"
         style="fill:#fff"
         id="path77" />
      <path
         d="m 397.956,126.373 -9.557,-10.256 3.605,-3.36 22.798,-1.254 3.745,4.02 -12.354,11.513 2.507,2.689 -4.079,3.801 -2.506,-2.689 -4.552,4.241 -4.159,-4.463 4.552,-4.241 z m 9.872,-9.199 -10.282,0.58 4.489,4.818 z"
         style="fill:#fff"
         id="path79" />
    </g>
  </g>
</svg>
