<?xml version="1.0" encoding="UTF-8"?>
<svg width="3804.5" height="3500.4" version="1.1" viewbox="0 0 512 512" xml:space="preserve" xmlns="http://www.w3.org/2000/svg"><g transform="matrix(4.7611 0 0 4.7611 -5735.8 234.38)" style="stroke-width:.21004"><path d="m1604.3 637.67c-46.346 0-76.985-32.15-107.54-85.081l-212.02-367.22c-30.558-52.931-43.083-95.54-19.909-135.68 23.169-40.136 66.333-50.595 127.45-50.595h424.03c61.119 0 104.28 10.459 127.45 50.595 23.172 40.136 10.649 82.745-19.911 135.68l-212.01 367.22c-30.56 52.931-61.198 85.081-107.54 85.081z" fill="#202124" style="-inkscape-stroke:none;color-rendering:auto;color:#000000;dominant-baseline:auto;fill:#073042;font-feature-settings:normal;font-variant-alternates:normal;font-variant-caps:normal;font-variant-east-asian:normal;font-variant-ligatures:normal;font-variant-numeric:normal;font-variant-position:normal;font-variation-settings:normal;image-rendering:auto;inline-size:0;isolation:auto;mix-blend-mode:normal;shape-margin:0;shape-padding:0;shape-rendering:auto;solid-color:#000000;stop-color:#000000;text-decoration-color:#000000;text-decoration-line:none;text-decoration-style:solid;text-indent:0;text-orientation:mixed;text-transform:none;white-space:normal"/><path d="m1503.6 164.75 3.5671-10.596c22.053 123.85 80.603 450.83 80.603 79.794 0-1.5463 1.1421-2.8642 2.5655-2.8642h20.12c1.4233 0 2.5655 1.3179 2.5655 2.8642-0.3163 649.81-109.44-69.181-109.44-69.181z" style="fill:#3ddc84;stroke-width:.21004"/><path transform="matrix(1.7572 0 0 1.7572 1154.2 -131.47)" d="m186.69 167.97-23.69 41.03c-1.36 2.36-0.55 5.37 1.8 6.73 2.36 1.36 5.37 0.55 6.73-1.8l23.99-41.55c38.76 17.38 83.1 17.38 121.86 0l23.99 41.55c1.41 2.33 4.44 3.07 6.77 1.66 2.26-1.37 3.04-4.28 1.76-6.59l-23.69-41.03c40.68-22.12 68.5-63.31 72.57-111.97h-284.67c4.07 48.65 31.89 89.85 72.57 111.97z" fill="#FFFFFFFF" style="fill:#fff;stroke-width:.21004"/><path d="m1392.3-49.229c-33.317 0-64.448 2.4115-94.241 13.073s-57.894 31.94-75.066 61.688c-17.173 29.745-21.55 64.717-15.887 95.847 5.6636 31.131 19.14 59.297 35.796 88.149l212.01 367.22c16.658 28.852 34.312 54.606 58.441 75.076 24.128 20.47 56.604 34.165 90.949 34.166 1e-3 0 0 0 0 0 34.345-9e-4 66.821-13.696 90.949-34.166 24.129-20.47 41.783-46.224 58.441-75.076l212.02-367.22c16.658-28.852 30.136-57.017 35.8-88.149 5.6635-31.131 1.2826-66.105-15.89-95.85-17.173-29.745-45.27-51.023-75.062-61.684s-60.925-13.073-94.241-13.073zm0 96.647h424.03c27.803 0 48.816 2.8176 61.677 7.4201s17.929 8.6226 23.928 19.014c5.9992 10.391 6.9444 16.79 4.4994 30.23s-10.507 33.045-24.409 57.123l-212.02 367.22c-13.902 24.078-26.849 40.866-37.265 49.703-10.416 8.8363-16.432 11.215-28.428 11.216-1e-3 0 0 0 0 0-11.997-6e-4 -18.012-2.3797-28.428-11.216-10.417-8.8372-23.364-25.625-37.265-49.703l-212.02-367.22c-13.901-24.079-21.967-43.683-24.412-57.123-2.4451-13.44-1.4966-19.839 4.5028-30.23v-4e-3c5.9972-10.389 11.063-14.408 23.925-19.01 12.862-4.6024 33.877-7.4201 61.681-7.4201z" style="fill:#f86734;stroke-miterlimit:10;stroke-width:.21004"/><path d="m1590.8 164.78h18.872a3.3738 3.3738 0 0 1 3.3738 3.3562v44.51a3.3738 3.3738 0 0 1-3.3738 3.3738h-18.872a3.3738 3.3738 0 0 1-3.3739-3.3738v-44.51a3.3738 3.3738 0 0 1 3.3739-3.3562z" style="fill:#3ddc84;stroke-width:.21004"/><path d="m1590.5 137.25h19.364a3.1278 3.1278 0 0 1 3.1278 3.1278v6.5544a3.1278 3.1278 0 0 1-3.1278 3.1278h-19.364a3.1278 3.1278 0 0 1-3.1279-3.1278v-6.5544a3.1278 3.1278 0 0 1 3.1279-3.1278z" style="fill:#3ddc84;stroke-width:.21004"/><path d="m1600.2 76.71c-10.614 0-19.206 8.3643-19.206 18.661v23.019c0 1.9856 1.6167 3.6022 3.6023 3.6022s3.6023-1.6166 3.6023-3.6022v-6.2029c0-3.9888 3.2332-7.2045 7.2045-7.2045h9.6118c3.9889 0 7.2046 3.2332 7.2046 7.2045v6.2029c0 1.9856 1.6166 3.6022 3.6022 3.6022 1.9857 0 3.6023-1.6166 3.6023-3.6022v-23.019c0-10.297-8.6103-18.661-19.206-18.661z" style="fill:#3ddc84;stroke-width:.21004"/></g><g transform="matrix(8.3662 0 0 8.3662 -240.54 -391.54)" fill="#FFFFFFFF" style="stroke-width:.11953"><path d="m159.03 176.91h4.04v4.04h-4.04z" style="fill:#fff;stroke-width:.11953"/><path d="m188.8 275.73h4.04v4.04h-4.04z" style="fill:#fff;stroke-width:.11953"/><path d="m373.41 158.93h4.04v4.04h-4.04z" style="fill:#fff;stroke-width:.11953"/><path d="m112.1 129.34h4.04v4.04h-4.04z" style="fill:#fff;stroke-width:.11953"/><path d="m285.93 252.22h4.04v4.04h-4.04z" style="fill:#fff;stroke-width:.11953"/><path d="m318.96 218.84h4.04v4.04h-4.04z" style="fill:#fff;stroke-width:.11953"/><path d="m294.05 288.55h4.04v4.04h-4.04z" style="fill:#fff;stroke-width:.11953"/><path d="m330.82 263.31h8.08v8.08h-8.08z" style="fill:#fff;stroke-width:.11953"/><path d="m188.8 298.95h4.04v4.04h-4.04z" style="fill:#fff;stroke-width:.11953"/><path d="m224.18 216.82h8.08v8.08h-8.08z" style="fill:#fff;stroke-width:.11953"/><path d="m272.1 318.9h8.08v8.08h-8.08z" style="fill:#fff;stroke-width:.11953"/><path d="m293.34 339.25h8.08v8.08h-8.08z" style="fill:#fff;stroke-width:.11953"/><path d="m165.09 236.28h8.08v8.08h-8.08z" style="fill:#fff;stroke-width:.11953"/><path d="m378.92 192h8.08v8.08h-8.08z" style="fill:#fff;stroke-width:.11953"/><path d="m204.28 314.86h8.08v8.08h-8.08z" style="fill:#fff;stroke-width:.11953"/></g></svg>
